<svg fill="none" viewBox="0 0 60 60" xmlns="http://www.w3.org/2000/svg" xmlns:xlink="http://www.w3.org/1999/xlink"><mask id="a" height="60" maskUnits="userSpaceOnUse" width="60" x="0" y="0"><path d="m30 60c16.569 0 30-13.431 30-30s-13.431-30-30-30-30 13.431-30 30 13.431 30 30 30z" fill="#fff"/></mask><g mask="url(#a)"><path d="m30 60c16.569 0 30-13.431 30-30s-13.431-30-30-30-30 13.431-30 30 13.431 30 30 30z" fill="#fff"/><path clip-rule="evenodd" d="m30.418-2.146s10.995.791 15.098 2.772a64772.9 64772.9 0 0 1 -16.79 16.78l-7.368 3.502-3.952 7.818s-9.659 9.654-15.744 15.737c-1.84-3.82-4.462-15.035-4.462-15.035l5.537-24.558 27.68-7.016z" fill="#efefef" fill-rule="evenodd"/><path d="m32.512 39.163-4.385 4.384.956.956 4.385-4.385zm10.634-10.876-4.387 4.387 1.017 1.017 4.387-4.386z" fill="#04b784"/><path d="m43.302 28.443-4.387 4.387-12.877-12.736-6.227 6.227 12.736 12.877-4.387 4.387-18.254-18.113 15.283-15.283z" fill="#70c8b7"/><path d="m9.906 36.226 4.528-4.528 13.585 13.585 6.226-6.226-13.585-13.585 4.529-4.529 13.584 13.585 6.227-6.226-13.585-13.585 4.528-4.528 18.963 18.961-10.756 10.756-15.282 15.283z" fill="#009788"/><path d="m25.192 20.94-4.532 4.533.81.81 4.532-4.532-.81-.81zm10.753-10.747-4.526 4.525.8.8 4.526-4.525z" fill="#007c6d"/></g></svg>