<svg xmlns="http://www.w3.org/2000/svg" viewBox="0 0 66.87 63.2"><defs><style>.cls-1{fill:#f4f6f8;}.cls-2{fill:#e8eaf1;}.cls-3{fill:#fff;}.cls-4{fill:#1a1a35;}.cls-5{fill:none;stroke:#f18a8a;stroke-linecap:round;stroke-linejoin:round;stroke-width:0.75px;}</style></defs><title>Asset 8</title><g id="Layer_2" data-name="Layer 2"><g id="Layer_1-2" data-name="Layer 1"><path class="cls-1" d="M4,44.61C.88,37.18-1.49,30.24,1.11,23.1,4.17,14.7,13.18,6.43,22.29,2.64A33.79,33.79,0,0,1,43.12.9C52.71,3.18,59.28,8,63.25,17.54,66,24.12,68,32.81,66.2,39.28c-2.59,9.45-6.05,15-16,19.19-9.47,3.94-22.86,7.35-31.46,1.87C12.6,56.45,6.92,51.69,4,44.61Z"/><path class="cls-2" d="M57.2,33.91l2.49,1.46a1.72,1.72,0,0,1,.51,2.37L52.1,51.51a1.72,1.72,0,0,1-2.32.7L23.11,36.52s-.14-.36-.47-1.32"/><path class="cls-3" d="M22.64,18.86c3.45-1.18,6.39-2.21,6.43-2.2L57.73,28.33a1.72,1.72,0,0,1,.85,2.27l-6,14.8a1.72,1.72,0,0,1-2.19,1L21.7,34.75c-.06,0-4.06-7.88-5.86-11.53-.67-1.35-.2-2,1-2.41l2.4-.8"/><path class="cls-4" d="M22.62,18.82l3.18-1.19L27.4,17l.8-.29.4-.14.2-.07.1,0a.4.4,0,0,1,.21,0l6.34,2.48c4.2,1.68,8.41,3.35,12.59,5.1l6.25,2.66L57.41,28a3,3,0,0,1,.79.41,1.77,1.77,0,0,1,.53.75,2.17,2.17,0,0,1-.15,1.74c-1.74,4.18-3.4,8.39-5.05,12.6l-.62,1.58a2.38,2.38,0,0,1-1.1,1.45,1.88,1.88,0,0,1-.94.23,2.47,2.47,0,0,1-.9-.24l-1.58-.62-6.31-2.5c-4.2-1.68-8.4-3.36-12.59-5.09l-6.28-2.59-1.56-.66A.36.36,0,0,1,21.5,35a.85.85,0,0,1-.17-.21l-.1-.19L21,34.22l-.38-.76-1.51-3-3-6.1a13.52,13.52,0,0,1-.7-1.57,1.72,1.72,0,0,1,0-.92,1.3,1.3,0,0,1,.56-.73,6.52,6.52,0,0,1,1.61-.62l1.62-.5a0,0,0,0,1,0,0,0,0,0,0,1,0,0l-1.6.58a6.43,6.43,0,0,0-1.52.66,1.1,1.1,0,0,0-.35,1.36c.18.49.48,1,.73,1.5l3.13,6,1.58,3,.4.75.2.37.1.18c0,.06,0,0-.06,0s0,0,0,0l1.58.62,6.3,2.53C34,39.31,38.15,41,42.34,42.78L48.6,45.4l1.56.66a2,2,0,0,0,.72.22,1.38,1.38,0,0,0,.69-.15,1.9,1.9,0,0,0,.91-1.18l.66-1.56c1.76-4.17,3.52-8.34,5.19-12.55a1.9,1.9,0,0,0,.13-1.54,1.49,1.49,0,0,0-.45-.62,2.55,2.55,0,0,0-.72-.35l-3.16-1.23-6.33-2.47C43.6,23,39.42,21.22,35.24,19.48L29,16.85c.13,0,0,0,0,0l-.1,0-.2.06-.4.13-.81.26-1.62.51-3.24,1a0,0,0,0,1,0-.07Z"/><path class="cls-4" d="M21.14,21.45a2.92,2.92,0,0,1,1.72.52,2,2,0,0,1,.79,1.72,2.53,2.53,0,0,1-.87,1.64,2.89,2.89,0,0,1-1.64.76,2.39,2.39,0,0,1-2.6-2.4A2.15,2.15,0,0,1,19.41,22,2.92,2.92,0,0,1,21.14,21.45Zm0,.07a1.68,1.68,0,0,0-1.38.78,2.45,2.45,0,0,0-.42,1.38,2,2,0,0,0,.49,1.3,2.2,2.2,0,0,0,1.3.69,1.69,1.69,0,0,0,1.47-.52A1.87,1.87,0,0,0,23,23.69a3,3,0,0,0-.5-1.39A1.69,1.69,0,0,0,21.14,21.53Z"/><path class="cls-4" d="M21.1,23.68a5.46,5.46,0,0,0,.1-3.14,3.31,3.31,0,0,0-2.2-2,4.59,4.59,0,0,0-3-.12,3.4,3.4,0,0,0-1.25.8,4.44,4.44,0,0,0-1,1.19,4.25,4.25,0,0,0-.43,3,11.08,11.08,0,0,0,1.09,3c.47,1,1,1.92,1.52,2.9a5.68,5.68,0,0,1,.81,3.23,2.53,2.53,0,0,1-.92,1.5,2.73,2.73,0,0,1-1.65.7,2.55,2.55,0,0,1-1.68-.7,5.67,5.67,0,0,1-1.08-1.36,16.84,16.84,0,0,1-1.94-6.36A14.22,14.22,0,0,1,9.45,23a5.08,5.08,0,0,1,1.47-3.09,3.6,3.6,0,0,1,3.25-.87,6.79,6.79,0,0,1,2.93,1.52,0,0,0,0,1,0,.05,0,0,0,0,1-.05,0,6.92,6.92,0,0,0-2.95-1.21,3.17,3.17,0,0,0-2.78.92,4.43,4.43,0,0,0-1.16,2.75,15.58,15.58,0,0,0,.1,3.18,18.37,18.37,0,0,0,1.78,6.1c.5.88,1.22,1.77,2.15,1.82a2.42,2.42,0,0,0,2.16-1.69,5.06,5.06,0,0,0-.64-3c-.46-1-1-1.93-1.51-2.9A14.52,14.52,0,0,1,13,23.52a4.69,4.69,0,0,1,.3-3.37,5.08,5.08,0,0,1,1.06-1.37,3.58,3.58,0,0,1,1.49-.94,5.19,5.19,0,0,1,3.41.2,3.69,3.69,0,0,1,2.37,2.38,5.2,5.2,0,0,1-.4,3.28,0,0,0,0,1,0,0A0,0,0,0,1,21.1,23.68Z"/><line class="cls-5" x1="43.89" y1="27.36" x2="32.97" y2="33.67"/><ellipse class="cls-5" cx="36.64" cy="25.65" rx="2.14" ry="1.68" transform="translate(-3.89 44.55) rotate(-60)"/><ellipse class="cls-5" cx="40.47" cy="35.52" rx="2.14" ry="1.68" transform="translate(-10.53 52.81) rotate(-60)"/></g></g></svg>