<svg xmlns="http://www.w3.org/2000/svg" width="11.531" height="54" viewBox="0 0 11.531 54">
  <metadata><?xpacket begin="﻿" id="W5M0MpCehiHzreSzNTczkc9d"?>
<x:xmpmeta xmlns:x="adobe:ns:meta/" x:xmptk="Adobe XMP Core 5.6-c138 79.159824, 2016/09/14-01:09:01        ">
   <rdf:RDF xmlns:rdf="http://www.w3.org/1999/02/22-rdf-syntax-ns#">
      <rdf:Description rdf:about=""/>
   </rdf:RDF>
</x:xmpmeta>
                                                                                                    
                                                                                                    
                                                                                                    
                                                                                                    
                                                                                                    
                                                                                                    
                                                                                                    
                                                                                                    
                                                                                                    
                                                                                                    
                                                                                                    
                                                                                                    
                                                                                                    
                                                                                                    
                                                                                                    
                                                                                                    
                                                                                                    
                                                                                                    
                                                                                                    
                                                                                                    
                           
<?xpacket end="w"?></metadata>
<defs>
    <style>
      .cls-1 {
        fill: #06d6a0;
        fill-rule: evenodd;
      }
    </style>
  </defs>
  <path id="_Splitter" data-name="&amp; Splitter" class="cls-1" d="M706.405,277.943l1.805,2.42-1.453,1.034-1.518-2a6.954,6.954,0,0,1-1.239.988V299h-2V281.187a5.493,5.493,0,0,1-.985.1c-2.883,0-4.335-1.782-4.335-4.159a6.348,6.348,0,0,1,2.97-5.149,6.819,6.819,0,0,1-1.452-3.916,3.264,3.264,0,0,1,3.521-3.454c0.095,0,.188,0,0.281.01V245h2v20.334a3.135,3.135,0,0,1,1.041,2.531,5.208,5.208,0,0,1-.176,1.342l-0.865-.13v5.661l1.217,1.664a11.91,11.91,0,0,0,.858-4.73l1.673,0.242A14.761,14.761,0,0,1,706.405,277.943Zm-7.7-1.057c0,1.937,1.144,2.751,2.487,2.751A3.17,3.17,0,0,0,702,279.53v-4.491l-1.337-1.783A4.614,4.614,0,0,0,698.7,276.886Zm3.3-10.647a1.966,1.966,0,0,0-.3-0.025,1.565,1.565,0,0,0-1.629,1.761,5.614,5.614,0,0,0,1.255,3.1L702,272v-5.765Zm2,11.466v0.529c0.075-.079.153-0.14,0.227-0.226Z" transform="translate(-696.688 -245)"/>
</svg>
