<svg xmlns="http://www.w3.org/2000/svg" viewBox="0 0 68.68 64.87"><defs><style>.cls-1{fill:#f4f6f8;}.cls-2{fill:#1a1a35;}.cls-3{fill:#5e6cb1;}.cls-4{fill:#fff;}.cls-5{fill:#d3d7e6;}.cls-6{fill:#e8eaf1;}.cls-7{fill:none;}</style></defs><title>Asset 9</title><g id="Layer_2" data-name="Layer 2"><g id="Layer_1-2" data-name="Layer 1"><path class="cls-1" d="M53.08,59.6c-6.18,5.15-16.22,5.54-23.81,5.17-8.93-.44-14.75-4.93-21.07-12.5C3.42,46.52,2.64,38.84,2.18,32c-.66-9.83,1.3-18.46,9.25-25.08C16.9,2.37,28,.23,34.75,0,44.54-.3,56.44,4.16,63.37,12.48c6.57,7.88,9,21.33,6.3,31.16C67.76,50.62,59,54.69,53.08,59.6Z" transform="translate(-2.07)"/><path class="cls-2" d="M55.15,44.36c-2.07.07-4.14.16-6.22.19l-1.55,0a1.13,1.13,0,0,1-.91-.27,1,1,0,0,1-.27-.47,2.56,2.56,0,0,1,0-.45l0-3.11c-.07-4.14,0-8.29.11-12.43.06-2.07.07-4.14.09-6.22V19.3a.81.81,0,0,1,.52-.7,2.89,2.89,0,0,1,.82-.06h.78l1.55,0,3.11-.06,1.55,0a8.84,8.84,0,0,1,1.6,0,4.84,4.84,0,0,1,2.79,1.66,17.48,17.48,0,0,1,1.8,2.61h0v0Q63,27.1,65.06,31.5v0a11.48,11.48,0,0,1,.76,4.12c0,1.39-.16,2.74-.23,4.11l-.11,2,0,1,0,.51a1.89,1.89,0,0,1-.06.57,1,1,0,0,1-1,.55l-1,0-2-.07v-.07l2-.07c.65-.08,1.52.14,1.7-.43a1.73,1.73,0,0,0,0-.45V39.74c0-1.37.11-2.74.09-4.08a12.12,12.12,0,0,0-.79-3.88l0,0q-2.11-4.37-4.15-8.76l0,0a16.87,16.87,0,0,0-1.69-2.53A4.23,4.23,0,0,0,56.16,19a8.73,8.73,0,0,0-1.5-.09l-1.55,0L50,18.84c-1,0-2.12-.08-3.06,0a.55.55,0,0,0-.36.47v2.32c0,2.07,0,4.14.09,6.22.1,4.14.18,8.29.11,12.43l0,3.11c0,.31,0,.4.11.53s.23.14.53.14l1.55,0c2.07,0,4.14.12,6.22.19Z" transform="translate(-2.07)"/><path class="cls-2" d="M48.42,33.35a1.29,1.29,0,0,1,1-.27,4.07,4.07,0,0,0,.51.19,1,1,0,0,0,.51-.08,2.61,2.61,0,0,1,1-.19,2.08,2.08,0,0,1,1,.36,0,0,0,0,1,0,.06h0a2.08,2.08,0,0,1-1,.36,2.61,2.61,0,0,1-1-.19,1,1,0,0,0-.51-.08,4.09,4.09,0,0,0-.51.19,1.29,1.29,0,0,1-1-.27,0,0,0,0,1,0-.07Z" transform="translate(-2.07)"/><path class="cls-3" d="M48.19,20.09V31.36l9.38-.2a3.89,3.89,0,0,0,2.83-1.05l.45-.47c.13-.2.13-.55-.18-1l-2.81-6.05c-.8-1.19-1.21-2.48-2.93-2.48Z" transform="translate(-2.07)"/><path class="cls-2" d="M48.21,20.12c.1,2,.17,3.85.23,5.72s.09,3.69.05,5.52L48.18,31c1.09,0,2.19,0,3.28,0s2.19,0,3.28,0,2.2,0,3.27-.13a3.73,3.73,0,0,0,2.62-1.54l0,0c.08-.12,0-.43-.2-.68h0l0,0c-1-2-2-4-2.88-6l0,.05a7.22,7.22,0,0,0-1.5-2,2,2,0,0,0-1.09-.32l-1.3,0C51.89,20.33,50.1,20.21,48.21,20.12Zm-.05-.05c1.72-.09,3.53-.21,5.39-.27l1.4,0a2.73,2.73,0,0,1,1.48.38,7.16,7.16,0,0,1,1.76,2.21v0l0,0c1,2,1.84,4,2.74,6.08l0,0a2,2,0,0,1,.26.59,1,1,0,0,1-.1.76v0l0,0a4.2,4.2,0,0,1-3,1.47l-3.29,0c-1.09,0-2.19.07-3.28.15s-2.19.15-3.28.18h-.32v-.33c0-1.92,0-3.84.05-5.74S48.06,21.85,48.16,20.07Z" transform="translate(-2.07)"/><path class="cls-4" d="M46.43,35.9H15.17V16.69a.48.48,0,0,1,.48-.47H45.94a.48.48,0,0,1,.48.47Z" transform="translate(-2.07)"/><path class="cls-2" d="M46.45,35.93c-5.1.11-10.29.23-15.54.26-2.62,0-5.24.05-7.87,0s-5.26-.06-7.87-.1H15V35.9c.13-5.85.12-11.7,0-17.55l0-1.1v-.55a.69.69,0,0,1,.39-.63A1.61,1.61,0,0,1,16,16h1.65L22,15.92l8.78-.07q4.39,0,8.78,0h6.31a.94.94,0,0,1,.42.08.84.84,0,0,1,.48.77v.56l0,1.11Zm-.05-.05-.3-17.55,0-1.08v-.54a.12.12,0,0,0-.08-.11H39.58q-4.39,0-8.78,0L22,16.52l-4.39-.06H16a1.54,1.54,0,0,0-.45,0,.26.26,0,0,0-.16.25v.55l0,1.1c-.09,5.85-.09,11.7,0,17.55l-.21-.21c2.59,0,5.17-.11,7.75-.1s5.16,0,7.76,0C35.86,35.65,41.08,35.77,46.4,35.88Z" transform="translate(-2.07)"/><polyline class="cls-5" points="17.51 44.32 13.35 44.32 13.35 35.91 44.36 35.91 44.36 44.32 27.66 44.32"/><path class="cls-2" d="M19.57,44.36l-4.16.1h-.13v-.14c-.07-1.4-.08-2.8-.12-4.21s0-2.8-.06-4.21V35.6h.32q3.88-.05,7.75.06c2.58.08,5.17.14,7.75.14,5.17,0,10.34-.23,15.51-.25h.36v.37c0,2.8,0,5.61,0,8.41v.38h-.38c-2.78,0-5.57-.06-8.35-.1s-5.57-.14-8.35-.25v-.07c2.78-.11,5.57-.19,8.35-.25s5.57-.11,8.35-.1l-.38.38c0-2.8,0-5.61,0-8.41l.37.37c-5.17,0-10.34-.23-15.51-.25-2.58,0-5.17.06-7.75.14s-5.17.1-7.75.06l.31-.31c0,1.4,0,2.8-.06,4.21s-.06,2.8-.12,4.21l-.13-.13,4.16.1Z" transform="translate(-2.07)"/><path class="cls-2" d="M32.57,40.08a8.33,8.33,0,0,1,2.78-.27c.46.05.93.16,1.39.19a6.91,6.91,0,0,0,1.39-.08,18.11,18.11,0,0,1,2.78-.19,12.93,12.93,0,0,1,2.78.36,0,0,0,0,1,0,.08,12.93,12.93,0,0,1-2.78.36,18.11,18.11,0,0,1-2.78-.19,6.92,6.92,0,0,0-1.39-.08c-.46,0-.93.14-1.39.19a8.33,8.33,0,0,1-2.78-.27,0,0,0,0,1,0,0Z" transform="translate(-2.07)"/><ellipse class="cls-2" cx="23.44" cy="44.32" rx="5.93" ry="5.79"/><path class="cls-2" d="M25.5,38.49A6.69,6.69,0,0,1,29.84,40a5.43,5.43,0,0,1,1.91,4.29,6.09,6.09,0,0,1-2,4.21,6.71,6.71,0,0,1-4.26,1.78,6.07,6.07,0,0,1-4.41-1.62,5.94,5.94,0,0,1-1.92-4.37,5.68,5.68,0,0,1,2-4.3A6.68,6.68,0,0,1,25.5,38.49Zm0,.07a5.44,5.44,0,0,0-4,1.81A5.8,5.8,0,0,0,20,44.32a5.49,5.49,0,0,0,1.61,3.86,6,6,0,0,0,3.92,1.72,5.42,5.42,0,0,0,4.08-1.56,5.34,5.34,0,0,0,1.54-4,6.15,6.15,0,0,0-1.62-3.95A5.44,5.44,0,0,0,25.5,38.57Z" transform="translate(-2.07)"/><ellipse class="cls-6" cx="23.44" cy="44.32" rx="3.21" ry="3.13"/><path class="cls-6" d="M25.5,41.15a4,4,0,0,1,2.42.77,2.84,2.84,0,0,1,1.1,2.4,3.41,3.41,0,0,1-1.18,2.31,4,4,0,0,1-2.34,1,3.36,3.36,0,0,1-3.61-3.34,3,3,0,0,1,1.18-2.4A4,4,0,0,1,25.5,41.15Zm0,.08a2.7,2.7,0,0,0-2.08,1,3.25,3.25,0,0,0-.73,2,2.87,2.87,0,0,0,.8,2,3.23,3.23,0,0,0,2,1,2.71,2.71,0,0,0,2.17-.79,2.76,2.76,0,0,0,.73-2.14,3.66,3.66,0,0,0-.81-2.06A2.71,2.71,0,0,0,25.5,41.23Z" transform="translate(-2.07)"/><ellipse class="cls-2" cx="54.34" cy="44.32" rx="5.93" ry="5.79"/><path class="cls-2" d="M56.41,38.49A6.68,6.68,0,0,1,60.74,40a5.43,5.43,0,0,1,1.91,4.29,6.09,6.09,0,0,1-2,4.21,6.71,6.71,0,0,1-4.26,1.78A6.07,6.07,0,0,1,52,48.69a5.94,5.94,0,0,1-1.92-4.37,5.68,5.68,0,0,1,2-4.3A6.69,6.69,0,0,1,56.41,38.49Zm0,.07a5.44,5.44,0,0,0-4,1.81,5.8,5.8,0,0,0-1.54,3.94,5.49,5.49,0,0,0,1.61,3.86,6,6,0,0,0,3.92,1.72,5.42,5.42,0,0,0,4.08-1.56,5.34,5.34,0,0,0,1.54-4,6.15,6.15,0,0,0-1.62-3.95A5.44,5.44,0,0,0,56.41,38.57Z" transform="translate(-2.07)"/><ellipse class="cls-6" cx="54.34" cy="44.32" rx="3.21" ry="3.13"/><path class="cls-6" d="M56.41,41.15a4,4,0,0,1,2.42.77,2.84,2.84,0,0,1,1.1,2.4,3.41,3.41,0,0,1-1.18,2.31,4,4,0,0,1-2.34,1,3.36,3.36,0,0,1-3.61-3.34A3,3,0,0,1,54,41.92,4,4,0,0,1,56.41,41.15Zm0,.08a2.7,2.7,0,0,0-2.08,1,3.25,3.25,0,0,0-.73,2,2.87,2.87,0,0,0,.8,2,3.23,3.23,0,0,0,2,1,2.71,2.71,0,0,0,2.17-.79,2.76,2.76,0,0,0,.73-2.14,3.66,3.66,0,0,0-.81-2.06A2.71,2.71,0,0,0,56.41,41.23Z" transform="translate(-2.07)"/><path class="cls-5" d="M13.73,18.27a3.9,3.9,0,0,1-1.88.27c-.31-.05-.63-.16-.94-.19a3.19,3.19,0,0,0-.94.08,8.36,8.36,0,0,1-1.88.19,6.1,6.1,0,0,1-1.88-.36,0,0,0,0,1,0-.05l0,0a6.11,6.11,0,0,1,1.88-.36A8.36,8.36,0,0,1,10,18a3.19,3.19,0,0,0,.94.08c.31,0,.63-.14.94-.19a3.9,3.9,0,0,1,1.88.27,0,0,0,0,1,0,.05Z" transform="translate(-2.07)"/><path class="cls-7" d="M0,20.33" transform="translate(-2.07)"/><path class="cls-7" d="M9.95,20.33" transform="translate(-2.07)"/><path class="cls-5" d="M13.73,26.16a2.31,2.31,0,0,1-1.42.27,7.16,7.16,0,0,0-.71-.19,1.85,1.85,0,0,0-.71.08,4.85,4.85,0,0,1-1.42.19A3.65,3.65,0,0,1,8,26.16a0,0,0,0,1,0-.06l0,0a3.65,3.65,0,0,1,1.42-.36,4.85,4.85,0,0,1,1.42.19,1.85,1.85,0,0,0,.71.08,7.16,7.16,0,0,0,.71-.19,2.31,2.31,0,0,1,1.42.27,0,0,0,0,1,0,.06Z" transform="translate(-2.07)"/><path class="cls-7" d="M2.76,28.22" transform="translate(-2.07)"/><path class="cls-7" d="M9.95,28.22" transform="translate(-2.07)"/><path class="cls-5" d="M13.73,34a1.15,1.15,0,0,1-1,.27,3.69,3.69,0,0,0-.48-.19.88.88,0,0,0-.48.08,2.32,2.32,0,0,1-1,.19,1.87,1.87,0,0,1-1-.36,0,0,0,0,1,0-.07h0a1.87,1.87,0,0,1,1-.36,2.31,2.31,0,0,1,1,.19.88.88,0,0,0,.48.08,3.69,3.69,0,0,0,.48-.19,1.15,1.15,0,0,1,1,.27,0,0,0,0,1,0,.07Z" transform="translate(-2.07)"/><path class="cls-7" d="M5.52,36.11" transform="translate(-2.07)"/><path class="cls-7" d="M9.95,36.11" transform="translate(-2.07)"/><path class="cls-5" d="M13.73,41.93c-.17.26-.34.33-.51.27S13.05,42,13,42a.28.28,0,0,0-.25.08.75.75,0,0,1-.51.19.79.79,0,0,1-.51-.36.06.06,0,0,1,0-.07.79.79,0,0,1,.51-.36.75.75,0,0,1,.51.19.28.28,0,0,0,.25.08c.08,0,.17-.14.25-.19s.34,0,.51.27A.07.07,0,0,1,13.73,41.93Z" transform="translate(-2.07)"/><path class="cls-7" d="M9.95,44" transform="translate(-2.07)"/><path class="cls-2" d="M19.78,39.55c-.2.26-.4.33-.61.27a1.94,1.94,0,0,0-.3-.19.38.38,0,0,0-.3.08,1,1,0,0,1-.61.19,1,1,0,0,1-.61-.36.06.06,0,0,1,0-.08,1,1,0,0,1,.61-.36,1,1,0,0,1,.61.19.38.38,0,0,0,.3.08,1.94,1.94,0,0,0,.3-.19c.2-.06.4,0,.61.27A.06.06,0,0,1,19.78,39.55Z" transform="translate(-2.07)"/></g></g></svg>