<svg xmlns="http://www.w3.org/2000/svg" viewBox="0 0 65.43 64.57"><defs><style>.cls-1{fill:#f4f6f8;}.cls-2{fill:#6f7cbc;}.cls-3{fill:#1a1a35;}.cls-4{fill:#4e61aa;}.cls-5{fill:#fff;}.cls-6{fill:#e8eaf1;}.cls-7{fill:#81bc45;}.cls-8{fill:#f18a8a;}</style></defs><title>Asset 14</title><g id="Layer_2" data-name="Layer 2"><g id="Layer_1-2" data-name="Layer 1"><path class="cls-1" d="M1.89,20.2C4.85,12.71,8,6.08,14.83,2.77c8-3.89,20.27-3.54,29.44.09A33.79,33.79,0,0,1,60.43,16.14c5.29,8.32,6.64,16.35,2.83,26-2.62,6.62-7.25,14.24-13,17.64-8.45,5-14.82,6.56-24.88,2.57C15.79,58.54,3.82,51.65,1.48,41.73-.18,34.69-.93,27.32,1.89,20.2Z"/><path class="cls-2" d="M40.37,13.66l1.29.28c.59.14,1.11.49,1.11,1.07V31c2.78,0,2.6,1.31,2.6,2.57V52.14a1.1,1.1,0,0,1-1.11,1.07H24.4c-2.49,0-6.45-1.1-5.76-9.11.3-3.43.48-4.68,1.15-10.64.79-7-3.12-7.32-1.86-18.09A1.3,1.3,0,0,1,19,14.3q.92-.22,1.84-.4"/><path class="cls-3" d="M40.38,13.62l1.17.23a1.85,1.85,0,0,1,1.1.53,1,1,0,0,1,.24.6l0,.6,0,1.19L43,21.51c.06,3.16.06,6.33.08,9.49l-.32-.32a5.6,5.6,0,0,1,1.48.17,1.87,1.87,0,0,1,1.27,1,3.9,3.9,0,0,1,.18,1.51v1.4c0,1.87,0,3.73-.06,5.6-.05,3.73-.13,7.47-.14,11.2,0,.24,0,.45,0,.72a1.18,1.18,0,0,1-.36.68,1.26,1.26,0,0,1-.68.33c-.26,0-.48,0-.72,0h-2.8l-5.6.05-11.21.13a6.07,6.07,0,0,1-2.84-.7,5.12,5.12,0,0,1-2.08-2.11,11.14,11.14,0,0,1-1-5.64c0-1,.15-1.88.25-2.81l.31-2.79.61-5.57a22.44,22.44,0,0,0,.18-2.74,13.32,13.32,0,0,0-.37-2.7A55.52,55.52,0,0,1,17.74,23a23.91,23.91,0,0,1-.16-5.63c0-.47.11-.93.16-1.4l.09-.7a1.19,1.19,0,0,1,.35-.67,2.4,2.4,0,0,1,1.33-.52l1.38-.27a0,0,0,0,1,0,0,0,0,0,0,1,0,0l-1.36.33a2.25,2.25,0,0,0-1.22.53c-.32.3-.27.78-.31,1.25s-.07.93-.09,1.39a23.5,23.5,0,0,0,.3,5.53,55.7,55.7,0,0,0,1.56,5.35,14,14,0,0,1,.46,2.83A19.44,19.44,0,0,1,20.11,34c-.37,3.7-.83,7.43-1.13,11.11a10.44,10.44,0,0,0,.86,5.27,4.41,4.41,0,0,0,1.78,1.85,5.67,5.67,0,0,0,2.53.67L35.33,53l5.6.05h2.8c.23,0,.48,0,.68,0a1,1,0,0,0,.55-.27.94.94,0,0,0,.28-.54c0-.2,0-.46,0-.68,0-3.73-.09-7.47-.14-11.2q-.05-2.8-.06-5.6v-1.4a3.37,3.37,0,0,0-.14-1.25c-.26-.67-1.26-.8-2.13-.82h0a.32.32,0,0,1-.31-.32c0-3.16,0-6.33.08-9.49l.08-4.75,0-1.19c0-.4.09-.8-.15-1.07a1.7,1.7,0,0,0-1-.53l-1.15-.28a0,0,0,0,1,0,0A0,0,0,0,1,40.38,13.62Z"/><path class="cls-3" d="M42.81,28.15a34,34,0,0,1,.27,5.64c-.05.94-.16,1.88-.19,2.82s0,1.88.08,2.82a58.28,58.28,0,0,1-.17,11.28,0,0,0,0,1-.07,0,58.28,58.28,0,0,1-.17-11.28c.07-.94.11-1.88.08-2.82s-.14-1.88-.19-2.82a34,34,0,0,1,.27-5.64,0,0,0,0,1,.07,0Z"/><path class="cls-4" d="M41.17,53.27V52A1.1,1.1,0,0,0,40.05,51H25.51A1.1,1.1,0,0,0,24.4,52v1"/><path class="cls-3" d="M41.13,53.27c-.07-.42-.12-.85-.16-1.26a.85.85,0,0,0-.6-.7,5.88,5.88,0,0,0-1.15,0c-.42,0-.84,0-1.26,0-.84-.05-1.68-.16-2.53-.19a22.72,22.72,0,0,0-2.53.08c-1.68.14-3.37.19-5.05.19-.82,0-1.73-.07-2.48-.09a.89.89,0,0,0-.76.55c-.09.32-.11.81-.18,1.21h-.07l-.08-.63a2.25,2.25,0,0,1,0-.68,1.32,1.32,0,0,1,1-1c.94-.09,1.71-.11,2.57-.13,1.68,0,3.37.05,5.05.19a22.73,22.73,0,0,0,2.53.08c.84,0,1.68-.14,2.53-.19.42,0,.84,0,1.26,0h.63a1.83,1.83,0,0,1,.73.13A1.3,1.3,0,0,1,41.36,52c0,.43-.09.84-.16,1.27Z"/><path class="cls-5" d="M21.7,20H39.24a1.1,1.1,0,0,1,1.12,1.07v5.69a1.1,1.1,0,0,1-1.12,1.07H23.48a2.25,2.25,0,0,1-1.61-1.07,11.3,11.3,0,0,1-1.49-5.69C20.38,20.47,21.09,20,21.7,20Z"/><path class="cls-3" d="M21.7,19.95c2.18,0,4.35-.11,6.53-.2s4.35-.11,6.53-.08l3.26.1.82,0h.41a1.32,1.32,0,0,1,.45.1,1.28,1.28,0,0,1,.67.61,1.68,1.68,0,0,1,.12.86c0,1.09,0,2.18,0,3.26,0,.54,0,1.09,0,1.63a2.67,2.67,0,0,1,0,.87,1.29,1.29,0,0,1-.61.72A1.76,1.76,0,0,1,39,28l-.82,0-1.63,0-3.26.06c-2.18,0-4.35.06-6.53,0-1.09,0-2.17,0-3.27,0-1.46-.2-2-1.47-2.4-2.46a12.13,12.13,0,0,1-.68-3.23,9.35,9.35,0,0,1,0-1.66A1.43,1.43,0,0,1,21.7,19.95Zm0,.08a1.34,1.34,0,0,0-1.22.83,7.12,7.12,0,0,0,.11,1.59,11.29,11.29,0,0,0,.93,3.07,6.25,6.25,0,0,0,.8,1.31,1.77,1.77,0,0,0,1.15.63c1.08,0,2.17,0,3.26,0,2.18,0,4.35,0,6.53,0l3.26.06,1.63,0,.82,0a1.34,1.34,0,0,0,.7-.08.9.9,0,0,0,.45-.48,2.45,2.45,0,0,0,.07-.75c0-.54,0-1.09,0-1.63,0-1.09,0-2.18,0-3.26a1.43,1.43,0,0,0-.11-.73.94.94,0,0,0-.53-.45,2.19,2.19,0,0,0-.75,0l-.82,0-3.26.1c-2.18,0-4.35,0-6.53-.08S23.88,20,21.7,20Z"/><path class="cls-5" d="M23.24,31.34a1,1,0,0,1,.86-.27,3.1,3.1,0,0,0,.43.19.71.71,0,0,0,.43-.08,1.88,1.88,0,0,1,.86-.19,1.57,1.57,0,0,1,.86.36,0,0,0,0,1,0,.07h0a1.57,1.57,0,0,1-.86.36,1.88,1.88,0,0,1-.86-.19.71.71,0,0,0-.43-.08,3.09,3.09,0,0,0-.43.19,1,1,0,0,1-.86-.27.05.05,0,0,1,0-.07Z"/><path class="cls-6" d="M38.71,17.54V10.33A.73.73,0,0,0,38,9.62H23.32a.73.73,0,0,0-.74.71v7.21"/><path class="cls-3" d="M38.67,17.54c-.14-1.31-.2-2.61-.25-3.92l0-2c0-.33,0-.65,0-1s0-.51-.13-.65A.49.49,0,0,0,38,9.91l-.48,0-1-.05c-.65,0-1.31-.07-2-.09-1.31,0-2.61,0-3.92.08S28,10,26.72,10l-2,0H23.31a.38.38,0,0,0-.21.08c-.14.1-.13.18-.13.59l0,1-.07,2c-.06,1.31-.13,2.61-.26,3.92h-.07c-.12-1.31-.2-2.61-.26-3.92l-.07-2,0-1a3.41,3.41,0,0,1,0-.57,1.12,1.12,0,0,1,.39-.64,1.14,1.14,0,0,1,.69-.26h1.48l2,0c1.31,0,2.61.08,3.92.15s2.61.11,3.92.08c.65,0,1.31,0,2-.09l1-.05.5,0a1,1,0,0,1,1,.8,3.14,3.14,0,0,1,0,.55c0,.33,0,.65,0,1l0,2c0,1.31-.11,2.61-.25,3.92Z"/><path class="cls-5" d="M29.78,31.34a1,1,0,0,1,.86-.27,3.1,3.1,0,0,0,.43.19.71.71,0,0,0,.43-.08,1.88,1.88,0,0,1,.86-.19,1.57,1.57,0,0,1,.86.36,0,0,0,0,1,0,.07h0a1.57,1.57,0,0,1-.86.36,1.88,1.88,0,0,1-.86-.19.71.71,0,0,0-.43-.08,3.09,3.09,0,0,0-.43.19,1,1,0,0,1-.86-.27.05.05,0,0,1,0-.07Z"/><path class="cls-5" d="M35.93,31.34a1,1,0,0,1,.86-.27,3.1,3.1,0,0,0,.43.19.71.71,0,0,0,.43-.08,1.88,1.88,0,0,1,.86-.19,1.57,1.57,0,0,1,.86.36,0,0,0,0,1,0,.07h0a1.57,1.57,0,0,1-.86.36,1.88,1.88,0,0,1-.86-.19.71.71,0,0,0-.43-.08,3.09,3.09,0,0,0-.43.19,1,1,0,0,1-.86-.27.05.05,0,0,1,0-.07Z"/><path class="cls-5" d="M23.24,34.57a1,1,0,0,1,.86-.27,3.1,3.1,0,0,0,.43.19A.71.71,0,0,0,25,34.4a1.88,1.88,0,0,1,.86-.19,1.57,1.57,0,0,1,.86.36,0,0,0,0,1,0,.07h0a1.57,1.57,0,0,1-.86.36,1.88,1.88,0,0,1-.86-.19.71.71,0,0,0-.43-.08,3.09,3.09,0,0,0-.43.19,1,1,0,0,1-.86-.27.05.05,0,0,1,0-.07Z"/><path class="cls-5" d="M29.78,34.57a1,1,0,0,1,.86-.27,3.1,3.1,0,0,0,.43.19.71.71,0,0,0,.43-.08,1.88,1.88,0,0,1,.86-.19,1.57,1.57,0,0,1,.86.36,0,0,0,0,1,0,.07h0a1.57,1.57,0,0,1-.86.36,1.88,1.88,0,0,1-.86-.19.71.71,0,0,0-.43-.08,3.09,3.09,0,0,0-.43.19,1,1,0,0,1-.86-.27.05.05,0,0,1,0-.07Z"/><path class="cls-5" d="M35.93,34.57a1,1,0,0,1,.86-.27,3.1,3.1,0,0,0,.43.19.71.71,0,0,0,.43-.08,1.88,1.88,0,0,1,.86-.19,1.57,1.57,0,0,1,.86.36,0,0,0,0,1,0,.07h0a1.57,1.57,0,0,1-.86.36,1.88,1.88,0,0,1-.86-.19.71.71,0,0,0-.43-.08,3.09,3.09,0,0,0-.43.19,1,1,0,0,1-.86-.27.05.05,0,0,1,0-.07Z"/><path class="cls-5" d="M23.24,37.8a1,1,0,0,1,.86-.27,3.09,3.09,0,0,0,.43.19.71.71,0,0,0,.43-.08,1.88,1.88,0,0,1,.86-.19,1.57,1.57,0,0,1,.86.36,0,0,0,0,1,0,.07h0a1.57,1.57,0,0,1-.86.36A1.88,1.88,0,0,1,25,38a.71.71,0,0,0-.43-.08,3.1,3.1,0,0,0-.43.19,1,1,0,0,1-.86-.27.05.05,0,0,1,0-.07Z"/><path class="cls-5" d="M29.78,37.8a1,1,0,0,1,.86-.27,3.09,3.09,0,0,0,.43.19.71.71,0,0,0,.43-.08,1.88,1.88,0,0,1,.86-.19,1.57,1.57,0,0,1,.86.36,0,0,0,0,1,0,.07h0a1.57,1.57,0,0,1-.86.36A1.88,1.88,0,0,1,31.5,38a.71.71,0,0,0-.43-.08,3.1,3.1,0,0,0-.43.19,1,1,0,0,1-.86-.27.05.05,0,0,1,0-.07Z"/><path class="cls-5" d="M35.93,37.8a1,1,0,0,1,.86-.27,3.09,3.09,0,0,0,.43.19.71.71,0,0,0,.43-.08,1.88,1.88,0,0,1,.86-.19,1.57,1.57,0,0,1,.86.36,0,0,0,0,1,0,.07h0a1.57,1.57,0,0,1-.86.36,1.88,1.88,0,0,1-.86-.19.71.71,0,0,0-.43-.08,3.1,3.1,0,0,0-.43.19,1,1,0,0,1-.86-.27.05.05,0,0,1,0-.07Z"/><path class="cls-5" d="M23.24,41a1,1,0,0,1,.86-.27,3.09,3.09,0,0,0,.43.19.71.71,0,0,0,.43-.08,1.88,1.88,0,0,1,.86-.19,1.57,1.57,0,0,1,.86.36,0,0,0,0,1,0,.07h0a1.57,1.57,0,0,1-.86.36,1.88,1.88,0,0,1-.86-.19.71.71,0,0,0-.43-.08,3.1,3.1,0,0,0-.43.19,1,1,0,0,1-.86-.27.05.05,0,0,1,0-.07Z"/><path class="cls-5" d="M29.78,41a1,1,0,0,1,.86-.27,3.09,3.09,0,0,0,.43.19.71.71,0,0,0,.43-.08,1.88,1.88,0,0,1,.86-.19,1.57,1.57,0,0,1,.86.36,0,0,0,0,1,0,.07h0a1.57,1.57,0,0,1-.86.36,1.88,1.88,0,0,1-.86-.19.71.71,0,0,0-.43-.08,3.1,3.1,0,0,0-.43.19,1,1,0,0,1-.86-.27.05.05,0,0,1,0-.07Z"/><path class="cls-5" d="M35.93,41a1,1,0,0,1,.86-.27,3.09,3.09,0,0,0,.43.19.71.71,0,0,0,.43-.08,1.88,1.88,0,0,1,.86-.19,1.57,1.57,0,0,1,.86.36,0,0,0,0,1,0,.07h0a1.57,1.57,0,0,1-.86.36,1.88,1.88,0,0,1-.86-.19.71.71,0,0,0-.43-.08,3.1,3.1,0,0,0-.43.19,1,1,0,0,1-.86-.27.05.05,0,0,1,0-.07Z"/><path class="cls-7" d="M36.35,44.27H39a.32.32,0,0,1,.33.32v2.62a.32.32,0,0,1-.33.32h-2.7a.32.32,0,0,1-.33-.32V44.59A.32.32,0,0,1,36.35,44.27Z"/><path class="cls-7" d="M36.35,44.23a8.18,8.18,0,0,0,1.58-.2,5,5,0,0,1,.79-.09h.2a1.37,1.37,0,0,1,.27,0,.63.63,0,0,1,.49.56c0,.61-.16,1.08-.19,1.62a7.78,7.78,0,0,0,0,.79,1.74,1.74,0,0,1,0,.45.51.51,0,0,1-.46.35,15.15,15.15,0,0,1-1.58.15l-.79,0h-.2a1.3,1.3,0,0,1-.28,0,.72.72,0,0,1-.57-.61,7.91,7.91,0,0,1,.15-1.63c0-.26.11-.53.14-.79a2.4,2.4,0,0,1,.07-.41A.38.38,0,0,1,36.35,44.23Zm0,.08a.28.28,0,0,0-.26.19,1.46,1.46,0,0,0,0,.37c0,.26.1.53.14.79a8.73,8.73,0,0,1,.15,1.53.07.07,0,0,0-.06-.07h.31l.79,0a15.13,15.13,0,0,1,1.58.15.15.15,0,0,0,.16-.06s0-.22,0-.33a7.78,7.78,0,0,0,0-.79c0-.51-.14-1.09-.19-1.54l0,0h-.32a5,5,0,0,1-.79-.09A8.18,8.18,0,0,0,36.35,44.31Z"/><path class="cls-5" d="M23.24,44.26A1,1,0,0,1,24.1,44a3.09,3.09,0,0,0,.43.19.71.71,0,0,0,.43-.08,1.88,1.88,0,0,1,.86-.19,1.57,1.57,0,0,1,.86.36,0,0,0,0,1,0,.07h0a1.57,1.57,0,0,1-.86.36A1.88,1.88,0,0,1,25,44.5a.71.71,0,0,0-.43-.08,3.09,3.09,0,0,0-.43.19,1,1,0,0,1-.86-.27.05.05,0,0,1,0-.07Z"/><path class="cls-5" d="M29.78,44.26a1,1,0,0,1,.86-.27,3.09,3.09,0,0,0,.43.19.71.71,0,0,0,.43-.08,1.88,1.88,0,0,1,.86-.19,1.57,1.57,0,0,1,.86.36,0,0,0,0,1,0,.07h0a1.57,1.57,0,0,1-.86.36,1.88,1.88,0,0,1-.86-.19.71.71,0,0,0-.43-.08,3.09,3.09,0,0,0-.43.19,1,1,0,0,1-.86-.27.05.05,0,0,1,0-.07Z"/><path class="cls-5" d="M23.24,47.49a1,1,0,0,1,.86-.27,3.09,3.09,0,0,0,.43.19.71.71,0,0,0,.43-.08,1.88,1.88,0,0,1,.86-.19,1.57,1.57,0,0,1,.86.36,0,0,0,0,1,0,.07h0a1.57,1.57,0,0,1-.86.36,1.88,1.88,0,0,1-.86-.19.71.71,0,0,0-.43-.08,3.09,3.09,0,0,0-.43.19,1,1,0,0,1-.86-.27.05.05,0,0,1,0-.07Z"/><path class="cls-8" d="M29.78,46.87a1.57,1.57,0,0,1,.43-.68c.14-.1.29-.18.43-.06s.29.45.43.51.29,0,.43-.22a1.1,1.1,0,0,1,.43-.4.65.65,0,0,1,.43-.12c.29.09.57.33.86,1a.25.25,0,0,1,0,.2c-.29.64-.57.88-.86,1a.65.65,0,0,1-.43-.12,1.1,1.1,0,0,1-.43-.4c-.14-.19-.29-.3-.43-.22s-.29.38-.43.51-.29,0-.43-.06a1.57,1.57,0,0,1-.43-.68A.29.29,0,0,1,29.78,46.87Z"/><path class="cls-3" d="M20.93,17.5a25.24,25.24,0,0,1,4.85-.27c.81.05,1.62.16,2.43.19a21,21,0,0,0,2.43-.08,43.21,43.21,0,0,1,9.71.17,0,0,0,0,1,0,.08,43.21,43.21,0,0,1-9.71.17,21,21,0,0,0-2.43-.08c-.81,0-1.62.14-2.43.19a25.23,25.23,0,0,1-4.85-.27,0,0,0,0,1,0-.08Z"/><path class="cls-3" d="M25.3,12.32A7.7,7.7,0,0,1,28,12.05c.45.05.89.16,1.34.19a6.39,6.39,0,0,0,1.34-.08A16.73,16.73,0,0,1,33.31,12a12,12,0,0,1,2.67.36,0,0,0,0,1,0,.07,12,12,0,0,1-2.67.36,16.73,16.73,0,0,1-2.67-.19,6.39,6.39,0,0,0-1.34-.08c-.45,0-.89.14-1.34.19a7.7,7.7,0,0,1-2.67-.27,0,0,0,0,1,0,0Z"/><path class="cls-3" d="M25.3,14.94A7.7,7.7,0,0,1,28,14.67c.45.05.89.16,1.34.19a6.39,6.39,0,0,0,1.34-.08,16.72,16.72,0,0,1,2.67-.19,12,12,0,0,1,2.67.36A0,0,0,0,1,36,15a12,12,0,0,1-2.67.36,16.73,16.73,0,0,1-2.67-.19,6.39,6.39,0,0,0-1.34-.08c-.45,0-.89.14-1.34.19A7.7,7.7,0,0,1,25.3,15a0,0,0,0,1,0,0Z"/></g></g></svg>