<svg xmlns="http://www.w3.org/2000/svg" viewBox="0 0 65.43 65.89"><defs><style>.cls-1,.cls-4{fill:#f4f6f8;}.cls-2{fill:#3c5999;}.cls-3{fill:#1a1a35;}.cls-4{font-size:40px;font-family:Menlo-Bold, Menlo;font-weight:700;}</style></defs><title>Asset 16</title><g id="Layer_2" data-name="Layer 2"><g id="Layer_1-2" data-name="Layer 1"><path class="cls-1" d="M1.89,20.2C4.85,12.71,8,6.08,14.83,2.77c8-3.89,20.27-3.54,29.44.09A33.79,33.79,0,0,1,60.43,16.14c5.29,8.32,6.64,16.35,2.83,26-2.62,6.62-7.25,14.24-13,17.64-8.45,5-14.81,6.56-24.88,2.57C15.79,58.54,3.82,51.65,1.48,41.73-.18,34.69-.93,27.32,1.89,20.2Z"/><rect class="cls-2" x="14.43" y="13.69" width="36.64" height="36.64" rx="2.83" ry="2.83"/><path class="cls-3" d="M48.24,50.35c-5.9,0-11.81.06-17.71.13l-8.85.06H17.25a3.05,3.05,0,0,1-3-3l.09-17.71c0-3,0-5.9,0-8.85l0-4.43a3,3,0,0,1,3-2.95L35,13.46l8.85,0h4.43a3.11,3.11,0,0,1,3.07,3.1c0,5.9,0,11.81-.1,17.71l-.09,8.85,0,4.43A2.89,2.89,0,0,1,48.24,50.35Zm0,0A2.82,2.82,0,0,0,51,47.52l0-4.43-.09-8.85c-.06-5.9-.11-11.81-.1-17.71A2.59,2.59,0,0,0,48.26,14H43.83l-8.85,0-17.71-.1a2.73,2.73,0,0,0-2.72,2.68l0,4.43c0,3,0,5.9,0,8.85l.09,17.71a2.65,2.65,0,0,0,2.63,2.62h4.43l8.85.06C36.43,50.24,42.33,50.3,48.24,50.3Z"/><text class="cls-4" transform="translate(23.46 50.13)">£</text></g></g></svg>