<svg xmlns="http://www.w3.org/2000/svg" viewBox="0 0 65.12 62.25"><defs><style>.cls-1{fill:#f4f6f8;}.cls-2{fill:#fff;}.cls-3{fill:#1a1a35;}.cls-4{fill:#fdd38e;}.cls-5{fill:#fcc04d;}.cls-6{fill:none;stroke:#f4f6f8;stroke-linecap:round;stroke-linejoin:round;stroke-width:0.5px;}.cls-7{fill:#e8eaf1;}.cls-8{fill:#1a1b36;}</style></defs><title>Asset 7</title><g id="Layer_2" data-name="Layer 2"><g id="Layer_1-2" data-name="Layer 1"><path class="cls-1" d="M65.12,30.54c0,8-.48,15.37-5.62,21C53.45,58.08,42,62.25,32.09,62.25a33.79,33.79,0,0,1-19.9-6.4C4.21,50.06,0,43.09,0,32.75c0-7.12,1.5-15.91,5.63-21.2C11.66,3.82,17,0,27.82,0,38.08,0,51.75,2,57.58,10.36,61.72,16.29,65.12,22.87,65.12,30.54Z"/><path class="cls-2" d="M13.39,34.22V52.3A1.71,1.71,0,0,0,15,54.08H50.5a1.71,1.71,0,0,0,1.6-1.79V34.22"/><path class="cls-3" d="M13.43,34.22q.19,4.81.25,9.62l0,4.81v3.61a1.61,1.61,0,0,0,.28,1,1.33,1.33,0,0,0,.77.55,2.62,2.62,0,0,0,.54,0h.6l2.41.05c1.6,0,3.21.07,4.81.08,3.21,0,6.42,0,9.62-.08l9.62-.15,4.81,0h3.31l.22,0a1.21,1.21,0,0,0,.73-.5,1.54,1.54,0,0,0,.27-.91v-1.2l0-2.41.07-4.81q.08-4.81.26-9.62h.08q.18,4.81.26,9.62l.07,4.81,0,2.41v1.2a2.32,2.32,0,0,1-.41,1.36,2,2,0,0,1-1.21.82,2.06,2.06,0,0,1-.38,0H47.18l-4.81,0-9.62-.15c-3.21-.06-6.42-.11-9.62-.08-1.6,0-3.21,0-4.81.08l-2.41.05h-.6a3.11,3.11,0,0,1-.66,0,1.86,1.86,0,0,1-1.17-.76,2.25,2.25,0,0,1-.41-1.31V48.65l0-4.81q.06-4.81.25-9.62Z"/><path class="cls-4" d="M13.39,11.9V9.38A1.63,1.63,0,0,1,15,7.73H50.5a1.63,1.63,0,0,1,1.6,1.65v2.52"/><path class="cls-5" d="M13.92,33.17h.14a3.07,3.07,0,0,0,3.05,2.19,3.07,3.07,0,0,0,3.05-2.19h.15a3.22,3.22,0,0,0,6.11,0h.15a3.22,3.22,0,0,0,6.11,0h.15a3.22,3.22,0,0,0,6.11,0h.15a3.22,3.22,0,0,0,6.11,0h.14a3.22,3.22,0,0,0,6.11,0h.14a3.07,3.07,0,0,0,3.05,2.19,3,3,0,0,0,3.13-2.79c0-.83-.16-1.74-.19-2.62L52.75,12.83a1.27,1.27,0,0,0-1.19-1.06H13.91a1.28,1.28,0,0,0-1.19,1.06L7.9,29.94c-.06.86-.16,1.77-.16,2.63a3,3,0,0,0,3.13,2.79A3.07,3.07,0,0,0,13.92,33.17Z"/><path class="cls-3" d="M13.9,33.14h.17a0,0,0,0,1,0,0,2.73,2.73,0,0,0,1.15,1.56,3.28,3.28,0,0,0,1.86.53,3.25,3.25,0,0,0,1.82-.59A2.65,2.65,0,0,0,20,33.13a.19.19,0,0,1,.18-.14h.15a.19.19,0,0,1,.18.14,2.88,2.88,0,0,0,2.87,2,2.84,2.84,0,0,0,2.79-2,.27.27,0,0,1,.26-.21h.15a.28.28,0,0,1,.27.21,2.93,2.93,0,0,0,5.53,0,.32.32,0,0,1,.31-.24h.15a.32.32,0,0,1,.31.24A2.77,2.77,0,0,0,35.87,35a3.12,3.12,0,0,0,1.72-.52,2.46,2.46,0,0,0,1-1.42.33.33,0,0,1,.32-.25h.15a.33.33,0,0,1,.32.25,2.77,2.77,0,0,0,2.74,2,3.13,3.13,0,0,0,1.74-.51,2.51,2.51,0,0,0,1.05-1.44h0a.27.27,0,0,1,.26-.2h.15a.26.26,0,0,1,.25.2,2.85,2.85,0,0,0,2.79,2,2.89,2.89,0,0,0,2.88-2,.18.18,0,0,1,.17-.13h.14a.18.18,0,0,1,.17.13A2.73,2.73,0,0,0,53.49,35a3.32,3.32,0,0,0,2.64-.14,2.66,2.66,0,0,0,1.5-2.11c0-.91-.14-1.86-.17-2.81v0l-2.65-9.21-1.34-4.6-.67-2.3c-.24-.75-.34-1.65-1-1.81l-19.08.08-19.05,0a1,1,0,0,0-.56.61c-.11.31-.22.75-.33,1.11l-.67,2.3-1.34,4.6L8.1,30v0c-.06.93-.16,1.89-.18,2.8a2.65,2.65,0,0,0,1.44,2.11,3.34,3.34,0,0,0,2.66.2A2.88,2.88,0,0,0,13.9,33.14Zm0,.06a2.94,2.94,0,0,1-1.86,2,3.56,3.56,0,0,1-2.84-.12,2.92,2.92,0,0,1-1.67-2.33c0-1,.09-1.9.13-2.86v0h0l2.51-9.25L11.47,16l.63-2.31c.11-.4.19-.74.33-1.19a1.67,1.67,0,0,1,1-1.06,1.53,1.53,0,0,1,.39-.06H32.74l9.58,0,4.79,0,2.4,0h1.8a2.21,2.21,0,0,1,.67.07,1.55,1.55,0,0,1,.95,1c.13.42.22.78.33,1.17l.63,2.31,1.26,4.62,2.55,9.24v0c0,.93.21,1.86.18,2.84a2.91,2.91,0,0,1-1.62,2.32,3.6,3.6,0,0,1-2.86.18,3.09,3.09,0,0,1-2-2.08l.17.13h-.14l.17-.13a3,3,0,0,1-1.2,1.73,3.63,3.63,0,0,1-4.06,0,3,3,0,0,1-1.27-1.75l.26.2h-.14l.26-.21A3.08,3.08,0,0,1,44.2,35a3.63,3.63,0,0,1-2.07.65A3.7,3.7,0,0,1,40,35a3.11,3.11,0,0,1-1.28-1.8l.32.25h-.15l.32-.25A3.12,3.12,0,0,1,38,35.06a3.65,3.65,0,0,1-2.09.64,3.71,3.71,0,0,1-2.09-.65,3.11,3.11,0,0,1-1.27-1.8l.31.24h-.15l.31-.24A3.1,3.1,0,0,1,31.7,35a3.71,3.71,0,0,1-4.15,0,3.05,3.05,0,0,1-1.25-1.78l.27.21h-.15l.27-.21A3.05,3.05,0,0,1,25.42,35a3.64,3.64,0,0,1-4.07,0,3,3,0,0,1-1.21-1.74l.18.14h-.15l.18-.14a2.92,2.92,0,0,1-1.24,1.69,3.51,3.51,0,0,1-2,.57,3.48,3.48,0,0,1-1.95-.63A2.85,2.85,0,0,1,14,33.18l0,0Z"/><path class="cls-3" d="M57.58,30c-4.14.25-8.28.33-12.42.27-2.07,0-4.14-.17-6.21-.18s-4.14,0-6.21.08c-4.14.14-8.28.21-12.42.18S12.05,30.21,7.91,30v-.07c4.14-.23,8.28-.34,12.42-.35s8.28,0,12.42.18c2.07.06,4.14.11,6.21.08s4.14-.13,6.21-.18c4.14-.06,8.28,0,12.42.27Z"/><line class="cls-6" x1="32.75" y1="27.2" x2="32.75" y2="13.89"/><line class="cls-6" x1="38.73" y1="27.2" x2="37.9" y2="13.89"/><line class="cls-6" x1="26.4" y1="27.2" x2="27.22" y2="13.89"/><line class="cls-6" x1="44.96" y1="27.2" x2="43.31" y2="13.89"/><line class="cls-6" x1="20.16" y1="27.2" x2="21.81" y2="13.89"/><line class="cls-6" x1="50.97" y1="27.2" x2="48.5" y2="13.89"/><line class="cls-6" x1="14.15" y1="27.2" x2="16.63" y2="13.89"/><path class="cls-7" d="M18.87,54.08H29V41.38a1.66,1.66,0,0,0-1.65-1.65H20.52a1.66,1.66,0,0,0-1.65,1.65Z"/><path class="cls-3" d="M18.9,54.06c1.77-.09,3.47-.16,5.15-.22l2.49-.06c.83,0,1.65,0,2.48,0l-.33.33c0-3.12.24-6.24.21-9.36l0-2.34c0-.38,0-.8,0-1.15a1.45,1.45,0,0,0-.48-.89,1.39,1.39,0,0,0-.91-.35l-1.16,0-2.34,0-2.34,0-1.15,0a1.3,1.3,0,0,0-1.19,1.14c0,.31,0,.74,0,1.11l0,2.29C19.16,47.72,19.05,50.8,18.9,54.06Zm-.05.05c-.15-3-.26-6.14-.34-9.31l0-2.39c0-.41,0-.76,0-1.23a2.06,2.06,0,0,1,.62-1.28,2,2,0,0,1,1.3-.55h1.19l2.34,0,2.34,0,1.18,0a1.88,1.88,0,0,1,1.72,1.72c0,.43,0,.79,0,1.19l0,2.34c0,3.12.21,6.24.21,9.36v.32H29c-.87,0-1.73,0-2.6,0l-2.58-.06C22.14,54.27,20.46,54.2,18.85,54.11Z"/><line class="cls-8" x1="25.48" y1="48.83" x2="27.53" y2="48.83"/><path class="cls-8" d="M25.48,48.79c.17-.26.34-.33.51-.27s.17.16.26.19a.29.29,0,0,0,.26-.08.77.77,0,0,1,.51-.19.8.8,0,0,1,.51.36.06.06,0,0,1,0,.08.8.8,0,0,1-.51.36.77.77,0,0,1-.51-.19.29.29,0,0,0-.26-.08c-.09,0-.17.14-.26.19s-.34,0-.51-.27A.07.07,0,0,1,25.48,48.79Z"/><rect class="cls-7" x="36.73" y="39.73" width="10.8" height="10.02" rx="1.98" ry="1.98"/><path class="cls-3" d="M38.71,39.69c1.59,0,3.19-.11,4.78-.2l1.19-.06a8,8,0,0,1,1.25,0,2.28,2.28,0,0,1,1.87,1.83,7.21,7.21,0,0,1,0,1.25l-.05,1.19c0,.8-.07,1.59-.08,2.39,0,.4,0,.8,0,1.19a3.11,3.11,0,0,1-.12,1.23,2.2,2.2,0,0,1-2,1.44c-1.59.07-3.19.13-4.78.15l-1.19,0a10.3,10.3,0,0,1-1.26,0,2.37,2.37,0,0,1-1.94-1.87,8.15,8.15,0,0,1,0-1.27c0-.4,0-.8,0-1.19,0-.8.05-1.59.11-2.39l.07-1.19A3.16,3.16,0,0,1,36.77,41,2.13,2.13,0,0,1,38.71,39.69Zm0,.07A1.85,1.85,0,0,0,37,41a2.92,2.92,0,0,0-.06,1.14L37,43.38c.06.8.08,1.59.11,2.39,0,.4,0,.8,0,1.19a8.35,8.35,0,0,0,0,1.11,1.62,1.62,0,0,0,1.29,1.26,10.74,10.74,0,0,0,1.13,0l1.19,0c1.59,0,3.19.08,4.78.15a1.78,1.78,0,0,0,1.73-1.12,2.87,2.87,0,0,0,.14-1.13c0-.4,0-.8,0-1.19,0-.8,0-1.59-.08-2.39l-.05-1.19a9.14,9.14,0,0,0-.08-1.13,1.71,1.71,0,0,0-1.37-1.3C45.14,40,44.26,40,43.49,40,41.9,39.87,40.31,39.75,38.71,39.77Z"/><path class="cls-3" d="M36.73,44.7a7.87,7.87,0,0,1,2.7-.27c.45.05.9.16,1.35.19a6.54,6.54,0,0,0,1.35-.08,17.09,17.09,0,0,1,2.7-.19,12.22,12.22,0,0,1,2.7.36v.07a12.23,12.23,0,0,1-2.7.36,17.1,17.1,0,0,1-2.7-.19,6.54,6.54,0,0,0-1.35-.08c-.45,0-.9.14-1.35.19a7.87,7.87,0,0,1-2.7-.27Z"/><path class="cls-3" d="M42.1,50.14a7.87,7.87,0,0,1-.27-2.7c.05-.45.16-.9.19-1.35a6.54,6.54,0,0,0-.08-1.35,17.1,17.1,0,0,1-.19-2.7,12.23,12.23,0,0,1,.36-2.7h.07a12.22,12.22,0,0,1,.36,2.7,17.09,17.09,0,0,1-.19,2.7,6.54,6.54,0,0,0-.08,1.35c0,.45.14.9.19,1.35a7.87,7.87,0,0,1-.27,2.7Z"/></g></g></svg>