<svg xmlns="http://www.w3.org/2000/svg" viewBox="0 0 65.43 64.57"><defs><style>.cls-1{fill:#f4f6f8;}.cls-2{fill:#f59e50;}.cls-3{fill:#1a1a35;}.cls-4{fill:#a37e41;}.cls-5{fill:#fac081;}.cls-6{fill:#aacc5e;}</style></defs><title>Asset 17</title><g id="Layer_2" data-name="Layer 2"><g id="Layer_1-2" data-name="Layer 1"><path class="cls-1" d="M1.89,20.2C4.85,12.71,8,6.08,14.83,2.77c8-3.89,20.27-3.54,29.44.09A33.79,33.79,0,0,1,60.43,16.14c5.29,8.32,6.64,16.35,2.83,26-2.62,6.62-7.25,14.24-13,17.64-8.45,5-14.81,6.56-24.88,2.57C15.79,58.54,3.82,51.65,1.48,41.73-.18,34.69-.93,27.32,1.89,20.2Z"/><path class="cls-2" d="M24.12,25.55s4.44-1.44,7.32-1.09,5.73-.7,6.73,1.83S37.28,40.17,35,46.42s-1,6.41-1.61,7.51-3.11.7-4.06-2.48-.53-7.16-1.88-11.52-2.36-4.52-3.35-7.57S22,26,24.12,25.55Z"/><path class="cls-3" d="M24.11,25.51a29.54,29.54,0,0,1,4.66-1.09,12.07,12.07,0,0,1,2.41-.15,17.85,17.85,0,0,0,2.37,0,14.19,14.19,0,0,1,2.43,0,3.9,3.9,0,0,1,1.24.39,2.79,2.79,0,0,1,1,.92,4.15,4.15,0,0,1,.3.59c.06.21.13.43.17.64a9.72,9.72,0,0,1,.1,1.24,22.43,22.43,0,0,1-.09,2.42,92.22,92.22,0,0,1-4.34,18.63,15.57,15.57,0,0,0-.45,2.31,7.51,7.51,0,0,0,0,1.16,2.64,2.64,0,0,1-.13,1.3,1.43,1.43,0,0,1-1.15.84,2.36,2.36,0,0,1-1.34-.24,4.14,4.14,0,0,1-1.78-1.85,14.43,14.43,0,0,1-1.12-4.76c-.18-1.6-.27-3.18-.52-4.73a25.41,25.41,0,0,0-1.16-4.56,18,18,0,0,0-.91-2.17c-.35-.7-.75-1.39-1.09-2.13a15.71,15.71,0,0,1-.82-2.28c-.22-.77-.45-1.53-.63-2.31a10.2,10.2,0,0,1-.35-2.38,2.3,2.3,0,0,1,.28-1.18A1.46,1.46,0,0,1,24.11,25.51Zm0,.07a1.37,1.37,0,0,0-.92.65A2.19,2.19,0,0,0,23,27.36a8.53,8.53,0,0,0,.42,2.32,28.1,28.1,0,0,0,1.69,4.43c.37.69.82,1.35,1.2,2.06a18.71,18.71,0,0,1,1,2.21,22.68,22.68,0,0,1,1.26,4.68c.25,1.59.39,3.2.53,4.77a13.86,13.86,0,0,0,1,4.52,3.58,3.58,0,0,0,1.44,1.58c.59.33,1.43.33,1.68-.26a2.15,2.15,0,0,0,.11-1,8,8,0,0,1,.08-1.23A16,16,0,0,1,33.93,49c.45-1.55,1.1-3,1.57-4.53a46.94,46.94,0,0,0,1.23-4.61A62.38,62.38,0,0,0,38,30.48a21.83,21.83,0,0,0,.05-2.35A4.41,4.41,0,0,0,37.64,26a2.15,2.15,0,0,0-.72-.73,3.31,3.31,0,0,0-1-.34,18.49,18.49,0,0,0-2.34-.12,18.61,18.61,0,0,1-2.4-.17,11.82,11.82,0,0,0-2.36,0A25.68,25.68,0,0,0,24.13,25.59Z"/><path class="cls-4" d="M15,33.51a44.53,44.53,0,0,1,11.27-2.09,19.58,19.58,0,0,1,2.89.08c1,.1,1.91.3,2.84.47a27.66,27.66,0,0,0,2.83.33c.95,0,1.9.05,2.85,0a56.08,56.08,0,0,0,5.65-.66c.94-.13,1.86-.33,2.87-.39a20,20,0,0,1,2.9.09,51.51,51.51,0,0,1,5.68.84q2.81.55,5.58,1.32l0,.07c-3.78-.54-7.55-1.1-11.31-1.46-.94-.06-1.88-.13-2.81-.11s-1.86.19-2.81.3a45.4,45.4,0,0,1-5.73.31q-2.87,0-5.73-.29c-1-.09-1.9-.23-2.83-.27s-1.88,0-2.82,0a82.78,82.78,0,0,0-11.28,1.5Z"/><path class="cls-4" d="M6,33.51a44.53,44.53,0,0,1,11.27-2.09,19.58,19.58,0,0,1,2.89.08c1,.1,1.91.3,2.84.47a27.66,27.66,0,0,0,2.83.33c.95,0,1.9.05,2.85,0a56.08,56.08,0,0,0,5.65-.66c.94-.13,1.86-.33,2.87-.39a20,20,0,0,1,2.9.09,51.51,51.51,0,0,1,5.68.84q2.81.55,5.58,1.32l0,.07c-3.78-.54-7.55-1.1-11.31-1.46-.94-.06-1.88-.13-2.81-.11s-1.86.19-2.81.3a45.4,45.4,0,0,1-5.73.31q-2.87,0-5.73-.29c-1-.09-1.9-.23-2.83-.27s-1.88,0-2.82,0a82.78,82.78,0,0,0-11.28,1.5Z"/><path class="cls-5" d="M26.56,29.27A3.81,3.81,0,0,1,29,28.69c.41.05.82.18,1.22.23a6,6,0,0,0,1.22,0,16.59,16.59,0,0,1,2.42,0c.8.08,1.57.18,2.4.34a0,0,0,0,1,0,0,0,0,0,0,1,0,0,6.15,6.15,0,0,1-2.45.39,11.9,11.9,0,0,1-2.41-.39,4.7,4.7,0,0,0-1.2-.18,9.24,9.24,0,0,0-1.2.15,23,23,0,0,1-2.39,0,0,0,0,0,1,0,0A0,0,0,0,1,26.56,29.27Z"/><path class="cls-5" d="M27.64,34.87c.68-.05,1.21-.23,1.85-.31a6.34,6.34,0,0,0,1-.08,3.24,3.24,0,0,0,.9-.39,6.51,6.51,0,0,1,1.85-.78,2.29,2.29,0,0,1,2,.39,0,0,0,0,1,0,.05h0a5.29,5.29,0,0,0-1.81.33,15.61,15.61,0,0,1-1.9.39,3.77,3.77,0,0,0-1,.23c-.31.12-.59.32-.91.45a2.15,2.15,0,0,1-2-.23,0,0,0,0,1,0-.06Z"/><path class="cls-5" d="M29.78,38.1A3.17,3.17,0,0,1,31,38a3.44,3.44,0,0,0,.62.16,1.36,1.36,0,0,0,.61-.15,3.45,3.45,0,0,1,1.24-.32,1.86,1.86,0,0,1,1.29.42,0,0,0,0,1,0,.06h0a8.15,8.15,0,0,1-1.21.3,4.26,4.26,0,0,1-1.25-.07,1.55,1.55,0,0,0-.64,0c-.21,0-.41.17-.63.22a1.34,1.34,0,0,1-1.25-.44,0,0,0,0,1,0-.06Z"/><path class="cls-5" d="M29.67,41.92a1.45,1.45,0,0,1,1.07-.44c.19,0,.39.12.58.12a1.29,1.29,0,0,0,.56-.13A2.32,2.32,0,0,1,33,41.3a1.52,1.52,0,0,1,1.06.63,0,0,0,0,1,0,.06h0a7.24,7.24,0,0,1-1.1.1,4.63,4.63,0,0,1-1.07-.2,1.05,1.05,0,0,0-.56,0,3.77,3.77,0,0,0-.53.25A1.52,1.52,0,0,1,29.68,42a0,0,0,0,1,0-.06Z"/><path class="cls-5" d="M30.66,46.16a1.17,1.17,0,0,1,.64-.61,2,2,0,0,0,.46-.07.7.7,0,0,0,.31-.32,1.69,1.69,0,0,1,.64-.67,1,1,0,0,1,1,0,0,0,0,0,1,0,.06h0c-.28.23-.39.41-.62.57a2.33,2.33,0,0,1-.81.32.78.78,0,0,0-.41.19c-.11.11-.17.28-.28.41a.87.87,0,0,1-.94.14,0,0,0,0,1,0-.06Z"/><path class="cls-5" d="M31.25,50.1c0-.14,0-.25,0-.34a.49.49,0,0,1,.11-.31c.09-.09.24-.16.3-.27a.53.53,0,0,0,0-.37,1.21,1.21,0,0,1,.11-.79,1,1,0,0,1,.36-.33c.16-.1.48-.09.55.1a.05.05,0,0,1,0,.06h0c-.16.1-.11.18-.11.26a.91.91,0,0,1-.06.27,1.69,1.69,0,0,1-.44.56.52.52,0,0,0-.2.32,3.66,3.66,0,0,0,.05.42.57.57,0,0,1-.18.36.45.45,0,0,1-.51.14,0,0,0,0,1,0,0Z"/><path class="cls-6" d="M21.5,13.68a10,10,0,0,1,2.77,1.84,12.33,12.33,0,0,1,2.08,2.62,16.87,16.87,0,0,1,1.3,3.06c.34,1,.69,2.09.93,3.17h-.31a30.24,30.24,0,0,0,.29-3.71,33.16,33.16,0,0,0-.1-3.7A29.27,29.27,0,0,0,28,13.3a26,26,0,0,0-1-3.58,0,0,0,0,1,0,0,0,0,0,0,1,0,0,14.57,14.57,0,0,1,1.54,3.47,17.78,17.78,0,0,1,.71,3.75,24.39,24.39,0,0,1,0,3.81,23.24,23.24,0,0,1-.65,3.74h-.31a12.39,12.39,0,0,0-.9-3.12,21.23,21.23,0,0,0-1.58-2.83,17.12,17.12,0,0,0-1.92-2.57,16.44,16.44,0,0,0-2.4-2.17,0,0,0,0,1,0-.05A0,0,0,0,1,21.5,13.68Z"/><path class="cls-6" d="M25.44,10.8c.25,1.16.47,2.3.78,3.41s.68,2.21,1,3.32a15.38,15.38,0,0,0,1.36,3.22,16.46,16.46,0,0,0,2.05,2.81h-.44a19.83,19.83,0,0,0,1.4-2.46,27.1,27.1,0,0,0,1.06-2.63,17.1,17.1,0,0,0,.72-2.74,19.49,19.49,0,0,0,.32-2.86,0,0,0,0,1,0,0,0,0,0,0,1,0,0,11.73,11.73,0,0,1,.16,2.93,13.67,13.67,0,0,1-.53,2.91,13.93,13.93,0,0,1-1.12,2.73,14.76,14.76,0,0,1-1.62,2.48l-.24.29-.2-.28a33.87,33.87,0,0,1-1.83-3.06c-.55-1-1.16-2.06-1.66-3.14a13.07,13.07,0,0,1-.66-1.66c-.15-.58-.32-1.15-.43-1.73a14.23,14.23,0,0,1-.28-3.54,0,0,0,0,1,0,0A0,0,0,0,1,25.44,10.8Z"/><path class="cls-6" d="M33.28,6.82A25.81,25.81,0,0,1,32.36,11c-.23.68-.51,1.35-.7,2a13.23,13.23,0,0,0-.37,2.13l-.47,4.27a32.79,32.79,0,0,0-.34,4.26,0,0,0,0,1,0,0,0,0,0,0,1,0,0A10.87,10.87,0,0,1,30,19.4a22.16,22.16,0,0,1,.86-4.27c.2-.7.41-1.39.54-2.1s.2-1.44.33-2.15a16.41,16.41,0,0,1,1.45-4.09,0,0,0,0,1,.05,0A0,0,0,0,1,33.28,6.82Z"/></g></g></svg>