<svg xmlns="http://www.w3.org/2000/svg" viewBox="0 0 64.42 67.18"><defs><style>.cls-1{fill:#f4f6f8;}.cls-2{fill:#d3d7e6;}.cls-3{fill:#1a1a35;}.cls-4{fill:#fff;}.cls-5{fill:#3d4166;}.cls-6{fill:#5e6cb1;}.cls-7{fill:#84bd46;}</style></defs><title>Asset 15</title><g id="Layer_2" data-name="Layer 2"><g id="Layer_1-2" data-name="Layer 1"><path class="cls-1" d="M12.64,8C19.12,3.24,25.3-.72,32.85.11c8.88,1,19.06,7.75,24.91,15.69a33.79,33.79,0,0,1,6.66,19.82c.07,9.86-3,17.38-11.36,23.52-5.73,4.23-13.7,8.23-20.41,8-9.79-.27-16-2.3-22.46-11C4.1,47.9-2.4,35.72.88,26.06,3.2,19.21,6.47,12.56,12.64,8Z"/><rect class="cls-2" x="19.04" y="13.27" width="26.27" height="42.02" rx="1.42" ry="1.42"/><path class="cls-3" d="M43.89,55.33c-5.59,0-11.18.09-16.77.2l-4.19.06-2.1,0a2.27,2.27,0,0,1-1.17-.18,1.75,1.75,0,0,1-.84-.93,1.77,1.77,0,0,1-.12-.63V50.19l0-4.19c0-5.59.17-11.18.18-16.77,0-2.79,0-5.59,0-8.38l0-4.19V14.54a1.63,1.63,0,0,1,1.59-1.48l16.77-.15,4.19,0h2.1a2.34,2.34,0,0,1,1.2.19,1.82,1.82,0,0,1,.87,1,1.84,1.84,0,0,1,.12.65v7.86c0,5.59,0,11.18-.14,16.77l-.14,8.38,0,4.19,0,2.1A1.48,1.48,0,0,1,43.89,55.33Zm0-.08A1.39,1.39,0,0,0,45.25,54V51.91l0-4.19-.14-8.38c-.1-5.59-.14-11.18-.14-16.77V14.7a1,1,0,0,0-.56-.93,1.61,1.61,0,0,0-.85-.12h-2.1l-4.19,0-16.77-.15a1.24,1.24,0,0,0-1.23,1.1l0,2.08,0,4.19c0,2.79,0,5.59,0,8.38,0,5.59.13,11.18.18,16.77l0,4.19v3.67a1.1,1.1,0,0,0,.59,1,1.67,1.67,0,0,0,.88.13l2.1,0,4.19.06C32.71,55.16,38.3,55.24,43.89,55.25Z"/><rect class="cls-4" x="20.07" y="17.83" width="23.92" height="31.78" rx="0.28" ry="0.28"/><path class="cls-3" d="M43.71,49.66c-4.62,0-9.24.09-13.86.2-2.31.06-4.62.07-6.93.09H21.18c-.31,0-.53,0-.92,0a.63.63,0,0,1-.52-.64v-.43l0-3.47c0-4.62.17-9.24.18-13.86,0-2.31,0-4.62,0-6.93l0-3.47,0-1.73V18.1a.49.49,0,0,1,.48-.47l13.86-.15,6.93,0h2.66a.69.69,0,0,1,.57.7v3.9c0,4.62,0,9.24-.14,13.86l-.14,6.93,0,3.47v3A.32.32,0,0,1,43.71,49.66Zm0-.08c.32,0,.23-.4.24-.67v-2.6l0-3.47-.14-6.93c-.1-4.62-.14-9.24-.14-13.86v-3.9s0,.09.09.08H41.15l-6.93,0L20.36,18a.08.08,0,0,0-.08.07v1.29l0,1.73,0,3.47c0,2.31,0,4.62,0,6.93,0,4.62.13,9.24.18,13.86l0,3.47v.43c0,.05,0,0,0,0h2.55c2.31,0,4.62,0,6.93.09C34.46,49.49,39.09,49.57,43.71,49.58Z"/><circle class="cls-5" cx="32.03" cy="52.57" r="2.05"/><line class="cls-5" x1="21.87" y1="21.43" x2="42.31" y2="21.43"/><path d="M21.87,21.39A27.94,27.94,0,0,1,27,21.12c.85.05,1.7.16,2.56.19a23.26,23.26,0,0,0,2.56-.08,47.87,47.87,0,0,1,10.22.17,0,0,0,0,1,0,.07,47.87,47.87,0,0,1-10.22.17,23.26,23.26,0,0,0-2.56-.08c-.85,0-1.7.14-2.56.19a27.94,27.94,0,0,1-5.11-.27,0,0,0,0,1,0-.07Z"/><line class="cls-5" x1="21.87" y1="25.27" x2="29.98" y2="25.27"/><path class="cls-6" d="M21.87,25.23a4.52,4.52,0,0,1,2-.27c.34.05.68.16,1,.19a3.71,3.71,0,0,0,1-.08,9.72,9.72,0,0,1,2-.19,7.05,7.05,0,0,1,2,.36,0,0,0,0,1,0,.05l0,0a7.05,7.05,0,0,1-2,.36,9.71,9.71,0,0,1-2-.19,3.71,3.71,0,0,0-1-.08c-.34,0-.68.14-1,.19a4.52,4.52,0,0,1-2-.27,0,0,0,0,1,0-.05Z"/><line class="cls-5" x1="36.98" y1="25.6" x2="42.31" y2="25.6"/><path class="cls-7" d="M37,25.56a2,2,0,0,1,1.33-.27,6.38,6.38,0,0,0,.67.19,1.63,1.63,0,0,0,.67-.08A4.28,4.28,0,0,1,41,25.2a3.25,3.25,0,0,1,1.33.36,0,0,0,0,1,0,.06l0,0A3.25,3.25,0,0,1,41,26a4.28,4.28,0,0,1-1.33-.19,1.63,1.63,0,0,0-.67-.08,6.37,6.37,0,0,0-.67.19A2,2,0,0,1,37,25.64a0,0,0,0,1,0-.06Z"/><line class="cls-5" x1="21.87" y1="27.68" x2="35.51" y2="27.68"/><path class="cls-2" d="M21.87,27.64a12.44,12.44,0,0,1,3.41-.27c.57.05,1.14.16,1.71.19a10.39,10.39,0,0,0,1.71-.08,27.17,27.17,0,0,1,3.41-.19,19.28,19.28,0,0,1,3.41.36,0,0,0,0,1,0,.07,19.28,19.28,0,0,1-3.41.36,27.17,27.17,0,0,1-3.41-.19A10.39,10.39,0,0,0,27,27.8c-.57,0-1.14.14-1.71.19a12.44,12.44,0,0,1-3.41-.27,0,0,0,0,1,0-.07Z"/><line class="cls-5" x1="21.87" y1="29.02" x2="33.68" y2="29.02"/><path class="cls-2" d="M21.87,29a9.37,9.37,0,0,1,3-.27c.49.05,1,.16,1.48.19a7.79,7.79,0,0,0,1.48-.08,20.4,20.4,0,0,1,3-.19,14.54,14.54,0,0,1,3,.36,0,0,0,0,1,0,.08,14.54,14.54,0,0,1-3,.36,20.4,20.4,0,0,1-3-.19,7.8,7.8,0,0,0-1.48-.08c-.49,0-1,.14-1.48.19a9.37,9.37,0,0,1-3-.27,0,0,0,0,1,0-.08Z"/><line class="cls-5" x1="21.87" y1="32.41" x2="29.01" y2="32.41"/><path class="cls-6" d="M21.87,32.37a3.54,3.54,0,0,1,1.79-.27c.3.05.6.16.89.19a2.88,2.88,0,0,0,.89-.08A7.56,7.56,0,0,1,27.22,32a5.55,5.55,0,0,1,1.79.36,0,0,0,0,1,0,.05l0,0a5.55,5.55,0,0,1-1.79.36,7.56,7.56,0,0,1-1.79-.19,2.89,2.89,0,0,0-.89-.08c-.3,0-.6.14-.89.19a3.54,3.54,0,0,1-1.79-.27,0,0,0,0,1,0-.05Z"/><line class="cls-5" x1="35.51" y1="32.74" x2="42.31" y2="32.74"/><path class="cls-7" d="M35.51,32.7a3.23,3.23,0,0,1,1.7-.27c.28.05.57.16.85.19a2.62,2.62,0,0,0,.85-.08,6.87,6.87,0,0,1,1.7-.19,5.06,5.06,0,0,1,1.7.36,0,0,0,0,1,0,.05l0,0a5.06,5.06,0,0,1-1.7.36,6.87,6.87,0,0,1-1.7-.19,2.62,2.62,0,0,0-.85-.08c-.28,0-.57.14-.85.19a3.22,3.22,0,0,1-1.7-.27,0,0,0,0,1,0-.05Z"/><line class="cls-5" x1="21.87" y1="34.82" x2="32.03" y2="34.82"/><path class="cls-2" d="M21.87,34.79a7,7,0,0,1,2.54-.27c.42.05.85.16,1.27.19a5.79,5.79,0,0,0,1.27-.08,15.16,15.16,0,0,1,2.54-.19,10.86,10.86,0,0,1,2.54.36,0,0,0,0,1,0,0l0,0a10.86,10.86,0,0,1-2.54.36A15.15,15.15,0,0,1,26.95,35a5.79,5.79,0,0,0-1.27-.08c-.42,0-.85.14-1.27.19a7,7,0,0,1-2.54-.27,0,0,0,0,1,0,0Z"/><line class="cls-5" x1="21.87" y1="36.16" x2="36.98" y2="36.16"/><path class="cls-2" d="M21.87,36.12a15.36,15.36,0,0,1,3.78-.27c.63.05,1.26.16,1.89.19A12.73,12.73,0,0,0,29.43,36a26.24,26.24,0,0,1,7.56.17,0,0,0,0,1,0,.08,26.24,26.24,0,0,1-7.56.17,12.73,12.73,0,0,0-1.89-.08c-.63,0-1.26.14-1.89.19a15.36,15.36,0,0,1-3.78-.27,0,0,0,0,1,0-.08Z"/><line class="cls-5" x1="21.87" y1="39.27" x2="32.03" y2="39.27"/><path class="cls-6" d="M21.87,39.23A7,7,0,0,1,24.41,39c.42.05.85.16,1.27.19a5.79,5.79,0,0,0,1.27-.08,15.16,15.16,0,0,1,2.54-.19,10.86,10.86,0,0,1,2.54.36,0,0,0,0,1,0,0l0,0a10.86,10.86,0,0,1-2.54.36,15.15,15.15,0,0,1-2.54-.19,5.79,5.79,0,0,0-1.27-.08c-.42,0-.85.14-1.27.19a7,7,0,0,1-2.54-.27,0,0,0,0,1,0,0Z"/><line class="cls-5" x1="37.75" y1="39.6" x2="42.31" y2="39.6"/><path class="cls-7" d="M37.75,39.56a1.54,1.54,0,0,1,1.14-.27,4.87,4.87,0,0,0,.57.19,1.21,1.21,0,0,0,.57-.08,3.17,3.17,0,0,1,1.14-.19,2.47,2.47,0,0,1,1.14.36,0,0,0,0,1,0,.06h0a2.47,2.47,0,0,1-1.14.36A3.18,3.18,0,0,1,40,39.8a1.21,1.21,0,0,0-.57-.08,4.86,4.86,0,0,0-.57.19,1.54,1.54,0,0,1-1.14-.27,0,0,0,0,1,0-.06Z"/><line class="cls-5" x1="21.87" y1="41.68" x2="34.73" y2="41.68"/><path class="cls-2" d="M21.87,41.64a11.09,11.09,0,0,1,3.22-.27c.54.05,1.07.16,1.61.19a9.25,9.25,0,0,0,1.61-.08,24.19,24.19,0,0,1,3.22-.19,17.19,17.19,0,0,1,3.22.36,0,0,0,0,1,0,.07,17.19,17.19,0,0,1-3.22.36,24.19,24.19,0,0,1-3.22-.19,9.25,9.25,0,0,0-1.61-.08c-.54,0-1.07.14-1.61.19a11.09,11.09,0,0,1-3.22-.27,0,0,0,0,1,0-.07Z"/><line class="cls-5" x1="21.87" y1="43.02" x2="36.4" y2="43.02"/><path class="cls-2" d="M21.87,43a14.1,14.1,0,0,1,3.63-.27c.61.05,1.21.16,1.82.19a11.77,11.77,0,0,0,1.82-.08,30.82,30.82,0,0,1,3.63-.19A21.83,21.83,0,0,1,36.4,43a0,0,0,0,1,0,.08,21.83,21.83,0,0,1-3.63.36,30.81,30.81,0,0,1-3.63-.19,11.78,11.78,0,0,0-1.82-.08c-.61,0-1.21.14-1.82.19a14.1,14.1,0,0,1-3.63-.27,0,0,0,0,1,0-.08Z"/><line class="cls-5" x1="21.87" y1="45.87" x2="29.98" y2="45.87"/><path class="cls-6" d="M21.87,45.83a4.52,4.52,0,0,1,2-.27c.34.05.68.16,1,.19a3.71,3.71,0,0,0,1-.08,9.71,9.71,0,0,1,2-.19,7.05,7.05,0,0,1,2,.36,0,0,0,0,1,0,.05l0,0a7.05,7.05,0,0,1-2,.36,9.71,9.71,0,0,1-2-.19,3.71,3.71,0,0,0-1-.08c-.34,0-.68.14-1,.19a4.52,4.52,0,0,1-2-.27,0,0,0,0,1,0-.05Z"/><line class="cls-5" x1="36.98" y1="46.37" x2="42.31" y2="46.37"/><path class="cls-7" d="M37,46.33a2,2,0,0,1,1.33-.27,6.37,6.37,0,0,0,.67.19,1.63,1.63,0,0,0,.67-.08A4.27,4.27,0,0,1,41,46a3.25,3.25,0,0,1,1.33.36,0,0,0,0,1,0,.06l0,0a3.25,3.25,0,0,1-1.33.36,4.28,4.28,0,0,1-1.33-.19,1.63,1.63,0,0,0-.67-.08,6.38,6.38,0,0,0-.67.19A2,2,0,0,1,37,46.41a0,0,0,0,1,0-.06Z"/><line class="cls-5" x1="21.87" y1="48.28" x2="32.03" y2="48.28"/><path class="cls-2" d="M21.87,48.25A7,7,0,0,1,24.41,48c.42.05.85.16,1.27.19a5.79,5.79,0,0,0,1.27-.08,15.16,15.16,0,0,1,2.54-.19,10.86,10.86,0,0,1,2.54.36,0,0,0,0,1,0,0l0,0a10.86,10.86,0,0,1-2.54.36,15.15,15.15,0,0,1-2.54-.19,5.79,5.79,0,0,0-1.27-.08c-.42,0-.85.14-1.27.19a7,7,0,0,1-2.54-.27,0,0,0,0,1,0,0Z"/></g></g></svg>