<svg xmlns="http://www.w3.org/2000/svg" viewBox="0 0 66.87 63.2"><defs><style>.cls-1{fill:#f4f6f8;}.cls-2{fill:#3d4166;}.cls-3{fill:#1a1a35;}.cls-4{fill:#525577;}.cls-5{fill:#636684;}.cls-6{fill:#777a93;}.cls-7{fill:#717d9e;}.cls-8{fill:#626db0;}.cls-9{fill:#5260a9;}.cls-10{fill:#455da7;}</style></defs><title>Asset 11</title><g id="Layer_2" data-name="Layer 2"><g id="Layer_1-2" data-name="Layer 1"><path class="cls-1" d="M4,44.61C.88,37.18-1.49,30.24,1.11,23.1,4.17,14.7,13.18,6.43,22.29,2.64A33.79,33.79,0,0,1,43.12.9C52.71,3.18,59.28,8,63.25,17.54,66,24.12,68,32.81,66.2,39.28c-2.59,9.45-6.05,15-16,19.19-9.47,3.94-22.86,7.35-31.46,1.87C12.6,56.45,6.92,51.69,4,44.61Z"/><path class="cls-2" d="M11.09,46.57v-10c0-.33.36-.59.8-.59H15.8c.44,0,.8.27.8.59v9.69"/><path class="cls-3" d="M11.05,46.57a45.32,45.32,0,0,1-.27-6.45c.05-1.07.16-2.15.19-3.22a3.5,3.5,0,0,1,0-.43.71.71,0,0,1,.26-.4,1.28,1.28,0,0,1,.84-.22c.54,0,1.07,0,1.61-.07s1.07-.08,1.61-.09a3.21,3.21,0,0,1,.9,0,1,1,0,0,1,.75.88c0,1.07.06,2.15,0,3.22,0,2.15-.12,4.3-.36,6.45h-.08c-.24-2.15-.32-4.3-.36-6.45,0-1.07,0-2.15,0-3.22,0-.07-.07-.18-.24-.25a2.94,2.94,0,0,0-.7-.06c-.54,0-1.07-.06-1.61-.09s-1.07-.07-1.61-.07-1,.18-.88.78c0,1.07.14,2.15.19,3.22a45.32,45.32,0,0,1-.27,6.45Z"/><path class="cls-4" d="M16.61,46.27V30.09a.79.79,0,0,1,.82-.75h4a.79.79,0,0,1,.82.75V46.57"/><path class="cls-3" d="M16.57,46.27c-.25-3.26-.31-6.52-.28-9.78,0-1.63.12-3.26.17-4.89l0-1.22a1.36,1.36,0,0,1,.1-.65,1,1,0,0,1,.52-.45,2,2,0,0,1,.64-.06h.61c.41,0,.82,0,1.22,0l1.22,0,.61,0a1.13,1.13,0,0,1,.74.23,1,1,0,0,1,.39.73l0,.62,0,1.22c0,1.63.07,3.26.06,4.89,0,3.26-.12,6.52-.36,9.78h-.07c-.24-3.26-.34-6.52-.36-9.78,0-1.63,0-3.26.06-4.89l0-1.22,0-.6a.45.45,0,0,0-.15-.33.6.6,0,0,0-.39-.16l-.61,0-1.22,0a20.54,20.54,0,0,0-2.4,0,.65.65,0,0,0-.39.33,1.17,1.17,0,0,0-.05.55l0,1.22c0,1.63.16,3.26.17,4.89,0,3.26,0,6.52-.28,9.78Z"/><path class="cls-5" d="M22.25,46.57V27.73a.77.77,0,0,1,.82-.7h4a.77.77,0,0,1,.82.7V46.57"/><path class="cls-3" d="M22.21,46.57c-.25-3.67-.31-7.34-.28-11,0-1.84.13-3.67.17-5.51l0-1.38V28a1,1,0,0,1,.18-.73,1,1,0,0,1,.69-.34h.7c.46,0,.92,0,1.38,0l1.38,0,.71,0a1.12,1.12,0,0,1,.8.36.89.89,0,0,1,.22.44,3.23,3.23,0,0,1,0,.39l0,.69,0,1.38c0,1.84.07,3.67.06,5.51,0,3.67-.12,7.34-.36,11h-.08c-.24-3.67-.34-7.34-.36-11,0-1.84,0-3.67.06-5.51l0-1.38,0-.69c0-.28,0-.35-.07-.47a.6.6,0,0,0-.41-.22l-.67,0-1.38,0c-.46,0-.92,0-1.38,0s-.94-.09-1.2.24a.73.73,0,0,0-.13.58v.69l0,1.38c0,1.84.15,3.67.17,5.51,0,3.67,0,7.34-.28,11Z"/><path class="cls-6" d="M27.89,46.57V30.07c0-.29.37-.52.82-.52h4c.45,0,.82.24.82.52v16.5"/><path class="cls-3" d="M27.86,46.57c-.25-3.26-.31-6.52-.28-9.78,0-1.63.13-3.26.17-4.89l0-1.22v-.62a.67.67,0,0,1,.46-.54,4.19,4.19,0,0,1,1.26-.11c.41,0,.82,0,1.22,0l1.22,0,.61,0a1.66,1.66,0,0,1,.7.08.81.81,0,0,1,.58.68l0,.62,0,1.22c0,1.63.07,3.26.06,4.89,0,3.26-.12,6.52-.36,9.78H33.5c-.24-3.26-.34-6.52-.36-9.78,0-1.63,0-3.26.06-4.89l0-1.22,0-.6s-.06-.13-.2-.19a4,4,0,0,0-1.11-.11l-1.22,0c-.41,0-.82,0-1.22,0a4.19,4.19,0,0,0-1.17.06c-.16.06-.32.19-.31.33v.61l0,1.22c0,1.63.15,3.26.17,4.89,0,3.26,0,6.52-.28,9.78Z"/><path class="cls-7" d="M33.54,46.57v-18c0-.27.37-.49.82-.49h4c.45,0,.82.23.82.49v18"/><path class="cls-3" d="M33.5,46.57c-.24-3.51-.28-7-.29-10.54,0-1.76.08-3.51.14-5.27l0-1.32v-.66a1.78,1.78,0,0,1,0-.36.59.59,0,0,1,.26-.32,1.26,1.26,0,0,1,.7-.17H35l1.32,0,1.32,0,.66,0a1.34,1.34,0,0,1,.76.17.7.7,0,0,1,.31.37.57.57,0,0,1,0,.15v.25l0,.66,0,1.32c0,1.76.07,3.51.08,5.27,0,3.51-.11,7-.36,10.54h-.08c-.25-3.51-.36-7-.36-10.54,0-1.76,0-3.51.08-5.27l0-1.32,0-.66c0-.29.05-.27-.09-.38s-.72-.14-1.16-.18l-1.32,0-1.32,0a2.28,2.28,0,0,0-1.22.15c-.18.11-.16.21-.15.47v.66l0,1.32c.06,1.76.13,3.51.14,5.27,0,3.51-.05,7-.29,10.54Z"/><path class="cls-8" d="M39.19,46.57v-22c0-.3.37-.54.82-.54h4c.45,0,.82.25.82.54v22"/><path class="cls-3" d="M39.15,46.57c-.24-4.18-.27-8.36-.29-12.54,0-2.09.06-4.18.13-6.27,0-1,.07-2.09.07-3.13a.7.7,0,0,1,.58-.66,3,3,0,0,1,.82,0l1.57,0,1.57,0a2.92,2.92,0,0,1,.83,0,1,1,0,0,1,.42.23.66.66,0,0,1,.21.5l.1,3.13c0,2.09.08,4.18.08,6.27,0,4.18-.1,8.36-.36,12.54h-.08c-.26-4.18-.36-8.36-.36-12.54,0-2.09,0-4.18.08-6.27l.1-3.13c0-.16-.11-.28-.32-.36a2.69,2.69,0,0,0-.72-.07l-1.57,0-1.57,0a2.78,2.78,0,0,0-.74.06c-.22.07-.41.22-.38.42,0,1,0,2.09.07,3.13.07,2.09.12,4.18.12,6.27,0,4.18-.06,8.36-.3,12.54Z"/><path class="cls-9" d="M44.83,46.57V20a.75.75,0,0,1,.82-.65h4a.76.76,0,0,1,.82.65V46.57"/><path class="cls-3" d="M44.79,46.57c-.24-5-.27-9.9-.3-14.86,0-2.48.06-5,.13-7.43,0-1.24.07-2.48.07-3.71v-.46a.73.73,0,0,1,.16-.51,1.08,1.08,0,0,1,.94-.34l1.86,0,1.86,0a1.13,1.13,0,0,1,1,.35.8.8,0,0,1,.18.55v.46l.1,3.71c0,2.48.08,5,.08,7.43,0,5-.1,9.9-.36,14.86h-.08c-.26-5-.36-9.9-.36-14.86,0-2.48,0-5,.08-7.43l.1-3.71v-.46a.4.4,0,0,0-.07-.32.79.79,0,0,0-.69-.26l-1.86,0-1.86,0a.85.85,0,0,0-.74.27c-.16.17-.07.51-.09.82,0,1.24,0,2.48.07,3.71.07,2.48.12,5,.13,7.43,0,5-.06,9.9-.29,14.86Z"/><path class="cls-10" d="M50.48,46.57v-32a.8.8,0,0,1,.82-.78h4a.81.81,0,0,1,.82.78v32"/><path class="cls-3" d="M50.44,46.57c-.24-5.88-.27-11.75-.29-17.63,0-2.94.06-5.88.13-8.82,0-1.47.07-2.94.07-4.41v-1.1a.92.92,0,0,1,.72-.92c.78-.06,1.48,0,2.23,0s1.43,0,2.24,0a1,1,0,0,1,.77,1l0,1.1.09,4.41c.06,2.94.08,5.88.09,8.82,0,5.88-.1,11.75-.36,17.63h-.08c-.26-5.88-.36-11.75-.36-17.63,0-2.94,0-5.88.09-8.82l.09-4.41,0-1.1a.62.62,0,0,0-.47-.65c-.65-.06-1.45,0-2.16-.05s-1.5,0-2.18,0-.46,1.09-.51,1.8c0,1.47,0,2.94.07,4.41.07,2.94.12,5.88.13,8.82,0,5.88-.06,11.75-.29,17.63Z"/><path class="cls-3" d="M11.09,46.53c3.75-.25,7.51-.33,11.26-.27,1.88,0,3.75.17,5.63.18s3.75,0,5.63-.08c3.75-.14,7.51-.21,11.26-.18s7.51.12,11.26.35a0,0,0,0,1,0,.08c-3.75.23-7.51.34-11.26.35s-7.51,0-11.26-.18c-1.88-.06-3.75-.11-5.63-.08s-3.75.13-5.63.18c-3.75.06-7.51,0-11.26-.27a0,0,0,0,1,0-.08Z"/></g></g></svg>