<svg xmlns="http://www.w3.org/2000/svg" viewBox="0 0 66.87 63.2"><defs><style>.cls-1{fill:#f4f6f8;}.cls-2{fill:#1a1a35;}.cls-3{fill:#e8eaf1;}.cls-4{fill:#3d4166;}.cls-5{fill:#fff;}.cls-6{fill:#e0ab7c;}</style></defs><title>Asset 5</title><g id="Layer_2" data-name="Layer 2"><g id="Layer_1-2" data-name="Layer 1"><path class="cls-1" d="M4,44.61C.88,37.18-1.49,30.24,1.11,23.1,4.17,14.7,13.18,6.43,22.29,2.64A33.79,33.79,0,0,1,43.12.9C52.71,3.18,59.28,8,63.25,17.54,66,24.12,68,32.81,66.2,39.28c-2.59,9.45-6.05,15-16,19.19-9.47,3.94-22.86,7.35-31.46,1.87C12.6,56.45,6.92,51.69,4,44.61Z"/><path class="cls-2" d="M57.43,22.92c-.49,2.63-1.05,5.24-1.63,7.85l-.9,3.9c-.14.65-.31,1.3-.47,1.95a12,12,0,0,1-.58,1.95,7.13,7.13,0,0,1-1,1.8,4.19,4.19,0,0,1-1.68,1.25,11.22,11.22,0,0,1-4,.34c-2.67,0-5.34,0-8,.08-5.34.14-10.67.21-16,.18s-10.67-.12-16-.35a0,0,0,0,1,0-.08c5.34-.23,10.67-.34,16-.35s10.67,0,16,.18c2.67.06,5.34.11,8,.08A9.59,9.59,0,0,0,51,41.23a4.7,4.7,0,0,0,2.3-2.89,11.64,11.64,0,0,0,.53-1.89c.15-.65.3-1.3.47-1.94l1-3.88c.67-2.58,1.36-5.16,2.11-7.72a0,0,0,0,1,.07,0Z"/><path class="cls-2" d="M51.93,23.91A3.48,3.48,0,0,1,53.47,23c.29-.06.61-.07.89-.15a2.84,2.84,0,0,0,.79-.41,7.45,7.45,0,0,1,1.57-.84,5.46,5.46,0,0,1,1.78-.33,0,0,0,0,1,0,.07,5.46,5.46,0,0,1-1.51,1,7.45,7.45,0,0,1-1.72.48,2.84,2.84,0,0,0-.85.25c-.26.14-.5.35-.75.51A3.49,3.49,0,0,1,52,24a0,0,0,0,1,0,0Z"/><path class="cls-2" d="M58,21.55A2.47,2.47,0,0,1,59.33,21a1.52,1.52,0,0,1,1.38.67A2.05,2.05,0,0,1,61,23.11a2.46,2.46,0,0,1-.62,1.31,1.92,1.92,0,0,1-2.87-.16,1.7,1.7,0,0,1-.31-1.54A2.47,2.47,0,0,1,58,21.55Zm0,.06a1.24,1.24,0,0,0-.41,1.16,2,2,0,0,0,.44,1,1.57,1.57,0,0,0,2,.34,1.24,1.24,0,0,0,.64-1,1.39,1.39,0,0,0-.5-1.06,2.82,2.82,0,0,0-.94-.59A1.24,1.24,0,0,0,58.06,21.6Z"/><circle class="cls-2" cx="42.93" cy="47" r="3.32"/><path class="cls-2" d="M42.93,43.64a4,4,0,0,1,2.51.84A3,3,0,0,1,46.56,47a3.66,3.66,0,0,1-1.2,2.43,4,4,0,0,1-2.43,1.09,3.39,3.39,0,0,1-2.59-.93A3.55,3.55,0,0,1,39.21,47a3.26,3.26,0,0,1,1.2-2.52A4,4,0,0,1,42.93,43.64Zm0,.07a2.79,2.79,0,0,0-2.17,1.11A3.52,3.52,0,0,0,40,47a3.12,3.12,0,0,0,.82,2.1,3.29,3.29,0,0,0,2.1,1,2.79,2.79,0,0,0,2.26-.85A3,3,0,0,0,45.94,47a4,4,0,0,0-.83-2.18A2.79,2.79,0,0,0,42.93,43.72Z"/><circle class="cls-3" cx="42.92" cy="47.01" r="1.19"/><path class="cls-3" d="M42.92,45.78a2,2,0,0,1,1,.22,1,1,0,0,1,.49,1,1.51,1.51,0,0,1-.57.93,2,2,0,0,1-.93.47A1.38,1.38,0,0,1,41.33,47a1.18,1.18,0,0,1,.57-1A2,2,0,0,1,42.92,45.78Zm0,.07a.75.75,0,0,0-.66.48,1.65,1.65,0,0,0-.12.67,1,1,0,0,0,.79,1,.74.74,0,0,0,.75-.23A.86.86,0,0,0,43.8,47a4,4,0,0,0-.2-.67A.75.75,0,0,0,42.92,45.86Z"/><circle class="cls-2" cx="15.27" cy="47" r="3.32"/><path class="cls-2" d="M15.27,43.64a4,4,0,0,1,2.51.84A3,3,0,0,1,18.9,47a3.66,3.66,0,0,1-1.2,2.43,4,4,0,0,1-2.43,1.09,3.39,3.39,0,0,1-2.59-.93A3.54,3.54,0,0,1,11.56,47a3.26,3.26,0,0,1,1.2-2.52A4,4,0,0,1,15.27,43.64Zm0,.07a2.79,2.79,0,0,0-2.17,1.11A3.52,3.52,0,0,0,12.36,47a3.12,3.12,0,0,0,.82,2.1,3.29,3.29,0,0,0,2.1,1,2.79,2.79,0,0,0,2.26-.85A3,3,0,0,0,18.28,47a4,4,0,0,0-.83-2.18A2.79,2.79,0,0,0,15.27,43.72Z"/><circle class="cls-3" cx="15.26" cy="47.01" r="1.19"/><path class="cls-3" d="M15.26,45.78a2,2,0,0,1,1,.22,1,1,0,0,1,.49,1,1.51,1.51,0,0,1-.57.93,2,2,0,0,1-.93.47A1.38,1.38,0,0,1,13.68,47a1.18,1.18,0,0,1,.57-1A2,2,0,0,1,15.26,45.78Zm0,.07a.74.74,0,0,0-.66.49,1.65,1.65,0,0,0-.12.67,1,1,0,0,0,.79,1,.74.74,0,0,0,.75-.23.86.86,0,0,0,.12-.75,4,4,0,0,0-.2-.67A.75.75,0,0,0,15.26,45.86Z"/><path class="cls-4" d="M12.36,41.82H30.94V30.88a.27.27,0,0,0-.27-.27h-18a.27.27,0,0,0-.27.27Z"/><path class="cls-2" d="M12.39,41.79c3.21-.12,6.32-.22,9.38-.26,1.54,0,3.06,0,4.59,0s3,.07,4.58.11l-.21.21c.12-3.4.12-6.79,0-10.19l0-.64c0-.14,0-.13,0-.15s0,0-.15,0l-1.27,0-2.55.06-5.1.07q-2.55,0-5.1,0H12.73c-.17,0,0,0,0,0s0-.12,0,0v.62C12.65,34.93,12.51,38.28,12.39,41.79Zm-.05.05c-.12-3.28-.26-6.73-.32-10.2V31a.72.72,0,0,1,.17-.55.73.73,0,0,1,.56-.2h3.82q2.55,0,5.1,0l5.1.07,2.55.06,1.27,0a.57.57,0,0,1,.44.15.56.56,0,0,1,.13.44l0,.64c-.09,3.4-.1,6.79,0,10.19V42h-.21c-1.56,0-3.13.11-4.7.11s-3.14,0-4.7,0C18.4,42.07,15.32,42,12.33,41.85Z"/><path class="cls-5" d="M14.6,30.58H29V22.13a.21.21,0,0,0-.21-.21H14.81a.21.21,0,0,0-.21.21Z"/><path class="cls-2" d="M14.63,30.55c2.51-.12,4.91-.22,7.27-.26,1.19,0,2.36,0,3.53,0s2.34.07,3.53.11l-.21.21c.12-2.62.12-5.25,0-7.87l0-.49c0-.12,0-.08,0-.09h-.08l-1,0-2,.06-3.94.07q-2,0-3.94,0h-3c-.15,0,0,0,0-.05s0-.17,0,0v.48C14.89,25.24,14.76,27.81,14.63,30.55Zm-.05.05c-.12-2.51-.26-5.18-.32-7.88v-.51a.63.63,0,0,1,.16-.49.65.65,0,0,1,.49-.18h3q2,0,3.94,0l3.94.07,2,.06,1,0a.49.49,0,0,1,.38.13.48.48,0,0,1,.11.38l0,.49c-.09,2.62-.1,5.25,0,7.87v.2H29c-1.21,0-2.43.11-3.65.11s-2.44,0-3.65,0C19.24,30.83,16.86,30.72,14.58,30.61Z"/><path class="cls-5" d="M43.92,33.17V23.83a5.75,5.75,0,1,0-11.5,0v9.33"/><path class="cls-2" d="M43.88,33.17A90.92,90.92,0,0,1,43.61,24a5.42,5.42,0,0,0-1.42-4.07,5.17,5.17,0,0,0-4-1.63,5.67,5.67,0,0,0-3.86,1.79A5.59,5.59,0,0,0,32.82,24c0,3.06-.12,6.12-.36,9.18h-.08C32.14,30.11,32.06,27,32,24a6,6,0,0,1,1.78-4.4,5.8,5.8,0,0,1,4.36-1.71A6.36,6.36,0,0,1,44.23,24,90.92,90.92,0,0,1,44,33.17Z"/><path class="cls-2" d="M39.74,18.24a4.58,4.58,0,0,1-.25-1.08c-.05-.37,0-.74-.07-1a1.23,1.23,0,0,0-.38-.86,1,1,0,0,0-.94-.2A1.53,1.53,0,0,0,37,16.3a2.87,2.87,0,0,0-.06.47c0,.18,0,.36-.07.54a7,7,0,0,1-.26,1.08h-.07a7,7,0,0,1-.26-1.08c0-.18-.05-.36-.07-.54a2.47,2.47,0,0,1,0-.61,1.75,1.75,0,0,1,1.89-1.46,2.62,2.62,0,0,1,1.1.41A2,2,0,0,1,40,16a1.39,1.39,0,0,1,.09.62c0,.18,0,.36,0,.54a4.59,4.59,0,0,1-.25,1.08Z"/><path class="cls-2" d="M37.77,18.32a2,2,0,0,1,1.07.12,3.12,3.12,0,0,1,.91.61,4.28,4.28,0,0,1,1.1,1.84A28.61,28.61,0,0,1,41.28,25a30.54,30.54,0,0,1-.17,8.16H41A30.53,30.53,0,0,1,40.87,25a8.13,8.13,0,0,0,0-2,7,7,0,0,0-.63-1.89,7.5,7.5,0,0,0-.94-1.66,2.69,2.69,0,0,0-1.56-1Z"/><path class="cls-2" d="M39,18.44A4.39,4.39,0,0,0,36.17,21a6.15,6.15,0,0,0-.74,1.87,7.19,7.19,0,0,0,0,2.06,31.69,31.69,0,0,1-.17,8.31h-.07A31.69,31.69,0,0,1,35,24.91a18.22,18.22,0,0,1,.59-4.19A4.21,4.21,0,0,1,36.9,19,2.66,2.66,0,0,1,39,18.37Z"/><path class="cls-2" d="M38.2,18.44a13.93,13.93,0,0,1,.27,3.61c-.05.6-.16,1.2-.19,1.81a11.63,11.63,0,0,0,.08,1.81,30.45,30.45,0,0,1,.19,3.61,21.57,21.57,0,0,1-.36,3.61h-.07a21.58,21.58,0,0,1-.36-3.61A30.45,30.45,0,0,1,38,25.66,11.63,11.63,0,0,0,38,23.86c0-.6-.14-1.2-.19-1.81a13.93,13.93,0,0,1,.27-3.61Z"/><path class="cls-2" d="M32.32,29.87a9.18,9.18,0,0,1,2.92-.27c.49.05,1,.16,1.46.19a7.64,7.64,0,0,0,1.46-.08,20,20,0,0,1,2.92-.19,14.25,14.25,0,0,1,2.92.36v.08a14.24,14.24,0,0,1-2.92.36,20,20,0,0,1-2.92-.19A7.64,7.64,0,0,0,36.71,30c-.49,0-1,.14-1.46.19a9.18,9.18,0,0,1-2.92-.27Z"/><path class="cls-2" d="M32.32,26.74a9.18,9.18,0,0,1,2.92-.27c.49.05,1,.16,1.46.19a7.63,7.63,0,0,0,1.46-.08,20,20,0,0,1,2.92-.19,14.25,14.25,0,0,1,2.92.36v.07a14.24,14.24,0,0,1-2.92.36A20,20,0,0,1,38.17,27a7.64,7.64,0,0,0-1.46-.08c-.49,0-1,.14-1.46.19a9.18,9.18,0,0,1-2.92-.27Z"/><path class="cls-2" d="M32.32,23.79a9.18,9.18,0,0,1,2.92-.27c.49.05,1,.16,1.46.19a7.64,7.64,0,0,0,1.46-.08,20,20,0,0,1,2.92-.19,14.24,14.24,0,0,1,2.92.36v.07a14.24,14.24,0,0,1-2.92.36A20,20,0,0,1,38.17,24a7.62,7.62,0,0,0-1.46-.08c-.49,0-1,.14-1.46.19a9.18,9.18,0,0,1-2.92-.27Z"/><path class="cls-6" d="M31,41.83H45.33V33.37a.21.21,0,0,0-.21-.21H31.18a.21.21,0,0,0-.21.21Z"/><path class="cls-2" d="M31,41.8c2.51-.12,4.91-.22,7.27-.26,1.19,0,2.36,0,3.53,0s2.34.07,3.53.11l-.21.21c.12-2.62.12-5.25,0-7.87l0-.49c0-.12,0-.09,0-.09H45l-1,0-2,.06-3.94.07q-2,0-3.94,0h-3c-.15,0,0,0,0-.05s0-.17,0,0v.48C31.26,36.48,31.12,39.06,31,41.8Zm-.05.05c-.12-2.51-.26-5.18-.32-7.88v-.51a.64.64,0,0,1,.15-.48.65.65,0,0,1,.49-.18h3q2,0,3.94,0l3.94.07,2,.06,1,0a.49.49,0,0,1,.38.13.48.48,0,0,1,.11.37l0,.49c-.09,2.62-.1,5.25,0,7.87V42h-.22c-1.21,0-2.43.11-3.65.11s-2.44,0-3.65,0C35.61,42.08,33.22,42,30.95,41.85Z"/></g></g></svg>