<svg xmlns="http://www.w3.org/2000/svg" viewBox="0 0 70.68 65.09"><defs><style>.cls-1{fill:#f4f6f8;}.cls-2{fill:#afc680;}.cls-3{fill:#1a1a35;}.cls-4{fill:#80bc43;}.cls-5{fill:#fff;}.cls-6{fill:#fcc04d;}.cls-7{fill:#fab627;}</style></defs><title>Asset 10</title><g id="Layer_2" data-name="Layer 2"><g id="Layer_1-2" data-name="Layer 1"><path class="cls-1" d="M2.19,18.33c3-7.47,10-20.13,19.08-18.12,8.72,1.94,16.92,0,27,3.12,7.14,2.22,15.6,9.21,19.25,15,5.26,8.34,3.31,16.82-.53,26.42C64.3,51.36,55.52,58.54,49.72,61.92c-8.46,4.93-23,3.56-33-.46C7.18,57.65,3.5,51.41,1.19,41.48-.44,34.44-.65,25.45,2.19,18.33Z"/><path class="cls-2" d="M56,20.24l4.72.33a2.86,2.86,0,0,1,2.65,3L61.71,47.12a2.86,2.86,0,0,1-3,2.65l-48-3.51"/><path class="cls-3" d="M56,20.2l2.67.1,1.33,0a6.22,6.22,0,0,1,1.37.13,3.1,3.1,0,0,1,2.06,1.86,3.19,3.19,0,0,1,.2,1.42l-.08,1.33c-.22,3.55-.43,7.1-.72,10.65s-.66,7.09-.92,10.64a7.28,7.28,0,0,1-.17,1.35,3.19,3.19,0,0,1-.68,1.2,3,3,0,0,1-2.5,1c-1.77-.13-3.55-.21-5.33-.32-7.11-.4-14.21-.82-21.31-1.38S17.72,47,10.64,46.3v-.07q10.67.43,21.32,1.21c7.1.48,14.19,1.1,21.28,1.74,1.77.15,3.54.33,5.32.46a2.74,2.74,0,0,0,2.31-.86,2.69,2.69,0,0,0,.62-1.11,7.13,7.13,0,0,0,.14-1.3c.24-3.55.36-7.11.56-10.66s.49-7.1.76-10.65l.11-1.33a2.64,2.64,0,0,0-1.83-2.86A7,7,0,0,0,60,20.69l-1.33-.14L56,20.28Z"/><path class="cls-4" d="M8,17.06,53,15.62a2.86,2.86,0,0,1,2.95,2.76l.75,23.55a2.86,2.86,0,0,1-2.76,2.95L9,46.31A2.86,2.86,0,0,1,6,43.55L5.27,20A2.86,2.86,0,0,1,8,17.06Z"/><path class="cls-3" d="M8,17c6.45-.22,12.91-.51,19.36-.82s12.9-.53,19.36-.7l4.84-.11,1.21,0a3.34,3.34,0,0,1,1.28.18,3.1,3.1,0,0,1,1.83,1.76,3.34,3.34,0,0,1,.23,1.26l0,1.21.06,2.42L56.34,27c.06,3.23.19,6.45.32,9.68l.18,4.84A3.18,3.18,0,0,1,56.16,44a3.06,3.06,0,0,1-2.25,1.12c-12.9.53-25.81,1-38.72,1.42l-4.84.15-1.21,0a3.47,3.47,0,0,1-1.33-.18,3.19,3.19,0,0,1-1.91-1.84,3.47,3.47,0,0,1-.23-1.3l0-1.21,0-2.42-.1-4.84-.18-9.69-.12-4.84a3.06,3.06,0,0,1,.67-2.3A2.91,2.91,0,0,1,8,17Zm0,.07a2.82,2.82,0,0,0-2.07,1,2.94,2.94,0,0,0-.62,2.23l.19,4.84L6,34.88l.21,4.84.11,2.42.05,1.21a2.75,2.75,0,0,0,.21,1.06,2.53,2.53,0,0,0,1.5,1.39,2.7,2.7,0,0,0,1.06.13l1.21,0,4.84-.16C28.08,45.28,41,45,53.9,44.67a2.67,2.67,0,0,0,2-1,2.81,2.81,0,0,0,.61-2.14l-.13-4.84c-.08-3.23-.16-6.46-.3-9.68l-.19-4.84-.1-2.42a7.43,7.43,0,0,0-.26-2.32A2.63,2.63,0,0,0,53.92,16a2.84,2.84,0,0,0-1.11-.13l-1.21.05-4.84.2c-6.45.24-12.91.44-19.37.55S14.48,16.9,8,17.1Z"/><polyline class="cls-5" points="56.13 24.91 63.22 25.4 62.47 33.09 56.38 32.89 56.13 24.91"/><path class="cls-3" d="M56.13,24.87c1.19,0,2.38,0,3.56,0s2.37.11,3.55.17l.34,0,0,.35c-.21,2.57-.77,5.1-1,7.67v.11h-.11c-1,0-2,0-3,0s-2,0-3,0H56l0-.36q-.13-2-.09-4c0-1.33.06-2.67.17-4h.07c.2,1.33.33,2.65.43,4s.17,2.66.17,4l-.36-.37c1,.06,2,.12,3,.21s2,.21,3,.25l-.12.11c.3-2.56.25-5.15.54-7.71l.31.37c-1.18-.11-2.36-.19-3.54-.33s-2.36-.27-3.53-.46Z"/><path class="cls-6" d="M10.77,28.28,19.06,28a.53.53,0,0,1,.54.51l.14,4.35a.53.53,0,0,1-.51.54l-8.29.27a.53.53,0,0,1-.54-.51l-.14-4.35A.53.53,0,0,1,10.77,28.28Z"/><path class="cls-7" d="M10.76,28.24c2.38-.08,4.75-.58,7.14-.5l.89,0H19a.84.84,0,0,1,.31.05.75.75,0,0,1,.43.44,1.41,1.41,0,0,1,0,.52v1.34c0,.6,0,1.19.07,1.79,0,.3,0,.59.06.89a.72.72,0,0,1-.66.82c-2.38.22-4.76.35-7.14.42H11a1,1,0,0,1-.36-.05.88.88,0,0,1-.52-.52.93.93,0,0,1-.06-.34v-.67l0-.9.09-1.79c0-.3,0-.6,0-.89A.59.59,0,0,1,10.76,28.24Zm0,.07a.49.49,0,0,0-.45.57c0,.3,0,.59.08.89l.2,1.78.18,1.65a.17.17,0,0,0,.1.08h.31l.89,0c2.38-.07,4.76-.1,7.15,0a.35.35,0,0,0,.35-.4c0-.3,0-.6,0-.89,0-.6,0-1.19,0-1.79l-.06-.89,0-.45a1.12,1.12,0,0,0-.06-.37.3.3,0,0,0-.2-.15,1.63,1.63,0,0,0-.36,0l-.89.08C15.54,28.59,13.15,28.24,10.77,28.31Z"/><path class="cls-5" d="M62.67,33.33l-6.29-.44m-.25-8,7.1.49Z"/><path class="cls-3" d="M62.67,33.36a9.28,9.28,0,0,1-1.59.14,9.75,9.75,0,0,1-1.57-.09c-.52-.09-1-.24-1.56-.3a14.22,14.22,0,0,0-1.58-.07l0-.32a14.23,14.23,0,0,0,1.57.15c.53,0,1.06-.06,1.59-.08a9.76,9.76,0,0,1,1.57.13,9.28,9.28,0,0,1,1.56.36Z"/><path class="cls-3" d="M56.13,24.87a11.71,11.71,0,0,1,1.79-.13,12.41,12.41,0,0,1,1.78.1c.59.09,1.17.24,1.76.31a11.29,11.29,0,0,0,1.78,0l0,.41a29.55,29.55,0,0,1-3.56-.05,21,21,0,0,1-3.52-.61Zm0,0a21,21,0,0,1,3.57-.11,29.55,29.55,0,0,1,3.54.44l0,.41a11.3,11.3,0,0,0-1.77-.21c-.59,0-1.19.05-1.79.07a12.42,12.42,0,0,1-1.77-.15,11.72,11.72,0,0,1-1.76-.38Z"/><path class="cls-3" d="M56.34,30.63a.82.82,0,0,1,.72.41,2.71,2.71,0,0,0,.11.42.6.6,0,0,0,.32.24,1.59,1.59,0,0,1,.66.46,1.37,1.37,0,0,1,.24.83l-.06,0a1.37,1.37,0,0,1-.79-.35,1.59,1.59,0,0,1-.37-.72.6.6,0,0,0-.19-.35,2.71,2.71,0,0,0-.4-.17.82.82,0,0,1-.31-.77Z"/><path class="cls-3" d="M59.29,25.1a2.26,2.26,0,0,1,1.13.88,7,7,0,0,0,.32.65,1.81,1.81,0,0,0,.52.47,4.74,4.74,0,0,1,1.07.93,3.57,3.57,0,0,1,.65,1.3l-.06,0a3.57,3.57,0,0,1-1.2-.82,4.74,4.74,0,0,1-.78-1.19,1.81,1.81,0,0,0-.4-.58,7,7,0,0,0-.6-.4,2.26,2.26,0,0,1-.71-1.24Z"/><path class="cls-3" d="M56.34,25.85a6.11,6.11,0,0,1,1.75,1.63c.22.34.39.71.63,1a5.05,5.05,0,0,0,.83.85A13.23,13.23,0,0,1,61.23,31a9.52,9.52,0,0,1,1.26,2l-.06,0a9.52,9.52,0,0,1-1.82-1.57,13.23,13.23,0,0,1-1.39-1.93,5.05,5.05,0,0,0-.71-1c-.28-.28-.62-.51-.91-.78a6.11,6.11,0,0,1-1.33-2Z"/><polyline class="cls-6" points="10.68 31.19 13.37 31.06 14.91 28.15"/><path class="cls-7" d="M10.68,31.15A2.64,2.64,0,0,1,12,30.8a4.09,4.09,0,0,1,.68.14,1.58,1.58,0,0,0,.67,0l-.11.07c.08-.27.12-.56.22-.82s.19-.52.32-.76a4,4,0,0,1,1.09-1.29l.07,0a4,4,0,0,1-.45,1.63c-.13.24-.3.46-.45.69s-.38.42-.55.64l-.06.08h-.05a1.58,1.58,0,0,0-.67.06,4.09,4.09,0,0,1-.66.2,2.64,2.64,0,0,1-1.36-.23Z"/><polyline class="cls-6" points="13.95 30.17 15.68 31.64 17.72 31.59 17.75 33.46"/><path class="cls-7" d="M14,30.14a2.73,2.73,0,0,1,1.06.51c.32.2.49.6.74.89l-.09,0a2.51,2.51,0,0,0,1-.16,6.56,6.56,0,0,1,1-.17l.38-.06,0,.45a4.19,4.19,0,0,1-.33,1.88h-.07a4.19,4.19,0,0,1-.39-1.87l.41.39a6.57,6.57,0,0,1-1-.11,2.51,2.51,0,0,0-1-.1h0l-.06,0a3.89,3.89,0,0,1-1-.58,2.73,2.73,0,0,1-.68-1Z"/><line class="cls-6" x1="15.69" y1="31.53" x2="17.53" y2="28.28"/><path class="cls-7" d="M15.66,31.51a1.09,1.09,0,0,1,.22-.95,3.51,3.51,0,0,0,.4-.31.83.83,0,0,0,.16-.45,2.18,2.18,0,0,1,.29-.91,1.78,1.78,0,0,1,.78-.63l.07,0a1.78,1.78,0,0,1-.14,1,2.18,2.18,0,0,1-.63.71.83.83,0,0,0-.3.36,3.5,3.5,0,0,0-.06.5,1.09,1.09,0,0,1-.7.68Z"/><line class="cls-6" x1="11.73" y1="31.25" x2="14.45" y2="33.56"/><path class="cls-7" d="M11.76,31.22a1,1,0,0,1,.86.37,3.26,3.26,0,0,0,.22.43.76.76,0,0,0,.39.22,2,2,0,0,1,.8.43,1.65,1.65,0,0,1,.44.85l0,.06a1.65,1.65,0,0,1-.91-.3,2,2,0,0,1-.55-.73.76.76,0,0,0-.28-.35,3.27,3.27,0,0,0-.46-.14,1,1,0,0,1-.5-.79Z"/><path class="cls-3" d="M11.49,42.25c.35-.32,1,.09.94.61a.92.92,0,0,1-.39.53,1.75,1.75,0,0,1-.51.32.81.81,0,0,1-1-.78c0-.56.62-.95,1-.68v.07a.52.52,0,0,0-.19.58.46.46,0,0,0,.22.4.25.25,0,0,0,.34-.07.32.32,0,0,0-.06-.34c-.09-.13,0-.28-.32-.56Z"/><path class="cls-3" d="M14.61,42.19c.35-.32,1,.09.94.61a.92.92,0,0,1-.39.53,1.73,1.73,0,0,1-.51.32.81.81,0,0,1-1-.78c0-.56.62-.94,1-.68v.07a.52.52,0,0,0-.19.58.46.46,0,0,0,.22.4.25.25,0,0,0,.34-.07.32.32,0,0,0-.06-.34c-.09-.13,0-.28-.32-.56Z"/><path class="cls-3" d="M17.73,42.13c.35-.32,1,.09.94.61a.92.92,0,0,1-.39.53,1.74,1.74,0,0,1-.51.32.81.81,0,0,1-1-.78c0-.56.62-.95,1-.68v.07a.52.52,0,0,0-.19.58.46.46,0,0,0,.22.4.25.25,0,0,0,.34-.07.32.32,0,0,0-.06-.34c-.09-.13,0-.28-.32-.56Z"/><path class="cls-3" d="M23.18,41.9c.35-.32,1,.09.94.61a.92.92,0,0,1-.39.53,1.75,1.75,0,0,1-.51.32.81.81,0,0,1-1-.78c0-.56.62-.95,1-.68V42a.52.52,0,0,0-.19.58.46.46,0,0,0,.22.4.25.25,0,0,0,.34-.07.32.32,0,0,0-.06-.34c-.09-.13,0-.28-.32-.56Z"/><path class="cls-3" d="M26.3,41.84c.35-.32,1,.09.94.61a.92.92,0,0,1-.39.53,1.73,1.73,0,0,1-.51.32.81.81,0,0,1-1-.78c0-.56.62-.94,1-.68v.07a.52.52,0,0,0-.19.58.46.46,0,0,0,.22.4.25.25,0,0,0,.34-.07.32.32,0,0,0-.06-.34c-.09-.13,0-.28-.32-.56Z"/><path class="cls-3" d="M29.42,41.78c.35-.32,1,.09.94.61a.92.92,0,0,1-.39.53,1.74,1.74,0,0,1-.51.32.81.81,0,0,1-1-.78c0-.56.62-.95,1-.68v.07a.52.52,0,0,0-.19.58.46.46,0,0,0,.22.4.25.25,0,0,0,.34-.07.32.32,0,0,0-.06-.34c-.09-.13,0-.28-.32-.56Z"/><path class="cls-3" d="M34.68,41.53c.35-.32,1,.09.94.61a.92.92,0,0,1-.39.53,1.75,1.75,0,0,1-.51.32.81.81,0,0,1-1-.78c0-.56.62-.95,1-.68v.07a.52.52,0,0,0-.19.58.46.46,0,0,0,.22.4.25.25,0,0,0,.34-.07.32.32,0,0,0-.06-.34c-.09-.13,0-.28-.32-.56Z"/><path class="cls-3" d="M37.8,41.47c.35-.32,1,.1.94.61a.91.91,0,0,1-.39.53,1.74,1.74,0,0,1-.51.31.81.81,0,0,1-1-.78c0-.56.62-.94,1-.68v.07a.52.52,0,0,0-.19.58.46.46,0,0,0,.22.4.25.25,0,0,0,.34-.07.32.32,0,0,0-.06-.34c-.09-.13,0-.28-.32-.56Z"/><path class="cls-3" d="M40.92,41.41c.35-.32,1,.09.94.61a.92.92,0,0,1-.39.53,1.73,1.73,0,0,1-.51.32.81.81,0,0,1-1-.78c0-.56.62-.95,1-.68v.07a.52.52,0,0,0-.19.58.47.47,0,0,0,.22.4.25.25,0,0,0,.34-.07.32.32,0,0,0-.06-.34c-.09-.13,0-.28-.32-.56Z"/><path class="cls-3" d="M45.91,41.17c.35-.32,1,.09.94.61a.92.92,0,0,1-.39.53,1.75,1.75,0,0,1-.51.32.81.81,0,0,1-1-.78c0-.56.62-.95,1-.68v.07a.52.52,0,0,0-.19.58.47.47,0,0,0,.22.4.25.25,0,0,0,.34-.07.32.32,0,0,0-.06-.34c-.09-.13,0-.28-.32-.56Z"/><path class="cls-3" d="M49,41.11c.35-.32,1,.1.94.61a.91.91,0,0,1-.39.53,1.74,1.74,0,0,1-.51.31.81.81,0,0,1-1-.78c0-.56.62-.95,1-.68v.07a.52.52,0,0,0-.19.58.46.46,0,0,0,.22.4.25.25,0,0,0,.34-.07.31.31,0,0,0-.06-.34c-.09-.13,0-.28-.32-.56Z"/><path class="cls-3" d="M52.14,41.05c.35-.32,1,.09.94.61a.92.92,0,0,1-.39.53,1.74,1.74,0,0,1-.51.32.81.81,0,0,1-1-.78c0-.56.62-.94,1-.68v.07a.52.52,0,0,0-.19.58.47.47,0,0,0,.22.4.25.25,0,0,0,.34-.07.32.32,0,0,0-.06-.34c-.09-.13,0-.28-.32-.56Z"/><line class="cls-2" x1="38.19" y1="25.59" x2="48.67" y2="25.09"/><path class="cls-3" d="M38.19,25.54a5.67,5.67,0,0,1,2.6-.49c.44,0,.88.18,1.32.19a4.65,4.65,0,0,0,1.3-.17A11.92,11.92,0,0,1,46,24.68a8.79,8.79,0,0,1,2.64.36v.1a8.79,8.79,0,0,1-2.6.61,11.92,11.92,0,0,1-2.63-.13,4.65,4.65,0,0,0-1.31,0c-.43.05-.86.23-1.3.32a5.67,5.67,0,0,1-2.64-.24Z"/><line class="cls-2" x1="29.93" y1="22.59" x2="48.87" y2="22.09"/><path class="cls-3" d="M29.92,22.54A18,18,0,0,1,34.65,22c.79.05,1.58.18,2.38.19a15,15,0,0,0,2.37-.17,39.32,39.32,0,0,1,4.73-.38,27.87,27.87,0,0,1,4.75.36v.1a27.87,27.87,0,0,1-4.72.61,39.32,39.32,0,0,1-4.74-.13,15,15,0,0,0-2.37,0c-.79.06-1.57.22-2.36.32a18,18,0,0,1-4.75-.24Z"/></g></g></svg>