<svg viewBox="0 0 101 101" fill="none" xmlns="http://www.w3.org/2000/svg"><path fill-rule="evenodd" clip-rule="evenodd" d="M40.152.763c10.06-2.32 18.081 8.57 27.548 12.833 9.864 4.442 23.015 3.516 29.02 12.643 6.063 9.216 4.247 21.973.593 32.368-3.234 9.2-12.398 13.959-19.273 20.764-6.486 6.422-11.318 14.652-19.792 17.91-9.54 3.667-20.091 4.251-29.87 1.183C17.52 95.057 4.015 90.424.93 79.296c-3.165-11.422 9.284-20.75 13.309-31.844 2.792-7.695 2.646-15.916 6.608-23.055C25.924 15.25 30.072 3.087 40.152.763z" fill="#78D5D7"/></svg>