<svg viewBox="0 0 20 20" fill="none" xmlns="http://www.w3.org/2000/svg"><path fill-rule="evenodd" clip-rule="evenodd" d="M7.292 4.167a.625.625 0 0 1-.625-.625v-1.25A2.293 2.293 0 0 1 8.958 0h9.375a.63.63 0 0 1 .092.007C19.29.062 20 .777 20 1.667v15c0 .711-.453 1.346-1.128 1.581l-5.008 1.67a1.743 1.743 0 0 1-.53.082c-.92 0-1.667-.747-1.667-1.667V17.5H8.958a2.293 2.293 0 0 1-2.291-2.292v-1.25a.625.625 0 0 1 1.25 0v1.25c0 .575.467 1.042 1.041 1.042h2.709V3.333c0-.712.453-1.348 1.128-1.582l1.502-.501H8.958c-.574 0-1.041.468-1.041 1.042v1.25c0 .345-.28.625-.625.625zm5.625 14.166c0 .285.308.476.566.395l4.985-1.662a.431.431 0 0 0 .282-.4v-15a.417.417 0 0 0-.417-.416c-.054 0-.1.007-.149.022l-4.986 1.662a.43.43 0 0 0-.281.4v15z" fill="#fff"/><path d="M5.417 12.5a.625.625 0 0 1-.442-1.068l2.058-2.057H.625a.625.625 0 0 1 0-1.25h6.409L4.975 6.067a.625.625 0 0 1 .884-.885l3.125 3.125a.625.625 0 0 1 0 .885L5.86 12.317a.624.624 0 0 1-.442.183z" fill="#fff"/></svg>