<svg viewBox="0 0 20 20" fill="none" xmlns="http://www.w3.org/2000/svg"><path d="M6.667 8.943v4.956a.102.102 0 0 0 .101.101h6.467a.101.101 0 0 0 .098-.1V8.942L10 5.609 6.667 8.943z" fill="#084C61"/><path d="M10 0a10 10 0 1 0 10 10A10.011 10.011 0 0 0 10 0zm5.471 10.138a.633.633 0 0 1-.804.092v3.667a1.436 1.436 0 0 1-1.435 1.436H6.765A1.436 1.436 0 0 1 5.333 13.9v-3.666a.657.657 0 0 1-1-.564c0-.176.07-.346.196-.471l1-1 4-4a.667.667 0 0 1 .942 0l4 4 1 1a.667.667 0 0 1 0 .94z" fill="#084C61"/></svg>