<svg viewBox="0 0 20 20" fill="none" xmlns="http://www.w3.org/2000/svg"><path d="M12.282 3.761h-1.846V7.34h1.846c.987 0 1.79-.802 1.79-1.789 0-.986-.803-1.789-1.79-1.789zm-4.564 0c-.987 0-1.79.803-1.79 1.79 0 .986.803 1.788 1.79 1.788h1.846V3.761H7.718zm0 4.45c-.987 0-1.79.803-1.79 1.789 0 .987.803 1.79 1.79 1.79h1.846V8.21H7.718zm.014 8.028c1.01 0 1.832-.816 1.832-1.818v-1.76H7.718c-.987 0-1.79.802-1.79 1.789 0 .986.81 1.789 1.804 1.789zm4.493-4.45h.057A1.79 1.79 0 0 0 14.072 10c0-.986-.803-1.79-1.79-1.79h-.057c-.987 0-1.79.804-1.79 1.79 0 .987.803 1.79 1.79 1.79z" fill="#084C61"/><path fill-rule="evenodd" clip-rule="evenodd" d="M20 10c0 5.523-4.477 10-10 10S0 15.523 0 10 4.477 0 10 0s10 4.477 10 10zm-5.057-4.45c0 .93-.479 1.75-1.203 2.225a2.66 2.66 0 0 1-1.458 4.886h-.057a2.651 2.651 0 0 1-1.79-.693v2.453a2.7 2.7 0 0 1-2.703 2.69 2.67 2.67 0 0 1-2.675-2.661c0-.93.479-1.75 1.203-2.225a2.66 2.66 0 0 1 0-4.45A2.66 2.66 0 0 1 7.718 2.89h4.564a2.663 2.663 0 0 1 2.661 2.66z" fill="#084C61"/></svg>