<svg viewBox="0 0 20 20" fill="none" xmlns="http://www.w3.org/2000/svg"><path d="M4.187 3.546a.393.393 0 0 0 .292-.125c.056-.06 1.4-1.46 3.419-2.155 2.693-.934 5.244-.212 7.569 2.134a.395.395 0 0 0 .582-.017.45.45 0 0 0-.015-.613C14.624 1.353 13.116.468 11.542.142 10.279-.118 8.976-.02 7.668.43 5.445 1.196 3.963 2.743 3.9 2.808a.449.449 0 0 0-.122.31c0 .119.04.227.117.309.077.07.179.12.291.12z" fill="#fff"/><path d="M16.995 9.235c-.42-2.866-1.482-4.923-3.164-6.107-2.443-1.72-5.33-.977-5.448-.944-.22.054-.357.293-.301.526.05.234.276.38.496.32h.001c.133-.034 2.642-.67 4.777.831 1.498 1.053 2.453 2.904 2.831 5.505a.452.452 0 0 0 .164.287.397.397 0 0 0 .24.087c.02 0 .041 0 .061-.005a.438.438 0 0 0 .343-.5zM7.172 3.573c-.123.044-2.98 1.097-3.347 5.668a.467.467 0 0 1-.144.298.41.41 0 0 1-.265.103H3.38a.41.41 0 0 1-.281-.152.457.457 0 0 1-.097-.32c.414-5.14 3.761-6.373 3.904-6.422a.409.409 0 0 1 .522.277.438.438 0 0 1-.256.548z" fill="#fff"/><path d="M5.537 9.208c.133-1.113.557-2.177 1.2-3.002a4.512 4.512 0 0 1 1.641-1.324 3.786 3.786 0 0 1 2.08-.31c1.012.136 2.024.646 3.02 1.526.175.152.435.13.578-.055a.438.438 0 0 0 .092-.32A.414.414 0 0 0 14 5.43c-1.12-.988-2.274-1.569-3.445-1.721a4.508 4.508 0 0 0-2.504.375c-.73.336-1.405.879-1.947 1.568-.746.95-1.237 2.177-1.385 3.453-.107.906-.24 1.677-.399 2.285-.204.787-.444 1.309-.705 1.542a.46.46 0 0 0-.056.619c.081.103.2.157.317.157.092 0 .189-.032.265-.103.394-.347.721-1.015.971-1.981.17-.657.312-1.471.425-2.416z" fill="#fff"/><path d="M13.79 10.799v.005l.001.008c.179 1.81.363 3.68 1.093 5.394a.45.45 0 0 1-.204.575.381.381 0 0 1-.169.038.405.405 0 0 1-.373-.255c-.782-1.83-.976-3.778-1.16-5.662l-.02-.202c-.03-.296-.06-.604-.098-.949a5.18 5.18 0 0 1-.016-.141c-.005-.055-.012-.117-.02-.18-.097-.922-.189-1.796-.848-2.42-.383-.37-.9-.62-1.441-.717-.45-.081-.9-.049-1.314.092a2.583 2.583 0 0 0-1.175.815c-.46.548-.772 1.302-.92 2.247-.092 1.097-.373 2.557-.741 3.81-.215.74-.654 2.042-1.17 2.498a.415.415 0 0 1-.302.098.417.417 0 0 1-.281-.158.46.46 0 0 1 .056-.619c.256-.228.588-.988.91-2.084.347-1.189.618-2.579.705-3.621v-.016c.003-.009.004-.02.006-.03a.283.283 0 0 1 .004-.03c.174-1.113.552-2.014 1.12-2.687.429-.505.945-.863 1.538-1.064a3.424 3.424 0 0 1 1.692-.125 3.64 3.64 0 0 1 1.855.928c.894.847 1.007 1.884 1.12 2.975l.035.315.04.398c.025.248.051.51.078.764z" fill="#fff"/><path d="M12.027 9.984c.077-.803-.066-1.503-.419-2.03a1.943 1.943 0 0 0-.843-.722 1.71 1.71 0 0 0-1.012-.114 1.78 1.78 0 0 0-1.124.76 3.772 3.772 0 0 0-.44.901c-.117.342-.22.738-.301 1.189-.062.342-.103.646-.138.934l-.004.025c-.065.516-.122.973-.324 1.587-.204.624-.49 1.308-.858 2.047-.48.966-.935 1.672-1.12 1.916a.457.457 0 0 0 .057.613.393.393 0 0 0 .577-.06c.256-.33.757-1.145 1.212-2.057.383-.765.69-1.498.91-2.171.227-.703.294-1.22.365-1.762l.002-.019.008-.058c.033-.254.068-.52.125-.827.072-.401.164-.754.266-1.047.097-.283.21-.516.332-.69a.95.95 0 0 1 .608-.412.886.886 0 0 1 .552.065 1.1 1.1 0 0 1 .48.418c.236.353.328.852.272 1.444-.103 1.07-.506 2.627-1.14 4.38-.67 1.863-1.513 3.703-2.009 4.37a.458.458 0 0 0 .072.614.41.41 0 0 0 .25.092c.123 0 .246-.06.322-.168.547-.744 1.421-2.633 2.127-4.598.664-1.84 1.083-3.474 1.195-4.62zm2.913-2.681c.435 1.037.522 2.415.604 3.745l.003.063c.08 1.263.156 2.446.518 3.151a.44.44 0 0 1 .036.331.42.42 0 0 1-.394.315.406.406 0 0 1-.363-.228c-.454-.884-.536-2.19-.623-3.574v-.003c-.077-1.26-.159-2.557-.532-3.447a.451.451 0 0 1 .21-.576c.204-.098.45.006.541.223z" fill="#fff"/><path d="M10.397 9.317a.444.444 0 0 0-.107-.315.39.39 0 0 0-.287-.141.42.42 0 0 0-.429.412 16.747 16.747 0 0 1-.94 4.777c-.527 1.482-1.242 2.763-2.116 3.806a.458.458 0 0 0 .036.619.378.378 0 0 0 .27.108.398.398 0 0 0 .307-.146c.94-1.124 1.707-2.498 2.274-4.077.568-1.59.91-3.333.992-5.043zm2.325 4.94l.041.217.004.02c.229 1.132.444 2.201 1.064 3.383a.464.464 0 0 1 .036.332.443.443 0 0 1-.194.26.392.392 0 0 1-.312.038.41.41 0 0 1-.245-.206c-.47-.885-.716-1.683-.894-2.421-.164.461-.317.863-.476 1.243a17.536 17.536 0 0 1-1.38 2.687.406.406 0 0 1-.342.19.403.403 0 0 1-.23-.076.455.455 0 0 1-.112-.603c.485-.765.914-1.601 1.308-2.551.352-.841.633-1.683.92-2.54l.015-.05a.431.431 0 0 1 .21-.25.403.403 0 0 1 .316-.015.435.435 0 0 1 .271.342z" fill="#fff"/></svg>