<svg viewBox="0 0 249 150" fill="none" xmlns="http://www.w3.org/2000/svg"><mask id="a" style="mask-type:alpha" maskUnits="userSpaceOnUse" x="0" y="0" width="249" height="150"><path fill="#fff" d="M0 0H249V150H0z"/></mask><g mask="url(#a)"><path d="M0 0h249v150H0V0z" fill="#084C61"/><g opacity=".1" filter="url(#filter0_f_321_14566)" fill="#fff"><path d="M-15.11 158.021v35.008H-27.27v-35.008h-10.963v-9.939h34.051v9.939h-10.93z"/><path d="M20.147 183.124v9.905H-6.527v-44.947h26.674v9.768H5.632v7.07h13.456v9.734H5.632v8.47h14.515z"/><path d="M17.177 179.982c2.414 1.252 4.85 2.197 7.309 2.835 2.46.637 4.633.956 6.523.956 1.913 0 3.302-.296 4.167-.888.888-.615 1.332-1.434 1.332-2.459 0-.615-.17-1.15-.512-1.605-.364-.456-.888-.9-1.571-1.332-.66-.456-2.585-1.412-5.772-2.869-3.188-1.457-5.476-2.778-6.865-3.962-2.87-2.459-4.304-5.784-4.304-9.973 0-4.19 1.503-7.446 4.509-9.768 3.028-2.323 7.172-3.484 12.432-3.484 4.622 0 9.37 1.082 14.242 3.245l-3.723 9.358c-4.19-1.913-7.821-2.869-10.895-2.869-1.503 0-2.63.262-3.381.786-.752.523-1.127 1.229-1.127 2.117 0 .865.455 1.651 1.366 2.357.933.706 3.37 1.958 7.309 3.757 3.939 1.776 6.66 3.666 8.163 5.669 1.525 1.958 2.288 4.463 2.288 7.514.045 4.235-1.56 7.685-4.816 10.349-3.233 2.664-7.502 3.973-12.807 3.927-3.029 0-5.579-.216-7.651-.648-2.05-.456-4.121-1.184-6.216-2.186v-10.827z"/><path d="M66.673 158.021v35.008h-12.16v-35.008H43.552v-9.939H77.6v9.939H66.674z"/><path d="M76.963 158.192c0-3.279 1.253-5.875 3.757-7.787 2.528-1.936 5.977-2.903 10.349-2.903 4.394 0 7.799.956 10.212 2.868 2.414 1.913 3.62 4.52 3.62 7.822 0 4.554-2.709 8.481-8.128 11.783l6.113 5.806c1.571-2.414 2.642-5.078 3.211-7.992h12.466c-.615 2.869-1.605 5.749-2.971 8.641-1.344 2.869-2.812 5.26-4.406 7.172l9.836 9.427h-15.54l-3.04-3.142c-1.776 1.161-3.29 1.969-4.542 2.424-2.46.888-5.453 1.332-8.983 1.332-4.827.069-8.777-1.138-11.851-3.62-3.051-2.504-4.531-5.658-4.44-9.46 0-5.374 2.79-9.484 8.368-12.33-2.687-3.006-4.03-6.353-4.03-10.041zm8.027 21.483c0 1.297.466 2.356 1.4 3.176.933.82 2.152 1.229 3.654 1.229 2.209 0 3.905-.501 5.09-1.502l-7.617-7.753c-1.685 1.275-2.527 2.891-2.527 4.85zm9.085-21.483c0-1.867-1.025-2.801-3.074-2.801-.934 0-1.708.273-2.323.82-.614.546-.922 1.343-.922 2.391 0 1.548.91 3.142 2.732 4.781 1.139-.66 2.016-1.446 2.63-2.357.638-.91.957-1.855.957-2.834z"/><path d="M146.186 193.029h-29.441v-44.947h12.159v35.145h17.282v9.802z"/><path d="M171.252 183.124v9.905h-26.674v-44.947h26.674v9.768h-14.516v7.07h13.457v9.734h-13.457v8.47h14.516z"/><path d="M211.213 193.029h-13.286l-2.185-8.436h-14.618l-2.254 8.436h-13.355l14.652-45.118h16.224l14.822 45.118zm-27.562-18.375h9.563c-2.823-10.656-4.44-17.1-4.85-19.331-.455 2.823-2.026 9.267-4.713 19.331z"/><path d="M219.461 176.669v16.36h-12.159v-44.947h14.721c12.227 0 18.34 4.429 18.34 13.286 0 5.214-2.55 9.244-7.65 12.091l13.115 19.57h-13.764l-9.529-16.36h-3.074zm0-19.399v10.28h2.254c4.258 0 6.387-1.879 6.387-5.636 0-3.096-2.083-4.644-6.25-4.644h-2.391z"/><path d="M283.933 148.082v44.947h-15.915l-16.428-31.661h-.274c.388 5.146.581 8.948.581 11.407v20.254h-10.758v-44.947h15.881l16.326 31.251h.205c-.296-4.372-.444-8.015-.444-10.929v-20.322h10.826zm-238.792 6.44H15.7v-44.947h12.158v35.144h17.282v9.803z"/><path d="M84.381 154.522H71.095l-2.186-8.436H54.291l-2.254 8.436H38.683l14.652-45.118h16.223l14.823 45.118zM56.82 136.147h9.563c-2.824-10.656-4.44-17.1-4.85-19.331-.455 2.823-2.026 9.267-4.713 19.331z"/><path d="M106.529 109.575h12.159v27.05c0 5.897-1.662 10.462-4.986 13.696-3.325 3.21-8.083 4.815-14.277 4.815-6.193 0-10.952-1.559-14.276-4.679-3.279-3.142-4.918-7.662-4.918-13.559v-27.323h12.193v26.367c0 3.142.58 5.442 1.742 6.899 1.184 1.457 2.983 2.186 5.396 2.186 2.414 0 4.178-.717 5.294-2.152 1.116-1.434 1.673-3.757 1.673-6.967v-26.333zm55.586 0v44.947h-15.916l-16.428-31.661h-.273c.387 5.146.581 8.948.581 11.407v20.254H119.32v-44.947h15.882l16.325 31.251h.205c-.296-4.372-.444-8.015-.444-10.929v-20.322h10.827z"/><path d="M193.381 121.665c-3.939-1.844-7.366-2.766-10.28-2.766-2.915 0-5.18 1.184-6.797 3.552-1.616 2.368-2.425 5.635-2.425 9.802 0 8.63 3.29 12.945 9.871 12.945 3.005 0 6.808-.934 11.407-2.801v10.246c-3.734 1.662-7.98 2.493-12.739 2.493-6.785 0-11.988-1.969-15.609-5.908-3.597-3.939-5.396-9.62-5.396-17.043-.045-4.622.808-8.698 2.562-12.227 1.776-3.552 4.326-6.285 7.65-8.197 3.324-1.936 7.184-2.88 11.578-2.835 4.873 0 9.506 1.059 13.901 3.176l-3.723 9.563z"/><path d="M233.633 109.575v44.947H221.44v-18.307H207.3v18.307h-12.192v-44.947H207.3v16.667h14.14v-16.667h12.193zM64.557 97.195h-4.03v9.461h4.27c3.78 0 5.67-1.605 5.67-4.816 0-1.502-.513-2.652-1.538-3.45-1.002-.796-2.459-1.195-4.371-1.195zm-4.03-16.94v8.06h3.655c1.753 0 3.096-.352 4.03-1.058.956-.729 1.434-1.799 1.434-3.21 0-2.528-1.9-3.792-5.703-3.792h-3.416zm-12.159 35.759V71.068h15.677c6.102 0 10.633.91 13.593 2.732 2.96 1.822 4.44 4.645 4.44 8.47 0 2.528-.648 4.68-1.946 6.455-1.275 1.776-2.972 2.926-5.09 3.45v.307c2.756.729 4.77 1.947 6.046 3.655 1.275 1.685 1.913 3.927 1.913 6.728 0 4.076-1.537 7.286-4.611 9.632-3.051 2.345-7.23 3.517-12.535 3.517H48.368z"/><path d="M108.066 71.068h12.159v27.05c0 5.897-1.662 10.462-4.986 13.695-3.325 3.211-8.083 4.816-14.277 4.816-6.193 0-10.952-1.56-14.276-4.679-3.279-3.142-4.918-7.662-4.918-13.56V71.069H93.96v26.367c0 3.142.58 5.441 1.742 6.899 1.184 1.457 2.982 2.186 5.396 2.186 2.413 0 4.178-.718 5.294-2.152 1.115-1.435 1.673-3.757 1.673-6.968V71.069zm24.984 44.946h-12.193V71.068h12.193v44.946zm30.369 0h-29.441V71.068h12.159v35.144h17.282v9.802z"/><path d="M176.668 106.041c3.665 0 6.364-1.058 8.094-3.176 1.731-2.14 2.596-5.34 2.596-9.597 0-4.28-.82-7.412-2.459-9.392-1.617-2.004-4.087-3.006-7.412-3.006h-3.518v25.171h2.699zm23.293-13.456c0 7.491-2.072 13.274-6.216 17.35-4.122 4.053-9.916 6.079-17.385 6.079h-14.549V71.068h15.574c7.195 0 12.751 1.844 16.667 5.533 3.939 3.688 5.909 9.016 5.909 15.984zM40.873 67.602v9.905H14.199V32.56h26.674v9.768H26.357v7.07h13.457v9.734H26.357v8.47h14.516z"/><path d="M65.158 55.478l15.3 22.029H66.422L57.678 63.47l-8.675 14.037h-13.73l14.891-22.986-14.003-21.96h13.457l8.094 13.9 7.821-13.9H79.4L65.158 55.477z"/><path d="M88.884 42.363V52.71h2.186c1.844 0 3.302-.512 4.372-1.537 1.07-1.024 1.605-2.436 1.605-4.235 0-3.05-1.685-4.576-5.055-4.576h-3.108zM92.3 32.56c5.624 0 9.871 1.23 12.74 3.69 2.869 2.458 4.303 6.101 4.303 10.928 0 4.805-1.48 8.584-4.44 11.34-2.983 2.732-7.183 4.098-12.603 4.098h-3.415v14.891H76.725V32.56H92.3z"/><path d="M137.165 77.507h-29.44V32.56h12.159v35.145h17.281v9.802z"/><path d="M154.557 41.816c-6.079 0-9.119 4.372-9.119 13.115 0 8.72 3.017 13.081 9.051 13.081 3.097 0 5.385-1.058 6.865-3.176 1.48-2.118 2.22-5.408 2.22-9.87 0-4.463-.751-7.765-2.254-9.905-1.48-2.163-3.734-3.245-6.763-3.245zm-21.892 13.15c0-7.514 1.867-13.24 5.601-17.18 3.734-3.94 9.164-5.909 16.291-5.909 7.15 0 12.569 1.959 16.258 5.875 3.688 3.893 5.532 9.631 5.532 17.213 0 7.583-1.855 13.343-5.567 17.282-3.688 3.917-9.096 5.875-16.223 5.875-7.104 0-12.534-1.981-16.291-5.943-3.734-3.962-5.601-9.7-5.601-17.214z"/><path d="M187.886 61.147v16.36h-12.159V32.56h14.721c12.227 0 18.34 4.43 18.34 13.286 0 5.215-2.55 9.245-7.65 12.09l13.115 19.571h-13.764l-9.529-16.36h-3.074zm0-19.4v10.281h2.254c4.258 0 6.387-1.878 6.387-5.635 0-3.097-2.083-4.645-6.25-4.645h-2.391z"/><path d="M236.238 67.602v9.905h-26.675V32.56h26.675v9.768h-14.516v7.07h13.457v9.734h-13.457v8.47h14.516zM-12.148 3.31c-6.08 0-9.12 4.372-9.12 13.115 0 8.72 3.018 13.081 9.052 13.081 3.096 0 5.385-1.059 6.865-3.176 1.48-2.118 2.22-5.408 2.22-9.87 0-4.463-.752-7.765-2.255-9.905-1.48-2.163-3.734-3.245-6.762-3.245zm-21.893 13.15c0-7.514 1.867-13.24 5.601-17.18 3.735-3.94 9.165-5.909 16.292-5.909C-4.998-6.63.421-4.67 4.109-.755c3.689 3.893 5.533 9.631 5.533 17.213 0 7.583-1.856 13.343-5.567 17.282-3.689 3.917-9.096 5.875-16.223 5.875-7.104 0-12.535-1.981-16.291-5.943-3.735-3.962-5.602-9.7-5.602-17.214z"/><path d="M21.18 3.856v10.348h2.186c1.845 0 3.302-.512 4.372-1.537 1.07-1.024 1.605-2.436 1.605-4.235 0-3.05-1.684-4.576-5.054-4.576H21.18zm3.416-9.803c5.624 0 9.87 1.23 12.74 3.69C40.204.2 41.639 3.843 41.639 8.67c0 4.805-1.48 8.584-4.44 11.34-2.983 2.732-7.184 4.098-12.603 4.098h-3.415V39H9.02V-5.947h15.575z"/><path d="M52.18 3.856v10.348h2.186c1.844 0 3.301-.512 4.372-1.537 1.07-1.024 1.605-2.436 1.605-4.235 0-3.05-1.685-4.576-5.055-4.576H52.18zm3.416-9.803c5.623 0 9.87 1.23 12.739 3.69C71.204.2 72.638 3.843 72.638 8.67c0 4.805-1.48 8.584-4.44 11.34-2.982 2.732-7.183 4.098-12.602 4.098H52.18V39H40.021V-5.947h15.575z"/><path d="M91.274 3.31c-6.08 0-9.12 4.37-9.12 13.114 0 8.72 3.018 13.081 9.052 13.081 3.096 0 5.385-1.059 6.865-3.176 1.48-2.118 2.22-5.408 2.22-9.87 0-4.463-.752-7.765-2.254-9.905-1.48-2.163-3.735-3.245-6.763-3.245zM69.381 16.457c0-7.513 1.868-13.24 5.602-17.179 3.734-3.94 9.164-5.909 16.291-5.909 7.15 0 12.569 1.959 16.257 5.875 3.689 3.893 5.533 9.631 5.533 17.213 0 7.583-1.855 13.343-5.567 17.282-3.688 3.917-9.096 5.875-16.223 5.875-7.104 0-12.534-1.981-16.291-5.943-3.734-3.962-5.602-9.7-5.602-17.214z"/><path d="M124.603 22.64V39h-12.159V-5.947h14.72c12.227 0 18.341 4.43 18.341 13.286 0 5.214-2.55 9.245-7.651 12.09L150.97 39h-13.764l-9.529-16.36h-3.074zm0-19.4v10.281h2.254c4.258 0 6.387-1.878 6.387-5.635 0-3.097-2.084-4.645-6.25-4.645h-2.391z"/><path d="M166.124 3.992V39h-12.159V3.992h-10.964v-9.939h34.052v9.94h-10.929z"/><path d="M200.766-5.947h12.159v27.05c0 5.898-1.662 10.463-4.986 13.696-3.325 3.21-8.084 4.816-14.277 4.816s-10.952-1.56-14.276-4.68c-3.279-3.142-4.918-7.661-4.918-13.558V-5.947h12.193V20.42c0 3.142.58 5.442 1.741 6.9 1.184 1.457 2.983 2.185 5.397 2.185 2.413 0 4.178-.717 5.294-2.151 1.115-1.435 1.673-3.757 1.673-6.968V-5.947zm55.586 0V39h-15.916L224.008 7.34h-.273c.387 5.145.58 8.948.58 11.407V39h-10.758V-5.947h15.882l16.325 31.251h.205c-.296-4.371-.444-8.014-.444-10.929V-5.947h10.827zm27.611 35.042V39h-26.674V-5.947h26.674v9.768h-14.515v7.07h13.457v9.734h-13.457v8.47h14.515z"/></g><g filter="url(#filter1_d_321_14566)"><path d="M108.324 44.228A34.998 34.998 0 0 1 125 40a35.04 35.04 0 0 1 35 35 35 35 0 0 1-51.676 30.772 3.119 3.119 0 0 0 1.511-.415l48.517-27.633c2.111-1.203 2.111-4.245 0-5.448l-48.517-27.633a3.111 3.111 0 0 0-1.511-.415zm-2.839 1.718a35 35 0 0 0 0 58.108 3.118 3.118 0 0 1-.336-1.421V47.367c0-.522.123-1.002.336-1.421z" fill="#EFEFEF"/></g></g><defs><filter id="filter0_f_321_14566" x="-47.67" y="-16.067" width="341.071" height="219.151" filterUnits="userSpaceOnUse" color-interpolation-filters="sRGB"><feFlood flood-opacity="0" result="BackgroundImageFix"/><feBlend in="SourceGraphic" in2="BackgroundImageFix" result="shape"/><feGaussianBlur stdDeviation="4.719" result="effect1_foregroundBlur_321_14566"/></filter><filter id="filter1_d_321_14566" x="60" y="10" width="130" height="130" filterUnits="userSpaceOnUse" color-interpolation-filters="sRGB"><feFlood flood-opacity="0" result="BackgroundImageFix"/><feColorMatrix in="SourceAlpha" values="0 0 0 0 0 0 0 0 0 0 0 0 0 0 0 0 0 0 127 0" result="hardAlpha"/><feOffset/><feGaussianBlur stdDeviation="15"/><feComposite in2="hardAlpha" operator="out"/><feColorMatrix values="0 0 0 0 0 0 0 0 0 0 0 0 0 0 0 0 0 0 0.4 0"/><feBlend in2="BackgroundImageFix" result="effect1_dropShadow_321_14566"/><feBlend in="SourceGraphic" in2="effect1_dropShadow_321_14566" result="shape"/></filter></defs></svg>