<svg viewBox="0 0 20 20" fill="none" xmlns="http://www.w3.org/2000/svg"><path d="M19.414 1.444h-2.567c.01-.285.015-.57.015-.858A.586.586 0 0 0 16.276 0H3.724a.586.586 0 0 0-.586.586c0 .287.005.573.014.858H.586A.586.586 0 0 0 0 2.029c0 2.626.686 5.103 1.932 6.975 1.232 1.851 2.872 2.913 4.644 3.016.402.437.827.794 1.269 1.066v2.604h-.983a2.157 2.157 0 0 0-2.155 2.155v.983h-.042a.586.586 0 0 0 0 1.172h10.67a.586.586 0 1 0 0-1.172h-.042v-.983a2.157 2.157 0 0 0-2.155-2.155h-.983v-2.604a6.017 6.017 0 0 0 1.269-1.066c1.772-.103 3.412-1.165 4.644-3.016C19.314 7.132 20 4.654 20 2.03a.586.586 0 0 0-.586-.585zM2.908 8.354C1.88 6.811 1.276 4.791 1.184 2.615h2.034c.211 2.675.839 5.147 1.82 7.109.156.312.32.607.49.885-.975-.368-1.877-1.137-2.62-2.254zm11.213 9.49v.983H5.88v-.983c0-.542.44-.983.983-.983h6.276c.542 0 .983.441.983.983zm-3.138-2.155H9.017v-2.095a3.85 3.85 0 0 0 1.966 0v2.095zm.363-3.49a2.834 2.834 0 0 1-1.346.351 2.835 2.835 0 0 1-1.346-.35c-.46-.243-.904-.61-1.325-1.092a.588.588 0 0 0-.074-.087A9.24 9.24 0 0 1 6.086 9.2C5.01 7.046 4.387 4.214 4.316 1.172h11.367c-.07 3.042-.693 5.874-1.77 8.028a9.247 9.247 0 0 1-1.168 1.822.579.579 0 0 0-.075.087c-.42.482-.865.849-1.324 1.092zm5.746-3.845c-.743 1.117-1.645 1.886-2.62 2.254.17-.278.334-.573.49-.885.981-1.962 1.609-4.434 1.82-7.109h2.034c-.092 2.176-.696 4.196-1.724 5.74z" fill="#fff"/></svg>