<svg viewBox="0 0 20 20" fill="none" xmlns="http://www.w3.org/2000/svg"><path d="M10 0C4.476 0 0 4.476 0 10s4.476 10 10 10 10-4.476 10-10S15.524 0 10 0zm4.458 7.693s.324 2.96-2.014 5.178c-3.275 3.107-8 .689-8 .689 2.272.027 3.232-.929 3.232-.929-1.867-.32-2.054-1.653-2.054-1.653.32.2 1.018 0 1.018 0-2.08-.956-1.756-2.214-1.756-2.214.605.338 1.058.214 1.058.214-1.618-1.405-.702-2.894-.702-2.894 2.84 2.703 4.667 2.147 4.667 2.147-.13-1.902.995-2.64 2.209-2.68 1.022-.035 1.608.676 1.608.676.787.066 1.525-.458 1.525-.458-.067.635-.929 1.173-.929 1.173.449.04 1.231-.204 1.231-.204a2.074 2.074 0 0 1-1.093.955z" fill="#084C61"/></svg>