<svg viewBox="0 0 60 60" fill="none" xmlns="http://www.w3.org/2000/svg"><mask id="a" style="mask-type:alpha" maskUnits="userSpaceOnUse" x="0" y="0" width="60" height="60"><path d="M30 60c16.569 0 30-13.431 30-30C60 13.431 46.569 0 30 0 13.431 0 0 13.431 0 30c0 16.569 13.431 30 30 30z" fill="#fff"/></mask><g mask="url(#a)"><path d="M30 60c16.569 0 30-13.431 30-30C60 13.431 46.569 0 30 0 13.431 0 0 13.431 0 30c0 16.569 13.431 30 30 30z" fill="#fff"/><path fill-rule="evenodd" clip-rule="evenodd" d="M30.418-2.146s10.995.791 15.098 2.772a64772.9 64772.9 0 0 1-16.79 16.78l-7.368 3.502-3.952 7.818S7.747 38.38 1.662 44.463C-.178 40.643-2.8 29.428-2.8 29.428L2.737 4.87l27.68-7.016z" fill="#EFEFEF"/><path d="M32.512 39.163l-4.385 4.384.956.956 4.385-4.385-.956-.955zm10.634-10.876l-4.387 4.387 1.017 1.017 4.387-4.386-1.017-1.018z" fill="#04B784"/><path d="M43.302 28.443l-4.387 4.387-12.877-12.736-6.227 6.227 12.736 12.877-4.387 4.387L9.906 25.472l15.283-15.283 18.113 18.254z" fill="#70C8B7"/><path d="M9.906 36.226l4.528-4.528 13.585 13.585 6.226-6.226L20.66 25.472l4.529-4.529 13.584 13.585L45 28.302 31.415 14.717l4.528-4.528L54.906 29.15 44.15 39.906 28.868 55.189 9.906 36.226z" fill="#009788"/><path d="M25.192 20.94l-4.532 4.533.81.81 4.532-4.532-.81-.81zm10.753-10.747l-4.526 4.525.8.8 4.526-4.525-.8-.8z" fill="#007C6D"/></g></svg>