<svg viewBox="0 0 742 69" fill="none" xmlns="http://www.w3.org/2000/svg"><g style="mix-blend-mode:multiply" fill="#084C61"><path d="M47.794 19.365c-5.831-2.73-10.904-4.095-15.218-4.095s-7.668 1.753-10.06 5.258c-2.393 3.505-3.59 8.342-3.59 14.51 0 12.773 4.87 19.16 14.61 19.16 4.45 0 10.078-1.382 16.886-4.145v15.166c-5.527 2.46-11.813 3.691-18.857 3.691-10.044 0-17.745-2.915-23.104-8.746C3.136 54.333.473 45.924.473 34.936c-.067-6.842 1.196-12.875 3.792-18.099 2.629-5.258 6.404-9.302 11.324-12.133C20.51 1.839 26.223.44 32.728.508c7.212 0 14.071 1.567 20.576 4.701l-5.51 14.156z"/><path d="M107.376 1.468V68H89.328V40.902h-20.93V68h-18.05V1.468h18.05V26.14h20.93V1.468h18.048zm19.358 42.316V68h-17.998V1.468h21.789c18.099 0 27.149 6.556 27.149 19.666 0 7.719-3.775 13.684-11.325 17.897L165.763 68h-20.374l-14.105-24.216h-4.55zm0-28.716v15.217h3.336c6.303 0 9.454-2.78 9.454-8.342 0-4.583-3.084-6.875-9.251-6.875h-3.539z"/><path d="M176.87 68h-18.048V1.468h18.048V68z"/><path d="M175.16 48.688c3.572 1.853 7.178 3.252 10.819 4.196 3.64.943 6.858 1.415 9.656 1.415 2.831 0 4.887-.438 6.168-1.314 1.314-.91 1.971-2.123 1.971-3.64 0-.91-.252-1.702-.758-2.376-.539-.674-1.315-1.332-2.326-1.972-.977-.674-3.825-2.09-8.544-4.247-4.718-2.157-8.105-4.112-10.161-5.864-4.247-3.64-6.37-8.561-6.37-14.763 0-6.201 2.224-11.02 6.673-14.459C186.771 2.227 192.905.508 200.69.508c6.842 0 13.87 1.6 21.082 4.802l-5.51 13.853c-6.202-2.831-11.578-4.247-16.128-4.247-2.224 0-3.893.388-5.005 1.163s-1.668 1.82-1.668 3.134c0 1.281.674 2.444 2.022 3.489 1.382 1.045 4.988 2.898 10.819 5.56 5.831 2.63 9.859 5.427 12.083 8.393 2.258 2.899 3.387 6.606 3.387 11.123.068 6.269-2.308 11.375-7.128 15.318-4.786 3.943-11.106 5.881-18.959 5.814-4.482 0-8.257-.32-11.324-.96-3.034-.675-6.101-1.753-9.201-3.236V48.688zm145.968-47.22L304.748 68h-21.234l-6.37-28.969c-.371-1.415-.859-3.791-1.466-7.128s-1.079-6.387-1.416-9.15c-.573 4.752-1.499 9.891-2.78 15.419L264.859 68h-21.234L227.144 1.468h17.341l7.229 33.367c1.618 7.381 2.73 13.246 3.337 17.594.405-3.101 1.112-7.297 2.123-12.589 1.012-5.291 1.972-9.69 2.882-13.195l5.865-25.177h16.633l5.712 25.177c.877 3.741 1.82 8.24 2.832 13.499 1.011 5.257 1.718 9.352 2.123 12.285.303-3.034 1.382-8.864 3.236-17.493l7.33-33.468h17.341zM373.439 68h-19.666l-3.236-12.487h-21.638L325.562 68h-19.767l21.688-66.785h24.015L373.439 68zM332.64 40.8h14.156c-4.179-15.773-6.572-25.31-7.179-28.614-.674 4.18-3 13.718-6.977 28.615z"/><path d="M390.48 16.18V68h-17.998V16.18h-16.229V1.468h50.405V16.18H390.48z"/><path d="M434.413 16.18V68h-17.998V16.18h-16.228V1.468h50.404V16.18h-16.178z"/><path d="M486.603 53.339V68h-39.485V1.468h39.485v14.46h-21.487v10.464h19.92v14.409h-19.92v12.538h21.487z"/><path d="M503.288 43.784V68H485.29V1.468h21.79c18.099 0 27.149 6.556 27.149 19.666 0 7.719-3.775 13.684-11.325 17.897L542.318 68h-20.374l-14.106-24.216h-4.55zm0-28.716v15.217h3.337c6.303 0 9.454-2.78 9.454-8.342 0-4.583-3.084-6.875-9.252-6.875h-3.539z"/><path d="M532.292 48.688c3.573 1.853 7.179 3.252 10.819 4.196 3.64.943 6.859 1.415 9.657 1.415 2.831 0 4.887-.438 6.167-1.314 1.315-.91 1.972-2.123 1.972-3.64 0-.91-.253-1.702-.758-2.376-.539-.674-1.315-1.332-2.326-1.972-.977-.674-3.825-2.09-8.544-4.247-4.718-2.157-8.106-4.112-10.162-5.864-4.246-3.64-6.37-8.561-6.37-14.763 0-6.201 2.225-11.02 6.674-14.459 4.482-3.437 10.617-5.156 18.402-5.156 6.842 0 13.869 1.6 21.082 4.802l-5.511 13.853c-6.201-2.831-11.577-4.247-16.127-4.247-2.224 0-3.893.388-5.005 1.163s-1.668 1.82-1.668 3.134c0 1.281.674 2.444 2.022 3.489 1.382 1.045 4.988 2.898 10.819 5.56 5.831 2.63 9.858 5.427 12.083 8.393 2.258 2.899 3.387 6.606 3.387 11.123.067 6.269-2.309 11.375-7.128 15.318-4.786 3.943-11.106 5.881-18.959 5.814-4.482 0-8.257-.32-11.324-.96-3.034-.675-6.101-1.753-9.202-3.236V48.688z"/><path d="M605.558 16.18V68H587.56V16.18h-16.229V1.468h50.405V16.18h-16.178z"/><path d="M646.387 15.169c-8.999 0-13.498 6.471-13.498 19.413 0 12.91 4.466 19.363 13.397 19.363 4.584 0 7.971-1.567 10.162-4.701 2.191-3.135 3.286-8.005 3.286-14.611s-1.112-11.493-3.337-14.661c-2.19-3.202-5.527-4.803-10.01-4.803zm-32.406 19.464c0-11.122 2.764-19.599 8.291-25.43 5.527-5.83 13.566-8.746 24.115-8.746 10.583 0 18.605 2.899 24.065 8.696 5.46 5.763 8.19 14.257 8.19 25.48s-2.747 19.75-8.241 25.581c-5.46 5.797-13.464 8.696-24.014 8.696-10.515 0-18.554-2.932-24.115-8.797-5.527-5.864-8.291-14.358-8.291-25.48z"/><path d="M741.071 1.468V68h-23.559l-24.318-46.865h-.404c.573 7.617.859 13.245.859 16.885V68h-15.925V1.468h23.509l24.165 46.259h.304c-.438-6.471-.658-11.864-.658-16.178V1.469h16.027z"/></g></svg>