<?xml version="1.0" encoding="UTF-8"?>
<svg width="1044.2" height="255" viewBox="0 0 1044.22 255" xmlns="http://www.w3.org/2000/svg">
<metadata>
<x:xmpmeta x:xmptk="Adobe XMP Core 5.6-c140 79.160451, 2017/05/06-01:08:21" xmlns:x="adobe:ns:meta/">
<rdf:RDF xmlns:rdf="http://www.w3.org/1999/02/22-rdf-syntax-ns#">
<rdf:Description rdf:about=""/>
</rdf:RDF>
</x:xmpmeta>
</metadata>
<defs>
<style>.cls-1 {fill-rule: evenodd;}</style>
</defs>
<path class="cls-1" transform="translate(-6 -11)" d="M341.112,41.383H311.449V231.812h29.663V41.383Zm57.32,58.35H368.769v132.08h29.663V99.732Zm0-58.35H368.769v26h29.663v-26Zm34.126,26.245v32.1H412.416v21.973h20.142v73q0,20.508,9.338,30.09t25.7,9.583a49.409,49.409,0,0,0,10.8-1.16,34.068,34.068,0,0,0,8.972-3.235l-3.174-21.728a29.038,29.038,0,0,1-4.394,1.16,26.136,26.136,0,0,1-4.761.427,12.828,12.828,0,0,1-9.4-3.479q-3.543-3.478-3.54-11.658v-73H485.78V99.732H462.1v-32.1H432.558ZM586.923,229.859q12.452-4.514,20.019-11.108L597.3,199.342a59.79,59.79,0,0,1-16.419,8.423,66.838,66.838,0,0,1-20.935,2.929q-16.236,0-24.292-10.132T527.108,174.2l0.245-.61h81.665V157.594q0-27.466-13.672-43.885T555.062,97.291q-25.757-.12-42.053,18.738t-16.3,47.912v4.883q0,29.053,16.3,47.3t45.227,18.25Q574.47,234.376,586.923,229.859ZM573.8,128.968q5.92,7.874,5.921,20.569v2.319H528.085l-0.244-.61q1.709-13.427,8.667-21.789t18.554-8.362Q567.88,121.1,573.8,128.968Zm82.588,69.58q-6.9-12.144-6.9-30.578V163.7q0-18.065,6.958-30.334T679.276,121.1q10.865,0,17.578,7.568a26.8,26.8,0,0,1,6.714,18.433h26.856l0.244-.733q0.486-21.36-13.916-35.217T679.276,97.291q-28.443,0-43.945,18.921t-15.5,47.485v4.273q0,28.688,15.5,47.546t44.067,18.86q21.361,0,36.56-13.428t14.71-31.982l-0.244-.733H703.568a20.774,20.774,0,0,1-7.019,16.114,24.647,24.647,0,0,1-17.151,6.347Q663.285,210.694,656.388,198.548Zm86.189-31.433q0,29.664,16.174,48.462t44.5,18.8q28.2,0,44.373-18.738t16.174-48.523v-2.563q0-29.541-16.174-48.4T803,97.291q-28.078,0-44.251,18.86t-16.174,48.4v2.563Zm29.663-2.563q0-18.921,7.63-31.189T803,121.1q15.747,0,23.5,12.268t7.752,31.189v2.563q0,19.29-7.752,31.433t-23.254,12.146q-15.87,0-23.437-12.085t-7.569-31.494v-2.563Zm141.548-64.82H884.125v132.08h29.663V99.732Zm0-58.35H884.125v26h29.663v-26Zm25.459,58.35v132.08H968.91V135.133a28.86,28.86,0,0,1,11.109-9.949,35.431,35.431,0,0,1,16.479-3.6q12.078,0,18.062,6.47t5.99,21.85v81.909h29.66V149.659q0-26.976-11.54-39.673t-32.16-12.7a43.482,43.482,0,0,0-22.158,5.676,47.226,47.226,0,0,0-16.3,15.808l-1.709-19.043h-27.1Z"/>
<path class="cls-1" transform="translate(-6 -11)" d="M133.5,265.993A127.5,127.5,0,1,1,261,138.493,127.5,127.5,0,0,1,133.5,265.993Zm0.932-122.457s0.751-4.955,4.566-6.595,7.61-3.044,7.61-3.044,7.1-1.418,9.132-8.117S159.29,113.6,159.29,113.6l-18.772,7.61,12.176-50.226h-35a5.693,5.693,0,0,0-5.277,3.217c0.619-2.374.626-2.493-.3,0.841a6.323,6.323,0,0,1,.3-0.841c-2.648,10.16-16.539,61.721-16.539,61.721s-0.307,2.566-4.059,4.058-11.669,4.566-11.669,4.566l-5.581,17.757L90.8,156.22,79.639,197.313h104a3.022,3.022,0,0,0,2.537-2.029c0.576-1.868,5.581-21.308,5.581-21.308l-64.431-1.522Z" data-name="Ellipse 1 copy 2"/>
</svg>
