<svg xmlns="http://www.w3.org/2000/svg" viewBox="0 0 65.61 61.28"><defs><style>.cls-1{fill:#f4f6f8;}.cls-2{fill:#454851;}.cls-3{fill:#1a1a35;}.cls-4{fill:#fff;}.cls-5{fill:#a0cfd3;}.cls-6{fill:#d3d7e6;}</style></defs><title>Asset 29icon-</title><g id="Layer_2" data-name="Layer 2"><g id="Icons"><g id="Programming"><path class="cls-1" d="M1.89,19.12c3-7.48,6-14.44,12.95-17.42C21.15-1,31.94-.11,44.28,1.79c10.09,1.55,13.82,8.5,16.15,13.28,4.32,8.86,7.62,16.8,2.83,26-2.75,5.26-6.64,15-13,17.64-8.53,3.51-15.37,2.41-24.88,2.57C15.07,61.41,3.82,50.57,1.48,40.65-.18,33.61-.93,26.24,1.89,19.12Z"/><rect class="cls-2" x="9.46" y="10.61" width="45.4" height="39.52" rx="2.83" ry="2.83"/><path class="cls-3" d="M52,50.17c-6.87,0-13.75.09-20.62.2l-10.31.09H13.36c-.44,0-.84,0-1.31,0A3.06,3.06,0,0,1,10.69,50a3.11,3.11,0,0,1-1.5-2.31c0-.93,0-1.74,0-2.61l0-5.15.07-10.31c0-3.44,0-6.87,0-10.31l0-5.15a6.84,6.84,0,0,1,.06-1.32,3,3,0,0,1,3-2.42l20.62-.15,10.31,0H51c.44,0,.83,0,1.32,0a3.13,3.13,0,0,1,1.38.44A3.22,3.22,0,0,1,55.21,13c.06,1,0,1.74,0,2.62l0,5.15-.12,10.31L55,41.44l0,5.15a6.79,6.79,0,0,1-.07,1.3,2.93,2.93,0,0,1-.56,1.18A2.89,2.89,0,0,1,52,50.17Zm0-.08a2.8,2.8,0,0,0,2.72-2.23,6.71,6.71,0,0,0,.05-1.27l0-5.15-.13-10.31L54.5,20.82l0-5.15c0-.84,0-1.77,0-2.53a2.44,2.44,0,0,0-1.19-1.79A2.36,2.36,0,0,0,52.21,11c-.37,0-.84,0-1.26,0H43.22L32.91,11l-20.62-.15a2.65,2.65,0,0,0-2.08,1A2.69,2.69,0,0,0,9.7,12.9a6.6,6.6,0,0,0-.06,1.25l0,5.15c0,3.44,0,6.87,0,10.31l.07,10.31,0,5.15c0,.84,0,1.76,0,2.54A2.55,2.55,0,0,0,11,49.47a2.43,2.43,0,0,0,1.08.34c.38,0,.85,0,1.26,0h7.73l10.31.09C38.27,50,45.15,50.08,52,50.09Z"/><rect class="cls-4" x="12.1" y="18.76" width="40.26" height="29.18"/><path class="cls-3" d="M52.38,48l-10,.15-10.07.1c-3.37,0-6.74.07-10.12,0s-6.76,0-10.13-.07h0a.24.24,0,0,1-.24-.25c.07-4.86.12-9.73.13-14.59s0-9.73-.09-14.59a.2.2,0,0,1,.2-.21h0l20.13-.16,10.07,0,10.07,0a.37.37,0,0,1,.38.37h0l-.15,14.68Zm-.05-.05-.2-14.66L52,18.76l.38.38-10.07,0-10.07,0L12.1,19l.21-.21q-.09,7.29-.09,14.59c0,4.86.06,9.73.13,14.59l-.25-.25q5-.08,10-.07c3.33,0,6.67,0,10,0l10.06.1Z"/><path class="cls-5" d="M18.59,23.75,16.19,25l2.4,1.31v1l-3.24-1.86V24.6l3.24-1.86Z"/><path class="cls-5" d="M21.87,22,20.24,28.3h-.78L21.09,22Z"/><path class="cls-5" d="M22.95,22.73l3.24,1.86v.92l-3.24,1.86v-1L25.35,25l-2.4-1.3Z"/><circle class="cls-6" cx="13.55" cy="14.68" r="1.46"/><circle class="cls-6" cx="18.35" cy="14.68" r="1.46"/></g></g></g></svg>