<svg xmlns="http://www.w3.org/2000/svg" xmlns:xlink="http://www.w3.org/1999/xlink" viewBox="0 0 63.7 63.34"><defs><style>.cls-1{fill:none;}.cls-2{fill:#f4f6f8;}.cls-3{fill:#454851;}.cls-4{fill:#a8a8a8;}.cls-5{fill:#1a1a35;}.cls-6{clip-path:url(#clip-path);}.cls-7{fill:#06d6a0;}</style><clipPath id="clip-path"><polygon class="cls-1" points="16.7 36.07 20.24 51.27 23.62 39.04 36.27 47.5 58.21 19.34 3.03 29.97 16.7 36.07"/></clipPath></defs><title>Asset 55icon-</title><g id="Layer_2" data-name="Layer 2"><g id="Icons"><g id="_5_Mins" data-name="5 Mins"><path class="cls-2" d="M39.14,62.82c8-1.19,13.58-7,18.35-13,5.61-7,7.16-12.26,5.7-22-1.11-7.39-3.18-12.17-8-17C48.31,3.77,38.78-1.25,28.55.28,21.51,1.33,13.6,3.48,9,8.35A31,31,0,0,0,.39,35.24C1.91,45.39,8.33,55.57,17.47,60.1,23.94,63.31,31.56,64,39.14,62.82Z"/><polyline class="cls-3" points="20.24 51.27 58.21 19.34 20.24 36.61 20.24 51.27"/><polygon class="cls-4" points="16.7 36.07 20.24 51.27 23.62 39.04 36.27 47.5 58.21 19.34 16.7 36.07 16.7 36.07"/><path class="cls-5" d="M16.72,36.08c1.25,5.1,2.49,10.13,3.67,15.15h-.3L23.41,39l.08-.29.25.16c2.12,1.39,4.21,2.83,6.32,4.24l6.31,4.26-.22,0,11-14L58.09,19.24l.18.24c-6.88,2.85-13.73,5.67-20.64,8.41L27.22,32Zm0,0,10.26-4.28,10.35-4.27c6.92-2.83,13.91-5.6,20.87-8.32l.18.24-11,14L36.4,47.6l-.09.12-.13-.08-6.35-4.2c-2.11-1.4-4.24-2.79-6.34-4.22l.33-.12L20.39,51.31h-.3C18.91,46.2,17.79,41.1,16.68,36.06Z"/><g class="cls-6"><polygon class="cls-3" points="16.7 36.07 58.21 19.34 23.62 39.04 20.24 51.27 16.7 36.07"/><path class="cls-5" d="M16.68,36.06q5.1-2.14,10.28-4.26L37.3,27.54l20.88-8.27.07.14L41,29.36q-8.62,5-17.27,9.9l.12-.16q-1.68,6.12-3.44,12.21h-.37Zm0,0,3.71,15.15h-.37Q21.69,45.09,23.37,39l0-.1.09-.05q8.63-5,17.32-9.8l17.36-9.74.07.14L37.6,27.87,27.2,32Q22,34.05,16.72,36.08Z"/></g><polygon class="cls-7" points="57.62 18.78 3.08 29.81 15.96 34.77 57.62 18.78"/><path class="cls-5" d="M57.6,18.79,30.25,24.46,16.71,27.15C12.18,28,7.64,29,3.11,29.94l0-.25L16,34.56h-.16c6.9-2.69,13.76-5.31,20.69-7.89S50.52,21.48,57.6,18.79Zm0,0C50.83,21.41,43.92,24.12,37,26.88S23,32.34,16,35L16,35l-.08,0L3,29.93l0-.25c4.56-.91,9.11-1.75,13.67-2.73l13.72-2.82Z"/></g></g></g></svg>