<svg xmlns="http://www.w3.org/2000/svg" viewBox="0 0 62.93 64.62"><defs><style>.cls-1{fill:#f4f6f8;}.cls-2{fill:#e8eaf1;}.cls-3{fill:#1a1a35;}.cls-4{fill:#fff;}.cls-5{fill:#0f79b3;}.cls-6{fill:#06d6a0;}</style></defs><title>Asset 46icon-</title><g id="Layer_2" data-name="Layer 2"><g id="Icons"><g id="Migration"><path class="cls-1" d="M9.4,10.78C4,16.72,0,25.45,0,33.05c0,8.94,5.34,15.35,12.61,22,5.51,5,9.17,8.59,16,9.37C38.37,65.55,48,61.53,55,53.9c4.81-5.25,6.73-12.93,7.26-19.62.77-9.77,2.33-16-5.66-23.32C49,4,41.11-1.74,31.16.49,24.11,2.07,14.57,5.13,9.4,10.78Z"/><rect class="cls-2" x="17.55" y="14.47" width="32.68" height="38.88" rx="2.83" ry="2.83"/><path class="cls-3" d="M12.18,39.84l-1-.34a.15.15,0,1,1,.1-.28h0l.9.41h0a.11.11,0,0,1-.08.2Z"/><path class="cls-3" d="M9.43,38.53a7.08,7.08,0,0,1-.8-.65A.26.26,0,0,1,9,37.5H9a8,8,0,0,0,.71.65.23.23,0,0,1-.28.37Z"/><path class="cls-3" d="M7.36,36.23a6.11,6.11,0,0,1-.42-1,.34.34,0,1,1,.64-.21v0a5.47,5.47,0,0,0,.33.88.31.31,0,0,1-.55.28Z"/><path class="cls-3" d="M6.61,33.19a8.45,8.45,0,0,1,.07-1,.39.39,0,1,1,.77.1h0a7.69,7.69,0,0,0-.08.95.38.38,0,0,1-.76,0Z"/><path class="cls-3" d="M7.15,30.11a8.11,8.11,0,0,1,.42-1,.42.42,0,0,1,.75.38h0a7.28,7.28,0,0,0-.39.86.41.41,0,0,1-.77-.28Z"/><path class="cls-3" d="M8.79,27.41a6.46,6.46,0,0,1,.79-.71.44.44,0,0,1,.55.7,9,9,0,0,0-.7.63.45.45,0,0,1-.64-.62Z"/><path class="cls-3" d="M11.37,25.62l1-.4a.42.42,0,0,1,.33.77h0l-.88.39h0a.43.43,0,1,1-.34-.78Z"/><path class="cls-3" d="M14.28,24.65l1-.22a.35.35,0,0,1,.42.26.35.35,0,0,1-.25.41l-1,.27h0a.38.38,0,1,1-.21-.73Z"/><path class="cls-3" d="M17.36,24.16a6.91,6.91,0,0,1,1,.33.26.26,0,0,1-.18.5,6.37,6.37,0,0,0-.92-.25.29.29,0,0,1,.1-.58Z"/><path class="cls-3" d="M20.18,25.35l.89.46a.19.19,0,0,1,.08.26.19.19,0,0,1-.26.08l-.9-.43h0a.21.21,0,0,1,.18-.37Z"/><path class="cls-3" d="M22.83,26.78l.87.5a.16.16,0,0,1,.06.21.16.16,0,0,1-.21.06l-.88-.48a.17.17,0,0,1,.16-.3Z"/><path class="cls-3" d="M25.43,28.28l.86.5a.17.17,0,0,1-.17.3h0l-.85-.52a.16.16,0,0,1,.17-.28Z"/><path class="cls-3" d="M28,29.8l.87.51a.22.22,0,0,1-.22.37h0l-.84-.54a.19.19,0,0,1,.2-.33Z"/><path class="cls-3" d="M30.6,31.32l.86.51a.29.29,0,1,1-.29.49h0l-.83-.56a.26.26,0,0,1,.28-.44Z"/><path class="cls-3" d="M33.18,32.87l.86.52a.37.37,0,1,1-.38.63h0l-.83-.56a.34.34,0,0,1,.37-.57Z"/><path class="cls-3" d="M35.73,34.45l.85.53a.42.42,0,0,1-.45.72h0l-.83-.56a.41.41,0,0,1,.44-.68Z"/><path class="cls-3" d="M38.27,36.06l.84.55a.47.47,0,0,1-.51.78h0l-.83-.56a.46.46,0,0,1,.5-.76Z"/><path class="cls-3" d="M40.78,37.7l.84.55a.5.5,0,0,1-.55.83h0l-.82-.57a.49.49,0,0,1,.54-.81Z"/><path class="cls-3" d="M43.29,39.36l.37.25-.23-.09.53.05h0a.53.53,0,1,1-.1,1h0l-.57-.07a.51.51,0,0,1-.23-.09l-.36-.25a.52.52,0,0,1,.58-.85Z"/><path class="cls-3" d="M45.92,39.68h1a.52.52,0,0,1,0,1h-1a.53.53,0,1,1,0-1.05h0Z"/><path class="cls-3" d="M48.86,39.59l1-.11h0a.51.51,0,0,1,.12,1l-1,.13a.52.52,0,1,1-.13-1h0Z"/><path class="cls-3" d="M51.73,39.09l.92-.28h0a.5.5,0,0,1,.3,1l-1,.31a.51.51,0,0,1-.3-1h0Z"/><path class="cls-3" d="M54.38,38a7.16,7.16,0,0,0,.78-.52.47.47,0,0,1,.58.73,8.11,8.11,0,0,1-.87.61.48.48,0,1,1-.51-.82Z"/><path class="cls-3" d="M56.44,36.19a5.31,5.31,0,0,0,.45-.81.42.42,0,0,1,.77.33,6.18,6.18,0,0,1-.49,1,.44.44,0,0,1-.74-.47Z"/><path class="cls-3" d="M57.45,33.57a4.92,4.92,0,0,0,.07-.92.37.37,0,0,1,.74,0,5.24,5.24,0,0,1,0,1.07.39.39,0,1,1-.77-.1Z"/><path class="cls-3" d="M57,30.93a3.89,3.89,0,0,0-.59-.71.29.29,0,0,1,.39-.43,4.5,4.5,0,0,1,.73.79.32.32,0,1,1-.51.37Z"/><path class="cls-3" d="M54.84,29.12,54,28.68h0a.2.2,0,0,1,.17-.37l.94.39a.24.24,0,0,1-.18.44h0Z"/><path class="cls-3" d="M52.13,27.87l-.79-.36a.09.09,0,0,1,0-.12.1.1,0,0,1,.12,0l.81.3a.13.13,0,0,1-.08.24Z"/><polygon class="cls-3" points="10.85 34.54 9.93 34.94 11.91 39.45 7.26 41.1 7.6 42.04 13.26 40.04 10.85 34.54"/><polygon class="cls-3" points="56.06 24.93 56.4 25.87 51.76 27.53 53.74 32.04 52.83 32.44 50.41 26.95 56.06 24.93"/><rect class="cls-4" x="14.66" y="11.08" width="34.13" height="40.6" rx="2.83" ry="2.83"/><path class="cls-3" d="M46,11.12c-6,0-12,.09-18.07.2l-9,.09H17.72a3,3,0,0,0-1,.13A2.5,2.5,0,0,0,15,13.78c0,.34,0,.74,0,1.11v2.26c0,6-.17,12-.18,18.07,0,3,0,6,0,9l0,4.52a2.67,2.67,0,0,0,2.67,2.7l18.07-.15,9,0h1.13a2.87,2.87,0,0,0,1-.13A2.44,2.44,0,0,0,48.39,49c0-.33,0-.74,0-1.11V45.61c0-6,0-12,.14-18.07l.14-9,0-4.52A2.79,2.79,0,0,0,46,11.12ZM46,11A2.87,2.87,0,0,1,48,11.9,2.92,2.92,0,0,1,48.86,14l0,4.52.14,9c.1,6,.14,12,.14,18.07v2.26c0,.39,0,.73,0,1.15A3.23,3.23,0,0,1,47,51.91a3.54,3.54,0,0,1-1.24.16H44.6l-9,0-18.07-.15a3,3,0,0,1-3-3.11l0-4.52c0-3,0-6,0-9,0-6-.13-12-.18-18.07V14.89c0-.38,0-.74,0-1.15a3.14,3.14,0,0,1,.31-1.21,3.18,3.18,0,0,1,1.84-1.62,3.41,3.41,0,0,1,1.22-.16h1.13l9,.09C33.91,10.95,39.93,11,46,11Z"/><path class="cls-3" d="M19.89,45.91a33.42,33.42,0,0,1,5.59-.27c.93.05,1.86.16,2.8.19a27.83,27.83,0,0,0,2.8-.08,57.26,57.26,0,0,1,11.18.17V46a57.26,57.26,0,0,1-11.18.17,27.8,27.8,0,0,0-2.8-.08c-.93,0-1.86.14-2.8.19A33.42,33.42,0,0,1,19.89,46Z"/><path class="cls-5" d="M19.89,17.49a14.25,14.25,0,0,1,2.8-.51,15.06,15.06,0,0,1,2.8,0c.93.09,1.86.34,2.8.38a13.84,13.84,0,0,0,2.8-.17,24.92,24.92,0,0,1,2.8-.3c.93-.06,1.86-.1,2.8-.09a26,26,0,0,1,5.59.73v.15a26,26,0,0,1-5.59.73c-.93,0-1.86,0-2.8-.09a24.93,24.93,0,0,1-2.8-.3,13.84,13.84,0,0,0-2.8-.17c-.93,0-1.86.29-2.8.38a15.05,15.05,0,0,1-2.8,0,14.25,14.25,0,0,1-2.8-.51Z"/><path class="cls-3" d="M20.52,42.66a8.28,8.28,0,0,1,2.76-.41c.46,0,.93.12,1.39.12A6.88,6.88,0,0,0,26,42.22a18,18,0,0,1,2.76-.33,12.87,12.87,0,0,1,2.79.23v.07a12.87,12.87,0,0,1-2.75.49,18,18,0,0,1-2.78-.06,6.88,6.88,0,0,0-1.39,0c-.46,0-.92.18-1.38.26a8.28,8.28,0,0,1-2.78-.14Z"/><path class="cls-3" d="M33.81,42.66a6,6,0,0,1,2.33-.41c.39,0,.79.12,1.18.12a5,5,0,0,0,1.17-.15,13,13,0,0,1,2.34-.33,9.34,9.34,0,0,1,2.37.23v.07a9.35,9.35,0,0,1-2.33.49,13,13,0,0,1-2.36-.06,5,5,0,0,0-1.18,0c-.39,0-.77.18-1.16.26a6,6,0,0,1-2.36-.14Z"/><path class="cls-3" d="M19.89,39.37A22.06,22.06,0,0,1,24.42,39c.76,0,1.52.13,2.27.15A18.32,18.32,0,0,0,29,39,37.76,37.76,0,0,1,38,39v.07a37.75,37.75,0,0,1-9.07.34,18.34,18.34,0,0,0-2.27,0c-.76,0-1.51.17-2.26.23a22.06,22.06,0,0,1-4.54-.19Z"/><path class="cls-6" d="M21.81,27.65a4.76,4.76,0,0,1,2-1.74,11.72,11.72,0,0,1,2.47-1,15.26,15.26,0,0,1,5.28-.58,4.47,4.47,0,0,1,1.35.32,3.67,3.67,0,0,1,1,.94,18,18,0,0,1,1.62,2.09,4.39,4.39,0,0,1,.84,2.51,2.13,2.13,0,0,1-.56,1.25,4.32,4.32,0,0,1-1.06.85,3.68,3.68,0,0,1-2.69.5,2.59,2.59,0,0,1-1.28-.71,2.33,2.33,0,0,1-.62-1.36A4.76,4.76,0,0,1,30.6,28a4.21,4.21,0,0,1,2.05-1.93,7.63,7.63,0,0,1,2.67-.62c.91,0,1.76,0,2.61-.05a6.26,6.26,0,0,0,2.43-.58,1.7,1.7,0,0,0,.82-.84A1.26,1.26,0,0,0,41,22.8l.06,0A1.42,1.42,0,0,1,41.4,24a1.87,1.87,0,0,1-.85,1.09A6.29,6.29,0,0,1,38,26c-.88.12-1.79.12-2.61.19a7.45,7.45,0,0,0-2.38.62,3.59,3.59,0,0,0-1.7,1.57,4,4,0,0,0-.42,2.32,1.76,1.76,0,0,0,1.35,1.57A3.32,3.32,0,0,0,34.58,32a2.47,2.47,0,0,0,1.55-1.77,3.66,3.66,0,0,0-.8-2.35,11.4,11.4,0,0,0-1.7-1.94,3.43,3.43,0,0,0-.94-.75,4.45,4.45,0,0,0-1.2-.18,15.7,15.7,0,0,0-2.55.09,18.1,18.1,0,0,0-2.53.42,13.54,13.54,0,0,0-2.44.77,5.22,5.22,0,0,0-2.09,1.43Z"/><path class="cls-6" d="M45.24,22.13c-4.44.13-8.76.23-13,.27s-8.53,0-12.83-.12l.17-.17c0,1.05,0,2.11,0,3.16s0,2.11,0,3.16c0,2.11,0,4.22.08,6.33l-.21-.21c4.32-.08,8.64-.16,13-.17s8.64,0,13,0l-.34.34C45,30.63,45.12,26.46,45.24,22.13Zm.05-.05c.12,4.11.27,8.38.31,12.69v.33h-.34q-6.48.09-13,0c-4.32,0-8.64-.1-13-.17h-.21v-.2c0-2.11.08-4.22.08-6.33,0-1.05,0-2.11,0-3.16s0-2.11,0-3.16v-.16h.17c4.33-.11,8.73-.2,13.07-.12S41.1,22,45.29,22.08Z"/></g></g></g></svg>