<svg xmlns="http://www.w3.org/2000/svg" viewBox="0 0 65.38 63.01"><defs><style>.cls-1{fill:#f4f6f8;}.cls-2{fill:#f59c52;}.cls-3{fill:#1a1a35;}.cls-4{fill:#a37e41;}.cls-5{fill:#a37e42;}.cls-6{fill:#f6bd60;}.cls-7{fill:#06d6a0;}</style></defs><title>Asset 34icon-</title><g id="Layer_2" data-name="Layer 2"><g id="Icons"><g id="Growth"><path class="cls-1" d="M.22,27.79c1.06-8,7.41-17.73,13.25-22.6C20.33-.53,27.36-.61,37.13.68A33.79,33.79,0,0,1,56,9.64c7.15,6.79,10.41,14.25,9.05,24.5C64.14,41.2,58,51.43,53,55.84,45.49,62.32,41.53,62.39,33.2,63,23,63.65,9.74,57.83,5.06,48.77,1.73,42.35-.78,35.38.22,27.79Z"/><path class="cls-2" d="M23.13,25.56s4.83-1.57,8-1.18,6.22-.76,7.31,2-1,15.07-3.44,21.86-1.05,7-1.75,8.16-3.37.76-4.4-2.7-.57-7.77-2-12.51-2.56-4.91-3.64-8.23S20.81,26,23.13,25.56Z"/><path class="cls-3" d="M23.12,25.52a31.9,31.9,0,0,1,5.06-1.18,13.11,13.11,0,0,1,2.62-.15,19.44,19.44,0,0,0,2.58,0,15.57,15.57,0,0,1,2.64,0,4.21,4.21,0,0,1,1.34.42,3,3,0,0,1,1,1,4.48,4.48,0,0,1,.32.64c.06.23.14.46.18.69A10.53,10.53,0,0,1,39,28.33,24.35,24.35,0,0,1,38.9,31,98.24,98.24,0,0,1,34.2,51.19a16.93,16.93,0,0,0-.49,2.51,8.18,8.18,0,0,0,0,1.26,2.84,2.84,0,0,1-.14,1.4,1.53,1.53,0,0,1-1.23.9A2.53,2.53,0,0,1,30.86,57a4.47,4.47,0,0,1-1.92-2,15.65,15.65,0,0,1-1.21-5.16c-.19-1.73-.3-3.45-.57-5.14a27.45,27.45,0,0,0-1.27-5,19.6,19.6,0,0,0-1-2.35c-.38-.76-.82-1.51-1.19-2.31a17,17,0,0,1-.89-2.47c-.24-.83-.49-1.66-.69-2.51a11,11,0,0,1-.38-2.58,2.49,2.49,0,0,1,.3-1.28A1.59,1.59,0,0,1,23.12,25.52Zm0,.07a1.5,1.5,0,0,0-1,.71,2.38,2.38,0,0,0-.26,1.23,9.33,9.33,0,0,0,.46,2.53c.25.83.53,1.64.82,2.46a16.1,16.1,0,0,0,1,2.36c.4.75.88,1.47,1.3,2.24a20.3,20.3,0,0,1,1.1,2.4,24.73,24.73,0,0,1,1.36,5.08c.28,1.73.42,3.47.58,5.18a15.07,15.07,0,0,0,1.06,4.92,3.91,3.91,0,0,0,1.58,1.73c.65.36,1.58.36,1.85-.29A2.36,2.36,0,0,0,33.13,55a8.71,8.71,0,0,1,.08-1.33,17.37,17.37,0,0,1,.58-2.56c.49-1.68,1.19-3.27,1.69-4.92s1-3.32,1.33-5a68.21,68.21,0,0,0,1.46-10.24,23.75,23.75,0,0,0,.06-2.56,4.8,4.8,0,0,0-.5-2.34,2.36,2.36,0,0,0-.8-.8,3.63,3.63,0,0,0-1.12-.38,19.87,19.87,0,0,0-2.55-.13,20.17,20.17,0,0,1-2.61-.18,12.86,12.86,0,0,0-2.56,0A28,28,0,0,0,23.14,25.6Z"/><path class="cls-4" d="M14.81,29.86a42.62,42.62,0,0,1,11.34-2.24,18.56,18.56,0,0,1,2.92.08c1,.1,1.92.33,2.86.51a26.45,26.45,0,0,0,2.85.36c1,0,1.91.06,2.87,0a51.91,51.91,0,0,0,5.69-.71c.95-.14,1.87-.36,2.89-.42a19,19,0,0,1,2.93.1,49.55,49.55,0,0,1,5.72.9q2.83.59,5.6,1.41l0,.07c-3.8-.6-7.59-1.23-11.38-1.61-.95-.07-1.9-.14-2.83-.12s-1.87.21-2.82.33a42.84,42.84,0,0,1-5.78.35,57.78,57.78,0,0,1-5.78-.32c-1-.1-1.91-.26-2.85-.3a27.31,27.31,0,0,0-2.84,0,75.29,75.29,0,0,0-11.34,1.66Z"/><path class="cls-5" d="M5.75,29.86a42.62,42.62,0,0,1,11.34-2.24A18.56,18.56,0,0,1,20,27.7c1,.1,1.92.33,2.86.51a26.44,26.44,0,0,0,2.85.36c1,0,1.91.06,2.87,0a51.91,51.91,0,0,0,5.69-.71c.95-.14,1.87-.36,2.89-.42a19,19,0,0,1,2.93.1,49.55,49.55,0,0,1,5.72.9q2.83.59,5.6,1.41l0,.07c-3.8-.6-7.59-1.23-11.38-1.61-.95-.07-1.9-.14-2.83-.12s-1.87.21-2.82.33a42.84,42.84,0,0,1-5.78.35,57.78,57.78,0,0,1-5.78-.32c-1-.1-1.91-.26-2.85-.3a27.31,27.31,0,0,0-2.84,0A75.29,75.29,0,0,0,5.77,29.93Z"/><path class="cls-6" d="M25.78,30.69a4.31,4.31,0,0,1,2.62-.61c.45.05.89.18,1.33.23a7.21,7.21,0,0,0,1.33,0,19.87,19.87,0,0,1,2.63,0c.87.08,1.71.19,2.61.33a0,0,0,0,1,0,0,0,0,0,0,1,0,0,7,7,0,0,1-2.66.39A13.85,13.85,0,0,1,31,30.74a5.49,5.49,0,0,0-1.3-.18,10.4,10.4,0,0,0-1.31.15c-.87.06-1.69.05-2.6.05a0,0,0,0,1,0,0A0,0,0,0,1,25.78,30.69Z"/><path class="cls-6" d="M26.95,35.68c.74,0,1.33-.22,2-.31a7.17,7.17,0,0,0,1.06-.1,3.79,3.79,0,0,0,1-.42A7.46,7.46,0,0,1,33,34a2.52,2.52,0,0,1,2.2.39,0,0,0,0,1,0,.05h0a5.38,5.38,0,0,0-2,.32,19.6,19.6,0,0,1-2.06.44,4.47,4.47,0,0,0-1,.26c-.33.13-.65.34-1,.48a2.4,2.4,0,0,1-2.19-.22,0,0,0,0,1,0-.05Z"/><path class="cls-6" d="M29.27,39.19a4,4,0,0,1,1.32-.1,3.91,3.91,0,0,0,.67.16,1.59,1.59,0,0,0,.66-.15,4,4,0,0,1,1.35-.33,2.08,2.08,0,0,1,1.39.43,0,0,0,0,1,0,.06h0a11.27,11.27,0,0,1-1.31.3A5,5,0,0,1,32,39.51a1.83,1.83,0,0,0-.69,0c-.23,0-.45.17-.68.23a1.51,1.51,0,0,1-1.36-.45,0,0,0,0,1,0-.06Z"/><path class="cls-6" d="M29.16,43.35a1.68,1.68,0,0,1,1.16-.45c.21,0,.43.11.63.12a1.51,1.51,0,0,0,.6-.13,2.64,2.64,0,0,1,1.26-.19,1.69,1.69,0,0,1,1.15.65,0,0,0,0,1,0,.06h0a10.05,10.05,0,0,1-1.19.08,5.73,5.73,0,0,1-1.16-.2,1.23,1.23,0,0,0-.6,0,4.32,4.32,0,0,0-.57.26,1.76,1.76,0,0,1-1.23-.1,0,0,0,0,1,0-.06Z"/><path class="cls-6" d="M30.24,47.95a1.38,1.38,0,0,1,.71-.64,2.22,2.22,0,0,0,.49-.09.82.82,0,0,0,.34-.34,2,2,0,0,1,.7-.72,1.07,1.07,0,0,1,1.1,0,0,0,0,0,1,0,.06h0c-.3.23-.44.42-.69.59a2.76,2.76,0,0,1-.87.36.91.91,0,0,0-.44.21c-.12.11-.19.29-.31.43a1,1,0,0,1-1,.17,0,0,0,0,1,0-.06Z"/><path class="cls-6" d="M30.88,52.23c0-.28,0-.47.15-.7a2,2,0,0,0,.31-.3.62.62,0,0,0,.05-.4,1.38,1.38,0,0,1,.14-.85,1,1,0,0,1,.38-.35c.17-.11.5-.1.58.09a0,0,0,0,1,0,.06h0c-.17.09-.13.18-.14.27a1.29,1.29,0,0,1-.07.3,2,2,0,0,1-.46.62.61.61,0,0,0-.21.35,4.11,4.11,0,0,0,0,.45.65.65,0,0,1-.2.39.47.47,0,0,1-.53.16v-.07Z"/><path class="cls-7" d="M20.29,12.67a11,11,0,0,1,3,2,13.54,13.54,0,0,1,2.25,2.84,18.48,18.48,0,0,1,1.42,3.32c.38,1.14.75,2.27,1,3.45h-.31a32.44,32.44,0,0,0,.33-4,35.49,35.49,0,0,0-.1-4,30.94,30.94,0,0,0-.55-4A27.37,27.37,0,0,0,26.2,8.36a0,0,0,0,1,0,0,0,0,0,0,1,0,0,16.09,16.09,0,0,1,1.65,3.77,19.6,19.6,0,0,1,.76,4.07,26.77,26.77,0,0,1,0,4.13,25.47,25.47,0,0,1-.7,4.06h-.31a13.83,13.83,0,0,0-1-3.39A22.83,22.83,0,0,0,25,17.87a18.28,18.28,0,0,0-2.09-2.79,17.39,17.39,0,0,0-2.62-2.35,0,0,0,0,1,0-.05A0,0,0,0,1,20.29,12.67Z"/><path class="cls-7" d="M24.56,9.54c.26,1.26.49,2.5.83,3.71s.73,2.41,1.11,3.61A17.25,17.25,0,0,0,28,20.36a18.27,18.27,0,0,0,2.22,3.07h-.44a21.22,21.22,0,0,0,1.53-2.68,28.3,28.3,0,0,0,1.15-2.86,18.39,18.39,0,0,0,.77-3,20.63,20.63,0,0,0,.32-3.1,0,0,0,0,1,0,0,0,0,0,0,1,0,0A12.94,12.94,0,0,1,33.77,15a15,15,0,0,1-.59,3.15,15.41,15.41,0,0,1-1.22,3,16.16,16.16,0,0,1-1.75,2.69l-.24.29-.2-.28a35.46,35.46,0,0,1-2-3.31c-.6-1.13-1.25-2.24-1.79-3.41a14.82,14.82,0,0,1-.71-1.8c-.17-.62-.35-1.24-.47-1.88a15.91,15.91,0,0,1-.33-3.84,0,0,0,0,1,0,0A0,0,0,0,1,24.56,9.54Z"/><path class="cls-7" d="M33.07,5.21a31.19,31.19,0,0,1-1,4.58c-.25.74-.54,1.47-.75,2.23a15.34,15.34,0,0,0-.41,2.31L30.37,19A32.88,32.88,0,0,0,30,23.6a0,0,0,0,1,0,0,0,0,0,0,1,0,0,12.1,12.1,0,0,1-.39-4.73,25,25,0,0,1,.92-4.64c.21-.76.43-1.51.58-2.28s.23-1.56.38-2.33A19,19,0,0,1,33,5.19a0,0,0,0,1,.05,0A0,0,0,0,1,33.07,5.21Z"/></g></g></g></svg>