<svg id="Layer_1" data-name="Layer 1" xmlns="http://www.w3.org/2000/svg" viewBox="0 0 504 128.8"><defs><style>.cls-1{fill:#139ad6;}.cls-2{fill:#263b80;}.cls-3{fill:#232c65;}</style></defs><title>icon-paypal</title><path class="cls-1" d="M389.6,38.2H362.4c-1.6,0-3.2,1.6-4,3.2l-11.2,70.4a2.12,2.12,0,0,0,2.4,2.4H364a2.12,2.12,0,0,0,2.4-2.4l3.2-20c0-1.6,1.6-3.2,4-3.2h8.8q27.6,0,31.2-26.4c1.6-7.2,0-13.6-3.2-17.6-4.8-4-12-6.4-20.8-6.4m3.2,26.4c-1.6,9.6-8.8,9.6-16,9.6H372l3.2-18.4c0-.8.8-1.6,2.4-1.6h1.6c4.8,0,9.6,0,12,3.2,1.6.8,1.6,3.2,1.6,7.2" transform="translate(0 -4.6)"/><path class="cls-2" d="M193.6,38.2H166.4c-1.6,0-3.2,1.6-4,3.2l-11.2,70.4a2.12,2.12,0,0,0,2.4,2.4h12.8c1.6,0,3.2-1.6,4-3.2l3.2-19.2c0-1.6,1.6-3.2,4-3.2h8.8q27.6,0,31.2-26.4c1.6-7.2,0-13.6-3.2-17.6-4.8-4-11.2-6.4-20.8-6.4m3.2,26.4c-1.6,9.6-8.8,9.6-16,9.6h-4L180,55.8c0-.8.8-1.6,2.4-1.6H184c4.8,0,9.6,0,12,3.2.8.8,1.6,3.2.8,7.2" transform="translate(0 -4.6)"/><path class="cls-2" d="M276,63.8H263.2c-.8,0-2.4.8-2.4,1.6l-.8,4-.8-1.6c-3.2-4-8.8-5.6-15.2-5.6-14.4,0-27.2,11.2-29.6,26.4a23.84,23.84,0,0,0,4.8,20c4,4.8,9.6,6.4,16.8,6.4,12,0,18.4-7.2,18.4-7.2l-.8,4a2.12,2.12,0,0,0,2.4,2.4h12c1.6,0,3.2-1.6,4-3.2l7.2-44.8c-.8-.8-2.4-2.4-3.2-2.4M257.6,89.4c-1.6,7.2-7.2,12.8-15.2,12.8a12.79,12.79,0,0,1-8.8-3.2q-2.4-3.6-2.4-9.6a14.65,14.65,0,0,1,14.4-12.8c4,0,6.4,1.6,8.8,3.2,2.4,2.4,3.2,6.4,3.2,9.6" transform="translate(0 -4.6)"/><path class="cls-1" d="M471.2,63.8H458.4c-.8,0-2.4.8-2.4,1.6l-.8,4-.8-1.6c-3.2-4-8.8-5.6-15.2-5.6-14.4,0-27.2,11.2-29.6,26.4a23.84,23.84,0,0,0,4.8,20c4,4.8,9.6,6.4,16.8,6.4,12,0,18.4-7.2,18.4-7.2l-.8,4a2.12,2.12,0,0,0,2.4,2.4h12c1.6,0,3.2-1.6,4-3.2l7.2-44.8c-.8-.8-1.6-2.4-3.2-2.4M452.8,89.4c-1.6,7.2-7.2,12.8-15.2,12.8a12.79,12.79,0,0,1-8.8-3.2q-2.4-3.6-2.4-9.6a14.65,14.65,0,0,1,14.4-12.8c4,0,6.4,1.6,8.8,3.2a9.18,9.18,0,0,1,3.2,9.6" transform="translate(0 -4.6)"/><path class="cls-2" d="M345.6,63.8H332a4.16,4.16,0,0,0-3.2,1.6L311.2,92.6l-8-25.6c-.8-1.6-1.6-2.4-4-2.4H286.4c-1.6,0-2.4,1.6-2.4,3.2l14.4,42.4-13.6,19.2c-.8,1.6,0,4,1.6,4h12.8a4.16,4.16,0,0,0,3.2-1.6l44-63.2c2.4-2.4.8-4.8-.8-4.8" transform="translate(0 -4.6)"/><path class="cls-1" d="M486.4,40.6l-11.2,72a2.12,2.12,0,0,0,2.4,2.4h11.2c1.6,0,3.2-1.6,4-3.2L504,41.4a2.12,2.12,0,0,0-2.4-2.4H488.8c-.8-.8-1.6,0-2.4,1.6" transform="translate(0 -4.6)"/><path class="cls-2" d="M92,14.2C86.4,7.8,76,4.6,61.6,4.6h-40C19.2,4.6,16.8,7,16,9.4L0,114.2c0,2.4,1.6,4,3.2,4H28L34.4,79v1.6c.8-2.4,3.2-4.8,5.6-4.8H52c23.2,0,40.8-9.6,46.4-36V37.4h0c.8-10.4-.8-16.8-6.4-23.2" transform="translate(0 -4.6)"/><path class="cls-1" d="M97.6,37.4h0v2.4C92,67,74.4,75.8,51.2,75.8h-12c-2.4,0-4.8,2.4-5.6,4.8l-8,48.8a2.93,2.93,0,0,0,3.2,3.2H49.6c2.4,0,4.8-1.6,4.8-4v-.8l4-24.8v-1.6c0-2.4,2.4-4,4.8-4h3.2c20,0,36-8,40-32,1.6-9.6.8-18.4-4-24a8.19,8.19,0,0,0-4.8-4" transform="translate(0 -4.6)"/><path class="cls-3" d="M92,35c-.8,0-1.6-.8-2.4-.8a2.94,2.94,0,0,1-2.4-.8c-3.2-.8-6.4-.8-10.4-.8H45.6a2.94,2.94,0,0,0-2.4.8,4.4,4.4,0,0,0-2.4,4L34.4,79v1.6c.8-2.4,3.2-4.8,5.6-4.8H52c23.2,0,40.8-9.6,46.4-36a2.94,2.94,0,0,1,.8-2.4c-1.6-.8-2.4-1.6-4-1.6C92.8,35,92.8,35,92,35" transform="translate(0 -4.6)"/></svg>