<svg id="Layer_1" data-name="Layer 1" xmlns="http://www.w3.org/2000/svg" viewBox="0 0 291.76 209.71"><defs><style>.cls-1{fill:#26a6d1;}.cls-2{fill:#fff;}</style></defs><title>icon-amex</title><path class="cls-1" d="M18.24,3H273.53a18.23,18.23,0,0,1,18.23,18.24V194.5a18.24,18.24,0,0,1-18.23,18.24H18.24A18.24,18.24,0,0,1,0,194.51V21.27A18.24,18.24,0,0,1,18.24,3Z" transform="translate(0 -3.03)"/><path class="cls-2" d="M47.05,76,18.24,139.73H52.73L57,129.56h9.78l4.27,10.17h38V132l3.38,7.76H132l3.38-7.93v7.93h79l9.6-9.91,9,9.91,40.56.08L244.63,108l28.9-32H233.6l-9.34,9.72L215.55,76h-85.9l-7.37,16.45L114.73,76H80.31v7.49L76.48,76Zm6.67,9H70.53l19.11,43.24V85h18.42l14.76,31,13.61-31h18.32v45.75H143.6l-.09-35.85-16.26,35.85h-10L100.93,94.92v35.85H78l-4.35-10.26H50.15l-4.34,10.25H33.52ZM165,85H210.3l13.87,15,14.31-15h13.87l-21.07,23,21.07,22.72h-14.5L224,115.59,209.6,130.74H165V85ZM61.9,92.76,54.16,111H69.63Zm114.25,1.73v8.36h24.74v9.3H176.15v9.12H203.9l12.89-13.43L204.45,94.49Z" transform="translate(0 -3.03)"/></svg>