<svg xmlns="http://www.w3.org/2000/svg" viewBox="0 0 65.2 62.5"><defs><style>.cls-1{fill:#f4f6f8;}.cls-2{fill:#fff;}.cls-3{fill:#517bbd;}.cls-4{fill:#e84336;}.cls-5{fill:#fbbc0a;}.cls-6{fill:#31a853;}.cls-7{fill:#1a1a35;}.cls-8{fill:#777a93;}</style></defs><title>Asset 44icon-</title><g id="Layer_2" data-name="Layer 2"><g id="Icons"><g id="SEO"><path class="cls-1" d="M0,32.18c.35,8,6.13,18.15,11.52,23.51,6.34,6.3,13,7.16,22.87,6.72,7.47-.33,10.86-.65,16.21-4.9,7.71-6.13,15-15.65,14.56-26-.31-7.11-2.93-14.64-7.29-19.75C51.53,4.33,46.76-.44,35.94,0,25.69.48,14,4.61,8.59,13.23,4.72,19.33-.32,24.52,0,32.18Z"/><polygon class="cls-2" points="44.54 34.74 17.98 34.74 17.98 28.47 46.41 28.47 44.54 34.74"/><path class="cls-3" d="M26.63,22.89l-.57.51a.81.81,0,0,0-.62-.42.38.38,0,0,0-.25.08.24.24,0,0,0-.1.18.31.31,0,0,0,.07.19,5.3,5.3,0,0,0,.57.52l.54.47a1.61,1.61,0,0,1,.33.46,1.13,1.13,0,0,1,.1.47,1.09,1.09,0,0,1-.35.83,1.26,1.26,0,0,1-.9.33,1.35,1.35,0,0,1-.76-.21,1.68,1.68,0,0,1-.55-.67l.65-.39q.29.54.68.54a.5.5,0,0,0,.34-.12.35.35,0,0,0,.14-.27.46.46,0,0,0-.1-.28,3,3,0,0,0-.45-.42,4.56,4.56,0,0,1-.86-.84,1.06,1.06,0,0,1-.19-.59,1,1,0,0,1,.32-.73,1.12,1.12,0,0,1,.8-.3,1.26,1.26,0,0,1,.58.14A2.12,2.12,0,0,1,26.63,22.89Z"/><path class="cls-4" d="M30.44,25.13H28a.81.81,0,0,0,.28.51.88.88,0,0,0,.58.19,1,1,0,0,0,.73-.3l.64.3a1.5,1.5,0,0,1-.57.5,1.78,1.78,0,0,1-.79.16A1.56,1.56,0,0,1,27.72,26a1.52,1.52,0,0,1-.45-1.12,1.57,1.57,0,0,1,.44-1.15,1.49,1.49,0,0,1,1.12-.46,1.55,1.55,0,0,1,1.16.46,1.65,1.65,0,0,1,.45,1.2Zm-.76-.6a.76.76,0,0,0-.3-.41.86.86,0,0,0-.51-.16.91.91,0,0,0-.55.18,1,1,0,0,0-.28.39Z"/><path class="cls-5" d="M33.33,23.4h.76v3h-.76V26.1a1.5,1.5,0,0,1-.44.3,1.24,1.24,0,0,1-.48.09,1.34,1.34,0,0,1-1-.45A1.58,1.58,0,0,1,31,24.91a1.62,1.62,0,0,1,.41-1.14,1.31,1.31,0,0,1,1-.45,1.27,1.27,0,0,1,.51.1,1.39,1.39,0,0,1,.44.31Zm-.8.62a.76.76,0,0,0-.58.25,1,1,0,0,0,0,1.28.76.76,0,0,0,.58.25.78.78,0,0,0,.59-.25.91.91,0,0,0,.23-.65.88.88,0,0,0-.23-.64A.79.79,0,0,0,32.53,24Z"/><path class="cls-3" d="M34.73,23.4h.65v.38a.8.8,0,0,1,.28-.34.67.67,0,0,1,.38-.12.71.71,0,0,1,.31.08l-.24.65a.52.52,0,0,0-.22-.07.35.35,0,0,0-.3.22,2,2,0,0,0-.12.85v1.37h-.75Z"/><path class="cls-6" d="M39.73,24l-.63.35a.93.93,0,0,0-.76-.33,1,1,0,0,0-.69.25.86.86,0,0,0-.26.65.83.83,0,0,0,.25.63.91.91,0,0,0,.66.24,1,1,0,0,0,.79-.35l.6.41a1.62,1.62,0,0,1-1.37.63A1.64,1.64,0,0,1,37.08,26a1.57,1.57,0,0,1,.38-2.49,1.82,1.82,0,0,1,.88-.21,1.77,1.77,0,0,1,.81.18A1.53,1.53,0,0,1,39.73,24Z"/><path class="cls-4" d="M40.47,22.24h.75V23.7a1.72,1.72,0,0,1,.45-.29,1.15,1.15,0,0,1,.45-.1,1,1,0,0,1,.76.31,1.08,1.08,0,0,1,.26.79v2h-.74V25.09a3.26,3.26,0,0,0,0-.71.5.5,0,0,0-.17-.28.48.48,0,0,0-.3-.09.56.56,0,0,0-.39.15.81.81,0,0,0-.23.42,3.45,3.45,0,0,0,0,.62v1.21h-.75Z"/><path class="cls-7" d="M20.17,31.57a5.39,5.39,0,0,1,2.22-.27c.37.05.74.16,1.11.19a4.45,4.45,0,0,0,1.11-.08,11.64,11.64,0,0,1,2.22-.19,8.41,8.41,0,0,1,2.22.36v.07a8.4,8.4,0,0,1-2.22.36,11.64,11.64,0,0,1-2.22-.19,4.44,4.44,0,0,0-1.11-.08c-.37,0-.74.14-1.11.19a5.39,5.39,0,0,1-2.22-.27Z"/><path class="cls-7" d="M36,31.57a3.86,3.86,0,0,1,1.87-.27c.31.05.62.16.93.19a3.16,3.16,0,0,0,.93-.08,8.26,8.26,0,0,1,1.87-.19,6,6,0,0,1,1.87.36v.07a6,6,0,0,1-1.87.36,8.26,8.26,0,0,1-1.87-.19,3.15,3.15,0,0,0-.93-.08c-.31,0-.62.14-.93.19A3.86,3.86,0,0,1,36,31.65Z"/><path class="cls-7" d="M30.49,31.57a1.09,1.09,0,0,1,.93-.27,3.51,3.51,0,0,0,.47.19.83.83,0,0,0,.47-.08,2.18,2.18,0,0,1,.93-.19,1.78,1.78,0,0,1,.93.36v.07a1.78,1.78,0,0,1-.93.36,2.18,2.18,0,0,1-.93-.19.83.83,0,0,0-.47-.08,3.5,3.5,0,0,0-.47.19,1.09,1.09,0,0,1-.93-.27Z"/><rect class="cls-2" x="45.52" y="29.83" width="8.05" height="3.56"/><path class="cls-8" d="M48.49,49.8l-5.57-7.35a12.56,12.56,0,0,1-4.25,3.22L44.24,53a2.67,2.67,0,0,0,4.25-3.22Z"/><path class="cls-7" d="M48.47,49.82C48,49.21,47.53,48.59,47,48l-1.48-1.77c-.48-.6-1-1.2-1.42-1.82s-.91-1.24-1.35-1.87H43a14.79,14.79,0,0,1-4.34,3.19l0-.14c1.84,2.28,3.68,4.57,5.45,6.91a2.57,2.57,0,0,0,3.51,1,2.51,2.51,0,0,0,1.21-1.63A2.53,2.53,0,0,0,48.47,49.82Zm0,0a2.83,2.83,0,0,1-.61,4,2.8,2.8,0,0,1-2.27.42,2.92,2.92,0,0,1-1.07-.53,4.33,4.33,0,0,1-.78-.86c-1.78-2.33-3.48-4.72-5.18-7.12l-.07-.1.1,0a10.87,10.87,0,0,0,4.16-3.24l.12-.16.14.17c.49.59,1,1.2,1.43,1.81s.91,1.24,1.36,1.86l1.31,1.9C47.59,48.55,48.06,49.16,48.51,49.79Z"/><path class="cls-8" d="M47,30.93A18.25,18.25,0,1,0,26.47,46.51,18.25,18.25,0,0,0,47,30.93ZM26.76,44.41A16.13,16.13,0,1,1,44.95,30.64,16.15,16.15,0,0,1,26.76,44.41Z"/><path class="cls-7" d="M47,30.92a17.86,17.86,0,0,0-3.63-13.42,18.65,18.65,0,0,0-12-7A18.17,18.17,0,0,0,18,14a17.94,17.94,0,0,0-7,12A18.14,18.14,0,0,0,26.5,46.25a18.22,18.22,0,0,0,18.15-8.63A18.07,18.07,0,0,0,47,30.92Zm0,0A18.43,18.43,0,0,1,33.63,46.31a18.18,18.18,0,0,1-7.2.45,18.4,18.4,0,0,1-13.3-27.61,19.27,19.27,0,0,1,4.76-5.35,18.42,18.42,0,0,1,13.6-3.64,18,18,0,0,1,12.15,7.15A18.67,18.67,0,0,1,47.07,30.93Z"/><path class="cls-7" d="M26.75,44.44A16.55,16.55,0,0,1,16,38.26,15.85,15.85,0,0,1,12.79,26.2a16.29,16.29,0,0,1,6.38-10.7,17.19,17.19,0,0,1,5.69-2.77A16.27,16.27,0,0,1,45.2,30.67a16,16,0,0,1-2.12,6,16.34,16.34,0,0,1-16.33,7.73Zm0,0A15.9,15.9,0,0,0,33,44a16.07,16.07,0,0,0-1.87-31.38,15.81,15.81,0,0,0-11.87,3.07,16.05,16.05,0,0,0-6.12,10.6,16.53,16.53,0,0,0,3.06,11.82,16.07,16.07,0,0,0,4.61,4.22A15.89,15.89,0,0,0,26.76,44.39Z"/></g></g></g></svg>