<svg id="Layer_1" data-name="Layer 1" xmlns="http://www.w3.org/2000/svg" viewBox="0 0 650.95 416.73"><defs><style>.cls-1{fill:#fff;}</style></defs><title>icon-applepay</title><path class="cls-1" d="M597.66,11.68h6.61c1.82,0,3.63,0,5.45.08a74.3,74.3,0,0,1,10.94.94,32.79,32.79,0,0,1,9.24,3,30.33,30.33,0,0,1,13.31,13.32,32.67,32.67,0,0,1,3,9.24,72.29,72.29,0,0,1,.94,10.93c.05,1.8.07,3.62.08,5.45,0,2.2,0,4.41,0,6.62V361.43c0,2.21,0,4.41,0,6.64,0,1.81,0,3.62-.08,5.43a74.2,74.2,0,0,1-.94,10.95,32.61,32.61,0,0,1-3,9.22A30.53,30.53,0,0,1,629.88,407a32.21,32.21,0,0,1-9.22,3,75.19,75.19,0,0,1-10.91.94c-1.82,0-3.65.07-5.5.07-2.19,0-4.41,0-6.6,0H63.22c-2.18,0-4.36,0-6.57,0-1.82,0-3.64,0-5.42-.07A75.6,75.6,0,0,1,40.29,410,32.11,32.11,0,0,1,31,407a30.62,30.62,0,0,1-13.3-13.31,32.75,32.75,0,0,1-3-9.24,72.86,72.86,0,0,1-.94-10.93c0-1.81-.07-3.62-.08-5.44V54.68c0-1.81,0-3.63.08-5.45a74.54,74.54,0,0,1,.94-10.95,32.38,32.38,0,0,1,3-9.23A30.46,30.46,0,0,1,31.05,15.74a32.67,32.67,0,0,1,9.23-3,73,73,0,0,1,10.95-.94c1.81,0,3.63-.07,5.43-.08l6.64,0H597.66" transform="translate(-5 -3)"/><path d="M597.66,11.68h6.61c1.82,0,3.63,0,5.45.08a74.3,74.3,0,0,1,10.94.94,32.79,32.79,0,0,1,9.24,3,30.33,30.33,0,0,1,13.31,13.32,32.67,32.67,0,0,1,3,9.24,72.29,72.29,0,0,1,.94,10.93c.05,1.8.07,3.62.08,5.45,0,2.2,0,4.41,0,6.62V361.43c0,2.21,0,4.41,0,6.64,0,1.81,0,3.62-.08,5.43a74.2,74.2,0,0,1-.94,10.95,32.61,32.61,0,0,1-3,9.22A30.53,30.53,0,0,1,629.88,407a32.21,32.21,0,0,1-9.22,3,75.19,75.19,0,0,1-10.91.94c-1.82,0-3.65.07-5.5.07-2.19,0-4.41,0-6.6,0H63.22c-2.18,0-4.36,0-6.57,0-1.82,0-3.64,0-5.42-.07A75.6,75.6,0,0,1,40.29,410,32.11,32.11,0,0,1,31,407a30.62,30.62,0,0,1-13.3-13.31,32.75,32.75,0,0,1-3-9.24,72.86,72.86,0,0,1-.94-10.93c0-1.81-.07-3.62-.08-5.44V54.68c0-1.81,0-3.63.08-5.45a74.54,74.54,0,0,1,.94-10.95,32.38,32.38,0,0,1,3-9.23A30.46,30.46,0,0,1,31.05,15.74a32.67,32.67,0,0,1,9.23-3,73,73,0,0,1,10.95-.94c1.81,0,3.63-.07,5.43-.08l6.64,0H597.66m0-8.68h-541C54.74,3,52.87,3,51,3.1A82.33,82.33,0,0,0,38.75,4.17,41.57,41.57,0,0,0,27.11,8,39.27,39.27,0,0,0,10,25.12,41.25,41.25,0,0,0,6.17,36.76,81,81,0,0,0,5.09,49C5,50.87,5,52.74,5,54.62v313.5c0,1.87,0,3.75.09,5.61A80.9,80.9,0,0,0,6.18,386,41.3,41.3,0,0,0,10,397.61a39,39,0,0,0,17.11,17.11,41,41,0,0,0,11.63,3.83A81.14,81.14,0,0,0,51,419.63c1.88.05,3.75.08,5.63.08,2.22,0,4.45,0,6.68,0H597.66c2.22,0,4.45,0,6.67,0,1.88,0,3.75,0,5.63-.08a81.26,81.26,0,0,0,12.24-1.08,41.07,41.07,0,0,0,11.63-3.83,38.93,38.93,0,0,0,17.11-17.11A41,41,0,0,0,654.77,386a80.9,80.9,0,0,0,1.08-12.23c0-1.87.08-3.75.09-5.61,0-2.24,0-4.46,0-6.69V61.3c0-2.24,0-4.46,0-6.69,0-1.87,0-3.74-.09-5.62a81,81,0,0,0-1.08-12.24,41.23,41.23,0,0,0-3.83-11.64A39.08,39.08,0,0,0,633.83,8,41.4,41.4,0,0,0,622.2,4.16,82.33,82.33,0,0,0,610,3.09C608.07,3,606.2,3,604.33,3Z" transform="translate(-5 -3)"/><path d="M199.08,128c6-7.28,10.06-17.41,9-27.49-8.68.35-19.18,5.8-25.36,13-5.6,6.44-10.44,16.76-9.1,26.65C183.23,141,193.07,135.31,199.08,128Zm24.94,64c-.19-21.82,17.8-32.32,18.63-32.84-10.14-14.75-25.88-16.8-31.49-17-13.41-1.33-26.2,7.9-33,7.9s-17.28-7.69-28.43-7.46c-14.62.21-28.1,8.5-35.62,21.59C99,190.62,110.28,229.64,125.07,251c7.24,10.46,15.86,22.22,27.2,21.79,10.92-.42,15-7.06,28.22-7.06s16.89,7,28.39,6.85c11.74-.26,19.19-10.68,26.39-21.2a93.66,93.66,0,0,0,11.87-24.46c-.23-.16-22.86-8.78-23.12-34.87Zm139.74-64A43.88,43.88,0,0,0,347,118.26a76.21,76.21,0,0,0-23.89-3.36,156.31,156.31,0,0,0-17.57.92q-7.29.81-14.53,2l-1.41.24V271.47h14V206.86a95.76,95.76,0,0,0,16.07,1.23,78.14,78.14,0,0,0,22.07-3,49.39,49.39,0,0,0,17.69-9.23,44.65,44.65,0,0,0,11.82-15.36,49.63,49.63,0,0,0,4.32-21.26,48,48,0,0,0-3.1-17.78,40.72,40.72,0,0,0-8.7-13.44ZM350.89,186.6c-7.18,6-17.36,9.08-30.27,9.08-3.55,0-6.91-.15-10-.44a46.48,46.48,0,0,1-7-1.18V128.84c1.85-.34,4.14-.66,6.83-1a118.78,118.78,0,0,1,12.22-.55,58.38,58.38,0,0,1,16,2.08,36.77,36.77,0,0,1,12.31,6,26.19,26.19,0,0,1,7.83,10.07,35.82,35.82,0,0,1,2.77,14.65c0,11.59-3.6,20.49-10.67,26.44Zm108.37,70.51c-.16-4.34-.22-8.69-.22-13V201.44a80.21,80.21,0,0,0-1.51-15.33,38.72,38.72,0,0,0-5.8-14.27,32.46,32.46,0,0,0-11.82-10.49c-5-2.68-11.45-4-19.26-4a61.31,61.31,0,0,0-16.51,2.21,52.51,52.51,0,0,0-15.45,7.34l-1.13.79,4.73,11.07,1.71-1.15a45.77,45.77,0,0,1,12.12-5.77,45.3,45.3,0,0,1,13.43-2.06c5.83,0,10.49,1.06,13.82,3.14a20.87,20.87,0,0,1,7.56,7.78,29.7,29.7,0,0,1,3.33,10,69,69,0,0,1,.78,9.64v1.23c-20.76-.1-37,3.36-47.73,10.3-11.3,7.27-17,17.63-17,30.77a33.85,33.85,0,0,0,2,11.37,29.35,29.35,0,0,0,6.1,10.14,30.08,30.08,0,0,0,10.39,7.15A36.45,36.45,0,0,0,413.34,274a40.73,40.73,0,0,0,22-6,42.42,42.42,0,0,0,7.63-6q1.39-1.41,2.67-2.94h.53l1.29,12.45H461l-.37-2a84.28,84.28,0,0,1-1.33-12.38ZM445,235.27a24.11,24.11,0,0,1-1,6,30.41,30.41,0,0,1-3.76,7.49,28.76,28.76,0,0,1-14.67,11.07,34.2,34.2,0,0,1-11.22,1.71,22.06,22.06,0,0,1-7.38-1.26,17.78,17.78,0,0,1-6.21-3.71,18.61,18.61,0,0,1-4.36-6.31,23.72,23.72,0,0,1-1.65-9.36c0-6,1.61-10.87,4.78-14.43A31.53,31.53,0,0,1,412,218a64.35,64.35,0,0,1,16.87-3.84,152.91,152.91,0,0,1,16.16-.7v21.81ZM554.29,159.8l-26.13,71c-1.63,4.29-3.15,8.62-4.54,12.83-.68,2.1-1.32,4.09-2,6h-.5c-.65-2.07-1.32-4.14-2-6.21-1.36-4.17-2.82-8.25-4.31-12.15L486.92,159.8H472l40,102.78a11.83,11.83,0,0,1,1.21,4.07,15.41,15.41,0,0,1-1.23,4.1,74.45,74.45,0,0,1-8.48,15.77A92.86,92.86,0,0,1,494.71,297a47.94,47.94,0,0,1-9.36,7.42,90.23,90.23,0,0,1-8.85,4.64l-1.51.68,4.87,11.83,1.54-.57c1.27-.48,3.65-1.57,7.26-3.33a54.91,54.91,0,0,0,12-8.5,62,62,0,0,0,10.09-11.36,140.14,140.14,0,0,0,8.8-14.73c2.87-5.52,5.73-11.78,8.53-18.65s5.8-14.62,8.89-22.91l32.29-81.75Z" transform="translate(-5 -3)"/></svg>