<svg xmlns="http://www.w3.org/2000/svg" viewBox="0 0 64.9 62.12"><defs><style>.cls-1{fill:#f4f6f8;}.cls-2{fill:#843b15;}.cls-3{fill:#1a1a35;}.cls-4{fill:#f6bd60;}.cls-5{fill:#f25757;}.cls-6{fill:#fff;}.cls-7{fill:#203b8e;}.cls-8{fill:#878787;}.cls-9{fill:#b5b5b5;}.cls-10{fill:none;stroke:#b5b5b5;stroke-linecap:round;stroke-miterlimit:2.61;}</style></defs><title>Asset 47icon-</title><g id="Layer_2" data-name="Layer 2"><g id="Icons"><g id="Disaster"><path class="cls-1" d="M47,4.1C39.81.42,30.33-1.12,23,.89c-8.62,2.37-13.41,9.19-17.92,18C1.66,25.49-.8,29.95.24,36.71c1.5,9.74,7.92,18,17.11,22.74,6.33,3.26,14.25,3.09,20.84,1.85,9.63-1.82,16.05-2,21-11.59,4.7-9.12,8.18-18.29,3.42-27.3C59.24,16,53.78,7.61,47,4.1Z"/><ellipse class="cls-2" cx="32.28" cy="52.39" rx="19.76" ry="0.99"/><path class="cls-3" d="M52.06,52.39c-.14.22-.38.2-.57.26l-.61.11c-.41.06-.82.1-1.23.15l-2.47.2c-1.65.12-3.3.22-5,.3-3.31.16-6.62.21-9.93.18s-6.62-.15-9.93-.25l-5-.19c-.83,0-1.65-.09-2.48-.16-.41,0-.83-.08-1.24-.13l-.62-.1-.31-.08-.16-.06c-.05,0-.14,0-.19-.23s.13-.19.18-.23l.16-.06L13,52l.62-.11c.41-.06.83-.11,1.24-.15.83-.08,1.65-.15,2.48-.21q2.48-.17,5-.25,5-.17,9.93-.16c3.31,0,6.62.08,9.93.24,1.65.07,3.31.17,5,.29l2.47.2c.41,0,.82.09,1.23.15l.61.11C51.68,52.19,51.92,52.17,52.06,52.39Zm0,0c-.09-.13-.35-.16-.54-.2l-.61-.1C50.45,52,50,52,49.63,52c-.82-.07-1.65-.12-2.47-.15-1.65-.06-3.31-.09-5-.12-3.31,0-6.61,0-9.92,0s-6.61,0-9.92.11c-1.65,0-3.3.09-5,.16-.82,0-1.65.08-2.47.15-.41,0-.82.07-1.23.12l-.6.09-.29.07c-.08,0-.2.12-.16,0s.08,0,.16,0l.29.07.6.11c.41.06.82.1,1.23.15.82.08,1.65.14,2.47.2,1.65.11,3.3.19,5,.22,3.31.09,6.61,0,9.92,0l9.92-.08c1.65,0,3.31,0,5-.11.83,0,1.65-.09,2.47-.15.41,0,.82-.08,1.23-.13l.61-.1C51.66,52.55,51.92,52.52,52,52.39Z"/><path class="cls-4" d="M28.44,29c.75-.57.81,5.94-1,11.78a39.08,39.08,0,0,1-6.24,11.19,70.65,70.65,0,0,0,22.18,0s-4.64-6.11-5.52-11.23C37.18,37,36.81,29,37.36,29,34.46,25.18,31.48,25.36,28.44,29Z"/><path class="cls-3" d="M28.45,29c0-.05.12-.06.18,0a.48.48,0,0,1,.11.17,2.07,2.07,0,0,1,.11.38,7.27,7.27,0,0,1,.1.78c0,.52.05,1,0,1.57A28.29,28.29,0,0,1,28.8,35a31.13,31.13,0,0,1-1.32,6.15,29.47,29.47,0,0,1-2.62,5.72A40,40,0,0,1,21.28,52l-.09-.24a60.5,60.5,0,0,0,11.07.95,68.64,68.64,0,0,0,11.06-1l-.13.32a40,40,0,0,1-3.31-5.18,21.59,21.59,0,0,1-2.23-5.76A51.69,51.69,0,0,1,37,35.05c-.06-1-.09-2-.1-3.07,0-.51,0-1,0-1.54,0-.26,0-.52.05-.78s0-.26.06-.4a1.42,1.42,0,0,1,.06-.21.44.44,0,0,1,.06-.13.3.3,0,0,1,.21-.14l-.14.3a9.32,9.32,0,0,0-1.85-1.9,4.09,4.09,0,0,0-2.43-.86,4.74,4.74,0,0,0-2.47.86A12.74,12.74,0,0,0,28.45,29Zm0,0a9.56,9.56,0,0,1,1.95-1.94,4.71,4.71,0,0,1,2.56-1,4.38,4.38,0,0,1,2.62.86,9.65,9.65,0,0,1,2,1.93l-.14.3c.14,0,0,0,.05,0a1.07,1.07,0,0,0,0,.16c0,.12,0,.24,0,.36s0,.5,0,.75c0,.5,0,1,0,1.52,0,1,.09,2,.16,3a51.26,51.26,0,0,0,.68,6,22.4,22.4,0,0,0,2.15,5.63,44.25,44.25,0,0,0,3.2,5.17l.19.27-.32,0a73.53,73.53,0,0,1-11.12.75,86.06,86.06,0,0,1-11.11-.85l-.25,0,.16-.21a47.42,47.42,0,0,0,3.44-5.19A33.22,33.22,0,0,0,27.09,41,35.29,35.29,0,0,0,28.51,35q.22-1.54.31-3.1c0-.52,0-1,0-1.56a7.18,7.18,0,0,0-.07-.77,2,2,0,0,0-.09-.37C28.63,29,28.59,28.92,28.42,29Z"/><path class="cls-5" d="M28.82,29s1.3,7.27-1.42,13.8-5,8.63-5,8.63h3.22s3.77-5.68,4.17-11.21a41.41,41.41,0,0,0-1-11.21Z"/><path class="cls-5" d="M30.81,29s.35,10.44-.44,14.34A83.27,83.27,0,0,1,28.2,51.4h2.1a91.78,91.78,0,0,0,1.23-11.21A65.61,65.61,0,0,0,30.81,29Z"/><path class="cls-6" d="M46.57,31.42s3.36.95,5.32-.83,2.69-3,2.75-5.59a5.43,5.43,0,0,0-1.27-4c-.57-1,.18-3.71-1.74-5.41S46,14.16,46,14.16a5.16,5.16,0,0,0-2.69-2,6.63,6.63,0,0,0-3.28-.59,3.4,3.4,0,0,0-2.9-1.68,8.35,8.35,0,0,0-2.92.49S33.2,7.22,31.58,7a7.26,7.26,0,0,0-4.64.55c-1.61.82-2.13,3.79-2.13,3.79s-1.36.34-2.62.82A7.61,7.61,0,0,0,19.74,14s-2.78-.47-3.92.28a3.2,3.2,0,0,0-1.67,2.55,14.54,14.54,0,0,0,.16,2.61s-3,1.33-3.11,4.4A7.67,7.67,0,0,0,14.74,31,6.32,6.32,0,0,0,20,30.81a26.59,26.59,0,0,0,4.52-3s1.8,1.71,3.72,1,2.12-1.63,2.12-1.63a4.89,4.89,0,0,0,2.78.68,9,9,0,0,0,2.28-.57,4.4,4.4,0,0,0,2.88,2A4.33,4.33,0,0,0,41.35,28a22.11,22.11,0,0,0,5.22,3.43"/><path class="cls-7" d="M46.83,19.14a10.5,10.5,0,0,1,4.09.22,5.09,5.09,0,0,1,3.33,2.42,6.75,6.75,0,0,1,.36,4.08,8.84,8.84,0,0,1-1.49,3.8,5.6,5.6,0,0,1-5.59,2.21,7.65,7.65,0,0,1-2-.72,16.63,16.63,0,0,1-3.47-2.22,7.43,7.43,0,0,1-1.39-1.54,2.71,2.71,0,0,1-.5-2,0,0,0,0,1,0,0,0,0,0,0,1,0,0,2.65,2.65,0,0,0,.66,1.82,7.77,7.77,0,0,0,1.43,1.38,20.47,20.47,0,0,0,3.45,2.06,6.08,6.08,0,0,0,3.78.72A5.5,5.5,0,0,0,52.9,29.5a7.15,7.15,0,0,0,1.53-3.66A6.12,6.12,0,0,0,53.88,22a5.12,5.12,0,0,0-3.07-2.25,13.25,13.25,0,0,0-4-.54,0,0,0,0,1,0,0A0,0,0,0,1,46.83,19.14Z"/><path class="cls-7" d="M19,19a13.25,13.25,0,0,0-4,.54A5.12,5.12,0,0,0,12,21.76a6.12,6.12,0,0,0-.56,3.86,7.15,7.15,0,0,0,1.53,3.66,5.5,5.5,0,0,0,3.34,1.92A6.08,6.08,0,0,0,20,30.48a20.45,20.45,0,0,0,3.45-2.06A7.76,7.76,0,0,0,24.93,27a2.65,2.65,0,0,0,.66-1.82,0,0,0,0,1,0,0,0,0,0,0,1,0,0,2.71,2.71,0,0,1-.5,2,7.42,7.42,0,0,1-1.39,1.54,16.63,16.63,0,0,1-3.47,2.22,7.66,7.66,0,0,1-2,.72,5.6,5.6,0,0,1-5.59-2.21,8.84,8.84,0,0,1-1.49-3.8,6.75,6.75,0,0,1,.36-4.08,5.09,5.09,0,0,1,3.33-2.42A10.5,10.5,0,0,1,19,18.92a0,0,0,0,1,0,0A0,0,0,0,1,19,19Z"/><path class="cls-7" d="M20.42,21.67a8.48,8.48,0,0,1-1.68-4.39,6.26,6.26,0,0,1,.41-2.35A5.21,5.21,0,0,1,20.53,13a6.77,6.77,0,0,1,2-1.23c.36-.17.75-.27,1.13-.41a7.17,7.17,0,0,1,1.19-.22,4.38,4.38,0,0,1,2.4.33,3,3,0,0,1,1.62,1.73,0,0,0,0,1,0,0h0a3.24,3.24,0,0,0-1.72-1.38,4.7,4.7,0,0,0-2.19-.18,10.34,10.34,0,0,0-2.2.55,8.48,8.48,0,0,0-2,1A3.65,3.65,0,0,0,19.32,15a5.12,5.12,0,0,0-.16,2.26,15.47,15.47,0,0,0,1.3,4.4,0,0,0,0,1,0,0Z"/><path class="cls-7" d="M24.5,27.76a9,9,0,0,0,1.45.79,2.75,2.75,0,0,0,.77.31,1.9,1.9,0,0,0,.84,0,5.61,5.61,0,0,0,2.74-1.69,0,0,0,0,1,0,0,0,0,0,0,1,0,0,2.51,2.51,0,0,1-1,1.47,2.87,2.87,0,0,1-1.74.46c-.3,0-.59,0-.88-.07a4.88,4.88,0,0,1-.9-.08,2,2,0,0,1-1.35-1.15,0,0,0,0,1,0,0Z"/><path class="cls-7" d="M45.37,21.87a15.47,15.47,0,0,0,1.3-4.4,5.12,5.12,0,0,0-.16-2.26,3.65,3.65,0,0,0-1.38-1.78,8.48,8.48,0,0,0-2-1,10.34,10.34,0,0,0-2.2-.55,4.7,4.7,0,0,0-2.19.18A3.24,3.24,0,0,0,37,13.44a0,0,0,0,1,0,0,0,0,0,0,1,0,0,3,3,0,0,1,1.62-1.73,4.39,4.39,0,0,1,2.4-.33,7.17,7.17,0,0,1,1.19.22c.38.14.77.24,1.13.41a6.77,6.77,0,0,1,2,1.23,5.21,5.21,0,0,1,1.37,1.93,6.25,6.25,0,0,1,.41,2.35,8.48,8.48,0,0,1-1.68,4.39h0A0,0,0,0,1,45.37,21.87Z"/><path class="cls-7" d="M41.37,28A2,2,0,0,1,40,29.16a4.89,4.89,0,0,1-.9.08c-.29,0-.58.06-.88.07a2.87,2.87,0,0,1-1.74-.46,2.51,2.51,0,0,1-1-1.47,0,0,0,0,1,0,0h0A5.61,5.61,0,0,0,38.27,29a1.9,1.9,0,0,0,.84,0,2.76,2.76,0,0,0,.77-.31A9,9,0,0,0,41.33,28a0,0,0,0,1,0,0A0,0,0,0,1,41.37,28Z"/><path class="cls-7" d="M24.79,11.35A4.87,4.87,0,0,1,26,8.12a3.78,3.78,0,0,1,1.52-.9c.57-.16,1.12-.25,1.69-.38A6,6,0,0,1,31,6.66a3.12,3.12,0,0,1,1.72.61,4.66,4.66,0,0,1,1.51,3.14,0,0,0,0,1,0,0l0,0A6.29,6.29,0,0,0,32.38,7.7a4.58,4.58,0,0,0-3.11-.59,7.13,7.13,0,0,0-1.67.27,3.08,3.08,0,0,0-1.26,1,9.27,9.27,0,0,0-1.49,3,0,0,0,0,1,0,0A0,0,0,0,1,24.79,11.35Z"/><path class="cls-7" d="M32.42,13.2a3,3,0,0,1,.86-2.34,3.46,3.46,0,0,1,1.11-.64,6.25,6.25,0,0,1,1.2-.37,6.42,6.42,0,0,1,2.51,0,3,3,0,0,1,1.19.54,2.05,2.05,0,0,1,.7,1.07,0,0,0,0,1,0,0h0a2.85,2.85,0,0,0-2-1.11,14.62,14.62,0,0,0-2.37-.2,2.48,2.48,0,0,0-1.16.24,2.57,2.57,0,0,0-.87.78,6.48,6.48,0,0,0-1.11,2.06,0,0,0,0,1,0,0Z"/><path class="cls-7" d="M30,25.72a2.21,2.21,0,0,0,1.07,1.63,2.39,2.39,0,0,0,1,.4,3,3,0,0,0,1.08-.06,8.68,8.68,0,0,0,2-.66,4.37,4.37,0,0,0,1.65-1.27,0,0,0,0,1,0,0,0,0,0,0,1,0,0,2.79,2.79,0,0,1-1.45,1.73,4.6,4.6,0,0,1-2.22.45c-.38,0-.75,0-1.12-.06a3.35,3.35,0,0,1-1.14-.19,1.67,1.67,0,0,1-.93-2,0,0,0,0,1,0,0Z"/><path class="cls-7" d="M14.3,19.55a4.78,4.78,0,0,1-.39-2.49,5.24,5.24,0,0,1,.39-1.23,3.69,3.69,0,0,1,.66-1.1,3.61,3.61,0,0,1,2.32-1.11,6.31,6.31,0,0,1,2.52.29,0,0,0,0,1,0,0l0,0c-.84.06-1.66.06-2.45.19a4.66,4.66,0,0,0-2.2.78,1.92,1.92,0,0,0-.7,1,3.68,3.68,0,0,0-.12,1.2c0,.8,0,1.61,0,2.45a0,0,0,0,1,0,0Z"/><path class="cls-7" d="M53.21,20.81c-.21-.95-.38-1.87-.56-2.8a5.86,5.86,0,0,0-.34-1.37,2.39,2.39,0,0,0-.87-1.07,7.71,7.71,0,0,0-2.59-1,17.25,17.25,0,0,0-2.8-.43,0,0,0,0,1,0,0,0,0,0,0,1,0,0,6.68,6.68,0,0,1,2.92,0,5.37,5.37,0,0,1,2.65,1.28,4.31,4.31,0,0,1,.85,1.21,8.7,8.7,0,0,1,.6,1.34,7.16,7.16,0,0,1,.21,2.9,0,0,0,0,1,0,0Z"/><path class="cls-7" d="M41,19.9a1.58,1.58,0,0,1,1.54-.47,3.94,3.94,0,0,1,.75.35l.72.34a2.93,2.93,0,0,1,1.73,2.59,0,0,0,0,1,0,0h0a13.25,13.25,0,0,0-.87-1.25,10.31,10.31,0,0,0-1-1.14,1.75,1.75,0,0,0-.63-.42,2.21,2.21,0,0,0-.74-.09,5,5,0,0,0-1.46.1,0,0,0,0,1,0,0A0,0,0,0,1,41,19.9Z"/><path class="cls-7" d="M52.86,25.43a6.2,6.2,0,0,0-.13-1.58,2,2,0,0,0-.23-.77,1.66,1.66,0,0,0-.58-.57,10,10,0,0,0-3-1,0,0,0,0,1,0,0l0,0a3.13,3.13,0,0,1,1.74-.05,3,3,0,0,1,1.48.93c.19.22.36.45.53.68a3.23,3.23,0,0,1,.49.74,1.83,1.83,0,0,1-.22,1.72,0,0,0,0,1,0,0Z"/><path class="cls-7" d="M22.86,20.69a5,5,0,0,0-1.4.43,2.21,2.21,0,0,0-.66.35,1.74,1.74,0,0,0-.44.62,10.29,10.29,0,0,0-.49,1.41A13.26,13.26,0,0,0,19.51,25a0,0,0,0,1,0,0l0,0a2.93,2.93,0,0,1,.67-3l.55-.58a3.94,3.94,0,0,1,.57-.6,1.59,1.59,0,0,1,1.61-.12,0,0,0,0,1,0,0Z"/><path class="cls-7" d="M44.74,18.12a6.19,6.19,0,0,0,0-1.59,2,2,0,0,0-.15-.79,1.66,1.66,0,0,0-.52-.62,10,10,0,0,0-2.92-1.33,0,0,0,0,1,0,0l0,0a3.13,3.13,0,0,1,1.73.12,3,3,0,0,1,1.38,1.08c.17.24.32.48.46.73a3.23,3.23,0,0,1,.41.78,1.83,1.83,0,0,1-.39,1.69,0,0,0,0,1,0,0A0,0,0,0,1,44.74,18.12Z"/><path class="cls-8" d="M14.16,28.07a6.19,6.19,0,0,0,1.11,1.14,2,2,0,0,0,.66.45,1.66,1.66,0,0,0,.81.07,10,10,0,0,0,3-1.12,0,0,0,0,1,0,0,0,0,0,0,1,0,0,3.13,3.13,0,0,1-1.31,1.14,3,3,0,0,1-1.74.22c-.29-.05-.57-.12-.84-.19a3.23,3.23,0,0,1-.85-.26,1.83,1.83,0,0,1-.92-1.47,0,0,0,0,1,0,0Z"/><path class="cls-8" d="M45.73,28.29a6.2,6.2,0,0,0,1.11,1.14,2,2,0,0,0,.66.45,1.66,1.66,0,0,0,.81.07,10,10,0,0,0,3-1.12,0,0,0,0,1,0,0,0,0,0,0,1,0,0A3.13,3.13,0,0,1,50,30a3,3,0,0,1-1.74.22c-.29-.05-.57-.12-.84-.19a3.23,3.23,0,0,1-.85-.26,1.83,1.83,0,0,1-.92-1.47,0,0,0,0,1,0,0Z"/><path class="cls-7" d="M32,10.81a10.93,10.93,0,0,0-.36-1,1.3,1.3,0,0,0-.23-.51A1,1,0,0,0,30.88,9a16.87,16.87,0,0,0-2.23-.32,0,0,0,0,1,0,0v0A1.91,1.91,0,0,1,31,8.72l.46.42a2.5,2.5,0,0,1,.48.43,1.18,1.18,0,0,1,0,1.25,0,0,0,0,1,0,0Z"/><path class="cls-9" d="M19.75,49.51l1.49-2.43c.49-.81,1-1.62,1.43-2.45S23.59,43,24,42.12a20.67,20.67,0,0,0,1.1-2.62,19.05,19.05,0,0,1-2.17,5.27A37.3,37.3,0,0,1,19.75,49.51Z"/><path class="cls-9" d="M20.12,46.46l1-1.71c.33-.57.68-1.13,1-1.71s.64-1.15.93-1.73a16.26,16.26,0,0,0,.79-1.8,12.27,12.27,0,0,1-1.47,3.68A22.38,22.38,0,0,1,20.12,46.46Z"/><path class="cls-9" d="M45.32,49.52a37.3,37.3,0,0,1-3.18-4.73A19.05,19.05,0,0,1,40,39.52a20.68,20.68,0,0,0,1.1,2.62q.62,1.28,1.33,2.5c.45.83.95,1.64,1.43,2.45Z"/><path class="cls-9" d="M45,46.47a22.38,22.38,0,0,1-2.25-3.27,12.27,12.27,0,0,1-1.47-3.68,16.28,16.28,0,0,0,.79,1.8c.29.59.6,1.17.93,1.73s.65,1.14,1,1.71Z"/><path class="cls-10" d="M23.83,10.51"/></g></g></g></svg>