<svg xmlns="http://www.w3.org/2000/svg" viewBox="0 0 66.29 64.82"><defs><style>.cls-1{fill:#f4f6f8;}.cls-2{fill:#f6bd60;}.cls-3{fill:#fff;}.cls-4{fill:#0f79b3;}.cls-5{fill:#f25757;}.cls-6{fill:#06d6a0;}</style></defs><title>Asset 42icon-</title><g id="Layer_2" data-name="Layer 2"><g id="Icons"><g id="Branding"><path class="cls-1" d="M47.86,3.23C52,5.33,62.21,12.18,64.47,17.95,67.75,26.34,66.4,38.39,62,47.06A32.54,32.54,0,0,1,47.2,61.58c-14.32,7-25.19.65-26.56,0C14.14,58.21,5.13,46,2.55,39.77c-1.58-3.84-5.17-6.49.69-18C3.58,21.13,19.41,1.26,26.05.46,33.32-.41,40.86-.34,47.86,3.23Z"/><g id="Block"><polygon class="cls-2" points="41.48 47.46 34.66 51.78 34.66 42.8 41.48 38.47 41.48 47.46"/><polygon class="cls-2" points="27.22 47.46 34.04 51.78 34.04 42.8 27.22 38.47 27.22 47.46"/></g><g id="Block-2" data-name="Block"><polygon class="cls-3" points="48.92 33.16 42.1 37.48 42.1 28.5 48.92 24.18 48.92 33.16"/><path class="cls-4" d="M48.95,33.17c-1.06.77-2.17,1.52-3.29,2.28s-2.27,1.5-3.43,2.21l-.33.2v-.38c0-1.5.11-3,.12-4.49s0-3,0-4.49v-.07l.07,0c2.23-1.5,4.47-3,6.75-4.43l.4-.25v.47C49.19,27.22,49.09,30.26,48.95,33.17Zm0,0c-.14-3.07-.24-6-.24-9l.4.22c-2.27,1.45-4.57,2.84-6.89,4.22l.06-.12c0,1.5-.08,3,0,4.49s.11,3,.12,4.49L42,37.31c1.11-.73,2.25-1.41,3.39-2.11S47.69,33.83,48.9,33.15Z"/><polygon class="cls-3" points="34.92 23.67 41.79 28.05 48.68 23.7 41.8 19.32 34.92 23.67"/><path class="cls-4" d="M35,23.67c2.47,1.46,4.74,2.74,7,4.21h-.22c1.16-.7,2.36-1.36,3.51-2.08s2.29-1.46,3.42-2.22v.23c-2.33-1.39-4.66-2.8-6.94-4.28h.28C39.72,20.95,37.41,22.22,35,23.67Zm-.05,0c2.12-1.45,4.4-3.08,6.76-4.57L41.8,19l.14.09c2.31,1.44,4.56,3,6.81,4.48l.18.12-.18.11c-1.17.69-2.34,1.39-3.47,2.14S43,27.48,41.9,28.23l-.11.07-.12-.07C39.31,26.78,37,25.13,34.9,23.67Z"/></g><g id="Block-3" data-name="Block"><path class="cls-5" d="M19.8,33.15c1.21.67,2.37,1.36,3.53,2s2.28,1.38,3.39,2.11l-.33.18c0-1.5.11-3,.12-4.49s0-3,0-4.49l.06.12c-2.31-1.38-4.62-2.77-6.89-4.22l.4-.22C20,27.13,19.95,30.08,19.8,33.15Zm0,0c-.14-2.92-.24-6-.24-9v-.47l.4.25c2.28,1.43,4.52,2.92,6.75,4.43l.07,0v.07c0,1.5-.08,3,0,4.49s.11,3,.12,4.49v.38l-.33-.2c-1.17-.71-2.3-1.47-3.43-2.21S20.82,33.94,19.76,33.17Z"/><path class="cls-5" d="M20.07,23.67c2.47,1.46,4.74,2.74,7,4.21H26.8c1.16-.7,2.36-1.36,3.51-2.08s2.29-1.46,3.42-2.22v.23c-2.33-1.39-4.66-2.8-6.94-4.28h.28C24.83,20.95,22.53,22.22,20.07,23.67Zm-.05,0c2.12-1.45,4.4-3.08,6.76-4.57l.14-.09.14.09c2.31,1.44,4.56,3,6.81,4.48l.18.12-.18.11c-1.17.69-2.34,1.39-3.47,2.14S28.15,27.48,27,28.23l-.11.07-.12-.07C24.43,26.78,22.12,25.13,20,23.67Z"/></g><g id="Block-4" data-name="Block"><polygon class="cls-2" points="41.49 18.89 34.67 23.21 34.67 14.23 41.49 9.91 41.49 18.89"/><polygon class="cls-2" points="27.23 18.89 34.05 23.21 34.05 14.23 27.23 9.91 27.23 18.89"/><polygon class="cls-2" points="27.49 9.4 34.35 13.78 41.24 9.43 34.37 5.05 27.49 9.4"/></g><g id="Block-5" data-name="Block"><polygon class="cls-2" points="26.6 47.46 19.78 51.78 19.78 42.8 26.6 38.47 26.6 47.46"/><polygon class="cls-2" points="12.34 47.46 19.16 51.78 19.16 42.8 12.34 38.47 12.34 47.46"/><polygon class="cls-2" points="12.6 37.96 19.47 42.35 26.36 37.99 19.48 33.61 12.6 37.96"/></g><g id="Block-6" data-name="Block"><polygon class="cls-2" points="56.37 47.46 49.55 51.78 49.55 42.8 56.37 38.47 56.37 47.46"/><polygon class="cls-2" points="42.1 47.46 48.92 51.78 48.92 42.8 42.1 38.47 42.1 47.46"/><polygon class="cls-2" points="42.37 37.96 49.23 42.35 56.12 37.99 49.24 33.61 42.37 37.96"/></g><path class="cls-6" d="M34.64,33.1c2.13-1.51,4.41-3,6.73-4.44l.33-.2v.38c0,1.48-.11,3-.12,4.44s0,3,0,4.44v.07l-.07,0c-2.23,1.49-4.47,3-6.75,4.38l-.4.25V42C34.39,39,34.49,36,34.64,33.1Zm0,0c.14,3,.24,6,.24,8.87l-.4-.22c2.27-1.44,4.57-2.81,6.89-4.17l-.06.12c0-1.48.08-3,0-4.44s-.11-3-.12-4.44l.32.18C39.36,30.45,37.1,31.79,34.68,33.13Z"/><path class="cls-6" d="M34,33.13C31.6,31.79,29.34,30.45,27.1,29l.32-.18c0,1.48-.11,3-.12,4.44s0,3,0,4.44l-.06-.12c2.31,1.36,4.62,2.73,6.89,4.17l-.4.22C33.77,39.08,33.87,36.16,34,33.13Zm0,0C34.2,36,34.3,39,34.3,42v.47l-.4-.25c-2.28-1.41-4.52-2.89-6.75-4.38l-.07,0v-.07c0-1.48.08-3,0-4.44s-.11-3-.12-4.44v-.38l.33.2C29.64,30.08,31.93,31.59,34.06,33.1Z"/><path class="cls-6" d="M41.19,28.34c-2.47-1.43-4.74-2.69-6.95-4.14h.22c-1.16.69-2.36,1.33-3.51,2s-2.29,1.44-3.42,2.19V28.2c2.33,1.37,4.66,2.75,6.94,4.2H34.2C36.43,31,38.73,29.77,41.19,28.34Zm.05,0c-2.12,1.43-4.4,3-6.76,4.5l-.14.08-.14-.08c-2.31-1.41-4.56-2.91-6.81-4.41l-.19-.12.19-.11c1.17-.68,2.34-1.36,3.47-2.1s2.25-1.5,3.38-2.24l.1-.07.11.07C36.83,25.28,39.14,26.9,41.24,28.34Z"/></g></g></g></svg>