<svg xmlns="http://www.w3.org/2000/svg" viewBox="0 0 63.3 61.7"><defs><style>.cls-1{fill:#f4f6f8;}.cls-2{fill:#009788;}.cls-3{fill:#1a1a35;}.cls-4{fill:#eaf2e3;}.cls-5{fill:#fff;}.cls-6{fill:#3d4166;}.cls-7,.cls-8{fill:none;}.cls-8{stroke:#1b1b35;stroke-linecap:round;stroke-linejoin:round;stroke-width:0.5px;stroke-dasharray:1.2 1;}.cls-9{fill:#1b1b35;}</style></defs><title>Asset 40icon-</title><g id="Layer_2" data-name="Layer 2"><g id="Icons"><g id="Responsive"><path class="cls-1" d="M58.52,12.85C55.74,6.57,46.33,1,38.47.29S22.51,0,13.56,4.17C9.83,5.89,5,12.39,2.28,17.6s-3.5,21.6.36,28.77S11.3,57.37,17.92,59s16.52,5.18,25.87-.28c8.46-4.94,17.38-8.12,19.36-24.87C64,26.71,61.3,19.14,58.52,12.85Z"/><path class="cls-2" d="M43.74,46.36H38.55a.34.34,0,0,1-.34-.34V44.75a21,21,0,0,0-.12-3.49H30.55a20.18,20.18,0,0,0-.29,3.49V46a.34.34,0,0,1-.34.34H26a.34.34,0,0,0-.34.34v1.46a.34.34,0,0,0,.34.34H43.74a.34.34,0,0,0,.34-.34V46.7A.34.34,0,0,0,43.74,46.36Z"/><path class="cls-3" d="M43.74,46.4c-1,0-2.08,0-3.13.06L39,46.52l-.39,0a.6.6,0,0,1-.51-.16.69.69,0,0,1-.16-.5l0-.39c-.07-1,0-2.09-.09-3.12l0-.76,0-.16s0,0,0,0l.05.06c.06.09.28.09.21.09h-.44l-1.56,0L33,41.48l-1.56-.05h-.83s.09,0,.08,0h0l0,.06c0,.05,0,.12,0,.18l-.05.38a27.35,27.35,0,0,0-.15,3.11v.78a.62.62,0,0,1-.12.47.58.58,0,0,1-.47.17l-1.56,0-1.56.05H26.3a2.35,2.35,0,0,0-.3,0,.06.06,0,0,0,0,.05v.36l0,.78v.32h0l1.49,0c2.08,0,4.17-.06,6.25,0s4.17,0,6.25.14l3.13.14a2.51,2.51,0,0,0,.73,0c.2-.09.12-.4.14-.66v-.78a1.16,1.16,0,0,0,0-.37A.3.3,0,0,0,43.74,46.4Zm0-.07a.38.38,0,0,1,.35.22,1.17,1.17,0,0,1,0,.4v1.17a.43.43,0,0,1-.2.4.83.83,0,0,1-.42.07l-.39,0L40,48.75c-2.08.1-4.17.14-6.25.14s-4.17,0-6.25,0H26.14a1.36,1.36,0,0,1-.27,0,.67.67,0,0,1-.5-.52,1.26,1.26,0,0,1,0-.26v-.2l0-.78v-.42a.63.63,0,0,1,.43-.53,1.61,1.61,0,0,1,.48,0h.39l1.56.05,1.56,0c.24,0,.32,0,.31-.32v-.78c0-1.05.09-2.09.15-3.14l0-.4c0-.07,0-.13,0-.21a.59.59,0,0,1,0-.12l0,0a.2.2,0,0,1,.13-.06h.83L33,41.06l3.13-.1,1.56,0h.44a.41.41,0,0,1,.25.1.4.4,0,0,1,.08.1.69.69,0,0,1,.06.18c0,.09,0,.16,0,.23,0,.28,0,.54,0,.81,0,1.05,0,2.1-.09,3.13,0,.24-.06.6,0,.62s.36.06.6.08l1.56.07C41.65,46.31,42.7,46.32,43.74,46.32Z"/><path class="cls-2" d="M52.46,12.18h-37a2.34,2.34,0,0,0-2.34,2.34v6.1c0,.81-.06.92.48.92h.93c.45,0,.36-.11.36-.94V14.51a.58.58,0,0,1,.57-.57h37a.58.58,0,0,1,.57.57V37.34H26.62s-.93,0-.93,1.2V41.4c0,1.2,1,1.2,1,1.2H52.46a2.34,2.34,0,0,0,2.34-2.34V14.51A2.34,2.34,0,0,0,52.46,12.18Z"/><path class="cls-3" d="M52.46,12.21c-9.83,0-19.66.12-29.49.23l-7.37,0a2,2,0,0,0-2.19,1.88v6.43c0,.15,0,.31,0,.42s0,0,0,0,0,0,0,0h.89c.13,0,.37,0,.27,0s0,0,0-.17V19.21l0-3.69V14.6a.87.87,0,0,1,.77-.93H17.2c9.83.05,19.66.16,29.49.13l3.69,0h1.84a1.33,1.33,0,0,1,.52.05.74.74,0,0,1,.4.41,1.39,1.39,0,0,1,.05.52v.46l0,7.37.09,14.74a.29.29,0,0,1-.29.29h0l-22.9.09H26.6a.53.53,0,0,0-.35.19c-.19.2-.17.62-.16,1.13v1.43a6.45,6.45,0,0,0,.05,1.3c.11.31.31.45.74.42H39.76c3.82,0,7.63,0,11.45.07.47,0,1,0,1.41,0a2.06,2.06,0,0,0,1.15-.45,2.08,2.08,0,0,0,.69-1,5.41,5.41,0,0,0,.09-1.35l.05-5.72.12-11.45,0-5.72V15.14a3.83,3.83,0,0,0-.13-1.4A2.3,2.3,0,0,0,52.46,12.21Zm0-.08a2.39,2.39,0,0,1,2.24,1.57,3.92,3.92,0,0,1,.15,1.43v1.43l0,5.72L55,33.74l.05,5.72A5.76,5.76,0,0,1,55,41a2.61,2.61,0,0,1-2.31,1.92c-.52,0-1,0-1.45,0-3.82,0-7.63.08-11.45.07H26.7a1.23,1.23,0,0,1-.25,0A1.39,1.39,0,0,1,26,42.8a1.36,1.36,0,0,1-.6-.77,6.21,6.21,0,0,1-.1-1.55V39.05c0-.25,0-.45,0-.75a1.6,1.6,0,0,1,.34-.87,1.32,1.32,0,0,1,.87-.47c.33,0,.5,0,.76,0h2.86l22.9.09-.29.29.09-14.74,0-7.37v-.46a1.15,1.15,0,0,0,0-.39.42.42,0,0,0-.23-.23,1.08,1.08,0,0,0-.39,0H50.38l-3.69,0c-9.83,0-19.66.08-29.49.13l-1.82,0a.31.31,0,0,0-.26.38v.92l0,3.69V21c0,.08,0,.16,0,.26a.56.56,0,0,1-.22.44,1.18,1.18,0,0,1-.63.1c-.32,0-.59,0-.95,0a.7.7,0,0,1-.4-.14.62.62,0,0,1-.2-.41,4.66,4.66,0,0,1,0-.5V18c0-1.24,0-2.43,0-3.71a2.67,2.67,0,0,1,.93-1.82,2.72,2.72,0,0,1,1.92-.63l7.37,0C32.8,12,42.63,12.13,52.46,12.14Z"/><g id="Mobile_App" data-name="Mobile App"><rect class="cls-4" x="7.17" y="23.5" width="15.67" height="25.07" rx="1.42" ry="1.42"/><path class="cls-3" d="M21.42,48.6c-3.29,0-6.59.06-9.88.13l-2.47,0c-.21,0-.39,0-.64,0a1.59,1.59,0,0,1-.67-.21A1.63,1.63,0,0,1,7,47.43c-.07-1.72,0-3.31,0-5,0-3.29.11-6.59.12-9.88,0-1.65,0-3.29,0-4.94l0-2.47a1.7,1.7,0,0,1,.35-1.24,1.56,1.56,0,0,1,1.18-.56l9.88-.1h2.47c.22,0,.39,0,.64,0a1.63,1.63,0,0,1,.69.22,1.68,1.68,0,0,1,.81,1.16c.06,1.73,0,3.32,0,5,0,3.29,0,6.59-.1,9.88l-.09,4.94,0,2.47a1.61,1.61,0,0,1-.35,1.18A1.46,1.46,0,0,1,21.42,48.6Zm0,0a1.4,1.4,0,0,0,1.06-.5,1.53,1.53,0,0,0,.32-1.13l0-2.47-.09-4.94c-.06-3.29-.11-6.59-.1-9.88l0-4.89a1.16,1.16,0,0,0-.56-.81,1.88,1.88,0,0,0-1.07-.17H18.47l-9.88-.1a1.33,1.33,0,0,0-1.3,1.53l0,2.47c0,1.65,0,3.29,0,4.94,0,3.29.09,6.59.12,9.88l0,4.9A1.21,1.21,0,0,0,8,48.2a1.92,1.92,0,0,0,1.1.18l2.47,0C14.84,48.48,18.13,48.54,21.42,48.55Z"/><rect class="cls-5" x="7.79" y="26.23" width="14.27" height="18.96" rx="0.28" ry="0.28"/><path class="cls-3" d="M21.77,45.21c-2.75,0-5.5.06-8.25.13L9.4,45.4H8.11a.53.53,0,0,1-.39-.14.52.52,0,0,1-.16-.39V42.56c0-2.75.11-5.5.12-8.25,0-1.37,0-2.75,0-4.12l0-2.06V26.58a.44.44,0,0,1,.42-.49l8.25-.1,4.12,0h1.29a.58.58,0,0,1,.42.15.56.56,0,0,1,.17.42v2.32c0,2.75,0,5.5-.09,8.25l-.1,4.12,0,2.06v1.55A.33.33,0,0,1,21.77,45.21Zm0,0a.27.27,0,0,0,.25-.33V43.29l0-2.06-.1-4.12c-.07-2.75-.09-5.5-.09-8.25V26.54c0-.06,0,0,0,0H20.44l-4.12,0-8.25-.1c-.09,0-.17.06-.15.22v1.55l0,2.06c0,1.37,0,2.75,0,4.12,0,2.75.09,5.5.12,8.25v2.32c0,.06,0,0,0,.07s0,0,.09,0H9.4l4.12.06C16.27,45.1,19,45.15,21.77,45.16Z"/><circle class="cls-6" cx="14.92" cy="46.94" r="1.22"/></g><path class="cls-7" d="M46.51,25.46"/><path class="cls-7" d="M27.76,29.89"/><line class="cls-8" x1="49.94" y1="16.14" x2="25.62" y2="30.59"/><polygon class="cls-9" points="26 27.98 26.48 28.13 25.79 30.49 28.2 31.01 28.09 31.5 25.15 30.86 26 27.98"/><line class="cls-8" x1="9" y1="40.39" x2="19.62" y2="33.69"/><polygon class="cls-9" points="19.31 36.3 18.83 36.17 19.46 33.79 17.04 33.34 17.13 32.84 20.08 33.4 19.31 36.3"/></g></g></g></svg>