<svg xmlns="http://www.w3.org/2000/svg" viewBox="0 0 66.87 63.2"><defs><style>.cls-1{fill:#f4f6f8;}.cls-2{fill:#e8eaf1;}.cls-3{fill:#dcdfe5;}.cls-4{fill:#fff;}.cls-5{fill:#1a1a35;}.cls-6{fill:#f6bd60;}.cls-7{fill:none;stroke:#f18a8a;stroke-linecap:round;stroke-linejoin:round;stroke-width:1.5px;}</style></defs><title>Asset 27icon-</title><g id="Layer_2" data-name="Layer 2"><g id="Icons"><g id="Tag"><path class="cls-1" d="M4,44.61C.88,37.18-1.49,30.24,1.11,23.1,4.17,14.7,13.18,6.43,22.29,2.64A33.79,33.79,0,0,1,43.12.9C52.71,3.18,59.28,8,63.25,17.54,66,24.12,68,32.81,66.2,39.28c-2.59,9.45-6.05,15-16,19.19-9.47,3.94-22.86,7.35-31.46,1.87C12.6,56.45,6.92,51.69,4,44.61Z"/><path class="cls-2" d="M59,34.19,61.7,35.8a1.9,1.9,0,0,1,.56,2.61L53.34,53.59a1.9,1.9,0,0,1-2.55.77L21.39,37.07s-.16-.4-.52-1.45"/><path class="cls-3" d="M58.29,30l2.86,1.4a1.9,1.9,0,0,1,.76,2.56L54.16,49.75a1.9,1.9,0,0,1-2.49,1l-30.62-15s-.19-.38-.63-1.41"/><path class="cls-4" d="M20.87,17.61c3.8-1.3,7-2.44,7.08-2.43L59.54,28a1.9,1.9,0,0,1,.94,2.5L53.83,46.85A1.89,1.89,0,0,1,51.42,48L19.84,35.12c-.06,0-4.47-8.68-6.46-12.71-.73-1.49-.22-2.2,1.1-2.65l2.64-.89"/><path class="cls-5" d="M20.86,17.58l3.51-1.3,1.75-.65L27,15.3l.44-.16.22-.08.11,0A.44.44,0,0,1,28,15l7,2.74c4.63,1.85,9.26,3.7,13.87,5.62l6.89,2.92,3.44,1.46a3.32,3.32,0,0,1,.86.45,1.94,1.94,0,0,1,.58.81,2.38,2.38,0,0,1-.17,1.91c-1.92,4.6-3.75,9.24-5.57,13.89l-.69,1.74A2.6,2.6,0,0,1,53,48.12a2,2,0,0,1-1,.25,2.7,2.7,0,0,1-1-.26l-1.74-.69-7-2.76C37.67,42.8,33,40.94,28.43,39l-6.92-2.85-1.72-.73a.37.37,0,0,1-.15-.09.92.92,0,0,1-.17-.22l-.11-.21-.21-.42-.42-.84-1.67-3.35-3.29-6.72A15,15,0,0,1,13,21.88a1.88,1.88,0,0,1,0-1,1.42,1.42,0,0,1,.6-.8,7.19,7.19,0,0,1,1.77-.68l1.79-.56a0,0,0,0,1,0,0,0,0,0,0,1,0,0l-1.76.63a7.1,7.1,0,0,0-1.68.73,1.22,1.22,0,0,0-.39,1.52c.2.55.53,1.1.8,1.66l3.44,6.64,1.74,3.31.44.82.22.41.11.2c0,.07,0,0-.05,0s0,0,0,0l1.74.69,6.94,2.8C33.35,40.18,38,42.09,42.56,44l6.91,2.88,1.72.72a2.2,2.2,0,0,0,.8.24,1.54,1.54,0,0,0,.78-.17,1.73,1.73,0,0,0,.62-.53,3.53,3.53,0,0,0,.39-.78l.72-1.72c1.94-4.6,3.87-9.2,5.71-13.83a2.1,2.1,0,0,0,.14-1.71,1.66,1.66,0,0,0-.5-.69,2.83,2.83,0,0,0-.8-.39l-3.48-1.36-7-2.73c-4.63-1.84-9.24-3.75-13.85-5.66l-6.88-2.9c.12,0,0,0,0,0l-.11,0-.22.07-.44.14-.89.29-1.78.57-3.57,1.14a0,0,0,0,1,0-.07Z"/><circle class="cls-1" cx="19.22" cy="22.93" r="2.42"/><path class="cls-5" d="M19.22,20.47a3.11,3.11,0,0,1,1.88.58A2.18,2.18,0,0,1,22,22.93a2.76,2.76,0,0,1-.94,1.8,3.11,3.11,0,0,1-1.8.83,2.62,2.62,0,0,1-2.82-2.63A2.37,2.37,0,0,1,17.33,21,3.11,3.11,0,0,1,19.22,20.47Zm0,.07a1.91,1.91,0,0,0-1.54.85,2.66,2.66,0,0,0-.48,1.54,2.26,2.26,0,0,0,2,2.22,1.91,1.91,0,0,0,1.63-.59,2.09,2.09,0,0,0,.48-1.63,3.19,3.19,0,0,0-.56-1.55A1.92,1.92,0,0,0,19.22,20.54Z"/><path class="cls-6" d="M19.18,22.92a6,6,0,0,0,.12-3.47,3.15,3.15,0,0,0-.95-1.36,5,5,0,0,0-1.49-.81,5.08,5.08,0,0,0-3.33-.13,3.75,3.75,0,0,0-1.39.88,4.92,4.92,0,0,0-1.06,1.32,4.7,4.7,0,0,0-.47,3.31A12.35,12.35,0,0,0,11.83,26c.52,1.08,1.13,2.11,1.67,3.2a6.22,6.22,0,0,1,.88,3.55,2.76,2.76,0,0,1-1,1.64,3,3,0,0,1-1.8.76,2.78,2.78,0,0,1-1.83-.77,6.21,6.21,0,0,1-1.18-1.49,18.62,18.62,0,0,1-2.13-7,15.73,15.73,0,0,1-.06-3.68A5.56,5.56,0,0,1,8,18.81a3.94,3.94,0,0,1,3.55-1,7.48,7.48,0,0,1,3.23,1.66,0,0,0,0,1,0,.05,0,0,0,0,1-.05,0,7.62,7.62,0,0,0-3.24-1.35,3.52,3.52,0,0,0-3.09,1A4.91,4.91,0,0,0,7.1,22.29a17.07,17.07,0,0,0,.11,3.51,20.15,20.15,0,0,0,2,6.74c.56,1,1.35,2,2.4,2A2.57,2.57,0,0,0,13.06,34,2.3,2.3,0,0,0,14,32.66a5.61,5.61,0,0,0-.72-3.35c-.51-1.08-1.1-2.13-1.66-3.19a15.79,15.79,0,0,1-1.38-3.37,5.15,5.15,0,0,1,.33-3.69,5.56,5.56,0,0,1,1.16-1.5,3.94,3.94,0,0,1,1.63-1,5.69,5.69,0,0,1,3.74.22,4.86,4.86,0,0,1,1.62,1,3.59,3.59,0,0,1,1,1.62,5.74,5.74,0,0,1-.42,3.6,0,0,0,0,1,0,0A0,0,0,0,1,19.18,22.92Z"/><line class="cls-7" x1="44.29" y1="26.98" x2="32.25" y2="33.93"/><ellipse class="cls-7" cx="36.3" cy="25.09" rx="2.36" ry="1.85" transform="translate(-3.58 43.98) rotate(-60)"/><ellipse class="cls-7" cx="40.52" cy="35.97" rx="2.36" ry="1.85" transform="translate(-10.89 53.07) rotate(-60)"/></g></g></g></svg>