<svg xmlns="http://www.w3.org/2000/svg" viewBox="0 0 65.43 64.57"><defs><style>.cls-1{fill:#f4f6f8;}.cls-2{fill:#fff;}.cls-3{fill:#1a1a35;}.cls-4{fill:#d3d7e6;}.cls-5{fill:#06d6a0;}.cls-6{fill:#1d1d1b;}.cls-7{fill:none;stroke:#f25757;stroke-linecap:round;stroke-linejoin:round;stroke-width:1.7px;}</style></defs><title>Asset 30icon-</title><g id="Layer_2" data-name="Layer 2"><g id="Icons"><g id="Planning"><path class="cls-1" d="M1.89,20.2C4.85,12.71,8,6.08,14.83,2.77c8-3.89,20.27-3.54,29.44.09A33.79,33.79,0,0,1,60.43,16.14c5.29,8.32,6.64,16.35,2.83,26-2.62,6.62-7.25,14.24-13,17.64-8.45,5-14.81,6.56-24.88,2.57C15.79,58.54,3.82,51.65,1.48,41.73-.18,34.69-.93,27.32,1.89,20.2Z"/><rect class="cls-2" x="8.16" y="12.46" width="47.87" height="37.82" rx="2.83" ry="2.83"/><path class="cls-3" d="M53.19,50.31c-6.94,0-13.87.09-20.81.2s-13.87.11-20.81.08a5,5,0,0,1-1.37-.11,3.06,3.06,0,0,1-1.25-.68A3.15,3.15,0,0,1,7.9,47.27l0-5.2L8,31.66c0-3.47,0-6.94,0-10.41L8,16a7.72,7.72,0,0,1,0-1.33,3,3,0,0,1,3-2.46c13.87-.12,27.75-.22,41.62-.18a5.21,5.21,0,0,1,1.39.11,3.15,3.15,0,0,1,1.29.68,3.26,3.26,0,0,1,1.11,2.6l0,5.2-.12,10.41-.13,10.41,0,5.2A7.69,7.69,0,0,1,56,48a2.89,2.89,0,0,1-2.84,2.32Zm0-.08A2.8,2.8,0,0,0,55.92,48a7.63,7.63,0,0,0,0-1.29l0-5.2L55.8,31.08l-.12-10.41,0-5.2a2.48,2.48,0,0,0-.85-2,2.39,2.39,0,0,0-1-.52,4.52,4.52,0,0,0-1.2-.08c-13.87,0-27.75-.07-41.62-.18a2.65,2.65,0,0,0-2.6,2.12A7.53,7.53,0,0,0,8.34,16l0,5.2c0,3.47,0,6.94,0,10.41l.07,10.41,0,5.2a2.59,2.59,0,0,0,.9,2.1,2.47,2.47,0,0,0,1,.53,4.83,4.83,0,0,0,1.22.08c6.94,0,13.87,0,20.81.08S46.26,50.23,53.19,50.24Z"/><line class="cls-4" x1="24.16" y1="15.21" x2="24.16" y2="47.28"/><path class="cls-3" d="M24.2,15.21a69.93,69.93,0,0,1,.27,8c-.05,1.34-.16,2.67-.19,4s0,2.67.08,4a117.57,117.57,0,0,1-.17,16,0,0,0,0,1-.08,0,117.59,117.59,0,0,1-.17-16c.06-1.34.11-2.67.08-4s-.14-2.67-.19-4a70,70,0,0,1,.27-8,0,0,0,0,1,.08,0Z"/><path class="cls-3" d="M29.11,17.76a29,29,0,0,1,5.21-.27c.87.05,1.74.16,2.6.19a24.15,24.15,0,0,0,2.6-.08,49.7,49.7,0,0,1,10.42.17v.07A49.7,49.7,0,0,1,39.52,18a24.16,24.16,0,0,0-2.6-.08c-.87,0-1.74.14-2.6.19a29,29,0,0,1-5.21-.27Z"/><path class="cls-3" d="M29.11,44.2a29,29,0,0,1,5.21-.27c.87.05,1.74.16,2.6.19a24.15,24.15,0,0,0,2.6-.08,49.7,49.7,0,0,1,10.42.17v.07a49.7,49.7,0,0,1-10.42.17,24.15,24.15,0,0,0-2.6-.08c-.87,0-1.74.14-2.6.19a29,29,0,0,1-5.21-.27Z"/><path class="cls-3" d="M29.7,20.8a7.21,7.21,0,0,1,2.59-.15c.43.07.85.2,1.28.25a6,6,0,0,0,1.29,0,15.64,15.64,0,0,1,2.59-.07,11.21,11.21,0,0,1,2.56.48v.07a11.21,11.21,0,0,1-2.6.24,15.64,15.64,0,0,1-2.57-.32,6,6,0,0,0-1.29-.14c-.43,0-.87.1-1.3.13a7.21,7.21,0,0,1-2.57-.4Z"/><path class="cls-3" d="M42.08,20.8a5.23,5.23,0,0,1,2.2-.15c.36.07.72.2,1.08.25a4.31,4.31,0,0,0,1.1,0,11.29,11.29,0,0,1,2.2-.07,8.16,8.16,0,0,1,2.17.48v.07a8.15,8.15,0,0,1-2.21.24,11.28,11.28,0,0,1-2.17-.32,4.32,4.32,0,0,0-1.09-.14c-.37,0-.74.1-1.1.13a5.23,5.23,0,0,1-2.17-.4Z"/><path class="cls-3" d="M29.11,23.86a19.16,19.16,0,0,1,4.23-.19c.7.07,1.41.19,2.11.23a15.94,15.94,0,0,0,2.11,0,32.78,32.78,0,0,1,8.45.33v.07a32.78,32.78,0,0,1-8.45,0,15.93,15.93,0,0,0-2.11-.12c-.7,0-1.41.11-2.12.15a19.16,19.16,0,0,1-4.22-.36Z"/><path class="cls-5" d="M31,34.81a4.88,4.88,0,0,0,2,1.32,12.69,12.69,0,0,0,2.28.71,16.82,16.82,0,0,0,2.36.39,14.78,14.78,0,0,0,2.37.09A4.16,4.16,0,0,0,41,37.15a3.17,3.17,0,0,0,.87-.69,10.47,10.47,0,0,0,1.59-1.8,3.38,3.38,0,0,0,.74-2.18,2.29,2.29,0,0,0-1.44-1.64,3.08,3.08,0,0,0-2.18-.26A1.62,1.62,0,0,0,39.36,32a3.42,3.42,0,0,0,2,3.59,6.93,6.93,0,0,0,2.21.58c.77.07,1.61.07,2.44.18a5.86,5.86,0,0,1,2.39.79,1.75,1.75,0,0,1,.79,1,1.33,1.33,0,0,1-.31,1.2l-.06,0a1.17,1.17,0,0,0,.14-1.09,1.58,1.58,0,0,0-.77-.77A5.83,5.83,0,0,0,45.91,37c-.79-.06-1.57,0-2.43,0A7.11,7.11,0,0,1,41,36.35a3.94,3.94,0,0,1-1.92-1.81,4.46,4.46,0,0,1-.4-2.59,2.2,2.2,0,0,1,.59-1.28A2.43,2.43,0,0,1,40.46,30a3.44,3.44,0,0,1,2.52.47,4,4,0,0,1,1,.8,2,2,0,0,1,.52,1.17,4.12,4.12,0,0,1-.79,2.35,17.1,17.1,0,0,1-1.51,1.95,3.42,3.42,0,0,1-1,.88,4.17,4.17,0,0,1-1.27.3A14.12,14.12,0,0,1,35,37.4a10.87,10.87,0,0,1-2.31-.91,4.42,4.42,0,0,1-1.85-1.63Z"/><path class="cls-3" d="M20,21.09a4.17,4.17,0,0,1-1,2.75A3.53,3.53,0,0,1,16.23,25a4.13,4.13,0,0,1-3.87-3.94,3.78,3.78,0,0,1,1.06-2.81,3.84,3.84,0,0,1,2.81-1.19A3.66,3.66,0,0,1,19,18.33,4.17,4.17,0,0,1,20,21.09Zm-.05,0a3.37,3.37,0,0,0-1.18-2.52,3.88,3.88,0,0,0-2.52-1,3.66,3.66,0,0,0-2.47,1,3.71,3.71,0,0,0-1.12,2.47,3.36,3.36,0,0,0,1,2.58,3.49,3.49,0,0,0,2.58.95,4.07,4.07,0,0,0,2.53-1A3.37,3.37,0,0,0,19.94,21.09Z"/><path class="cls-6" d="M16.39,19.1h.29v3.6l0,.09.42,0v.29H15.6v-.29l.44,0,.05-.11v-2.9l0-.07-.63.12v-.3Z"/><path class="cls-3" d="M20,31.31a4.17,4.17,0,0,1-1,2.75,3.53,3.53,0,0,1-2.75,1.19,4.13,4.13,0,0,1-3.87-3.94,3.78,3.78,0,0,1,1.06-2.81,3.84,3.84,0,0,1,2.81-1.19A3.66,3.66,0,0,1,19,28.55,4.17,4.17,0,0,1,20,31.31Zm-.05,0a3.37,3.37,0,0,0-1.18-2.52,3.88,3.88,0,0,0-2.52-1,3.66,3.66,0,0,0-2.47,1,3.71,3.71,0,0,0-1.12,2.47,3.36,3.36,0,0,0,1,2.58,3.49,3.49,0,0,0,2.58.95,4.07,4.07,0,0,0,2.53-1A3.37,3.37,0,0,0,19.94,31.31Z"/><path class="cls-6" d="M15.71,32.74H17l.08-.52h.27v1.12H15.16v-.47A8.41,8.41,0,0,0,16.3,31.5a1.93,1.93,0,0,0,.3-1,1.09,1.09,0,0,0-.14-.61.45.45,0,0,0-.4-.22l-.13,0-.13.05v.76l-.14.08-.14,0a.28.28,0,0,1-.23-.11.48.48,0,0,1-.09-.3.83.83,0,0,1,.29-.65,1.09,1.09,0,0,1,.75-.26.88.88,0,0,1,.7.31,1.26,1.26,0,0,1,.27.84,1.84,1.84,0,0,1-.33,1A7.16,7.16,0,0,1,15.71,32.74Z"/><path class="cls-3" d="M20,41.14a4.17,4.17,0,0,1-1,2.75,3.53,3.53,0,0,1-2.75,1.19,4.13,4.13,0,0,1-3.87-3.94,3.78,3.78,0,0,1,1.06-2.81,3.84,3.84,0,0,1,2.81-1.19A3.66,3.66,0,0,1,19,38.38,4.17,4.17,0,0,1,20,41.14Zm-.05,0a3.37,3.37,0,0,0-1.18-2.52,3.88,3.88,0,0,0-2.52-1,3.66,3.66,0,0,0-2.47,1,3.71,3.71,0,0,0-1.12,2.47,3.36,3.36,0,0,0,1,2.58,3.49,3.49,0,0,0,2.58.95,4.07,4.07,0,0,0,2.53-1A3.37,3.37,0,0,0,19.94,41.14Z"/><path class="cls-6" d="M16.43,41.08a.91.91,0,0,1,.62.29,1,1,0,0,1,.22.66,1.16,1.16,0,0,1-.34.86,1.21,1.21,0,0,1-.89.34,1,1,0,0,1-.64-.21.66.66,0,0,1-.25-.52.43.43,0,0,1,.09-.28.28.28,0,0,1,.23-.11h.08l.1,0,.14.64.16.07.14,0a.51.51,0,0,0,.42-.24,1,1,0,0,0,.17-.58.79.79,0,0,0-.17-.53.55.55,0,0,0-.44-.2h-.13l-.14,0v-.42h.13a.61.61,0,0,0,.48-.19.77.77,0,0,0,.17-.53.8.8,0,0,0-.15-.5.48.48,0,0,0-.4-.2l-.12,0-.13.05v.69l-.11.06-.13,0a.28.28,0,0,1-.23-.11.46.46,0,0,1-.09-.29.73.73,0,0,1,.28-.58,1.05,1.05,0,0,1,.7-.24.92.92,0,0,1,.69.28,1,1,0,0,1,.27.72,1,1,0,0,1-.18.59A1,1,0,0,1,16.43,41.08Z"/><path class="cls-7" d="M11.71,26.55c.88.29,7,6.48,9,8.5"/><path class="cls-7" d="M12.11,34.11c2.16-1.67,7.17-4.72,7.86-6.54"/><path class="cls-5" d="M52.77,40c-3.9.13-7.92.23-12,.27s-8.15,0-12.19-.12h-.17V40c0-1,0-2,0-2.95s0-2,0-2.95c0-2,0-3.93-.08-5.9V28h.21c4-.08,8-.16,12.06-.17s8,0,12.06,0h.34v.33C53,32.23,52.89,36.21,52.77,40ZM52.72,40c-.12-4-.27-7.92-.31-11.77l.34.34q-6,.09-12.06,0c-4,0-8-.1-12.06-.17l.21-.21c0,2-.08,3.93-.08,5.9,0,1,0,2,0,2.95s0,2,0,2.95l-.17-.17c4-.11,7.94-.2,11.94-.12S48.57,39.85,52.72,40Z"/></g></g></g></svg>