<svg xmlns="http://www.w3.org/2000/svg" viewBox="0 0 65.43 64.57"><defs><style>.cls-1{fill:#f4f6f8;}.cls-2{fill:#d3d7e6;}.cls-3{fill:#a37e42;}.cls-4{fill:#1a1a35;}.cls-5{fill:#06d6a0;}</style></defs><title>Asset 21icon-</title><g id="Layer_2" data-name="Layer 2"><g id="Icons"><g id="Hanger"><path class="cls-1" d="M1.89,20.19C4.85,12.71,8,6.08,14.83,2.77c8-3.89,20.27-3.54,29.44.09A33.79,33.79,0,0,1,60.43,16.14c5.29,8.32,6.64,16.35,2.83,26-2.62,6.62-7.25,14.24-13,17.64-8.45,5-14.81,6.56-24.88,2.57C15.79,58.54,3.82,51.65,1.48,41.73-.18,34.69-.93,27.32,1.89,20.19Z"/><path class="cls-2" d="M35.65,14.38A5.41,5.41,0,0,0,35,12.23a2.45,2.45,0,0,0-1.66-1.09,10.79,10.79,0,0,0-2.2-.11,3.3,3.3,0,0,0-2.08.7,2.34,2.34,0,0,0-.67,2,2.24,2.24,0,0,0,1.1,1.69c.59.42,1.3.75,2,1.21a3.55,3.55,0,0,1,1,.92A2.3,2.3,0,0,1,32.92,19v-.07c.11.9.17,1.81.23,2.72s.08,1.82.05,2.75a.05.05,0,0,1-.1,0c-.28-.88-.48-1.77-.69-2.66S32,20,31.88,19.08V19a2,2,0,0,0-1-1.5c-.58-.45-1.31-.82-2-1.39a2.8,2.8,0,0,1-1-2.35,3.57,3.57,0,0,1,.93-2.28A4.58,4.58,0,0,1,31,10.32a5,5,0,0,1,2.51,0,2.9,2.9,0,0,1,2,1.63,4.15,4.15,0,0,1,.2,2.46.05.05,0,0,1-.06,0A.05.05,0,0,1,35.65,14.38Z"/><path class="cls-3" d="M60,42.12s.54-.51-4-3-11.7-4.58-15.28-5.95-10.49-2-17.51.13a135.4,135.4,0,0,0-16.63,7s-2.13,1.43-2.09,2.16-1.56-4.8,1.71-6.67,11.6-5.55,14.9-7.49,7.1-4.58,10.08-4.5,3.13-.27,5.23.65,17.46,8.66,20.21,10,4.84,3.27,4.63,5.73S60,42.12,60,42.12Z"/><path class="cls-4" d="M59.93,42.12c0-.28-.26-.49-.46-.68a8.26,8.26,0,0,0-.71-.53c-.49-.34-1-.64-1.52-.93-1-.59-2.1-1.11-3.19-1.6-2.18-1-4.43-1.76-6.68-2.54s-4.53-1.51-6.78-2.34a23.28,23.28,0,0,0-6.92-1.23,33,33,0,0,0-7.07.5,42.54,42.54,0,0,0-6.85,1.94A119.51,119.51,0,0,0,6.63,40.44h0A9,9,0,0,0,4.88,42a1.08,1.08,0,0,0-.23.45v.11s0,0,0,.07-.19.12-.2.1a.23.23,0,0,1-.12-.09l0,0,0-.05,0-.08c0-.1-.06-.2-.08-.3A8.73,8.73,0,0,1,4,40.94a6,6,0,0,1,1.25-4.67,4.2,4.2,0,0,1,1-.76l1.06-.58,2.14-1.11,4.3-2.13a95,95,0,0,0,8.46-4.46c1.37-.83,2.73-1.69,4.18-2.42a10.75,10.75,0,0,1,4.75-1.38c.8,0,1.58,0,2.39,0a5.86,5.86,0,0,1,2.48.46c1.52.64,2.92,1.37,4.36,2.08l8.55,4.37,8.54,4.4a8.3,8.3,0,0,1,3.47,3.32,4.11,4.11,0,0,1,.36,2.39A3.79,3.79,0,0,1,61,41.63C60.81,42,60.4,42.39,59.93,42.12Zm.07,0a.69.69,0,0,0,.51-.08,1,1,0,0,0,.34-.45,3.68,3.68,0,0,0,.27-1.14,4,4,0,0,0-.4-2.28A8.05,8.05,0,0,0,57.29,35l-8.62-4.21L40,26.63c-1.44-.68-2.88-1.44-4.31-2a5,5,0,0,0-2.2-.4c-.79,0-1.61,0-2.41,0a10.31,10.31,0,0,0-4.38,1.3c-1.41.7-2.78,1.53-4.15,2.35A88.68,88.68,0,0,1,14,32.27L9.66,34.32,7.52,35.38a8,8,0,0,0-2,1.22,5.61,5.61,0,0,0-1.21,4.32,8.4,8.4,0,0,0,.16,1.16c0,.09,0,.19.07.28l0,.06v0s0,0,0,0a.13.13,0,0,0-.09-.06s-.15,0-.18.08,0,0,0,0h0v-.1a1.36,1.36,0,0,1,.31-.61A9.24,9.24,0,0,1,6.49,40.2h0c4.31-2.08,8.66-4.06,13.11-5.83a33.25,33.25,0,0,1,14.07-2.73,22.77,22.77,0,0,1,7.14,1.25c2.22.85,4.49,1.59,6.74,2.41S52,37,54.2,38c1.08.52,2.12,1.12,3.15,1.75.51.32,1,.64,1.5,1a8.38,8.38,0,0,1,.7.57,3.13,3.13,0,0,1,.31.33C59.94,41.8,60.07,42,60,42.11Z"/><path class="cls-1" d="M22.64,29.83s5.76-3.37,9.69-3.37,8.56,3.37,8.56,3.37A44.1,44.1,0,0,0,22.64,29.83Z"/><path class="cls-4" d="M22.62,29.83A25.22,25.22,0,0,1,27,27.52a15,15,0,0,1,4.8-1.24,11.39,11.39,0,0,1,4.82,1.1A27.88,27.88,0,0,1,41,29.7l-.12.27a53,53,0,0,0-9.09-.85c-1.52,0-3,0-4.57.18S24.19,29.63,22.62,29.83Zm0,0a31.08,31.08,0,0,1,4.49-.89,37,37,0,0,1,4.61-.31,38.53,38.53,0,0,1,9.15,1.06l-.12.27a20,20,0,0,0-4.24-2.42,10.08,10.08,0,0,0-4.73-.85,18.73,18.73,0,0,0-4.69,1.2C25.63,28.44,24.11,29.15,22.67,29.82Z"/><polygon class="cls-5" points="30.84 20.54 30.84 22.84 34.32 22.46 34.32 20.13 30.84 20.54"/><path class="cls-4" d="M30.85,20.55c0,.8.07,1.54.08,2.29l-.1-.09c.58-.07,1.16-.11,1.74-.15s1.16-.12,1.74-.2l0,0c0-.78,0-1.55-.05-2.32l.12.1C33.2,20.38,32.06,20.46,30.85,20.55Zm0,0c1.1-.18,2.29-.38,3.47-.5h.12v.12c0,.78,0,1.55-.05,2.32v0h0c-.58,0-1.16.1-1.74.19s-1.15.18-1.73.23h-.1v-.1C30.76,22.06,30.79,21.26,30.84,20.53Z"/></g></g></g></svg>