<svg xmlns="http://www.w3.org/2000/svg" viewBox="0 0 65.14 66.59"><defs><style>.cls-1{fill:#f4f6f8;}.cls-2{fill:#06d6a0;}.cls-3{fill:#454851;}.cls-4{fill:#1a1a35;}.cls-5{fill:#f25757;}.cls-6{fill:#f6bd60;}.cls-7{fill:#d3d7e6;}</style></defs><title>Asset 36icon-</title><g id="Layer_2" data-name="Layer 2"><g id="Icons"><g id="Release"><path class="cls-1" d="M57.2,12C51.84,6,46.6.84,39,.11c-8.89-.87-20.25,3.68-27.6,10.26A33.79,33.79,0,0,0,.87,28.4C-1.22,38,.29,46,7.18,53.74c4.75,5.31,11.73,10.86,18.33,12.05,9.64,1.74,16.17,1,24.24-6.18C57.4,52.77,66.25,42.17,65,32,64.16,24.87,62.31,17.7,57.2,12Z"/><circle class="cls-2" cx="38.18" cy="6.4" r="1.83" transform="translate(24.4 42.58) rotate(-78.66)"/><path class="cls-3" d="M27.09,37.09a15.63,15.63,0,0,0,1.66,1c.18.09.79-13.63,1-13.55.35.16-.06,14.31.29,14.44a13.2,13.2,0,0,0,4.22.78c.34,0,5.89-13,6.23-13.06S35.69,39.53,36,39.49c.49-.06,1.28-.2,1.77-.31,0,0,4-5.16,6.07-15.25S39.62,6.19,39.1,7A1.15,1.15,0,0,1,37,6.65c-.35-1-7.59,3.06-9.76,13.87S27.09,37.09,27.09,37.09Z"/><path class="cls-4" d="M27.12,37.06l.86.5.43.25.21.12s.21.1.07.08c.08-.65.1-1.33.13-2L29,32l.19-4,.11-2,.07-1,0-.26,0-.14v-.08a.38.38,0,0,1,0-.07c0-.05-.05,0,.09-.12.32-.14.34,0,.33,0a.45.45,0,0,1,.15.22l0,.08a1.12,1.12,0,0,1,0,.15l0,.26c.13,2.71.08,5.37.09,8l0,4,0,1,0,.49,0,.22v.06s0,0,0,0-.21-.13-.13-.1l.06,0a12,12,0,0,0,1.88.51,13.18,13.18,0,0,0,1.94.23h.21a.2.2,0,0,0-.12,0,.22.22,0,0,0-.07.06v0l0,0,.06-.09c.08-.13.16-.28.23-.42l.45-.89,1.72-3.62C37.67,32,38.77,29.6,40,27.2c.08-.15.16-.3.25-.45a.73.73,0,0,1,.1-.13l.08,0h.05c.08,0,.16.13.14.11a.31.31,0,0,1,0,.12,2.46,2.46,0,0,1-.06.26c-.1.33-.21.64-.32,1l-.69,1.89-1.4,3.76-1.37,3.77c-.22.63-.45,1.26-.62,1.89l0,.11s0,0,0,0,0-.06-.1-.09h0l.24,0,.49-.09,1-.18-.09.06a33.73,33.73,0,0,0,3.95-8,45.86,45.86,0,0,0,2.15-8.69,20.41,20.41,0,0,0-.88-8.77,19.57,19.57,0,0,0-1.83-4,11.26,11.26,0,0,0-1.28-1.76,3.35,3.35,0,0,0-.37-.35,1.31,1.31,0,0,0-.17-.12l0,0c.06,0,.07,0,.2-.05a.19.19,0,0,0,.05-.07l0,0-.06.07a.94.94,0,0,1-.13.14,1.47,1.47,0,0,1-.3.23,1.5,1.5,0,0,1-.72.21,1.55,1.55,0,0,1-1.3-.65,1.79,1.79,0,0,1-.17-.32c-.1-.2,0,0,.06,0a1,1,0,0,0-.31.06A6.68,6.68,0,0,0,34.65,8a16.38,16.38,0,0,0-3,3.2,23.36,23.36,0,0,0-3.76,8,50.42,50.42,0,0,0-1.36,8.88A30,30,0,0,0,27.12,37.06Zm-.06,0a21.22,21.22,0,0,1-.82-4.47,33,33,0,0,1-.11-4.54,50.85,50.85,0,0,1,1.19-9A24,24,0,0,1,31,10.78a16.94,16.94,0,0,1,3.16-3.36,7.32,7.32,0,0,1,2.06-1.21A1.31,1.31,0,0,1,37,6.16c.24,0,.43.45.4.42a1,1,0,0,0,.09.18.76.76,0,0,0,.64.32.71.71,0,0,0,.35-.1.69.69,0,0,0,.15-.11l.06-.07,0,0,0,0,.11-.11a.55.55,0,0,1,.46-.1l.23.09a2,2,0,0,1,.29.2,4.09,4.09,0,0,1,.45.43,12,12,0,0,1,1.38,1.89,20,20,0,0,1,1.87,4.2,21.13,21.13,0,0,1,.84,9.09,45.92,45.92,0,0,1-2.35,8.79,33.82,33.82,0,0,1-4.17,8.06.15.15,0,0,1-.09.06l-1,.17-.5.08-.25,0H36c-.12,0-.12-.13-.12-.12a.31.31,0,0,1,0-.12l0-.13c.19-.66.42-1.28.65-1.91l1.4-3.76,1.39-3.76L40,27.93c.11-.32.21-.63.3-.95a2.29,2.29,0,0,0,.05-.23s0,0,0,0,0,.11.12.09h.06l0,.07c-.08.13-.16.28-.23.43-1.16,2.4-2.18,4.87-3.27,7.32l-1.63,3.67-.43.91c-.08.15-.15.3-.24.46l-.07.12,0,.07,0,0a.45.45,0,0,1-.12.1.46.46,0,0,1-.17.05H34a13.82,13.82,0,0,1-2-.22,12.65,12.65,0,0,1-2-.53l-.06,0a.47.47,0,0,1-.21-.19.29.29,0,0,1,0-.1v0l0-.08,0-.28,0-.51,0-1c0-1.34,0-2.68,0-4,0-2.67.09-5.36,0-8l0-.24a.66.66,0,0,0,0-.1v0s0,.1.1.11,0,.1.31,0l.08-.1h0v0l0,.11,0,.24-.09,1-.15,2-.28,4-.32,4c-.06.67-.11,1.33-.22,2v.06s0,0-.08.06-.05,0-.09,0l-.11-.07-.22-.14-.43-.27Z"/><path class="cls-3" d="M25.93,23.78a36.68,36.68,0,0,0-.81,7.35,31,31,0,0,0,.71,6.79,20.47,20.47,0,0,0-6.23,1.6C17,40.85,15,45.1,15.23,43.71S17.32,28.89,25.93,23.78Z"/><path class="cls-4" d="M25.95,23.75c-.15,1.25-.29,2.37-.39,3.57s-.14,2.36-.14,3.53.09,2.35.19,3.52.27,2.34.48,3.49v0a.23.23,0,0,1-.19.27h0a23.43,23.43,0,0,0-4.47.75,9.7,9.7,0,0,0-2.06.87,7.69,7.69,0,0,0-1.68,1.46A19.14,19.14,0,0,0,16.3,43c-.22.31-.42.62-.66.94l-.12.13a.44.44,0,0,1-.11.08l0,0-.12,0a.28.28,0,0,1-.22-.12.47.47,0,0,1-.06-.32l0-.16.08-.56A39.32,39.32,0,0,1,16,38.6a31.43,31.43,0,0,1,3.47-8.47A17.28,17.28,0,0,1,25.95,23.75Zm0,.06A20.89,20.89,0,0,0,20,30.49a39,39,0,0,0-3.38,8.3q-.62,2.17-1,4.39l-.11.56,0,.12s0,.1,0,0a.24.24,0,0,0-.17-.09l-.09,0h0l.08-.08c.23-.26.47-.58.7-.87a20.42,20.42,0,0,1,1.49-1.74,8.75,8.75,0,0,1,1.78-1.46,13.85,13.85,0,0,1,2.11-.91,31.12,31.12,0,0,1,4.43-1l-.19.32a23.11,23.11,0,0,1-.63-3.55,28.49,28.49,0,0,1-.12-3.59,27.21,27.21,0,0,1,.32-3.57A21.4,21.4,0,0,1,25.9,23.81Z"/><path class="cls-3" d="M43.93,27.39a36.68,36.68,0,0,1-2.08,7.1,31,31,0,0,1-3.27,6,20.46,20.46,0,0,1,5.13,3.88c1.91,2.23,2.1,6.91,2.41,5.54S49.91,35.43,43.93,27.39Z"/><path class="cls-4" d="M43.94,27.43a21.4,21.4,0,0,1-.63,3.49,27.24,27.24,0,0,1-1.08,3.42,28.5,28.5,0,0,1-1.5,3.27,23.11,23.11,0,0,1-1.95,3l-.06-.37a31.09,31.09,0,0,1,3.7,2.64A13.88,13.88,0,0,1,44,44.57a8.75,8.75,0,0,1,1.08,2,20.41,20.41,0,0,1,.71,2.18c.1.36.2.74.31,1.07a.91.91,0,0,0,0,.1s0,0,0,0h0l-.07,0a.24.24,0,0,0-.19,0c-.11.1,0,0-.05,0l0-.12.11-.56q.46-2.21.73-4.45a39,39,0,0,0,.08-9A20.89,20.89,0,0,0,43.94,27.43Zm0-.07a17.28,17.28,0,0,1,3.56,8.4,31.43,31.43,0,0,1-.06,9.16,39.31,39.31,0,0,1-.89,4.49l-.14.55,0,.16a.47.47,0,0,1-.18.27.28.28,0,0,1-.25,0l-.11-.06,0,0a.44.44,0,0,1-.07-.12,1.39,1.39,0,0,1-.06-.17c-.11-.39-.17-.76-.25-1.13a19.14,19.14,0,0,0-.57-2.18,7.69,7.69,0,0,0-1-2,9.7,9.7,0,0,0-1.57-1.6,23.42,23.42,0,0,0-3.83-2.42.23.23,0,0,1-.09-.32h0l0,0c.63-1,1.23-2,1.78-3s1.08-2.09,1.53-3.18.87-2.19,1.23-3.32S43.58,28.57,43.92,27.36Z"/><path class="cls-4" d="M26.59,39l-2.67,7L23.81,46l2.36-1.82a.08.08,0,0,1,.12,0,.08.08,0,0,1,0,.08l-4,11.2-.2-.12,3.52-3.74a.13.13,0,0,1,.19,0,.13.13,0,0,1,0,.11l-1,8.47-.2-.06L29.79,49.4a.06.06,0,0,1,.12,0l-.65,10.39-.12,0,2.38-6.61a.08.08,0,0,1,.1,0,.08.08,0,0,1,.05.07L32.79,62h-.22l1-12a.14.14,0,0,1,.27,0l2.62,11.16-.29,0,.19-14.27a.13.13,0,0,1,.13-.13.13.13,0,0,1,.11.06l1.51,2.34-.21.07-.55-8,.1.08a14.52,14.52,0,0,1-5.69,0A14,14,0,0,1,26.59,39Zm0,0a15.76,15.76,0,0,0,2.51,1.36,13.29,13.29,0,0,0,2.71.82,14.58,14.58,0,0,0,5.63-.08.09.09,0,0,1,.1.07h0l.61,8a.12.12,0,0,1-.11.13.12.12,0,0,1-.11-.05L36.4,47l.23-.07-.16,14.27a.15.15,0,0,1-.29,0L33.59,50l.27,0-1.07,12a.11.11,0,0,1-.22,0l-1-8.83.15,0-2.41,6.6a.06.06,0,0,1-.12,0l.65-10.39.12,0-5.1,10.77a.1.1,0,0,1-.14.05.11.11,0,0,1-.06-.11l1-8.48.23.11-3.54,3.73a.12.12,0,0,1-.2-.12l4.06-11.17.13.09-2.37,1.8a.07.07,0,0,1-.1,0,.07.07,0,0,1,0-.07Z"/><path class="cls-5" d="M26.58,39l-2.24,6.29,2.55-1.95L22.8,54.48,26.1,51,25,59.29l5.17-11-.64,10,2.26-6.52.89,8.06.93-11.7,2.53,11.22.12-13.55,1.4,2.1-.2-6.74A13.79,13.79,0,0,1,26.58,39Z"/><path class="cls-6" d="M26.74,39.36l-.69,3.43,1.66-1-1,7.57,4.58-6,.24,7,1.89-6.68L34.54,47l1.2-3.55,1.09,1.33.32-3.33A13.55,13.55,0,0,1,26.74,39.36Z"/><ellipse class="cls-7" cx="40.49" cy="18.03" rx="1.34" ry="1.83" transform="translate(-0.68 1.61) rotate(-2.25)"/><path class="cls-4" d="M41.85,18a3.23,3.23,0,0,1-.17,1.28,1.21,1.21,0,0,1-1.12.81,1.42,1.42,0,0,1-1.11-.76A3.12,3.12,0,0,1,39,18.09a2.18,2.18,0,0,1,.21-1.33,1.43,1.43,0,0,1,1.18-.83,1.3,1.3,0,0,1,1.19.77A3.21,3.21,0,0,1,41.85,18Zm0,0a1.57,1.57,0,0,0-1.38-1.51c-.64,0-1.09.84-1.14,1.61a1.74,1.74,0,0,0,.3,1.14,1,1,0,0,0,1,.44A1.68,1.68,0,0,0,41.8,18Z"/><ellipse class="cls-7" cx="32.24" cy="16.38" rx="1.83" ry="1.34" transform="translate(3.8 38.71) rotate(-65.07)"/><path class="cls-4" d="M31.05,15.82a1.67,1.67,0,0,0,.51,2,1,1,0,0,0,1.06,0,1.74,1.74,0,0,0,.72-.93c.25-.73.15-1.65-.43-1.93A1.57,1.57,0,0,0,31.05,15.82Zm0,0a3.21,3.21,0,0,1,.73-1.07,1.3,1.3,0,0,1,1.39-.25,1.43,1.43,0,0,1,.77,1.22A2.18,2.18,0,0,1,33.58,17a3.12,3.12,0,0,1-.88,1,1.42,1.42,0,0,1-1.32.27,1.21,1.21,0,0,1-.72-1.18A3.23,3.23,0,0,1,31,15.8Z"/></g></g></g></svg>