<svg xmlns="http://www.w3.org/2000/svg" viewBox="0 0 63.14 62.83"><defs><style>.cls-1{fill:#f4f6f8;}.cls-2{fill:#0f79b3;}.cls-3{fill:#1a1a35;}.cls-4{fill:#fff;}</style></defs><title>Asset 23icon-</title><g id="Layer_2" data-name="Layer 2"><g id="Icons"><g id="Social_Media" data-name="Social Media"><path class="cls-1" d="M1.24,20.2c3-7.48,6.1-14.12,12.95-17.42,8-3.89,20.27-3.54,29.44.09A33.79,33.79,0,0,1,59.78,16.14c5.29,8.32,3.65,14.83-.16,24.44C57,47.21,56,57.72,49.57,59.75c-8.66,2.74-15.38,3.8-24.88,2.57C9.65,60.37.22,49.84.83,41.73,1.37,34.52-1.58,27.32,1.24,20.2Z"/><rect class="cls-2" x="9.22" y="10.77" width="41.77" height="41.77" rx="2.83" ry="2.83"/><path class="cls-3" d="M48.16,52.57l-20.27.12-10.14.07H12.68a5.55,5.55,0,0,1-1.31-.09,3,3,0,0,1-2.34-3l.09-20.27c0-3.38,0-6.76,0-10.14l0-5.07a5.45,5.45,0,0,1,.07-1.29,3,3,0,0,1,2.88-2.3l20.27-.09H47.54a5.56,5.56,0,0,1,1.32.08,3.09,3.09,0,0,1,2.38,3c0,6.76,0,13.52-.09,20.27L51.08,44l0,5.07A5.4,5.4,0,0,1,51,50.36a2.92,2.92,0,0,1-.57,1.14A2.89,2.89,0,0,1,48.16,52.57Zm0,0a2.81,2.81,0,0,0,2.71-2.18,5.32,5.32,0,0,0,.07-1.25l0-5.07-.07-10.14c-.06-6.76-.12-13.52-.09-20.27a2.6,2.6,0,0,0-2-2.52A5.14,5.14,0,0,0,47.54,11H32.33l-20.27-.09A2.72,2.72,0,0,0,9.42,13a5.24,5.24,0,0,0-.08,1.23l0,5.07c0,3.38,0,6.76,0,10.14l.09,20.27a2.65,2.65,0,0,0,2.05,2.56,5.19,5.19,0,0,0,1.21.07h5.07l10.14.07Z"/><path class="cls-4" d="M44,19.76v6.1a10,10,0,0,0-2.72-1.39,9.45,9.45,0,0,0-3-.48,4,4,0,0,0-3.46,1.48,7.91,7.91,0,0,0-1.1,4.69v3.92h7.48v5H33.79v7.44H44.5v5.79H22.16V46.53h5.23V39.09H23v-5h4.41V29.69q0-5.7,2.5-8.46t7.67-2.76a17.18,17.18,0,0,1,3.43.32A15.06,15.06,0,0,1,44,19.76Z"/><path class="cls-3" d="M44.07,19.75l.08,6.11a.1.1,0,0,1-.1.1l-.06,0a9.93,9.93,0,0,0-4.27-1.72c-1.5-.2-3.21-.15-4.32.91A6.26,6.26,0,0,0,34,29.38c0,1.55,0,3.13,0,4.7l-.2-.2c2.49,0,5,0,7.48,0a.22.22,0,0,1,.22.22l0,5a.19.19,0,0,1-.19.19h0l-7.48,0,.16-.16,0,7.44-.12-.12c3.57,0,7.14.06,10.71,0a.08.08,0,0,1,.08.08h0l0,5.79a.1.1,0,0,1-.1.1c-7.44,0-14.88,0-22.32.12h0a.22.22,0,0,1-.23-.22h0l0-5.79a.25.25,0,0,1,.25-.25h5.24l-.26.26V39.09l.26.26H23a.25.25,0,0,1-.25-.25h0v-5a.25.25,0,0,1,.25-.25h4.41l-.24.24,0-3.56a26.09,26.09,0,0,1,.19-3.58,10,10,0,0,1,3-6.4,10.34,10.34,0,0,1,6.72-2.17A15.83,15.83,0,0,1,44.07,19.75Zm0,0a15.91,15.91,0,0,0-6.92-1.19,10.15,10.15,0,0,0-6.52,2.19A9.66,9.66,0,0,0,27.75,27a25.67,25.67,0,0,0-.14,3.53l0,3.56a.24.24,0,0,1-.24.24H23l.25-.25v5L23,38.84h4.41a.26.26,0,0,1,.26.26v7.44a.26.26,0,0,1-.26.26H22.16l.25-.25,0,5.79-.22-.22h0c7.44.09,14.88.1,22.32.12l-.1.1,0-5.79.08.08c-3.57,0-7.14,0-10.71,0a.12.12,0,0,1-.12-.12l0-7.44a.16.16,0,0,1,.16-.16h0l7.48,0-.19.19,0-5,.22.22c-2.49,0-5,0-7.48,0a.2.2,0,0,1-.2-.2h0c0-1.57,0-3.13,0-4.71A10.63,10.63,0,0,1,34,27a4.52,4.52,0,0,1,1.19-2.09,4,4,0,0,1,2.19-1,8.4,8.4,0,0,1,2.39,0,9.75,9.75,0,0,1,4.35,1.82l-.16.08Z"/></g></g></g></svg>