<svg xmlns="http://www.w3.org/2000/svg" viewBox="0 0 65.12 62.25"><defs><style>.cls-1{fill:#f4f6f8;}.cls-2{fill:#fff;}.cls-3{fill:#1a1a35;}.cls-4{fill:#f6bd60;}.cls-5{fill:#7f4315;}.cls-6{fill:#d3d7e6;}.cls-7{fill:#f59c52;}.cls-8{fill:#1d1d1b;}</style></defs><title>Asset 35icon-</title><g id="Layer_2" data-name="Layer 2"><g id="Icons"><g id="Shop"><path class="cls-1" d="M65.12,30.54c0,8-.48,15.37-5.62,21C53.45,58.08,42,62.25,32.09,62.25a33.79,33.79,0,0,1-19.9-6.4C4.21,50.06,0,43.09,0,32.75c0-7.12,1.5-15.91,5.63-21.2C11.66,3.82,17,0,27.82,0,38.08,0,51.75,2,57.58,10.36,61.72,16.29,65.12,22.87,65.12,30.54Z"/><path class="cls-2" d="M13.39,33.22V51.3A1.71,1.71,0,0,0,15,53.08H50.5a1.71,1.71,0,0,0,1.6-1.79V33.22"/><path class="cls-3" d="M13.43,33.22q.19,4.81.25,9.62l0,4.81v3.61a1.62,1.62,0,0,0,.28,1,1.33,1.33,0,0,0,.77.55,2.61,2.61,0,0,0,.54,0h.6l2.41.05c1.6,0,3.21.07,4.81.08,3.21,0,6.42,0,9.62-.08l9.62-.15,4.81,0h3.31l.22,0a1.21,1.21,0,0,0,.73-.5,1.54,1.54,0,0,0,.27-.91v-1.2l0-2.41.07-4.81q.08-4.81.26-9.62h.07q.18,4.81.26,9.62l.07,4.81,0,2.41v1.2a2.32,2.32,0,0,1-.41,1.36,2,2,0,0,1-1.21.82,2.07,2.07,0,0,1-.38,0H47.18l-4.81,0-9.62-.15c-3.21-.06-6.42-.11-9.62-.08-1.6,0-3.21,0-4.81.08l-2.41.05h-.6a3.12,3.12,0,0,1-.66,0,1.86,1.86,0,0,1-1.17-.76,2.25,2.25,0,0,1-.41-1.31V47.65l0-4.81q.06-4.81.25-9.62Z"/><path class="cls-4" d="M13.92,32.17h.14a3.07,3.07,0,0,0,3.05,2.19,3.07,3.07,0,0,0,3.05-2.19h.15a3.22,3.22,0,0,0,6.11,0h.15a3.22,3.22,0,0,0,6.11,0h.15a3.22,3.22,0,0,0,6.11,0h.15a3.22,3.22,0,0,0,6.11,0h.14a3.22,3.22,0,0,0,6.11,0h.14a3.07,3.07,0,0,0,3.05,2.19,3,3,0,0,0,3.13-2.79c0-.83-.16-1.74-.19-2.62L52.75,11.83a1.27,1.27,0,0,0-1.19-1.06H13.91a1.28,1.28,0,0,0-1.19,1.06L7.9,28.94c-.06.86-.16,1.77-.16,2.63a3,3,0,0,0,3.13,2.79A3.07,3.07,0,0,0,13.92,32.17Z"/><path class="cls-3" d="M13.9,32.14h.17a0,0,0,0,1,0,0,2.73,2.73,0,0,0,1.15,1.56,3.29,3.29,0,0,0,1.86.53,3.25,3.25,0,0,0,1.82-.59A2.65,2.65,0,0,0,20,32.13a.19.19,0,0,1,.18-.14h.15a.19.19,0,0,1,.18.14,2.88,2.88,0,0,0,2.87,2,2.84,2.84,0,0,0,2.79-2,.27.27,0,0,1,.26-.21h.15a.28.28,0,0,1,.27.21,2.93,2.93,0,0,0,5.53,0,.32.32,0,0,1,.31-.24h.15a.32.32,0,0,1,.31.24A2.77,2.77,0,0,0,35.87,34a3.12,3.12,0,0,0,1.72-.52,2.46,2.46,0,0,0,1-1.42.33.33,0,0,1,.32-.25h.15a.33.33,0,0,1,.32.25,2.77,2.77,0,0,0,2.74,2,3.13,3.13,0,0,0,1.74-.51,2.51,2.51,0,0,0,1.05-1.44h0a.27.27,0,0,1,.26-.2h.15a.26.26,0,0,1,.25.2,2.85,2.85,0,0,0,2.79,2,2.89,2.89,0,0,0,2.88-2,.18.18,0,0,1,.17-.13h.14a.18.18,0,0,1,.17.13A2.73,2.73,0,0,0,53.49,34a3.32,3.32,0,0,0,2.64-.14,2.66,2.66,0,0,0,1.5-2.11c0-.91-.14-1.86-.17-2.81v0l-2.65-9.21-1.34-4.6-.67-2.3c-.24-.75-.34-1.65-1-1.81l-19.08.08-19.05,0a1,1,0,0,0-.56.61c-.11.31-.22.75-.33,1.11l-.67,2.3-1.34,4.6L8.1,29v0c-.06.93-.16,1.89-.18,2.8a2.65,2.65,0,0,0,1.44,2.11,3.34,3.34,0,0,0,2.66.2A2.88,2.88,0,0,0,13.9,32.14Zm0,.06a2.94,2.94,0,0,1-1.86,2,3.56,3.56,0,0,1-2.84-.12,2.92,2.92,0,0,1-1.67-2.33c0-1,.09-1.9.13-2.86v0h0l2.51-9.25L11.47,15l.63-2.31c.11-.4.19-.74.33-1.19a1.67,1.67,0,0,1,1-1.06,1.52,1.52,0,0,1,.39-.06H32.74l9.58,0,4.79,0,2.4,0h1.8a2.21,2.21,0,0,1,.67.07,1.55,1.55,0,0,1,.95,1c.13.42.22.78.33,1.17l.63,2.31,1.26,4.62,2.55,9.24v0c0,.93.21,1.86.18,2.84a2.91,2.91,0,0,1-1.62,2.32,3.6,3.6,0,0,1-2.86.18,3.09,3.09,0,0,1-2-2.08l.17.13h-.14l.17-.13a3,3,0,0,1-1.2,1.73,3.63,3.63,0,0,1-4.06,0,3,3,0,0,1-1.27-1.75l.26.2h-.14l.26-.21A3.08,3.08,0,0,1,44.2,34a3.63,3.63,0,0,1-2.07.65A3.69,3.69,0,0,1,40,34a3.11,3.11,0,0,1-1.28-1.8l.32.25h-.15l.32-.25A3.12,3.12,0,0,1,38,34.06a3.65,3.65,0,0,1-2.09.64,3.71,3.71,0,0,1-2.09-.65,3.11,3.11,0,0,1-1.27-1.8l.31.24h-.15l.31-.24A3.1,3.1,0,0,1,31.7,34a3.71,3.71,0,0,1-4.15,0,3.06,3.06,0,0,1-1.25-1.78l.27.21h-.15l.27-.21A3.05,3.05,0,0,1,25.42,34a3.64,3.64,0,0,1-4.07,0,3,3,0,0,1-1.21-1.74l.18.14h-.15l.18-.14a2.92,2.92,0,0,1-1.24,1.69,3.51,3.51,0,0,1-2,.57,3.48,3.48,0,0,1-1.95-.63A2.85,2.85,0,0,1,14,32.18l0,0Z"/><path class="cls-3" d="M57.58,29c-4.14.25-8.28.33-12.42.27-2.07,0-4.14-.17-6.21-.18s-4.14,0-6.21.08c-4.14.14-8.28.21-12.42.18S12.05,29.21,7.91,29v-.08c4.14-.23,8.28-.34,12.42-.35s8.28,0,12.42.18c2.07.06,4.14.11,6.21.08s4.14-.13,6.21-.18c4.14-.06,8.28,0,12.42.27Z"/><path class="cls-5" d="M18.87,53.08H29V40.38a1.66,1.66,0,0,0-1.65-1.65H20.52a1.66,1.66,0,0,0-1.65,1.65Z"/><path class="cls-3" d="M18.89,53.07,24,52.92c1.68,0,3.34-.06,5-.06l-.22.22c0-3.12.16-6.24.14-9.36l0-2.34c0-.38,0-.79,0-1.16a1.54,1.54,0,0,0-.48-.94,1.47,1.47,0,0,0-1-.39l-1.16,0-2.34,0-2.34,0H20.45a1.39,1.39,0,0,0-.88.39,1.41,1.41,0,0,0-.43.86c0,.34,0,.76,0,1.13v2.31Zm0,0c-.1-3-.14-6.18-.22-9.33V41.4c0-.41,0-.77,0-1.21A1.93,1.93,0,0,1,19.21,39a1.87,1.87,0,0,1,1.22-.52h1.18l2.34,0,2.34,0,1.18,0a1.8,1.8,0,0,1,1.67,1.64c0,.41,0,.79,0,1.18l0,2.34c0,3.12.14,6.24.14,9.36a.22.22,0,0,1-.22.22c-1.72,0-3.44,0-5.14-.05Z"/><circle class="cls-6" cx="41.08" cy="43.15" r="3.3"/><path class="cls-3" d="M44.41,43.15a3.73,3.73,0,0,1-.88,2.44,3.1,3.1,0,0,1-2.44,1.06,3.7,3.7,0,0,1-3.43-3.5,3.35,3.35,0,0,1,.94-2.5,3.4,3.4,0,0,1,2.5-1.06,3.23,3.23,0,0,1,2.45,1.11A3.73,3.73,0,0,1,44.41,43.15Zm0,0a2.93,2.93,0,0,0-1.06-2.22,3.45,3.45,0,0,0-2.22-.82,3.22,3.22,0,0,0-2.17.87,3.28,3.28,0,0,0-1,2.17,2.92,2.92,0,0,0,.89,2.27,3,3,0,0,0,2.27.82,3.65,3.65,0,0,0,2.22-.87A2.94,2.94,0,0,0,44.36,43.15Z"/><polygon class="cls-7" points="44.81 27.35 48.12 21.57 37.28 21.57 30.03 26.07 44.81 27.35"/><path class="cls-3" d="M13.4,15.65a4.83,4.83,0,0,0,1.93,1.17,5.78,5.78,0,0,0,2.24.21,5.26,5.26,0,0,0,2.16-.67,1.84,1.84,0,0,0,.91-1.9.06.06,0,0,1,0-.07.07.07,0,0,1,.06,0,3.74,3.74,0,0,0,1.92.89,6.48,6.48,0,0,0,2.16,0,6.17,6.17,0,0,0,2.06-.61,1.1,1.1,0,0,0,.61-.8,1.36,1.36,0,0,0-.36-1,0,0,0,0,1,0,0h0a1.37,1.37,0,0,1,.44,1,1.22,1.22,0,0,1-.63.91,5.35,5.35,0,0,1-2.11.68,6.67,6.67,0,0,1-2.22,0,3.62,3.62,0,0,1-2-1l.1-.05a2,2,0,0,1-1,2,5.31,5.31,0,0,1-2.18.76,4.65,4.65,0,0,1-4.2-1.51,0,0,0,0,1,0,0Z"/><path class="cls-3" d="M42.14,15.57a2.67,2.67,0,0,0,2.08.65,2.39,2.39,0,0,0,1.07-.3.89.89,0,0,0,.43-.93.06.06,0,0,1,.1-.06h0a1.86,1.86,0,0,0,.95.41,3.63,3.63,0,0,0,1.06,0,3.2,3.2,0,0,0,1-.28.52.52,0,0,0,.3-.37A.67.67,0,0,0,49,14.2a0,0,0,0,1,0,0h0a.69.69,0,0,1,.24.51.64.64,0,0,1-.32.48,2.63,2.63,0,0,1-1.07.37A2.41,2.41,0,0,1,45.74,15l.1-.05a1,1,0,0,1-.51,1,2.94,2.94,0,0,1-1.09.41,2.24,2.24,0,0,1-2.11-.8,0,0,0,0,1,0,0Z"/><path class="cls-3" d="M49.54,24.26a1.65,1.65,0,0,0,1.17.33,1.25,1.25,0,0,0,.6-.15.47.47,0,0,0,.23-.51.06.06,0,0,1,0-.07h.06a1.49,1.49,0,0,0,1.11.21,2,2,0,0,0,.57-.14.28.28,0,0,0,.09-.45,0,0,0,0,1,0,0h0a.34.34,0,0,1,0,.59,1.42,1.42,0,0,1-.61.22A1.34,1.34,0,0,1,51.55,24l.1-.05a.61.61,0,0,1-.31.59,1.8,1.8,0,0,1-.62.25,1.2,1.2,0,0,1-1.2-.48,0,0,0,0,1,0,0Z"/><path class="cls-3" d="M33.88,19.79a1.65,1.65,0,0,0,1.17.33,1.26,1.26,0,0,0,.6-.15.47.47,0,0,0,.23-.51.06.06,0,0,1,0-.07H36a1.5,1.5,0,0,0,1.11.21,2,2,0,0,0,.57-.14.28.28,0,0,0,.09-.45,0,0,0,0,1,0,0h0a.34.34,0,0,1,0,.59,1.42,1.42,0,0,1-.61.22,1.34,1.34,0,0,1-1.23-.33l.1-.05a.61.61,0,0,1-.31.59,1.8,1.8,0,0,1-.62.25,1.2,1.2,0,0,1-1.2-.48,0,0,0,0,1,0,0Z"/><path class="cls-3" d="M17.46,25.32a2.42,2.42,0,0,0,1.85.57,2.11,2.11,0,0,0,1-.26.79.79,0,0,0,.38-.82.06.06,0,0,1,.1-.06h0a1.66,1.66,0,0,0,.84.36,3.28,3.28,0,0,0,.94,0,2.9,2.9,0,0,0,.91-.25.46.46,0,0,0,.13-.76,0,0,0,0,1,0,0h0a.61.61,0,0,1,.22.45.58.58,0,0,1-.29.44,2.33,2.33,0,0,1-1,.33,2.14,2.14,0,0,1-1.9-.49l.1-.05a.92.92,0,0,1-.46.91,2.66,2.66,0,0,1-1,.37,2,2,0,0,1-1.88-.72,0,0,0,0,1,0,0Z"/><rect class="cls-2" x="21.66" y="19.21" width="22.72" height="7.95"/><path class="cls-3" d="M44.36,19.23c-3.88.1-7.66.15-11.43.18-1.88,0-3.76,0-5.63,0s-3.76-.08-5.65-.09l.09-.09c0,2.65,0,5.3,0,7.95L21.66,27q5.68-.09,11.36-.12H38.7c1.89,0,3.79,0,5.68.07l-.18.19C44.23,24.56,44.29,21.94,44.36,19.23Zm0,0c.07,2.59.13,5.27.17,8v.18h-.19c-1.89,0-3.79.07-5.68.07H33q-5.68,0-11.36-.12h-.14v-.13c0-2.65.09-5.3,0-7.95v-.09h.09c1.9,0,3.8-.06,5.71-.09s3.83,0,5.73,0C36.91,19,40.7,19.1,44.4,19.2Z"/><path class="cls-8" d="M24.34,24l.84-.07a.9.9,0,0,0,.31.56,1,1,0,0,0,.63.18,1,1,0,0,0,.63-.16.46.46,0,0,0,.21-.37.33.33,0,0,0-.09-.23.73.73,0,0,0-.31-.17l-.69-.17a2.48,2.48,0,0,1-1-.38,1,1,0,0,1-.4-.78.92.92,0,0,1,.19-.55,1.15,1.15,0,0,1,.54-.39,2.36,2.36,0,0,1,.85-.13,2,2,0,0,1,1.22.32,1.08,1.08,0,0,1,.43.85l-.87,0a.64.64,0,0,0-.24-.43,1,1,0,0,0-.55-.13,1.07,1.07,0,0,0-.59.14.27.27,0,0,0-.14.24.29.29,0,0,0,.13.23,2.45,2.45,0,0,0,.8.26,4.55,4.55,0,0,1,.94.28,1.17,1.17,0,0,1,.47.39,1.11,1.11,0,0,1,0,1.24,1.21,1.21,0,0,1-.58.43,2.68,2.68,0,0,1-.93.14A2,2,0,0,1,24.86,25,1.42,1.42,0,0,1,24.34,24Z"/><path class="cls-8" d="M28.86,25.29V21.43h.87v1.52h1.7V21.43h.87v3.87h-.87V23.6h-1.7v1.69Z"/><path class="cls-8" d="M33.32,23.38a2.24,2.24,0,0,1,.2-1,1.82,1.82,0,0,1,.4-.53,1.69,1.69,0,0,1,.56-.35,2.59,2.59,0,0,1,.93-.15,2.14,2.14,0,0,1,1.52.53,2.19,2.19,0,0,1,0,2.94,2.12,2.12,0,0,1-1.51.53,2.15,2.15,0,0,1-1.52-.53A1.88,1.88,0,0,1,33.32,23.38Zm.89,0a1.35,1.35,0,0,0,.34,1,1.25,1.25,0,0,0,1.71,0,1.38,1.38,0,0,0,.33-1,1.36,1.36,0,0,0-.32-1,1.29,1.29,0,0,0-1.72,0A1.36,1.36,0,0,0,34.21,23.36Z"/><path class="cls-8" d="M38.46,25.29V21.43h1.39a5.61,5.61,0,0,1,1,.06,1.14,1.14,0,0,1,.62.38,1.12,1.12,0,0,1,.25.75,1.16,1.16,0,0,1-.14.6,1.1,1.1,0,0,1-.36.38,1.33,1.33,0,0,1-.45.18,5.46,5.46,0,0,1-.9.06h-.57v1.46Zm.87-3.21v1.1h.47a2.48,2.48,0,0,0,.69-.06.56.56,0,0,0,.27-.19.48.48,0,0,0,.1-.3.47.47,0,0,0-.14-.35.62.62,0,0,0-.35-.17,4.62,4.62,0,0,0-.62,0Z"/><circle class="cls-2" cx="27.41" cy="46.76" r="0.74"/><path class="cls-3" d="M28.16,46.76a.74.74,0,0,1-.74.78.81.81,0,0,1-.77-.78.76.76,0,0,1,.77-.79A.76.76,0,0,1,28.16,46.76Zm0,0a.73.73,0,0,0-.73-.69.72.72,0,0,0-.71.69.68.68,0,0,0,.71.7A.74.74,0,0,0,28.15,46.76Z"/><rect class="cls-2" x="24.63" y="46.49" width="3.05" height="0.54" rx="0.17" ry="0.17"/><path class="cls-3" d="M27.51,47c-.57,0-1.15.05-1.72,0l-.86,0a.48.48,0,0,1-.22,0,.2.2,0,0,1-.09-.2,1.2,1.2,0,0,1,0-.22.2.2,0,0,1,.18-.14c.57,0,1.15,0,1.72,0,.29,0,.57,0,.86,0a.46.46,0,0,1,.22,0,.21.21,0,0,1,.09.21,1.25,1.25,0,0,1,0,.22A.18.18,0,0,1,27.51,47Zm0,0c.17,0,.17-.19.15-.33s-.13-.21-.28-.18-.57,0-.86,0c-.57,0-1.15,0-1.72,0-.15,0-.16.17-.15.31s.13.22.27.19l.86,0C26.36,47,26.93,47,27.51,47Z"/></g></g></g></svg>