<svg xmlns="http://www.w3.org/2000/svg" viewBox="0 0 63.88 61.39"><defs><style>.cls-1{fill:#f4f6f8;}.cls-2{fill:none;stroke:#f25757;stroke-linecap:round;stroke-miterlimit:2.61;stroke-width:0.3px;}.cls-3{fill:#2d509e;}.cls-4{fill:#1d1d1b;}.cls-5{fill:#a0cfd3;}.cls-6{fill:#f25757;}</style></defs><title>Asset 25icon-</title><g id="Layer_2" data-name="Layer 2"><g id="Icons"><g id="StyleGuidelines"><path class="cls-1" d="M32.17,61.36c8-.38,18.42-4,23.76-9.41,6.29-6.35,8.35-11.38,7.89-21.23-.35-7.47-.55-12-4.82-17.37C52.84,5.66,42.13-.46,31.81,0c-7.11.33-16,2.78-21.05,7.15C3.32,13.56-.46,19.88,0,30.7.52,40.95,1.78,49.62,10.41,55.06,16.52,58.91,24.51,61.72,32.17,61.36Z"/><polyline class="cls-2" points="7.94 23.26 7.94 17.94 10.76 17.94"/><path class="cls-3" d="M10.31,25.89V23.24H9v-.07h1.36V21.4H9v-.11h1.36V18.89h.07v2.41h1.77V18.89h.11v2.41h2.65V18.89H15v2.41H17.6V18.89h.09v2.41h1.77V18.89h.09v2.41h1v.11h-1v1.77h1v.07h-1v7.25h1.13v.11H19.55v1.77h1.13v.07H19.55v2.64h-.09V32.44H17.69v2.64H17.6V32.44H15v2.64h-.07V32.44H12.26v2.64h-.11V32.44H10.39v2.64h-.07V32.44H9v-.07h1.34V30.6H9v-.11h1.34V27.84H9.15v-.07h1.17V26H9v-.11Zm.32-2.72a3.21,3.21,0,0,1,1.52-1.54V21.4H10.39v1.77Zm-.25.65a3.24,3.24,0,0,1,.19-.58h-.19Zm1.77-.16v-.12l-1.75,1,0,0s0,.07,0,.11Zm-1.57,2.23a3.07,3.07,0,0,1-.19-.57v.57Zm-.19,1.88h1.77v-.25A3.18,3.18,0,0,1,10.63,26h-.25Zm0,.07v2.65h1.77V27.84Zm1.45,2.76-1.45.83v.12l1.66-1Zm-.39,0-1.06.6v.12l1.29-.73Zm-.37,0-.69.39v.12l.9-.51Zm-.39,0-.3.16v.12l.53-.28Zm-.3,0v.07l.14-.07Zm1.77,0-1.77,1v.12l1.77-1Zm0,.23-1.77,1V32l1.77-1Zm0,.21-1.77,1v.12l1.77-1Zm0,.23-1.77,1v.05h.14l1.63-1Zm-.25-8-1.49.87c0,.05,0,.09,0,.14l1.73-1Zm.25.21v-.12l-1.75,1v.14Zm0,.44v-.12l-1.75,1v.12Zm0,.21V24l-1.73,1s0,.09,0,.12Zm-.62-.87-1.06.62c0,.05,0,.09,0,.14l1.31-.76Zm.62,1.1v-.12l-1.7,1a.22.22,0,0,0,0,.11Zm0,.21v-.12l-1.66,1s0,.07,0,.11Zm-1-1.31-.6.35c0,.05,0,.11,0,.16l.87-.51Zm1,1.54v-.12l-1.59.92s0,.07,0,.11Zm-1.4-1.54-.11.07-.07.18.41-.25ZM12.15,25v-.12l-1.54.9.05.09Zm0,6.51-1.47.87h.23l1.24-.74Zm0-9.28L10.81,23c0,.05-.05.12-.09.18h0l1.4-.83ZM10.72,26s0,0,0,0l.07,0Zm1.43-.78V25.1l-1.4.8H11ZM11,26l-.19.11.05.11.37-.21Zm.39,0-.5.28s.05.05.07.09l.65-.37Zm.78-4-1.1.64-.16.21,1.26-.73Zm0,.44-1.24.73h.23l1-.6ZM11.75,26l-.76.44s.05.05.07.09L12,26Zm.41,5.73-1.08.64h.21l.87-.51Zm0-5.62V26h0l-1,.58s.05.05.07.09Zm0-.67v-.12l-1,.58h.23Zm0-3.66-.64.37-.32.32,1-.57Zm0,4.54v-.12l-.92.53s.05.05.09.09Zm0-3.66-.85.51h.21l.64-.39Zm0,3.89v-.12l-.78.44s.05.07.09.09Zm0,5.39-.71.42h.23l.48-.3Zm0-5.18v-.12l-.64.37.11.07Zm0-1.1v-.12l-.62.35h.21Zm0-2.78-.48.28h.23l.25-.16Zm0,4.1v-.12l-.46.27s.05.05.09.07Zm0,5.18-.32.19H12l.11-.07Zm0-5v-.12l-.3.18.12.07Zm0-1.33v-.12l-.25.14h.23Zm0,1.56v-.12l-.11.05Zm-.09-4.26h.09V23.1Zm1.52-1.77-1.33.76v.14l1.54-.9Zm-.42,0-.9.53v.12l1.17-.67A1.34,1.34,0,0,0,13.16,21.42Zm-.9.16a3,3,0,0,1,.57-.18h-.57Zm1.68-.16-1.68,1v.12l1.86-1.08A.61.61,0,0,0,13.94,21.42Zm.3,0-2,1.15v.14l2.14-1.26Zm-1.73.12-.25.14v.14l.67-.41A3.74,3.74,0,0,0,12.51,21.58Zm2-.05-2.25,1.31V23l2.39-1.38Zm.35.14-.12-.05L12.26,23v.12h0Zm-2.6,2.9a1.32,1.32,0,0,0,1.31,1.33,1.33,1.33,0,0,0,.16-2.65h-.3A1.34,1.34,0,0,0,12.26,24.57Zm.64-1.33h-.23l-.41.25v.14Zm-.39,0H12.3l0,0v.12Zm-.07.5a2.13,2.13,0,0,1,.28-.28l-.46.27v.12Zm-.11.14-.07.05S12.3,23.93,12.33,23.88Zm-.07,1.18v.11l0,0Zm.07.16-.07,0v.14l.12-.09Zm.09.16-.16.11v.12l.23-.14S12.44,25.42,12.42,25.38Zm.12.16-.28.16v.14l.37-.23A.18.18,0,0,1,12.54,25.54Zm2.37.53V26h-.11l-2.55,1.47.12.05ZM14.65,26h-.21l-2.18,1.26v.12Zm-.37,0H14l-1.79,1v.14Zm-.39,0h-.23l-1.4.81v.12Zm-.39,0h-.21l-1,.58v.14Zm-.37,0H12.9l-.64.37v.12Zm-.39,0h-.21l-.27.14v.14Zm-.37,0h-.11v.05Zm.46,1.77a3.08,3.08,0,0,1-.57-.19v.19Zm-.57,2.72h1A3.22,3.22,0,0,1,13,29.18a3.39,3.39,0,0,1,.28-1.34h-1Zm1.08.11-1.08.64v.12l1.13-.65Zm-.35,0-.73.41v.14l.94-.55Zm-.39,0-.34.19v.12l.57-.32Zm-.34,0v.11l.18-.11Zm1.17.18-1.17.67v.14l1.22-.73Zm.11.16-1.27.74v.12L13.59,31Zm.11.16-1.38.8V32l1.45-.85S13.66,31.13,13.64,31.09Zm.11.16-1.49.87v.12l1.56-.9S13.76,31.29,13.75,31.25Zm.21.23a.31.31,0,0,1-.07-.09l-1.63.94v0h.18Zm-1.17-5.75-.11-.07-.39.23h.21Zm2.12-3.87v-.12l-2.48,1.43h.23Zm-.85,4.92a3.1,3.1,0,0,1,.85-.57v-.05l-2.44,1.4.14.05Zm0,4.83a.31.31,0,0,1-.09-.07l-1.41.83h.23ZM13,25.86l-.12-.07-.19.11h.23Zm.67,1.38a3,3,0,0,1,.19-.25l-1.13.65.16,0Zm1.26-5.15v-.14l-2.09,1.22h.23Zm-1.49,5.5c0-.07.09-.14.12-.21L13,27.7a.63.63,0,0,0,.18,0Zm.83,4.16s-.05-.05-.09-.07L13,32.37h.21Zm-.87-3.91a3.38,3.38,0,0,0-.28,1.34,3.22,3.22,0,0,0,.28,1.31h1.52V27.86h0v0H13.39Zm1.52-5.54v-.12l-1.7,1h.21v0Zm-1.57,5.45s0,0,0,0l-.05,0Zm1.1,4.12-.11-.07-1,.57h.23Zm.48-5.06-1.41.83-.07.11h.09l1.4-.8ZM13.59,30.6h-.16l0,.05Zm.37,0h-.21l-.25.12.07.11Zm1-4-1.18.69-.14.21,1.33-.78Zm0-4.07v-.14l-1.31.76.12,0h.09Zm-.57,8.06h-.23l-.51.3.05.09Zm.57-3.43V27l-1.24.71a1.17,1.17,0,0,0,.25,0Zm-.18,3.43h-.23l-.8.44.07.11ZM14.61,32l-.11-.05-.76.44H14Zm.3-1.27V30.6h0l-1.06.6s.05.05.07.09Zm0-4.33-.78.44a2.22,2.22,0,0,0-.28.3l1.06-.6Zm0,4.56v-.14l-1,.55s.05.05.09.09Zm0-8.19v-.12l-.94.55h.21Zm0,2.32a1.44,1.44,0,0,1-.87.83h.87Zm0-1v-.83H14.1A1.44,1.44,0,0,1,14.91,24.07Zm0,7.07V31l-.81.46s.05.07.09.09Zm-.11,1L14.68,32l-.57.34h.23Zm.11-4.7v-.14l-.78.46a2.86,2.86,0,0,0,.37-.09Zm0,4v-.14l-.67.39.11.07Zm-.34-10h-.23l.16,0ZM14.91,23v-.14l-.57.34h.23Zm0,8.61v-.12l-.5.28s.05.05.09.07Zm0-4v0a2.7,2.7,0,0,1-.41.14l-.07.05h.21Zm0,4.65v-.12h0l-.39.23h.21Zm0-10.84v0h-.18l-.14.07.14.05Zm0,10.4v-.14l-.32.19.11.07Zm0-8.65v-.11l-.18.11Zm0,8.86v-.12l-.14.07.12.07Zm0-4.26V27.7l-.11.07Zm0-6.19v-.07l-.07.05S14.89,21.56,14.91,21.58Zm0,10.79v0l0,0Zm.19-11-.12.07v.12l.35-.19Zm-.12.32v.09l.09,0Zm.18.09-.18.11V22l.28-.16Zm.18.12-.35.19v.12l.46-.25Zm.18.12-.53.3v.12l.62-.35S15.55,22.07,15.51,22.06Zm.16.12-.69.39v.12l.78-.44A.32.32,0,0,0,15.67,22.18Zm.14.14L15,22.8v.12l.92-.53S15.85,22.36,15.81,22.32Zm.14.14L15,23v.12l1-.6S16,22.5,16,22.46Zm-1,.78v2.65h1.49a3.22,3.22,0,0,0,.28-1.31,3.38,3.38,0,0,0-.28-1.34Zm1.4,2.86.05-.11h-.11L15,26.78v.12ZM15.92,26l-.94.53v.12L16.17,26A1.17,1.17,0,0,0,15.92,26Zm-.73,0-.21.11v.05a2.49,2.49,0,0,1,.34-.11l.09-.05ZM15,26v0L15,26Zm.34.14-.34.19v.12l.73-.42A2.47,2.47,0,0,0,15.32,26.14Zm1.91,0-1.4.8a3.15,3.15,0,0,1-.85.58v0l2.39-1.38Zm.25.07L15,27.66v.11H15l2.56-1.49Zm-1.33.23.14-.21L15,27v.12Zm-.41.46c.09-.09.19-.18.28-.28l-1,.6v.12Zm-.32.94v0h-.16v0H15v0H15v.81a1.44,1.44,0,0,1,.8-.81h-.14v0ZM15,29.16a1.31,1.31,0,0,0,2.62.16V29a1.31,1.31,0,0,0-2.62.16Zm0,.5v.83h.9A1.4,1.4,0,0,1,15,29.66Zm2.62,1V30.6h0L15,32.08l.12.05Zm-.42-.09L15,31.85V32l2.42-1.38Zm-.39,0-1.8,1v.12l2-1.17Zm-.37,0L15,31.41v.12l1.64-.94Zm-.39,0-1,.6v.12l1.27-.73Zm-.37,0L15,31v.12l.88-.5Zm-.39,0-.28.16v.12l.51-.28Zm-.28,0v.05l.12-.05Zm0,1.59v0l0,0Zm.12,0-.12.07v.07h.12l.14-.09ZM15.5,21.4l-.44.25.11.07.57-.32Zm-.21,5.87-.23.12A1.48,1.48,0,0,0,15.28,27.27Zm.8-4.67-1,.57h.23l.81-.48S16.1,22.64,16.08,22.6Zm1.52,3.77-2.41,1.4h.21l2.19-1.27Zm0,4.55v-.12l-2.39,1.38.14.05ZM15.89,21.4l-.64.35.11.07.74-.42Zm-.53,10.91-.09.05h.23v0Zm.9-10.91-.83.48.11.07,1-.55Zm1.34,9.73V31l-2.14,1.24.16,0Zm-1.42-8.36-.69.41h.23l.53-.32S16.2,22.8,16.19,22.76Zm1.42,3.82-2,1.19h.23l1.8-1.06Zm-1-5.18-1.06.6.11.07,1.17-.67Zm1,10v-.12l-1.87,1.08a.61.61,0,0,0,.18,0ZM17,21.4l-1.27.73s.05.05.09.09l1.41-.81Zm-1.18,6.44h0v0Zm.46-4.92-.41.25h.21l.25-.16Zm1.11-1.52-1.5.87a.3.3,0,0,1,.07.09l1.63-1Zm.19,5.41-1.65,1h.23l1.42-.83Zm0-5.31-1.57.9s.05.05.07.09l1.5-.87ZM17,26.07l-.74.42a1.35,1.35,0,0,1-.19.25l1.1-.64Zm.64,5.5v-.12l-1.56.9h.21Zm0-9.85-1.45.83.07.11,1.38-.81Zm-1.34,1.45h.18s0-.07,0-.09Zm1.34-1.22-1.33.76.05.11,1.27-.74ZM16.68,26l-.23.12c0,.07-.09.14-.12.21l.53-.32A.6.6,0,0,0,16.68,26Zm.92,1-1.26.74h.21l1-.62Zm0-4.86-1.22.71.05.11,1.17-.69Zm0,9.64v-.12l-1.19.67a1.34,1.34,0,0,0,.27,0Zm0-9.41L16.47,23l.05.09,1.08-.62ZM16.52,26v0l0,0Zm.05-2.76a3.39,3.39,0,0,1,.28,1.34,3.22,3.22,0,0,1-.28,1.31h1V23.24Zm1-.64-1,.57h.21l.74-.44Zm0,9.76v-.19a3.32,3.32,0,0,1-.94.25Zm0-5.11-.88.51h.23l.65-.39Zm0,2.65-.19.11a1.36,1.36,0,0,1-.69.48h.07L17.6,30Zm-.83-2.07,0,0v0Zm.18,0-.07.05.12.05.18-.11ZM17.6,32v-.12l-.71.41a3.74,3.74,0,0,0,.42-.11Zm0-1.89-.65.37h.23l.42-.25Zm0-7.29-.58.34h.23L17.6,23ZM17,26a5.26,5.26,0,0,1,.57.18V26Zm.3,1.84-.27.16.11.07.37-.23Zm.27-.37-.5.3h.21l.28-.18Zm0,.57v-.12l-.37.21s.05.05.09.09Zm0,2.32-.27.14h.21l.05,0Zm0-2.09v-.12l-.23.12s.05.05.07.09Zm-.19-5.09h.19V23Zm.07,4.6h.12V27.7Zm.12.71v-.12l-.12.07s.05.05.07.09Zm0,1.2a.56.56,0,0,1-.09.18l.09-.05Zm0-1v-.07h0A.13.13,0,0,1,17.6,28.65Zm1.86-7.25h-.14l-1.63.94v.12l1.77-1Zm-.53,0-1.24.71v.12l1.47-.83Zm-.37,0-.87.5V22l1.08-.62Zm-.39,0-.48.27v.12l.71-.39Zm-.37,0-.11.05v.12L18,21.4Zm1.66.12-1.77,1v.12l1.77-1Zm0,.23-1.77,1v.12l1.77-1Zm0,.21-1.77,1v.12l1.77-1Zm-1.77,4v.21a3.29,3.29,0,0,1,1.54,1.56h.23V23.24H17.69v2.65h1.15V26Zm0,.32v.12l.11-.07Zm.19.11-.19.11v.12l.3-.16Zm.18.11-.37.23v.12l.48-.28Zm.18.12-.55.32v.12l.64-.35S18.27,26.67,18.24,26.65Zm.16.14-.71.41v.12l.8-.46A.31.31,0,0,0,18.4,26.79Zm.14.12-.85.5v.14l.92-.55A.31.31,0,0,0,18.54,26.92Zm.21.23s-.05,0-.07-.07l-1,.57v.12h0Zm.11.69-1.17.69v.12l1.4-.81Zm-.39,0-.78.46v.12l1-.58Zm-.37,0-.41.25v.12l.62-.37Zm-.39,0,0,0V28l.25-.14Zm1.49,0-1.5.87v.12L19.23,28S19.21,27.91,19.19,27.87Zm.07.18L17.69,29v.12l1.61-.94S19.28,28.09,19.26,28.05Zm.07.19-1.64.94v.12l1.66-1S19.35,28.28,19.33,28.25Zm.05.18-1.7,1v.12l1.72-1A.3.3,0,0,0,19.39,28.42Zm0,.21-1.73,1v.12l1.75-1S19.42,28.67,19.42,28.63Zm0,.3s0-.07,0-.11l-1.75,1V30l1.77-1Zm0,.11-1.77,1v.12l1.77-1Zm0,.23-1.77,1v.12l1.77-1Zm-.23,1.33a3.25,3.25,0,0,1-1.54,1.54v.23h1.77V30.6Zm-.18.14a.63.63,0,0,0,.09-.14h-.05l-1.4.8v.12Zm-.12-.14H18.7l-1,.58v.12Zm-.39,0h-.21l-.64.35v.12Zm-.37,0h-.23l-.25.14v.12Zm-.39,0h-.09v0Zm1,.5.16-.21-1.29.74v.12Zm-.44.48a2.4,2.4,0,0,0,.3-.3l-1,.57V32Zm1.06-1.95c0-.05,0-.07,0-.12l-1.75,1h.23Zm0-7.43-1.66,1H18l1.45-.85Zm-.6,5.11-.05-.09-.94.55h.21Zm.53,2.56a.42.42,0,0,0,0-.14l-1.33.76h.21Zm.07-7.46-1.29.76h.23l1.06-.62ZM19,27.47l-.05-.09-.67.39h.23Zm.35,2.67.05-.16-.9.51h.23Zm.14-7.5-.9.53h.21l.69-.41Zm-.39,5L19,27.54l-.39.23h.23Zm.14,2.79c0-.05.05-.11.07-.16l-.42.23h.23Zm.25-7.57-.53.32h.23l.3-.18Zm-.32,4.92s0-.05,0-.07l-.09.07Zm.14.07c.07.18.12.37.18.55v-.55ZM19.46,30c-.05.18-.11.35-.18.53h.18Zm-.14-6.79h.14v-.09Z"/><polyline class="cls-2" points="7.94 30.73 7.94 36.04 10.76 36.04"/><polyline class="cls-2" points="21.75 30.73 21.75 36.04 18.94 36.04"/><polyline class="cls-2" points="21.75 23.26 21.75 17.94 18.94 17.94"/><path class="cls-3" d="M27.91,35.21V32.94H25.6V35.7h-.08V32.94H24.6v-.08h.92v-.12H23.81v2.16h-.08V32.75H23v-.08h.76V31.16H23v-.08h.76V26.41H23v.54h-.08v-.54h-.26v-.1h.26V24.61h-.26v-.08h.26v-.81H23v.81h.72v-3.3H23v-.08h.76V17.54h.08v3.61h1.71V17.54h.08v3.61h.48v.08H25.6v3.3h2.31v-1H28v1h.91v.08h-.08a4.24,4.24,0,0,1,.66,8.06H30v.08h-.78a2.66,2.66,0,0,1-.38.12h.72v.08H28v2.26Zm-4.48-10.6-.42.24V25l.68-.4Zm-.42,0v.14l.24-.14Zm.72.24v-.14l-.72.4v.14Zm0,.24v-.14l-.72.4v.16Zm0,.26V25.2l-.72.4v.14Zm0,.24v-.14l-.72.4V26Zm0,.26V25.7l-.72.4v.14Zm0,.24v-.14l-.64.38h.24Zm0,.24V26.2l-.22.12Zm1.79-5.08H25.4l-1.59.93v.14l1.71-1Zm-.54,0-1.17.67V22l1.41-.81Zm-.44,0-.74.44v.14l1-.58Zm-.44,0-.3.18v.14l.56-.32Zm-.3,0v.08l.12-.08Zm1.71.2-1.71,1v.14l1.71-1Zm0,.24-1.71,1v.14l1.71-1Zm0,.26-1.71,1V23l1.71-1Zm0,.24-1.71,1v.14l1.71-1Zm0,.26-1.71,1v.14l1.71-1Zm0,.24-1.71,1v.14l1.71-1Zm0,.26-1.71,1V24l1.71-1Zm0,.24-1.71,1v.14l1.71-1Zm0,.26-1.71,1v.14h0l1.67-1Zm-.38,1.19-1.33.77v.14l1.59-.91Zm-.42,0-.92.54v.14L25,24.61Zm-.44,0-.48.28V25l.74-.42Zm-.42,0-.06,0v.14l.3-.18Zm1.65.2v-.16l-1.71,1v.14Zm0,.24V24.9l-1.71,1V26Zm-.06.28.06,0v-.14l-1.71,1v.14Zm-1.05,1.11,0,0h-.22l-.4.22v.14Zm-.38,0h-.22v.1Zm.16.4.12-.22-.5.28V27Zm-.16.34a.82.82,0,0,1,.08-.2l-.3.18v.14Zm-.12.32.08-.2-.18.1v.14Zm-.08.28.06-.16-.08,0v.14Zm1.69,0v-.16l-1.69,1s0,.08,0,.12l0,0Zm-1.09,3.3a4.39,4.39,0,0,1-.62-1.43v1.43Zm1.09,1.11a4.25,4.25,0,0,1-1-1h-.68v1.51h1.71Zm0-4.67v-.14l-1.69,1v.14Zm0,.5v-.14l-1.69,1V29Zm0,.26v-.16l-1.69,1s0,.1,0,.14Zm0-1v-.16l-1.65,1c0,.06,0,.1,0,.16Zm0,1.23v-.14l-1.65,1s0,.1,0,.14Zm0-1.49v-.14l-1.59.91c0,.06,0,.1,0,.16Zm0,1.75v-.16l-1.61.93a.33.33,0,0,0,0,.14ZM24.74,26c.1-.12.2-.24.3-.34l-1.09.66h.24Zm.78.79v-.16L24,27.51l-.06.18Zm0,2.22v-.14l-1.57.89s0,.1,0,.14Zm0,.26v-.16L24,30s0,.08,0,.12Zm0-5.62L24,24.53h.26l1.23-.71Zm0,2.88v-.12h0l-1.39.77-.06.2Zm0,3v-.14l-1.43.81s0,.08,0,.12Zm-.46-3.1-.8.44c0,.06-.06.16-.1.22l1.15-.66Zm.46,3.35v-.16l-1.35.79.06.1Zm0,.24v-.14l-1.25.71.06.12Zm-.9-3.59-.14.08c0,.08-.1.14-.14.22l.54-.3Zm-.14-.1a.59.59,0,0,1,.1-.14l-.22.14Zm1,4v-.16l-1.15.67.06.1Zm0-6.35-1.05.62h.24l.82-.48Zm0,6.59v-.14l-1.05.6s.06.06.08.1Zm0-4.86-.7.4a2.42,2.42,0,0,0-.2.28l.9-.52Zm-.9,5.52s0,.06,0,.08l.14-.08Zm.9-.4V30.6l-.8.48H25Zm-.54.4-.26.16s.06.06.08.1l.42-.26Zm.54-5.26-.72.42h.26l.46-.28Zm0,5.36v-.1H25.4l-.54.32s.08.06.1.1Zm0-7.11-.64.38h.26l.38-.22Zm0,1.27a3.39,3.39,0,0,0-.5.4l.5-.28Zm0,6.07v-.14l-.5.28.1.1Zm0-.5v-.14l-.38.22h.26Zm0,.75v-.16l-.34.2s.06.06.1.08Zm0-5.62-.28.18h.24l0,0Zm-.2-1.61h.2v-.12Zm.2,7.46v-.14l-.16.08s.06.08.1.1Zm2.39-7.38-.2,0L25.6,25.84V26l2.31-1.33Zm-1.21,0h-.26l-.84.5v.12a3.93,3.93,0,0,1,.64-.34Zm-.44,0H26l-.4.24V25Zm-.44,0H25.6v.14Zm1.35.08-1.57.91v.14l1.91-1.09Zm.74.06L25.6,26.1v.14l2.31-1.33ZM26.18,25l-.58.34v.14l1.27-.71A4.08,4.08,0,0,0,26.18,25Zm-.58,3.08a2.43,2.43,0,0,1,1.67-1.67H25.6Zm0,1.31v.06h0S25.6,29.41,25.6,29.39Zm.06.14-.06,0v.14l.1-.06S25.68,29.57,25.66,29.53Zm.08.2-.14.08v.14l.2-.1Zm.1.2-.24.14v.14l.3-.18Zm.1.18-.34.2v.14L26,30.2S26,30.15,25.94,30.11Zm.14.18-.48.28v.14l.56-.32S26.1,30.32,26.08,30.28Zm.14.16-.62.36v.14l.72-.4S26.26,30.48,26.22,30.44Zm.28.24s-.06-.06-.1-.08l-.8.46v0h.22Zm.88.48h-.24l-1.53.89v.08l.06,0Zm-.42,0h-.26l-1.09.64v.14Zm-.44,0h-.26l-.66.4v.14Zm-.44,0h-.24l-.24.14v.14Zm-.42,0H25.6v0Zm.72,1.51a3.67,3.67,0,0,1-.78-.42v.42Zm-.78.2H27a2.68,2.68,0,0,1-.38-.12H25.6Zm0-4.13a2.32,2.32,0,0,0,2,2.3s0,0,0,0a1.15,1.15,0,0,0,.26,0V26.41A2.32,2.32,0,0,0,25.62,28.74ZM27.91,25l-2.25,1.31h.26l2-1.17Zm-.1,6.15h-.26l-1.81,1.05.12.08Zm.1.2V31.2L26,32.35l.12.06Zm-1.21-.54-.12-.08-.58.34h.26Zm1.21-5.58L26.1,26.31h.24l1.57-.91Zm0,6.35v-.14l-1.73,1,.14.06Zm0,.26v-.16l-1.49.87.16.06Zm-1-.91-.12-.08-.36.22h.26Zm1-5.44-1.39.81h.26l1.13-.68Zm0,6.59V32l-1.21.71H27ZM27,24.61h-.16l-.14.08A1.67,1.67,0,0,1,27,24.61ZM27.17,31,27,31l-.14.1h.24Zm.74-5.3-1,.58h.26l.7-.42Zm-.86,7s.06,0,.1,0l.06,0Zm.86-.4v-.16l-.78.48h.24Zm-.52.4-.1.06a.81.81,0,0,0,.22,0l.12-.08ZM27.91,26c-.18.1-.34.22-.52.32h.24l.28-.18Zm0,6.59v-.14l-.36.22h.26Zm0,.26v-.1h-.1l-.16.1h.26Zm-.1-6.53h.1v-.08Zm1.13.1h-.3a2.43,2.43,0,0,1,0,4.66h1.41v.08H28v1.51h1.19a4.12,4.12,0,0,0-1.19-8v1.69h.91ZM28,31.06a2.32,2.32,0,0,0,0-4.65Zm0,1.79a3.81,3.81,0,0,0,.82-.1H28Z"/><path class="cls-3" d="M39.23,20.34l-2,4.39h1.85l1.77-3.91.1,0-1.75,3.87H40v.08h-.87l-3.56,7.86h2.65v.08H35.57L37,35.86l-.08,0-1.41-3.1-.94,2,.56,1.21-.1,0L34.5,35l-1,2.14h.58v.12h-.62l-.24.5-.08,0,.2-.46H31.51l-.26.56-.08-.06.24-.5h-.34v-.12h.38l2-4.37H30.75v-.08h2.71l-3.58-7.86h-1v-.08h1l-1.71-3.79.08,0L30,24.73h1.85l-2-4.31.1-.06,2,4.37h5.21l2-4.43ZM30,24.81v0l.06.1.2-.12Zm.44,0L30.1,25l0,.1.54-.32Zm.42,0-.68.4.06.12.88-.52Zm.44,0-1,.6.06.12,1.23-.71Zm.58.06,0-.06h-.12l-1.37.79.06.12Zm.1.2-.06-.12-1.47.85.06.12Zm.08.2,0-.12L30.54,26l.06.12Zm.1.2-.06-.12-1.47.85.06.12Zm.08.2,0-.12-1.47.85.06.12Zm.1.2-.06-.12-1.47.85.06.12Zm.08.2,0-.12-1.47.85.06.1Zm.1.18-.06-.1L31,27l.06.1Zm.08.2,0-.1-1.47.83.06.12Zm.1.2-.06-.1-1.47.83.06.12Zm.08.2,0-.12-1.47.85s0,.08,0,.12Zm.1.2-.06-.12-1.47.85.06.12Zm.08.2,0-.12L31.43,28l0,.12Zm.1.2L33,27.31l-1.47.85.06.12Zm1.07,8.16-2.53,1.47,0,.06h.16L34,35.78Zm-1-8s0-.08,0-.12l-1.47.85,0,.12Zm1.13,7.62-2.51,1.47-.1.2,2.53-1.47Zm-1-7.42-.06-.12-1.47.85.06.12Zm.08.2,0-.12-1.47.85,0,.1Zm1.11,6.89-2.53,1.47-.08.2,2.53-1.47Zm-1-6.71-.06-.1L31.87,29l.06.1ZM34,35.92l-2.07,1.19h.26l1.73-1ZM32,24.81l1.61,3.57,0,.06,0,.12,0,.08.06.12,0,.08,0,.12,0,.08.06.1,0,.1,0,.1,0,.08.06.12,0,.08,0,.12,0,.08.06.12,0,.08,0,.12,0,.08.06.12,0,.08,1-2.14,0,0,.08-.2.08-.14c0-.06,0-.14.08-.2l.06-.14.1-.2.06-.14.1-.2.06-.14.08-.2.06-.14h0l.08-.2.06-.14.1-.2.06-.14.1-.2h0l.06-.14h0l.08-.2.06-.14h0L37,25l.06-.14,0-.06Zm1.51,3.59,0-.1L32,29.13l0,.12Zm.9,6.29L32,36l-.08.2,2.47-1.43Zm-.8-6.09-.06-.12L32,29.33l.06.12Zm.72,5.9L32.21,35.7l-.1.2,2.23-1.29Zm-.64-5.7,0-.12-1.47.85,0,.12Zm.1.2-.06-.12-1.47.85.06.12Zm.44,5.3-1.83,1.07-.1.2,2-1.15Zm-.36-5.1,0-.12-1.47.85,0,.12Zm0,7.07-1.47.85h.24l1.15-.66C33.76,36.4,33.76,36.32,33.8,36.26Zm.14-6.87-.06-.12-1.47.85.06.12Zm.18,4.71L32.51,35l-.08.2,1.73-1ZM34,29.59l0-.12-1.47.85,0,.12Zm.1.2-.06-.12-1.47.85.06.12ZM34,33.92l-1.35.77-.08.2L34.08,34ZM34.2,30l0-.12-1.47.85,0,.1Zm-.26,3.73-1.11.64-.1.2L34,33.82Zm-.28,2.88-.91.52H33l.56-.32Zm.64-6.43-.06-.1-1.47.85.06.1Zm.08.2,0-.1-1.47.83,0,.12Zm-.54,3.16L33,34l-.1.2,1-.58Zm.6-2.94,0,0,0-.1-1.47.85.06.12Zm-.16.34.1-.2L33,31.5l0,.12Zm-.52,2.4-.64.36-.08.2.76-.44Zm.36-2.06.1-.2-1.09.64.06.12Zm-.93,5.86h.24l.08-.18Zm.48-4-.38.22-.08.2.52-.3ZM34,31.59l.08-.2-.84.5,0,.12Zm-.16.34.08-.2-.6.36.06.12Zm-.24,1-.14.08-.1.2.28-.16Zm.08-.65.1-.2-.36.22,0,.12Zm-.14.3.08-.16-.12.08Zm0,.26,0,0,0,0Zm.08-.08,0,0,.08,0ZM35.09,32l0-.12-1.43.83h.24ZM35,31.63l-1.21.69-.08.2L35,31.75Zm-1.07,1.11-.22.14.06.1.4-.24Zm.42,0-.54.32s0,.08,0,.12l.76-.44Zm.58-1.31-1,.56-.08.2,1.09-.64Zm-.14,1.31-.9.52.06.12L35,32.75Zm.68,0v0h-.26l-1.21.71,0,.12Zm-.64-1.53-.72.42-.1.2.88-.5Zm.48,1.87.1-.2L34,33.66l.06.12Zm-.06-1-.06-.1L34,32.67h.26Zm-.1,1.31c0-.06.06-.14.1-.2l-1.09.62.06.12Zm-.4-2.4-.48.28-.1.2.62-.36ZM35,33.76l.08-.18-.84.48.06.12Zm-.36-2.92-.24.14-.08.2.38-.22Zm.2,3.26.08-.18-.6.34.06.12Zm-.16.34.1-.18-.36.2.06.12Zm-.12-3.77-.08.18.12-.08S34.53,30.7,34.52,30.66Zm0,4.07.08-.16-.12.08Zm.78-2.4,0-.1-.76.44h.24Zm1.83-3.28.08-.2L34.67,30.3l-.1.2Zm-.16.34.1-.2L34.59,30.6l.06.12Zm-.16.34.1-.2L34.69,30.8l0,.12Zm.46-1,.1-.2L34.81,30l-.08.2Zm-.6,1.35.08-.2-2,1.13.06.1Zm-.16.34.08-.2-1.69,1,0,.1Zm.91-2,.1-.2L35,29.63l-.08.2Zm-2,4.15-.06-.12-.42.26h.26Zm1-1.79.1-.2L35,31.38l.06.12ZM37.56,28l.08-.2-2.51,1.45-.1.2Zm-1.39,3,.1-.2-1.21.69,0,.12Zm-.14.34.08-.2-1,.56.06.12Zm1.69-3.71.08-.2L35.29,29l-.1.2Zm-1.85,4,.08-.2-.72.42,0,.12Zm-.16.34c0-.06.06-.14.1-.2l-.5.28.06.12Zm-.28.58,0-.06-.08.06Zm2.43-5.3.1-.2-2.53,1.45-.08.2Zm-2.31,5.06.1-.2-.24.14,0,.12ZM38,27l.1-.2-2.53,1.45-.08.2Zm.16-.34.08-.2-2.51,1.45-.1.2Zm.16-.34.08-.2L35.91,27.6l-.1.2Zm.14-.34.1-.2L36,27.27l-.08.2Zm.16-.34.08-.2-2.51,1.45-.08.2Zm.16-.34.08-.2-2.51,1.45-.1.2Zm.14-.34.1-.2-2.51,1.45-.1.2Zm-.08-.2h-.26l-1.93,1.11-.08.2Zm-.44,0h-.26l-1.33.77-.08.2Zm-.44,0h-.24l-.76.44-.1.2Zm-.42,0H37.3l-.16.1-.1.2Z"/><path class="cls-3" d="M43.25,20.36h-.48V32.67h.88v.08h-.88v2.88h-.08V32.75H41v3H40.9v-3H39.65v-.08H40.9V20.36h-.76v-.12h.76V17.62H41v2.62h1.71V17.66h.08v2.58h.48Zm-.84,0L41,21.17v.14l1.67-1ZM41,20.91v.14l1.25-.69H42Zm0-.24v.14l.82-.46h-.26Zm0-.26v.14l.38-.2h-.24Zm1.71.16v-.14l-1.71,1v.14Zm0,.26v-.16l-1.71,1v.14Zm0,.24v-.14l-1.71,1V22Zm0,.26v-.16l-1.71,1v.14Zm0,.24v-.14L41,22.4v.14Zm0,.26v-.16l-1.71,1v.14Zm0,.24v-.14L41,22.9V23Zm0,.26v-.16l-1.71,1v.14Zm0,.24v-.14L41,23.4v.14Zm0,.26v-.16l-1.71,1v.14Zm0,.24v-.14l-1.71,1V24Zm0,.26v-.16l-1.71,1v.14Zm0,.24v-.14l-1.71,1v.14Zm0,.26v-.16l-1.71,1v.14Zm0,.24v-.14l-1.71,1V25Zm0,.26v-.16l-1.71,1v.14Zm0,.24v-.14l-1.71,1v.14Zm0,.26v-.16l-1.71,1v.14Zm0,.24V24.9l-1.71,1V26Zm0,.26v-.16l-1.71,1v.14Zm0,.24V25.4l-1.71,1v.14Zm0,.26v-.16l-1.71,1v.14Zm0,.24V25.9l-1.71,1V27Zm0,.26v-.16l-1.71,1v.14Zm0,.24v-.14l-1.71,1v.14Zm0,.26v-.16l-1.71,1v.14Zm0,.24v-.14l-1.71,1V28Zm0,.26v-.16l-1.71,1v.14Zm0,.24v-.14l-1.71,1v.14Zm0,.26v-.16l-1.71,1v.14Zm0,.24v-.14l-1.71,1V29Zm0,.26v-.16l-1.71,1v.14Zm0,.24v-.14l-1.71,1v.14Zm0,.26v-.16l-1.71,1v.14Zm0,.24v-.14l-1.71,1V30Zm0,.26v-.16l-1.71,1v.14Zm0,.24v-.14l-1.71,1v.14Zm0,.26v-.16L41,30.6v.14Zm0,.24v-.14l-1.71,1V31Zm0,.26v-.16L41,31.1v.14Zm0,.24v-.14l-1.71,1v.14Zm0,.26V30.6l-1.71,1v.14Zm0,.24v-.14l-1.71,1V32Zm0,.26V31.1l-1.71,1v.14Zm0,.24v-.14l-1.71,1v.14Zm0,.26v-.16l-1.71,1v.08h.12Zm0,.24v-.14l-1.41.81h.26Zm0,.26v-.16l-1,.58H42Zm0,.24v-.14l-.54.32h.24Zm0,.18v-.08l-.12.08Z"/><path class="cls-3" d="M44.17,28.18H45V26.39h-.76v-.08H45V24.81h-.44v-.08H45V21.07h.08v3.65h1.71V20.3h.08v4.43h1.05a2.79,2.79,0,0,1,.38-.12H47.13v-.08h4.2v.08H50.12a2.82,2.82,0,0,1,.38.12h1.05V20.36h.08v4.37h1.71V21.07h.08v3.65h.76v.08h-.76v1.51h.76v.08h-.76v1.79h.9v.08h-.9v.91h.9v.1h-.9v1.81h.88v.08h-.88v1.51h1.35v.08H53.42v2.16h-.08V32.75H51.63v3h-.08v-3H50.49a2.69,2.69,0,0,1-.38.12h1.21v.08H47v-.08h1.25a2.66,2.66,0,0,1-.38-.12H46.85v3h-.08v-3H45.06v2.16H45V32.75H43.73v-.08H45V31.16h-.76v-.08H45V29.27h-.82v-.1H45v-.91h-.82Zm.9-3.37v1.51h.68a4.26,4.26,0,0,1,1-1v-.48Zm0,3a4.38,4.38,0,0,1,.62-1.43h-.62Zm.6.44-.58.36s0,.08,0,.12l0,0,.84-.5Zm0,2.82a4.38,4.38,0,0,1-.62-1.43v1.43Zm1.09,1.11a4.26,4.26,0,0,1-1-1h-.68v1.51h1.71Zm0-3.93h-.26l-1.43.83s0,.06,0,.08h.12l1.55-.89Zm-.68,0-1,.6V29l1.25-.73Zm-.86,0-.16.1v.14l.4-.24Zm1.53-1v-.16l-1.65,1s0,.08,0,.1h.12Zm-1.53,2-.12.06s0,.1,0,.14l.34-.2ZM46.77,27v-.14l-1.59.91c0,.06,0,.1,0,.16Zm-1.11,2.24-.5.28a.33.33,0,0,0,0,.14l.74-.42Zm1.11-2.48v-.16l-1.51.87-.06.18Zm-.68,2.48-.89.5s0,.1,0,.14l1.09-.64Zm.68,0h-.26L45.26,30s0,.08,0,.12Zm0-2.74v-.14h0l-1.39.79-.06.2Zm0,3v-.14l-1.43.81s0,.08,0,.12Zm0-2v-.14l-1.37.79h.26Zm0,.85-1.37.79h.26l1.11-.65Zm-.46-2-.8.46c0,.06-.06.16-.1.22l1.15-.68Zm.46,3.38v-.16l-1.35.79.06.1Zm0,.24v-.14l-1.25.71.06.12Zm-.9-3.61-.14.1c0,.08-.1.14-.14.22l.54-.32Zm.9,3.87v-.16l-1.15.67.06.1Zm0,.24v-.14l-1.05.6s.06.06.08.1Zm0-2.72v-.16l-.94.56h.24Zm0,.83-.94.56h.24l.7-.4Zm0-3-.7.4a2.34,2.34,0,0,0-.2.28l.9-.52Zm-.9,5.52s0,.06,0,.08l.14-.08Zm.9-.4V30.6l-.8.48h.24Zm-.54.4-.26.16s.06.06.08.1l.42-.26Zm.54-5.26-.72.42h.26l.46-.28Zm0,5.36v-.1h-.12l-.54.32s.08.06.1.1Zm0-3.24v-.14l-.52.3h.26Zm0,.85-.52.3h.26l.26-.16Zm0-3.45a3.37,3.37,0,0,0-.5.4l.5-.28Zm0,6.07v-.14l-.5.28.1.1Zm0-.5v-.14l-.38.22h.26Zm0,.75v-.16l-.34.2s.06.06.1.08Zm0-5.62-.28.18h.24l0,0Zm0,5.86v-.14l-.16.08s.06.08.1.1Zm0-3.81v-.06l-.08.06Zm-.08,1h.08v-.06Zm2.37-4.37L46.85,26.1v.14l2.47-1.43Zm-.44,0-1.77,1V26l2-1.17Zm-.42,0-1.35.79v.14l1.61-.93Zm-1.35.42a3.62,3.62,0,0,1,.78-.42h-.78Zm1.07-.42a3.75,3.75,0,0,0-.5.2l-.58.34v.14L48,24.81Zm.36,1.59H48l-1.17.69v.14Zm-.44,0h-.24l-.76.44V27Zm-.42,0h-.26l-.32.2v.14Zm-.44,0h-.14v.08Zm.32.81a2.41,2.41,0,0,1,.32-.32l-.78.44v.14Zm-.26.4.12-.22-.32.2v.14Zm-.14.34.06-.18-.12.06V28Zm-.06,1.45v.06h0S46.85,29.41,46.85,29.39Zm.06.14-.06,0v.14l.1-.06S46.93,29.57,46.91,29.53Zm.08.2-.14.08v.14l.2-.1Zm.1.2-.24.14v.14l.3-.18Zm.1.18-.34.2v.14l.42-.24S47.21,30.15,47.19,30.11Zm.14.18-.48.28v.14l.56-.32S47.35,30.32,47.33,30.28Zm.14.16-.62.36v.14l.72-.4S47.51,30.48,47.47,30.44Zm.28.24s-.06-.06-.1-.08l-.8.46v0h.22Zm.88.48h-.24l-1.53.89v.08l.06,0Zm-.42,0h-.26l-1.09.64v.14Zm-.44,0h-.26l-.66.4v.14Zm-.44,0h-.24l-.24.14v.14Zm-.42,0h-.06v0Zm.72,1.51a3.66,3.66,0,0,1-.78-.42v.42Zm.44-4.41h-.26l-.94.56V29Zm-.44,0h-.26l-.5.3v.16Zm.86,0h-.24l-1.35.79s0,.08,0,.12h0Zm-1.29,0H47l0,0a.44.44,0,0,0,0,.16Zm2.31-3.45-2.59,1.51h.26l2.57-1.51Zm-2.57,3.37h4.56a2.36,2.36,0,0,0-2.27-1.79h0A2.36,2.36,0,0,0,46.93,28.18Zm3.38,1.61.58.58a2.27,2.27,0,0,0,.6-1.09H46.93a2.33,2.33,0,0,0,2.27,1.81,2.41,2.41,0,0,0,1.63-.65l-.58-.58Zm-1.25,1.37H48.8L47,32.21l.12.08Zm-.14-2.9h-.26l-1.53.91h.24Zm.56,2.9h-.24l-2,1.19.12.06Zm-1.53-.34-.12-.08-.58.34h.26Zm2-6-2.57,1.51h.24l2.59-1.51Zm0,6.35h-.26l-2.23,1.31.14.06Zm-.58-2.9H49.1l-1.55.91h.26Zm1,2.9H50.1l-2.43,1.41.16.06Zm-2.17-.22L48,30.86l-.34.22h.26Zm2.31-6.13h-.12l-2.59,1.51H48l2.53-1.47Zm.3,6.35h-.26l-2.57,1.51h.26Zm-1-2.9h-.26L48,29.17h.24ZM48.42,31,48.27,31l-.14.1h.24Zm2.25-6.15-2.47,1.43h.26l2.35-1.37Zm-2.37,7.86s.06,0,.1,0l.06,0Zm.12-8.06,0,0h.24l.14-.08Zm.1,1.71h-.06l-.08.06Zm2.69,4.76H51l-2.57,1.51h.24Zm-1-2.9H50l-1.55.91h.26Zm-1.57,4.49-.1.06a.81.81,0,0,0,.22,0l.12-.08ZM50.91,25l-2.27,1.33h.24L51.05,25Zm-1.69-.36,0,0-.24,0-.16.1h.26Zm2.33,6.59v-.06h-.16L48.8,32.67h.26Zm-.92-3h-.24l-1.55.91h.24Zm-1.57,4.49-.16.1h.24l.18-.1Zm2.09-7.64-2.09,1.21h.26l2-1.13Zm-1.53-.46-.22,0-.16.1h.24Zm1.93,6.83v-.16l-2.31,1.35h.24Zm-.48-3.22h-.26l-1.55.91h.26ZM49.5,32.75l-.18.1h.28l.14-.1Zm1.87-7.52L49.5,26.31h.24l1.75-1ZM50,24.69a.57.57,0,0,0-.18,0l-.12.08h.26Zm1.59,7v-.14l-1.89,1.09h.26Zm-.06-3.45h-.24l-1.55.91H50Zm-1.65,4.55.26-.06h-.18Zm.06-6.41s0,0,.06,0l0,0ZM51,30.56l-.08-.06a2.62,2.62,0,0,1-1,.58h.2Zm.58-5.2-1.63,1h.26l1.37-.79Zm-1.37,1-.1.06.14.08.22-.14ZM51.55,32v-.16l-1.45.85h.24Zm0-3.47s0-.1,0-.14l-1.37.81h.24Zm-.42,2.22-.08-.1-.76.46h.24Zm-.5-4.33-.3.18.14.06.4-.24Zm.94-.77-1.19.69h.24l1-.56Zm-.52.77-.5.3.12.08.64-.38Zm.52,2.34V28.6l-1,.58h.26Zm0,3.39v-.06l-1,.54A3.89,3.89,0,0,0,51.55,32.13Zm-.28-1.25-.08-.1-.5.3H51Zm.28-4.37v-.12h-.08l-.74.44s.06.06.1.08Zm-.78-1.71a3.62,3.62,0,0,1,.78.42v-.42Zm.78,1.05-.78.46H51l.52-.3Zm0,6.39a3.67,3.67,0,0,1-.78.42h.78Zm0-5.5v-.14l-.66.38s.08,0,.1.08ZM51,30.42l.58.58V29.45A2.69,2.69,0,0,1,51,30.42ZM51.53,29s0,0,0,0v-.12l-.56.34h.24Zm0-2v-.16l-.5.3s.06.06.08.1Zm-.12,4-.08-.1-.22.14h.24Zm.12-3.79v-.14l-.36.2.06.1Zm0-1.13-.34.2h.26l.08-.06Zm0,1.39v-.16l-.24.14.06.12Zm0,.24V27.6l-.14.08s0,.08,0,.12Zm0,1.43s0-.06,0-.08l-.12.08Zm0-1.17v-.16l-.06,0s0,.08,0,.12Zm1.79-3.2H51.63v.48a4.25,4.25,0,0,1,1,1h.68Zm-1.71.62v0l0,0S51.65,25.42,51.63,25.42Zm.12.08-.12.06v.14l.22-.12S51.79,25.52,51.75,25.5Zm.18.14-.3.18V26l.4-.22S52,25.66,51.93,25.64Zm.16.16-.46.26v.14l.56-.3Zm.24.6-.7.42v.14l1-.56Zm-.42,0-.28.16v.14l.52-.3Zm-.28,0v.06l.1-.06Zm1,.08-1,.58v.14l1.09-.62S52.66,26.51,52.64,26.47Zm.12.18-1.13.66v.14l1.19-.69Zm.1.18-1.23.71v.14l1.29-.73Zm.1.2-1.33.77v.14L53,27.15S53,27.07,53,27Zm.12.32s0-.08,0-.12L51.63,28v.14h0Zm.14.91H53L51.63,29v.14h0Zm-1.55,0,0,0v.14l.3-.18Zm0,2.82h1a4.19,4.19,0,0,0,.7-1.81H51.63Zm1,.08a5.39,5.39,0,0,1-.44.52l.58.6-.06.06-.6-.58a5.44,5.44,0,0,1-.52.44v.48h1.71V31.16Zm-1,.1,0,0v.14l.12-.06Zm.16.16-.18.1v.14l.28-.14Zm.16.16-.34.2v.14l.44-.26Zm-.34.44v0l.24-.18Zm.7-6s-.06-.06-.08-.1l-.6.36h.24Zm.2,2.2-.88.52v.16l1.13-.67Zm-.42,0-.46.28v.14l.7-.42Zm-.4,2.9.44.46a4.23,4.23,0,0,0,.38-.46Zm1.45-3.59s0-.1,0-.14l-1.27.75h.26Zm.16.89s0-.1,0-.14l-1.45.85h.26Zm-.86-2.24s-.06-.06-.08-.1l-.32.2h.26Zm.76,1.55s0-.08,0-.12l-.9.54h.24Zm.1.93v-.14l-1,.62h.24Zm-.8-2.38v0l0,0ZM53.26,28s0-.1,0-.14l-.54.32H53Zm.06,1V28.8l-.62.38H53Zm-.6-2.56a4.39,4.39,0,0,1,.62,1.43V26.39Zm.62,3.26a4.39,4.39,0,0,1-.62,1.43h.62Zm0-1.47s0-.08,0-.1l-.14.1Zm0,1s0-.08,0-.12l-.18.12Z"/><path class="cls-4" d="M11.72,40.29l-.47,0a1.63,1.63,0,0,0-.49-.86,1.35,1.35,0,0,0-.93-.33,1.63,1.63,0,0,0-.72.15,1.32,1.32,0,0,0-.49.41,1.77,1.77,0,0,0-.28.62,3.29,3.29,0,0,0-.09.79,3.05,3.05,0,0,0,.11.89,1.5,1.5,0,0,0,.32.59,1.2,1.2,0,0,0,.5.32,1.94,1.94,0,0,0,.64.1,1.68,1.68,0,0,0,.48-.07,1.32,1.32,0,0,0,.39-.19,1,1,0,0,0,.27-.27.62.62,0,0,0,.1-.34v-.33q0-.29-.58-.29v-.36h2v.36q-.58,0-.58.29v1.66H11.2L11.06,43a1.23,1.23,0,0,1-.23.21,1.77,1.77,0,0,1-.33.19,2.06,2.06,0,0,1-.43.13,2.67,2.67,0,0,1-.53,0,2.81,2.81,0,0,1-.88-.14A2,2,0,0,1,7.92,43a2.12,2.12,0,0,1-.52-.76,2.94,2.94,0,0,1-.19-1.12A3,3,0,0,1,7.41,40a2.12,2.12,0,0,1,.52-.78,2.09,2.09,0,0,1,.77-.45,3,3,0,0,1,.94-.15,2.25,2.25,0,0,1,.89.16,1.61,1.61,0,0,1,.55.35l.16-.4h.47Z"/><path class="cls-4" d="M17.95,39.11q-.58,0-.58.29v2.14a3.22,3.22,0,0,1-.11.86,1.6,1.6,0,0,1-.34.64,1.45,1.45,0,0,1-.6.4,2.6,2.6,0,0,1-.9.14,2.73,2.73,0,0,1-.92-.14,1.51,1.51,0,0,1-1-1,3,3,0,0,1-.11-.86V39.4q0-.29-.57-.29v-.38h2.24v.38a1.38,1.38,0,0,0-.53.07.24.24,0,0,0-.16.22v2.14a3.35,3.35,0,0,0,.06.67,1.13,1.13,0,0,0,.19.46.82.82,0,0,0,.37.27,1.67,1.67,0,0,0,.59.09,1.7,1.7,0,0,0,.59-.09.88.88,0,0,0,.39-.27,1.1,1.1,0,0,0,.21-.46,3.18,3.18,0,0,0,.06-.67V39.4a.24.24,0,0,0-.17-.22,1.41,1.41,0,0,0-.53-.07v-.38h1.8Z"/><path class="cls-4" d="M20.59,39.1q-.57,0-.57.29v3.42q0,.29.57.29v.36H18.46v-.36q.57,0,.58-.29V39.4q0-.29-.58-.29v-.38h2.12Z"/><path class="cls-4" d="M23.62,38.73a5.37,5.37,0,0,1,1,.09,1.64,1.64,0,0,1,.74.33,1.45,1.45,0,0,1,.44.68A3.71,3.71,0,0,1,26,41a4.15,4.15,0,0,1-.15,1.2,1.76,1.76,0,0,1-.44.77,1.68,1.68,0,0,1-.74.41,3.89,3.89,0,0,1-1,.12H21.13v-.36q.57,0,.57-.29V39.4q0-.29-.57-.29v-.38Zm-.95.5V43h1a1.24,1.24,0,0,0,.6-.13,1,1,0,0,0,.38-.38,1.81,1.81,0,0,0,.2-.62A5.51,5.51,0,0,0,25,41a4.85,4.85,0,0,0-.06-.81,1.37,1.37,0,0,0-.2-.55.85.85,0,0,0-.38-.31,1.58,1.58,0,0,0-.6-.1Z"/><path class="cls-4" d="M30.73,40.16l-.45,0q-.08-1-.82-1H28v1.55h.73q.38,0,.44-.77h.4l-.1,2h-.39q-.06-.79-.4-.79H28V43h1.2q1.07,0,1.19-1.37l.46,0-.15,1.82H26.48v-.36q.57,0,.57-.29V39.4q0-.29-.57-.29v-.38h4.25Z"/><path class="cls-4" d="M33.67,39.1q-.71,0-.71.29V43h1.25a1.31,1.31,0,0,0,.43-.07.79.79,0,0,0,.33-.22,1.17,1.17,0,0,0,.23-.42,2.89,2.89,0,0,0,.12-.66l.42,0-.15,1.82H31.41v-.36q.57,0,.57-.29V39.4q0-.29-.57-.29v-.38h2.26Z"/><path class="cls-4" d="M38.41,39.1q-.57,0-.57.29v3.42q0,.29.57.29v.36H36.29v-.36q.57,0,.58-.29V39.4q0-.29-.58-.29v-.38h2.12Z"/><path class="cls-4" d="M44.21,39.1q-.57,0-.57.29v4.08H42.46l-2.41-3.83v3.17q0,.29.57.29v.36H39v-.36q.57,0,.57-.29V39.4q0-.29-.57-.29v-.38h1.71l2.45,3.93V39.4q0-.29-.57-.29v-.38h1.67Z"/><path class="cls-4" d="M48.86,40.16l-.45,0q-.08-1-.82-1H46.16v1.55h.73q.38,0,.44-.77h.4l-.1,2h-.39q-.06-.79-.4-.79h-.68V43h1.2q1.07,0,1.19-1.37l.46,0-.15,1.82H44.62v-.36q.57,0,.57-.29V39.4q0-.29-.57-.29v-.38h4.25Z"/><path class="cls-4" d="M53.44,40.39l-.43.06a1.55,1.55,0,0,0-.17-.58,1.3,1.3,0,0,0-.34-.4,1.38,1.38,0,0,0-.47-.24,2.13,2.13,0,0,0-.58-.08,1.58,1.58,0,0,0-.76.16.55.55,0,0,0-.29.52.43.43,0,0,0,.14.34,1.1,1.1,0,0,0,.37.2,3.35,3.35,0,0,0,.53.13l.6.11a5.91,5.91,0,0,1,.6.15,1.87,1.87,0,0,1,.53.26,1.24,1.24,0,0,1,.37.42,1.29,1.29,0,0,1,.14.64,1.56,1.56,0,0,1-.13.66,1.23,1.23,0,0,1-.37.47,1.63,1.63,0,0,1-.58.27,3,3,0,0,1-.75.09,2.59,2.59,0,0,1-.73-.09,2.08,2.08,0,0,1-.55-.25.4.4,0,0,0-.22-.08s-.08,0-.14.09a.62.62,0,0,0-.15.23h-.43V41.72l.42,0a1.41,1.41,0,0,0,.16.56,1.37,1.37,0,0,0,.35.42,1.65,1.65,0,0,0,.53.28,2.2,2.2,0,0,0,.68.1,1.37,1.37,0,0,0,.83-.21.78.78,0,0,0,.29-.67.36.36,0,0,0-.09-.25.68.68,0,0,0-.24-.17,1.92,1.92,0,0,0-.35-.11l-.42-.08-.45-.07-.44-.1a2.88,2.88,0,0,1-.52-.19,1.31,1.31,0,0,1-.39-.28,1.15,1.15,0,0,1-.24-.4,1.64,1.64,0,0,1-.09-.56,1.46,1.46,0,0,1,.08-.49A1.07,1.07,0,0,1,50,39a1.42,1.42,0,0,1,.51-.3,2.33,2.33,0,0,1,.77-.11,2.8,2.8,0,0,1,.72.08,2.19,2.19,0,0,1,.52.21.5.5,0,0,0,.24.08.29.29,0,0,0,.17-.08.68.68,0,0,0,.16-.19h.35Z"/><path class="cls-5" d="M25.47,49.46a6,6,0,0,1,2.35-.27c.39.05.78.16,1.18.19a5,5,0,0,0,1.18-.08,13,13,0,0,1,2.35-.19,9.36,9.36,0,0,1,2.35.36v.07a9.36,9.36,0,0,1-2.35.36,13,13,0,0,1-2.35-.19A5,5,0,0,0,29,49.61c-.39,0-.78.14-1.18.19a6,6,0,0,1-2.35-.27Z"/><path class="cls-5" d="M59,34.57a4,4,0,0,1-.27-1.9c.05-.32.16-.63.19-.95a3.25,3.25,0,0,0-.08-.95,8.52,8.52,0,0,1-.19-1.9A6.22,6.22,0,0,1,59,27H59a6.22,6.22,0,0,1,.36,1.9,8.52,8.52,0,0,1-.19,1.9,3.25,3.25,0,0,0-.08.95c0,.32.14.63.19.95a4,4,0,0,1-.27,1.9Z"/><path class="cls-6" d="M7.63,44.9a1.45,1.45,0,0,1,.2.75.22.22,0,1,1-.45,0h0a1.45,1.45,0,0,1,.2-.75,0,0,0,0,1,0,0Z"/><path class="cls-6" d="M7.68,46.4c0,.25.14.5.16.75a.24.24,0,1,1-.47,0,.23.23,0,0,1,0,0c0-.25.14-.5.16-.75a.08.08,0,0,1,.16,0Z"/><path class="cls-6" d="M7.82,47.9a1.88,1.88,0,0,1-.2.57,0,0,0,0,1,0,0h0a1.88,1.88,0,0,1-.2-.57.22.22,0,0,1,.44-.08A.23.23,0,0,1,7.82,47.9Z"/><path class="cls-6" d="M53.32,44.9a1.45,1.45,0,0,1,.2.75.22.22,0,1,1-.45,0h0a1.45,1.45,0,0,1,.2-.75,0,0,0,0,1,0,0Z"/><path class="cls-6" d="M53.38,46.4c0,.25.14.5.16.75a.24.24,0,1,1-.47,0,.22.22,0,0,1,0,0c0-.25.14-.5.16-.75a.08.08,0,0,1,.16,0Z"/><path class="cls-6" d="M53.51,47.9a1.88,1.88,0,0,1-.2.57,0,0,0,0,1,0,0h0a1.88,1.88,0,0,1-.2-.57.22.22,0,0,1,.44-.08A.23.23,0,0,1,53.51,47.9Z"/><path class="cls-6" d="M7.95,46.66l.75,0a.06.06,0,0,1,0,.11h0l-.75,0a0,0,0,0,1,0,0A0,0,0,0,1,7.95,46.71Z"/><path class="cls-6" d="M9.45,46.6l.75,0a.12.12,0,0,1,0,.23h0l-.75,0a.09.09,0,0,1,0-.17Z"/><path class="cls-6" d="M10.95,46.55l.75,0a.15.15,0,0,1,0,.31h0l-.75,0a.14.14,0,0,1,0-.27Z"/><path class="cls-6" d="M12.45,46.51l.75,0a.19.19,0,1,1,0,.38h0l-.75,0a.17.17,0,0,1,0-.34Z"/><path class="cls-6" d="M13.95,46.49h.75a.2.2,0,0,1,0,.41h-.75a.2.2,0,0,1,0-.39Z"/><path class="cls-6" d="M15.45,46.48h.75a.22.22,0,0,1,0,.43h-.75a.21.21,0,0,1,0-.42Z"/><path class="cls-6" d="M16.95,46.46h.75a.22.22,0,0,1,0,.44h-.75a.22.22,0,0,1,0-.45Z"/><path class="cls-6" d="M18.45,46.47h.75a.21.21,0,0,1,0,.41h-.75a.21.21,0,0,1,0-.43Z"/><path class="cls-6" d="M19.95,46.49l.75,0a.17.17,0,0,1,0,.35l-.75,0a.19.19,0,1,1,0-.38Z"/><path class="cls-6" d="M21.45,46.53l.75,0a.14.14,0,0,1,0,.27l-.75,0a.15.15,0,1,1,0-.31Z"/><path class="cls-6" d="M22.95,46.57l.75,0a.1.1,0,0,1,0,.2l-.75,0a.12.12,0,1,1,0-.23Z"/><path class="cls-6" d="M24.45,46.59h.75a.08.08,0,0,1,0,.17h-.75a.09.09,0,0,1,0-.18Z"/><path class="cls-6" d="M25.95,46.61h.75a.08.08,0,0,1,0,.16h-.75a.08.08,0,0,1,0-.15Z"/><path class="cls-6" d="M27.45,46.6h.75a.09.09,0,1,1,0,.18h-.75a.09.09,0,0,1,0-.17Z"/><path class="cls-6" d="M28.95,46.58l.75,0a.12.12,0,1,1,0,.24h0l-.75,0a.1.1,0,0,1,0-.21Z"/><path class="cls-6" d="M30.45,46.55h.75a.15.15,0,0,1,0,.3h-.76a.14.14,0,0,1,0-.27Z"/><path class="cls-6" d="M31.95,46.52h.75a.18.18,0,0,1,0,.36h-.76a.17.17,0,0,1,0-.33Z"/><path class="cls-6" d="M33.45,46.49h.75a.21.21,0,1,1,0,.42h-.76a.19.19,0,0,1,0-.39Z"/><path class="cls-6" d="M34.95,46.46h.75a.23.23,0,1,1,0,.46h-.75a.22.22,0,0,1,0-.45Z"/><path class="cls-6" d="M36.45,46.45h.75a.24.24,0,0,1,0,.49h-.75a.24.24,0,0,1,0-.48Z"/><path class="cls-6" d="M37.95,46.43h.75a.26.26,0,0,1,0,.52h-.75a.25.25,0,0,1,0-.5Z"/><path class="cls-6" d="M39.45,46.42h.75a.26.26,0,0,1,0,.53h-.75a.26.26,0,0,1,0-.53Z"/><path class="cls-6" d="M40.95,46.42h.75a.26.26,0,0,1,0,.52h-.75a.26.26,0,1,1,0-.52Z"/><path class="cls-6" d="M42.45,46.43h.75a.25.25,0,0,1,0,.51h-.75a.26.26,0,1,1,0-.51Z"/><path class="cls-6" d="M43.95,46.43h.75a.24.24,0,0,1,0,.47h-.75a.25.25,0,0,1,0-.5Z"/><path class="cls-6" d="M45.45,46.46l.75,0a.21.21,0,0,1,0,.41l-.75,0a.22.22,0,1,1,0-.44Z"/><path class="cls-6" d="M46.95,46.49l.75,0a.18.18,0,0,1,0,.35l-.75,0a.19.19,0,1,1,0-.38Z"/><path class="cls-6" d="M48.45,46.52l.75,0a.14.14,0,0,1,0,.29l-.75,0a.16.16,0,0,1,0-.32Z"/><path class="cls-6" d="M49.95,46.56l.75,0a.11.11,0,0,1,0,.23l-.75,0a.13.13,0,1,1,0-.26Z"/><path class="cls-6" d="M51.45,46.6l.75,0a.06.06,0,0,1,0,.12l-.75,0a.09.09,0,0,1,0-.17Z"/><path class="cls-6" d="M52.95,46.66h.12a0,0,0,0,1,0,0,0,0,0,0,1,0,0h-.12a0,0,0,1,1,0-.06Z"/><path class="cls-6" d="M58,18a1.45,1.45,0,0,1-.75.2.22.22,0,0,1,0-.45h0a1.45,1.45,0,0,1,.75.2,0,0,0,0,1,0,0Z"/><path class="cls-6" d="M56.53,18c-.25,0-.5.14-.75.16a.24.24,0,0,1,0-.47h0c.25,0,.5.14.75.16a.08.08,0,0,1,0,.16Z"/><path class="cls-6" d="M55,18.16a1.89,1.89,0,0,1-.57-.2,0,0,0,0,1,0,0h0a1.89,1.89,0,0,1,.57-.2.22.22,0,1,1,.08.44Z"/><path class="cls-6" d="M58,43.47a1.45,1.45,0,0,1-.75.2.22.22,0,1,1,0-.45h0a1.45,1.45,0,0,1,.75.2,0,0,0,0,1,0,0Z"/><path class="cls-6" d="M56.53,43.53c-.25,0-.5.14-.75.16a.24.24,0,0,1,0-.47h0c.25,0,.5.14.75.16a.08.08,0,0,1,0,.16Z"/><path class="cls-6" d="M55,43.67a1.89,1.89,0,0,1-.57-.2,0,0,0,0,1,0,0h0a1.89,1.89,0,0,1,.57-.2.22.22,0,1,1,.08.44Z"/><path class="cls-6" d="M56.27,18.13l.06.75a.08.08,0,1,1-.16,0,.08.08,0,0,1,0,0l.06-.75a0,0,0,0,1,.05,0Z"/><path class="cls-6" d="M56.37,19.63l0,.75a.16.16,0,0,1-.32,0s0,0,0,0l0-.75a.13.13,0,0,1,.26,0Z"/><path class="cls-6" d="M56.43,21.13v.75a.2.2,0,1,1-.4,0h0v-.75a.19.19,0,0,1,.38,0Z"/><path class="cls-6" d="M56.46,22.63c0,.25,0,.5,0,.75a.22.22,0,0,1-.44,0c0-.25,0-.5,0-.75a.22.22,0,0,1,.43,0Z"/><path class="cls-6" d="M56.45,24.13c0,.25,0,.5,0,.75a.19.19,0,0,1-.38,0c0-.25,0-.5,0-.75a.21.21,0,0,1,.42,0Z"/><path class="cls-6" d="M56.4,25.63l0,.75a.12.12,0,0,1-.24,0l0-.75a.16.16,0,0,1,.31,0S56.4,25.63,56.4,25.63Z"/><path class="cls-6" d="M56.34,27.13v.75a.08.08,0,0,1-.16,0v-.75a.09.09,0,0,1,.19,0Z"/><path class="cls-6" d="M56.32,28.63v.75a.09.09,0,1,1-.18,0h0v-.75a.08.08,0,0,1,.16,0Z"/><path class="cls-6" d="M56.36,30.13l0,.75a.14.14,0,1,1-.28,0h0l0-.75a.11.11,0,0,1,.23,0Z"/><path class="cls-6" d="M56.41,31.63l0,.75a.19.19,0,1,1-.39,0s0,0,0,0l0-.75a.17.17,0,0,1,.34,0Z"/><path class="cls-6" d="M56.46,33.13v.75a.24.24,0,1,1-.47,0h0v-.75a.22.22,0,0,1,.44,0Z"/><path class="cls-6" d="M56.49,34.63v.75a.26.26,0,0,1-.52,0h0v-.75a.25.25,0,0,1,.49,0Z"/><path class="cls-6" d="M56.5,36.13v.75a.26.26,0,0,1-.52,0v-.75a.26.26,0,0,1,.53,0Z"/><path class="cls-6" d="M56.5,37.63v.75a.25.25,0,0,1-.49,0v-.75a.25.25,0,1,1,.51,0Z"/><path class="cls-6" d="M56.47,39.13l0,.75a.2.2,0,0,1-.41,0l0-.75a.23.23,0,1,1,.45,0S56.47,39.13,56.47,39.13Z"/><path class="cls-6" d="M56.42,40.63l0,.75a.14.14,0,0,1-.29,0l0-.75a.18.18,0,1,1,.36,0S56.42,40.63,56.42,40.63Z"/><path class="cls-6" d="M56.35,42.13l-.05.75a.05.05,0,0,1-.11,0l-.05-.75a.11.11,0,1,1,.21,0A.11.11,0,0,1,56.35,42.13Z"/></g></g></g></svg>