<svg id="Capa_1" data-name="Capa 1" xmlns="http://www.w3.org/2000/svg" viewBox="0 0 39.68 9.1"><title>icon-bitcoin</title><path d="M5.26,20.44a.53.53,0,0,1,0,.31.49.49,0,0,1-.18.33.55.55,0,0,1-.31.14,1.69,1.69,0,0,1-.43,0l-.28-.06a.69.69,0,0,1-.18,0,.09.09,0,0,1,0-.07,1.24,1.24,0,0,1,0-.21L4.05,20l.51.09a1.85,1.85,0,0,1,.49.16A.51.51,0,0,1,5.26,20.44Zm0-1.79a1.72,1.72,0,0,0-.51-.14l-.43-.09-.18,1,.43.08a1.68,1.68,0,0,0,.51,0,.49.49,0,0,0,.28-.13.51.51,0,0,0,.13-.24.42.42,0,0,0-.23-.48ZM9.1,19.84a4.55,4.55,0,1,1-4.55-4.55A4.55,4.55,0,0,1,9.1,19.84Zm-2.68-1.2A1.06,1.06,0,0,0,6,18.21a.73.73,0,0,0-.25-.12l.13-.69-.66-.13-.12.65-.43-.08.12-.65-.66-.12L4,17.71l-1-.19-.1.55.16,0a.47.47,0,0,1,.2.06.24.24,0,0,1,.06.09.51.51,0,0,1,0,.23l-.41,2.19a.59.59,0,0,1-.06.21.16.16,0,0,1-.09.07.65.65,0,0,1-.22,0l-.15,0-.1.54,1,.18-.12.65.67.13L4,21.76l.37.07h0l-.12.64.67.13.13-.7a1.48,1.48,0,0,0,.31,0,1.25,1.25,0,0,0,.61-.3A1,1,0,0,0,6.28,21a1,1,0,0,0,0-.5A.91.91,0,0,0,6,20.15a1.48,1.48,0,0,0-.39-.23A1.32,1.32,0,0,0,6,19.77a1,1,0,0,0,.3-.26.82.82,0,0,0,.15-.36A.76.76,0,0,0,6.42,18.64Zm8.41,2.22a3.35,3.35,0,0,1-3.36,3.53c-1.2,0-1.8-.52-1.8-1.42a4.07,4.07,0,0,1,.12-.92l1-5.12h1.5l-.6,2.89h0a2,2,0,0,1,1.56-.72A1.57,1.57,0,0,1,14.83,20.86Zm-1.57.31c0-.48-.2-.87-.66-.87s-1.06.55-1.24,1.43l-.09.41a3.1,3.1,0,0,0-.06.56.53.53,0,0,0,.57.56C12.64,23.26,13.26,22.06,13.26,21.17Zm2,3.1h1.49l1-5.06H16.19Zm2-7.26a.86.86,0,0,0-.86.85.69.69,0,0,0,.72.73.82.82,0,0,0,.88-.84A.7.7,0,0,0,17.26,17Zm3.58.79-1.52.35-.21,1.07h-.65l-.21,1.12h.65l-.4,2a5.11,5.11,0,0,0-.1.94c0,.63.42,1.09,1.31,1.09a3,3,0,0,0,.88-.11l.18-1.17a2.88,2.88,0,0,1-.41,0,.38.38,0,0,1-.43-.43,3.73,3.73,0,0,1,.08-.64l.35-1.72h1.07l.22-1.13H20.57Zm.85,4.51a2,2,0,0,0,2.13,2.07,3.6,3.6,0,0,0,1.44-.26V23a2.62,2.62,0,0,1-1,.21,1,1,0,0,1-1-1.05A1.75,1.75,0,0,1,25,20.29a1.82,1.82,0,0,1,.69.12L26,19.27a2.88,2.88,0,0,0-1-.17A3.18,3.18,0,0,0,21.69,22.31Zm9.57-1.13a3,3,0,0,1-3,3.21A2,2,0,0,1,26.1,22.3a3,3,0,0,1,3-3.2A2,2,0,0,1,31.26,21.18Zm-1.54,0c0-.46-.19-1-.79-1-.86,0-1.3,1.25-1.28,2,0,.59.28,1,.8,1C29.27,23.25,29.72,22.06,29.72,21.19Zm4-4.18a.85.85,0,0,0-.86.85.69.69,0,0,0,.72.73.82.82,0,0,0,.88-.84A.7.7,0,0,0,33.74,17Zm-2,7.26H33.2l1-5.06H32.67Zm6.67-5.17a2.11,2.11,0,0,0-1.77.95h0l.11-.83H35.37c-.07.44-.15,1-.27,1.64l-.65,3.42h1.49L36.37,22c.2-1.11.77-1.73,1.26-1.73s.5.25.5.6a2.62,2.62,0,0,1-.06.57l-.52,2.8H39l.56-2.93a6.55,6.55,0,0,0,.08-.86A1.22,1.22,0,0,0,38.38,19.1Z" transform="translate(0 -15.29)"/></svg>