<svg xmlns="http://www.w3.org/2000/svg" xmlns:xlink="http://www.w3.org/1999/xlink" viewBox="0 0 65.2 62.5"><defs><style>.cls-1{fill:none;}.cls-2{fill:#f4f6f8;}.cls-3{fill:#d3d7e6;}.cls-4{fill:#1a1a35;}.cls-5{clip-path:url(#clip-path);}.cls-6{fill:#eaf2e3;stroke:#1a1a35;stroke-linecap:round;stroke-linejoin:round;stroke-width:0.5px;}.cls-7{fill:#fff;}.cls-8{fill:#f18a8a;stroke:#f18a8a;}.cls-8,.cls-9{stroke-miterlimit:2.61;}.cls-9{fill:#81bc45;stroke:#81bc45;stroke-width:0.75px;}.cls-10{font-size:6px;font-family:MyriadPro-Semibold, Myriad Pro;font-weight:700;}.cls-11{letter-spacing:0em;}.cls-12{fill:#e2e2e2;}.cls-13{fill:#0f79b3;}</style><clipPath id="clip-path"><path class="cls-1" d="M11.32,48.5V25a7.19,7.19,0,0,1,2.19-5.25,7.66,7.66,0,0,1,5.4-2.25h38s.83,5.38,1.25,7.75.57,5-.85,11.09S50,42.17,48.07,46.92,34,56.75,28.65,55.5,11.32,48.5,11.32,48.5Z"/></clipPath></defs><title>Asset 52icon-</title><g id="Layer_2" data-name="Layer 2"><g id="Icons"><g id="Website"><path class="cls-2" d="M0,32.18c.35,8,6.13,18.15,11.52,23.51,6.34,6.3,13,7.16,22.87,6.72,7.47-.33,10.86-.65,16.21-4.9,7.71-6.13,15-15.65,14.56-26-.31-7.11-2.93-14.64-7.29-19.75C51.53,4.33,46.76-.44,35.94,0,25.69.48,14,4.61,8.59,13.23,4.72,19.33-.32,24.52,0,32.18Z"/><path class="cls-3" d="M11.32,48.5V25a7.19,7.19,0,0,1,2.19-5.25,7.66,7.66,0,0,1,5.4-2.25h38s.83,5.38,1.25,7.75.57,5-.85,11.09S50,42.17,48.07,46.92,34,56.75,28.65,55.5,11.32,48.5,11.32,48.5Z"/><path class="cls-4" d="M11.28,48.52,11.1,36.81C11,32.89,11,28.95,11,25v0a7.61,7.61,0,0,1,2.55-5.79,8.15,8.15,0,0,1,6-2.05L32,17.32c4.15.05,8.31.06,12.46.06s8.31,0,12.46-.08a.2.2,0,0,1,.2.17c.51,3.06,1.07,6.08,1.54,9.18A29.33,29.33,0,0,1,57.74,36a9,9,0,0,1-2.06,4.3A19.62,19.62,0,0,1,52,43.2,10,10,0,0,0,48.8,46.3c-.17.34-.3.63-.5,1a5.39,5.39,0,0,1-.65,1.06A10.34,10.34,0,0,1,46,50.1a21.16,21.16,0,0,1-3.94,2.61,28.67,28.67,0,0,1-4.31,1.87,26.45,26.45,0,0,1-4.55,1.17,11.9,11.9,0,0,1-4.73,0,67.52,67.52,0,0,1-8.74-3.26C16.87,51.24,14.09,49.92,11.28,48.52Zm.06,0C14.14,49.74,17,51,19.87,52.14a67.22,67.22,0,0,0,8.72,3.07,11.35,11.35,0,0,0,4.5-.08,25.79,25.79,0,0,0,4.42-1.22A32.15,32.15,0,0,0,41.7,52a20.42,20.42,0,0,0,3.79-2.52A9.58,9.58,0,0,0,47,47.9a4.62,4.62,0,0,0,.56-.92c.17-.3.35-.72.53-1.07a10.34,10.34,0,0,1,3.42-3.34,19,19,0,0,0,3.59-2.79,8.21,8.21,0,0,0,1.93-4,30,30,0,0,0,1-9.1c-.4-3-.92-6.12-1.37-9.18l.2.17q-6.23-.07-12.46-.08c-4.15,0-8.31,0-12.46.06l-12.47.13A7.49,7.49,0,0,0,14,19.74,7,7,0,0,0,11.62,25v0c0,3.89,0,7.78-.09,11.69Z"/><g class="cls-5"><rect class="cls-6" x="19.17" y="42.34" width="36.64" height="16.63"/><path class="cls-7" d="M58.88,38.34H23.82V29.05H60.57a9.55,9.55,0,0,0-1.06,2.82,25.17,25.17,0,0,1-.44,2.69c-.21.75.31,1.27.06,2A5.27,5.27,0,0,0,58.88,38.34Z"/></g><circle class="cls-8" cx="18.05" cy="22.5" r="1.54"/><circle class="cls-9" cx="23.14" cy="22.5" r="1.54"/><text class="cls-10" transform="translate(31.07 35.45)"><tspan class="cls-11">h</tspan><tspan x="3.4" y="0">ttp://</tspan></text><ellipse class="cls-12" cx="24.08" cy="33.7" rx="4.49" ry="4.64"/><circle class="cls-7" cx="23.82" cy="33.7" r="4.64"/><path class="cls-13" d="M26.07,35.58a1.44,1.44,0,0,0,.71-1.1,1.11,1.11,0,0,0-.84-1.09,1.47,1.47,0,0,0-1.36-1.9h0a1.45,1.45,0,0,0-1.34.94,1.07,1.07,0,0,0-.79-.24,1.09,1.09,0,0,0-.91.73,1.08,1.08,0,0,0,0,.55,1.13,1.13,0,0,0-.62,1,1.05,1.05,0,0,0,1.06,1.07.88.88,0,0,0,.69.34,1,1,0,0,0,.73-.33.86.86,0,0,0,.68.33,1.14,1.14,0,0,0,.79-.34A1.89,1.89,0,0,0,26.07,35.58Z"/></g></g></g></svg>