<svg xmlns="http://www.w3.org/2000/svg" viewBox="0 0 66.43 62.28"><defs><style>.cls-1{fill:#f4f6f8;}.cls-2{fill:#a0cfd3;}.cls-3{fill:#1a1a35;}.cls-4{fill:#0f79b3;}.cls-5{fill:#fff;}.cls-6{fill:#e8eaf1;}.cls-7{fill:#81bc45;}.cls-8{fill:#f18a8a;}.cls-9{fill:#06d6a0;}.cls-10{fill:#3d4166;}.cls-11{fill:#d3d7e6;}</style></defs><title>Asset 24icon-</title><g id="Layer_2" data-name="Layer 2"><g id="Icons"><g id="POS"><path class="cls-1" d="M2.15,39.15c-3-7.46-3-15.09.81-21.69C7.4,9.7,17.68,3.07,27.29.87a33.79,33.79,0,0,1,20.83,1.8c9.07,3.87,14.73,9.72,17,19.8,1.59,6.94,2.08,15.84-.76,21.92-4.15,8.87-8.5,13.79-19.05,16.2-10,2.29-23.56,3.14-31.32-3.47C10.31,54,6.14,49,2.15,39.15Z"/><path class="cls-2" d="M46.16,12.37s1.89-1.21,2.22,2.29,2,32,2,32-3.8,1.58-4.08.09S46.16,12.37,46.16,12.37Z"/><path class="cls-3" d="M46.14,12.36a1.3,1.3,0,0,1,1.12-.17,1.47,1.47,0,0,1,.81.81,5.87,5.87,0,0,1,.47,2.22l.35,4.49c.21,3,.43,6,.59,9l.46,9c.15,3,.39,6,.6,9a.12.12,0,0,1-.08.12,11.71,11.71,0,0,1-2.36.71,3,3,0,0,1-1.28,0,.94.94,0,0,1-.57-.43,1.64,1.64,0,0,1-.13-.66C46,44.78,46,43.18,46,41.55c0-3.24-.09-6.48-.08-9.73s0-6.48.07-9.73S46,15.63,46.14,12.36Zm0,0c.08,3.22.11,6.48.15,9.71s.08,6.48.08,9.72l0,9.72c0,1.62,0,3.25.06,4.85,0,.42.08.72.45.81a2.73,2.73,0,0,0,1.13,0,10.9,10.9,0,0,0,2.3-.65l-.08.12c-.17-3-.31-6-.54-9l-.69-9c-.22-3-.38-6-.55-9l-.23-4.5a6.09,6.09,0,0,0-.36-2.18,1.35,1.35,0,0,0-.7-.78A1.27,1.27,0,0,0,46.18,12.38Z"/><path class="cls-4" d="M43.78,10.88l1.46.32c.67.16,1.26.55,1.26,1.21l-.06,42a1.24,1.24,0,0,1-1.26,1.21H22.7c-2.82,0-3.75-6.63-4.24-10.29S17,25,18.38,12.81a1.47,1.47,0,0,1,1.26-1.21q1-.24,2.08-.46"/><path class="cls-3" d="M43.78,10.84c.61.13,1.21.21,1.82.39a1.68,1.68,0,0,1,.79.55,1.44,1.44,0,0,1,.22.94l.07,3.69.08,7.39c0,4.92.05,9.85,0,14.77s-.19,9.85-.2,14.77v.92a1.36,1.36,0,0,1-1.11,1.46,7.48,7.48,0,0,1-.94,0l-3.69,0-7.38.07L26,55.91l-1.85,0h-.92a5.53,5.53,0,0,1-1,0,2.76,2.76,0,0,1-1.66-1.19A7.93,7.93,0,0,1,19.74,53c-1.66-4.77-1.93-9.76-2.2-14.67s-.27-9.86-.11-14.79c.09-2.46.22-4.93.45-7.38.05-.61.11-1.23.19-1.84a17,17,0,0,1,.28-1.85,1.85,1.85,0,0,1,1.56-1l1.81-.36a0,0,0,0,1,0,0,0,0,0,0,1,0,0l-1.79.43a1.66,1.66,0,0,0-1.38.94c-.16,1.16-.23,2.43-.32,3.64-.17,2.45-.25,4.91-.28,7.37-.06,4.92.11,9.83.34,14.74.14,2.45.28,4.91.59,7.33a33.55,33.55,0,0,0,1.49,7.13,7.27,7.27,0,0,0,.79,1.57,2.18,2.18,0,0,0,1.24,1,5,5,0,0,0,.86,0h.92l1.85,0,7.38.08,7.38.07,3.69,0a7.73,7.73,0,0,0,.9,0,1.17,1.17,0,0,0,.69-.44,1.14,1.14,0,0,0,.21-.8v-.92c0-4.92-.12-9.85-.16-14.77s0-9.85,0-14.77l.1-7.38.08-3.69a1.22,1.22,0,0,0-.14-.83,1.5,1.5,0,0,0-.69-.51c-.56-.2-1.18-.3-1.77-.46a0,0,0,0,1,0,0A0,0,0,0,1,43.78,10.84Z"/><path class="cls-5" d="M21.76,18H42.44a1.56,1.56,0,0,1,1.32,1.71v9.12a1.56,1.56,0,0,1-1.32,1.71H22.82c-.72,0-1.52-.91-1.89-1.71-.86-1.85-.65-5-.71-9.12A1.72,1.72,0,0,1,21.76,18Z"/><path class="cls-3" d="M21.76,18c2.86,0,5.72-.1,8.57-.2s5.72-.11,8.57-.07l2.14.05,1.07,0a2.92,2.92,0,0,1,.58,0,1.35,1.35,0,0,1,.56.29,2.44,2.44,0,0,1,.64,2.12l0,2.14c0,1.43,0,2.86,0,4.29l0,2.14a1.89,1.89,0,0,1-1.16,1.91,2.16,2.16,0,0,1-.59.06h-.54l-1.07,0-2.14,0-4.29.06c-2.86,0-5.72.06-8.57,0H22.88a1.57,1.57,0,0,1-.67-.15,2.71,2.71,0,0,1-.95-.77,4.78,4.78,0,0,1-1-2.06,11.23,11.23,0,0,1-.24-2.18c0-1.44,0-2.87.07-4.3.05-.72,0-1.42.07-2.16A1.76,1.76,0,0,1,21.76,18Zm0,.08a1.67,1.67,0,0,0-1.44,1.3,18.42,18.42,0,0,0,0,2.12c.05,1.43.08,2.86.21,4.27a6.46,6.46,0,0,0,1.26,3.8,2.43,2.43,0,0,0,.71.56.78.78,0,0,0,.36.07h2.68c2.86,0,5.72,0,8.57,0l4.29.06,2.14,0,1.07,0h.54a1.83,1.83,0,0,0,.48,0,1.52,1.52,0,0,0,.93-1.5l0-2.14c0-1.43,0-2.86,0-4.29l0-2.14a3.81,3.81,0,0,0-.09-1,1.54,1.54,0,0,0-.51-.79,1.13,1.13,0,0,0-.88-.19l-1.07,0-2.14.05c-2.86,0-5.72,0-8.57-.07S24.62,18.09,21.76,18.08Z"/><path class="cls-5" d="M22.39,35.89a1.17,1.17,0,0,1,1-.27,3.73,3.73,0,0,0,.49.19.9.9,0,0,0,.49-.08,2.36,2.36,0,0,1,1-.19,1.9,1.9,0,0,1,1,.36,0,0,0,0,1,0,.06h0a1.9,1.9,0,0,1-1,.36,2.36,2.36,0,0,1-1-.19.9.9,0,0,0-.49-.08,3.75,3.75,0,0,0-.49.19,1.17,1.17,0,0,1-1-.27,0,0,0,0,1,0-.07Z"/><path class="cls-6" d="M41.89,15.27V7.12A.83.83,0,0,0,41,6.31H24.48a.83.83,0,0,0-.84.81v8.16"/><path class="cls-3" d="M41.85,15.27c-.14-1.48-.2-3-.25-4.43l0-2.22c0-.37,0-.74,0-1.11s0-.61-.17-.77a.61.61,0,0,0-.33-.14l-.54,0-1.11-.05c-.74,0-1.48-.07-2.22-.08-1.48,0-3,0-4.43.08s-3,.13-4.43.15l-2.22,0H24.47a.48.48,0,0,0-.27.1c-.17.13-.17.26-.17.7l0,1.11-.07,2.22q-.08,2.22-.26,4.43H23.6q-.18-2.22-.26-4.43l-.07-2.22,0-1.11a3.91,3.91,0,0,1,0-.63,1.21,1.21,0,0,1,.42-.69,1.24,1.24,0,0,1,.75-.28h1.68l2.22,0c1.48,0,3,.08,4.43.15s3,.11,4.43.08c.74,0,1.48,0,2.22-.08L40.52,6l.56,0a1.12,1.12,0,0,1,.7.23,1.13,1.13,0,0,1,.4.64,4.27,4.27,0,0,1,0,.62c0,.37,0,.74,0,1.11l0,2.22c0,1.48-.11,3-.25,4.43Z"/><path class="cls-5" d="M30.79,35.89a1.17,1.17,0,0,1,1-.27,3.73,3.73,0,0,0,.49.19.9.9,0,0,0,.49-.08,2.36,2.36,0,0,1,1-.19,1.9,1.9,0,0,1,1,.36,0,0,0,0,1,0,.06h0a1.91,1.91,0,0,1-1,.36,2.36,2.36,0,0,1-1-.19.9.9,0,0,0-.49-.08,3.75,3.75,0,0,0-.49.19,1.17,1.17,0,0,1-1-.27,0,0,0,0,1,0-.07Z"/><path class="cls-5" d="M38.75,35.89a1.17,1.17,0,0,1,1-.27,3.73,3.73,0,0,0,.49.19.9.9,0,0,0,.49-.08,2.36,2.36,0,0,1,1-.19,1.9,1.9,0,0,1,1,.36,0,0,0,0,1,0,.06h0a1.9,1.9,0,0,1-1,.36,2.36,2.36,0,0,1-1-.19.9.9,0,0,0-.49-.08,3.75,3.75,0,0,0-.49.19,1.17,1.17,0,0,1-1-.27,0,0,0,0,1,0-.07Z"/><path class="cls-5" d="M22.39,39.54a1.17,1.17,0,0,1,1-.27,3.73,3.73,0,0,0,.49.19.9.9,0,0,0,.49-.08,2.36,2.36,0,0,1,1-.19,1.9,1.9,0,0,1,1,.36,0,0,0,0,1,0,.06h0a1.9,1.9,0,0,1-1,.36,2.36,2.36,0,0,1-1-.19.9.9,0,0,0-.49-.08,3.73,3.73,0,0,0-.49.19,1.17,1.17,0,0,1-1-.27,0,0,0,0,1,0-.07Z"/><path class="cls-5" d="M30.79,39.54a1.17,1.17,0,0,1,1-.27,3.73,3.73,0,0,0,.49.19.9.9,0,0,0,.49-.08,2.36,2.36,0,0,1,1-.19,1.91,1.91,0,0,1,1,.36,0,0,0,0,1,0,.06h0a1.9,1.9,0,0,1-1,.36,2.36,2.36,0,0,1-1-.19.9.9,0,0,0-.49-.08,3.73,3.73,0,0,0-.49.19,1.17,1.17,0,0,1-1-.27,0,0,0,0,1,0-.07Z"/><path class="cls-5" d="M38.75,39.54a1.17,1.17,0,0,1,1-.27,3.73,3.73,0,0,0,.49.19.9.9,0,0,0,.49-.08,2.36,2.36,0,0,1,1-.19,1.9,1.9,0,0,1,1,.36,0,0,0,0,1,0,.06h0a1.9,1.9,0,0,1-1,.36,2.36,2.36,0,0,1-1-.19.9.9,0,0,0-.49-.08,3.73,3.73,0,0,0-.49.19,1.17,1.17,0,0,1-1-.27,0,0,0,0,1,0-.07Z"/><path class="cls-5" d="M22.39,43.2a1.17,1.17,0,0,1,1-.27,3.75,3.75,0,0,0,.49.19.9.9,0,0,0,.49-.08,2.36,2.36,0,0,1,1-.19,1.9,1.9,0,0,1,1,.36,0,0,0,0,1,0,.06h0a1.9,1.9,0,0,1-1,.36,2.36,2.36,0,0,1-1-.19.9.9,0,0,0-.49-.08,3.75,3.75,0,0,0-.49.19,1.17,1.17,0,0,1-1-.27,0,0,0,0,1,0-.07Z"/><path class="cls-5" d="M30.79,43.2a1.17,1.17,0,0,1,1-.27,3.75,3.75,0,0,0,.49.19.9.9,0,0,0,.49-.08,2.36,2.36,0,0,1,1-.19,1.9,1.9,0,0,1,1,.36,0,0,0,0,1,0,.06h0a1.9,1.9,0,0,1-1,.36,2.36,2.36,0,0,1-1-.19.9.9,0,0,0-.49-.08,3.75,3.75,0,0,0-.49.19,1.17,1.17,0,0,1-1-.27,0,0,0,0,1,0-.07Z"/><path class="cls-5" d="M38.75,43.2a1.17,1.17,0,0,1,1-.27,3.75,3.75,0,0,0,.49.19A.9.9,0,0,0,40.7,43a2.36,2.36,0,0,1,1-.19,1.9,1.9,0,0,1,1,.36,0,0,0,0,1,0,.06h0a1.9,1.9,0,0,1-1,.36,2.36,2.36,0,0,1-1-.19.9.9,0,0,0-.49-.08,3.75,3.75,0,0,0-.49.19,1.17,1.17,0,0,1-1-.27,0,0,0,0,1,0-.07Z"/><path class="cls-5" d="M22.39,46.85a1.17,1.17,0,0,1,1-.27,3.73,3.73,0,0,0,.49.19.9.9,0,0,0,.49-.08,2.36,2.36,0,0,1,1-.19,1.9,1.9,0,0,1,1,.36,0,0,0,0,1,0,.06h0a1.9,1.9,0,0,1-1,.36,2.36,2.36,0,0,1-1-.19.9.9,0,0,0-.49-.08,3.75,3.75,0,0,0-.49.19,1.17,1.17,0,0,1-1-.27,0,0,0,0,1,0-.07Z"/><path class="cls-5" d="M30.79,46.85a1.17,1.17,0,0,1,1-.27,3.73,3.73,0,0,0,.49.19.9.9,0,0,0,.49-.08,2.36,2.36,0,0,1,1-.19,1.9,1.9,0,0,1,1,.36,0,0,0,0,1,0,.06h0a1.9,1.9,0,0,1-1,.36,2.36,2.36,0,0,1-1-.19.9.9,0,0,0-.49-.08,3.75,3.75,0,0,0-.49.19,1.17,1.17,0,0,1-1-.27,0,0,0,0,1,0-.07Z"/><path class="cls-7" d="M39.22,45.69h3c.21,0,.37.24.37.53v4.35c0,.29-.17.53-.37.53h-3c-.21,0-.37-.24-.37-.53V46.22C38.85,45.93,39,45.69,39.22,45.69Z"/><path class="cls-7" d="M39.22,45.65a16.26,16.26,0,0,0,2.21-.2l.55-.06.28,0a.65.65,0,0,1,.49.21,1,1,0,0,1,.24.74c0,.18,0,.37,0,.55-.05.74-.16,1.47-.19,2.21,0,.37,0,.74,0,1.1a4.9,4.9,0,0,1,0,.59.59.59,0,0,1-.51.54c-.74.07-1.47.13-2.21.15l-.55,0h-.28a.71.71,0,0,1-.53-.23,1.06,1.06,0,0,1-.26-.78v-.55a16.71,16.71,0,0,1,.15-2.21l.14-1.1c0-.19,0-.36.07-.56A.47.47,0,0,1,39.22,45.65Zm0,.08a.37.37,0,0,0-.3.34,2.81,2.81,0,0,0,0,.54l.14,1.1a16.71,16.71,0,0,1,.15,2.21v.55a.43.43,0,0,0,0,.25h.23l.55,0c.74,0,1.47.08,2.21.15,0,0,.16-.06.2-.2a2.51,2.51,0,0,0,0-.51c0-.37,0-.74,0-1.1,0-.74-.14-1.47-.19-2.21,0-.18,0-.37,0-.55a.47.47,0,0,0-.05-.29s0,0,0,0L42,46l-.55-.06A16.24,16.24,0,0,0,39.22,45.73Z"/><path class="cls-5" d="M22.39,50.5a1.17,1.17,0,0,1,1-.27,3.76,3.76,0,0,0,.49.19.9.9,0,0,0,.49-.08,2.36,2.36,0,0,1,1-.19,1.9,1.9,0,0,1,1,.36,0,0,0,0,1,0,.06h0a1.91,1.91,0,0,1-1,.36,2.36,2.36,0,0,1-1-.19.9.9,0,0,0-.49-.08,3.75,3.75,0,0,0-.49.19,1.17,1.17,0,0,1-1-.27,0,0,0,0,1,0-.07Z"/><path class="cls-8" d="M30.79,50.37a1.57,1.57,0,0,1,.49-.68c.16-.1.32-.18.49-.06s.32.45.49.51.32,0,.49-.22a1.21,1.21,0,0,1,.49-.4.81.81,0,0,1,.49-.12c.32.09.65.33,1,1a.22.22,0,0,1,0,.2c-.32.64-.65.88-1,1a.81.81,0,0,1-.49-.12,1.21,1.21,0,0,1-.49-.4c-.16-.19-.32-.3-.49-.22s-.32.38-.49.51-.32,0-.49-.06a1.57,1.57,0,0,1-.49-.68A.26.26,0,0,1,30.79,50.37Z"/><path class="cls-3" d="M19.7,15.24A40.87,40.87,0,0,1,25.89,15c1,.05,2.06.16,3.09.19s2.06,0,3.09-.08a70.09,70.09,0,0,1,12.37.17,0,0,0,0,1,0,.07,70.08,70.08,0,0,1-12.37.17c-1-.07-2.06-.11-3.09-.08s-2.06.14-3.09.19a40.87,40.87,0,0,1-6.19-.27,0,0,0,0,1,0-.07Z"/><path class="cls-3" d="M26.72,9.38a6.86,6.86,0,0,1,2.52-.27c.42.05.84.16,1.26.19a5.68,5.68,0,0,0,1.26-.08A14.87,14.87,0,0,1,34.27,9a10.66,10.66,0,0,1,2.52.36,0,0,0,0,1,0,0l0,0a10.66,10.66,0,0,1-2.52.36,14.88,14.88,0,0,1-2.52-.19,5.68,5.68,0,0,0-1.26-.08c-.42,0-.84.14-1.26.19a6.86,6.86,0,0,1-2.52-.27,0,0,0,0,1,0,0Z"/><path class="cls-3" d="M26.72,12.77a3.45,3.45,0,0,1,1.76-.27c.29.05.59.16.88.19a2.81,2.81,0,0,0,.88-.08A7.37,7.37,0,0,1,32,12.41a5.41,5.41,0,0,1,1.76.36,0,0,0,0,1,0,.05l0,0a5.41,5.41,0,0,1-1.76.36A7.37,7.37,0,0,1,30.25,13a2.81,2.81,0,0,0-.88-.08c-.29,0-.59.14-.88.19a3.45,3.45,0,0,1-1.76-.27,0,0,0,0,1,0-.05Z"/><path class="cls-3" d="M22.76,21.69a4,4,0,0,1,1.9-.27c.32.05.63.16.95.19a3.26,3.26,0,0,0,.95-.08,8.53,8.53,0,0,1,1.9-.19,6.22,6.22,0,0,1,1.9.36,0,0,0,0,1,0,.05l0,0a6.22,6.22,0,0,1-1.9.36,8.52,8.52,0,0,1-1.9-.19,3.25,3.25,0,0,0-.95-.08c-.32,0-.63.14-.95.19a4,4,0,0,1-1.9-.27,0,0,0,0,1,0-.05Z"/><path class="cls-9" d="M36.91,22.08a1.81,1.81,0,0,1,1.25-.27,5.67,5.67,0,0,0,.62.19,1.44,1.44,0,0,0,.62-.08,3.76,3.76,0,0,1,1.25-.19,2.89,2.89,0,0,1,1.25.36,0,0,0,0,1,0,.06l0,0a2.89,2.89,0,0,1-1.25.36,3.77,3.77,0,0,1-1.25-.19,1.43,1.43,0,0,0-.62-.08,5.67,5.67,0,0,0-.62.19,1.81,1.81,0,0,1-1.25-.27,0,0,0,0,1,0-.06Z"/><line class="cls-10" x1="22.76" y1="24.55" x2="35.52" y2="24.55"/><path class="cls-11" d="M22.76,24.51a10.92,10.92,0,0,1,3.19-.27c.53.05,1.06.16,1.6.19a9.1,9.1,0,0,0,1.6-.08,23.79,23.79,0,0,1,3.19-.19,16.94,16.94,0,0,1,3.19.36,0,0,0,0,1,0,.08,16.93,16.93,0,0,1-3.19.36,23.79,23.79,0,0,1-3.19-.19,9.1,9.1,0,0,0-1.6-.08c-.53,0-1.06.14-1.6.19a10.92,10.92,0,0,1-3.19-.27,0,0,0,0,1,0-.08Z"/><line class="cls-10" x1="22.76" y1="26.1" x2="33.81" y2="26.1"/><path class="cls-11" d="M22.76,26.06a8.23,8.23,0,0,1,2.76-.27c.46.05.92.16,1.38.19a6.83,6.83,0,0,0,1.38-.08A17.88,17.88,0,0,1,31,25.7a12.77,12.77,0,0,1,2.76.36,0,0,0,0,1,0,.07A12.78,12.78,0,0,1,31,26.5a17.9,17.9,0,0,1-2.76-.19,6.84,6.84,0,0,0-1.38-.08c-.46,0-.92.14-1.38.19a8.22,8.22,0,0,1-2.76-.27,0,0,0,0,1,0,0Z"/></g></g></g></svg>