<svg xmlns="http://www.w3.org/2000/svg" viewBox="0 0 62.93 64.62"><defs><style>.cls-1{fill:#f4f6f8;}.cls-2{fill:#454851;}.cls-3{fill:#fff;}.cls-4{fill:#0f79b3;}.cls-5{fill:#1a1a35;}.cls-6{fill:#06d6a0;}</style></defs><title>Asset 45icon-</title><g id="Layer_2" data-name="Layer 2"><g id="Icons"><g id="Hosting"><path class="cls-1" d="M9.4,10.78C4,16.72,0,25.45,0,33.05c0,8.94,5.34,15.35,12.61,22,5.51,5,9.17,8.59,16,9.37C38.37,65.55,48,61.53,55,53.9c4.81-5.25,6.73-12.93,7.26-19.62.77-9.77,2.33-16-5.66-23.32C49,4,41.12-1.74,31.16.49,24.11,2.07,14.57,5.13,9.4,10.78Z"/><path class="cls-2" d="M19.09,39.39v4.3H14a2.39,2.39,0,0,0-2.21-1.57,2.36,2.36,0,0,0,0,4.71A2.45,2.45,0,0,0,14,45.26h6.68V39.38Z"/><circle class="cls-3" cx="11.77" cy="44.49" r="1.4"/><path class="cls-2" d="M42.81,40.33v4.91h8.76a2.39,2.39,0,0,1,2.21-1.57,2.36,2.36,0,1,1,0,4.71,2.45,2.45,0,0,1-2.21-1.57H41.24V40.32Z"/><circle class="cls-3" cx="53.78" cy="46.04" r="1.4"/><path class="cls-2" d="M30.19,40.84v9.94A2.39,2.39,0,0,1,31.76,53,2.36,2.36,0,0,1,27,53a2.45,2.45,0,0,1,1.57-2.21V42Z"/><circle class="cls-3" cx="29.39" cy="52.99" r="1.4"/><path class="cls-2" d="M30.4,19.7V12.41a2.39,2.39,0,0,1-1.57-2.21,2.36,2.36,0,1,1,4.71,0A2.45,2.45,0,0,1,32,12.41v6.37Z"/><circle class="cls-3" cx="31.2" cy="10.2" r="1.4"/><path class="cls-2" d="M47.24,24.18h4.3V20.89A2.39,2.39,0,0,1,50,18.68a2.36,2.36,0,1,1,4.71,0,2.45,2.45,0,0,1-1.57,2.21v4.86H47.24Z"/><circle class="cls-3" cx="52.34" cy="18.68" r="1.4"/><path class="cls-2" d="M19.32,24.82H12.59V21.53a2.39,2.39,0,0,0,1.57-2.21A2.28,2.28,0,0,0,11.8,17a2.3,2.3,0,0,0-2.36,2.36A2.45,2.45,0,0,0,11,21.53v4.86h8.31Z"/><circle class="cls-3" cx="11.79" cy="19.32" r="1.4"/><path class="cls-4" d="M48.11,40.52a9.15,9.15,0,0,0,4.54-7,7.08,7.08,0,0,0-5.35-6.94,9.33,9.33,0,0,0-8.65-12.1h-.07a9.2,9.2,0,0,0-8.54,6A6.82,6.82,0,0,0,25,19a7,7,0,0,0-5.8,4.66,6.85,6.85,0,0,0-.3,3.51,7.17,7.17,0,0,0-4,6.42,6.7,6.7,0,0,0,6.72,6.83,5.6,5.6,0,0,0,4.41,2.15c2.51,0,3.23-1,4.62-2.1A5.48,5.48,0,0,0,35,42.55a7.28,7.28,0,0,0,5-2.15C41.17,40.89,45.49,41.83,48.11,40.52Z"/><path class="cls-5" d="M48.09,40.49a8.44,8.44,0,0,0,3.17-3.11,7.14,7.14,0,0,0,1.23-4.21,7,7,0,0,0-1.62-4,6.89,6.89,0,0,0-3.64-2.24.3.3,0,0,1-.22-.36v0a9.23,9.23,0,0,0-.55-6.66,9.41,9.41,0,0,0-4.93-4.56,8.56,8.56,0,0,0-6.74.22,9.06,9.06,0,0,0-4.63,5,.12.12,0,0,1-.16.07l0,0a6.68,6.68,0,0,0-3.77-1.5,6.47,6.47,0,0,0-3.9,1,6.88,6.88,0,0,0-3.09,7,.29.29,0,0,1-.15.31h0a6.92,6.92,0,0,0-3.62,7.44,6.22,6.22,0,0,0,2.19,3.69A7,7,0,0,0,21.68,40a.4.4,0,0,1,.3.16v0a5,5,0,0,0,1.82,1.46,5.28,5.28,0,0,0,2.32.52,5,5,0,0,0,2.32-.5,16.44,16.44,0,0,0,2-1.48.34.34,0,0,1,.47.07h0a5.27,5.27,0,0,0,1.91,1.55,5.19,5.19,0,0,0,2.44.51,7,7,0,0,0,4.63-2,.14.14,0,0,1,.14,0,10.36,10.36,0,0,0,2,.57,15,15,0,0,0,2,.26A8.48,8.48,0,0,0,48.09,40.49Zm0,.07a8.58,8.58,0,0,1-4.05.69A16.6,16.6,0,0,1,42,41a10.53,10.53,0,0,1-2-.5l.14,0a7.45,7.45,0,0,1-4.8,2.29,5.73,5.73,0,0,1-2.71-.44,5.84,5.84,0,0,1-2.21-1.71l.47.08a16.52,16.52,0,0,1-2.09,1.6,5.47,5.47,0,0,1-2.66.62,6,6,0,0,1-2.66-.59,5.65,5.65,0,0,1-2.15-1.74l.32.18a7.68,7.68,0,0,1-4.53-1.64A7,7,0,0,1,14.69,35a7.64,7.64,0,0,1,.68-4.75,7.37,7.37,0,0,1,3.4-3.35l-.16.32a7.18,7.18,0,0,1,.61-4.25,7.36,7.36,0,0,1,2.86-3.17,6.81,6.81,0,0,1,4.13-.95,7,7,0,0,1,3.9,1.6l-.19.05a9.63,9.63,0,0,1,4.73-5.19,9.06,9.06,0,0,1,7-.42A9.61,9.61,0,0,1,47,19.58a9.38,9.38,0,0,1,.55,7.13l-.22-.38a7.08,7.08,0,0,1,3.86,2.53,7.4,7.4,0,0,1,1.55,4.29,7.72,7.72,0,0,1-1.39,4.3A8.54,8.54,0,0,1,48.13,40.55Z"/><path class="cls-3" d="M28.12,35v.58H25.93a1.51,1.51,0,0,1,.21-.62,4.16,4.16,0,0,1,.7-.78,4.41,4.41,0,0,0,.52-.53.69.69,0,0,0,.13-.38.44.44,0,0,0-.11-.32.48.48,0,0,0-.62,0,.61.61,0,0,0-.13.39L26,33.31a1,1,0,0,1,.35-.74,1.17,1.17,0,0,1,.73-.22,1.06,1.06,0,0,1,.76.26.86.86,0,0,1,.28.65,1.13,1.13,0,0,1-.08.42,1.7,1.7,0,0,1-.25.42,3.92,3.92,0,0,1-.41.42l-.38.36a1.09,1.09,0,0,0-.13.17Z"/><path class="cls-3" d="M29.6,32.35a.89.89,0,0,1,.74.34A2.16,2.16,0,0,1,30.66,34a2.16,2.16,0,0,1-.32,1.33.89.89,0,0,1-.74.33.93.93,0,0,1-.77-.37A2.16,2.16,0,0,1,28.54,34a2.16,2.16,0,0,1,.32-1.33A.89.89,0,0,1,29.6,32.35Zm0,.52a.31.31,0,0,0-.2.07.49.49,0,0,0-.14.26,5.32,5.32,0,0,0,0,1.61.55.55,0,0,0,.15.29.32.32,0,0,0,.4,0,.49.49,0,0,0,.14-.26,5.3,5.3,0,0,0,0-1.6.56.56,0,0,0-.15-.29A.31.31,0,0,0,29.6,32.87Z"/><path class="cls-3" d="M32.14,32.35a.89.89,0,0,1,.74.34A2.16,2.16,0,0,1,33.2,34a2.16,2.16,0,0,1-.32,1.33.89.89,0,0,1-.74.33.93.93,0,0,1-.77-.37A2.16,2.16,0,0,1,31.08,34a2.16,2.16,0,0,1,.32-1.33A.89.89,0,0,1,32.14,32.35Zm0,.52a.31.31,0,0,0-.2.07.49.49,0,0,0-.14.26,5.32,5.32,0,0,0,0,1.61.55.55,0,0,0,.15.29.32.32,0,0,0,.4,0,.49.49,0,0,0,.14-.26,5.3,5.3,0,0,0,0-1.6.56.56,0,0,0-.15-.29A.31.31,0,0,0,32.14,32.87Z"/><circle class="cls-6" cx="21.07" cy="33.89" r="2.68"/></g></g></g></svg>