<svg xmlns="http://www.w3.org/2000/svg" viewBox="0 0 63.3 61.7"><defs><style>.cls-1{fill:#f4f6f8;}.cls-2{fill:none;stroke:#454851;stroke-miterlimit:2.61;stroke-width:0.5px;}.cls-3{fill:#f25757;}.cls-4{fill:#1a1a35;}.cls-5{fill:#fff;}.cls-6{fill:#1b1b35;}</style></defs><title>Asset 39icon-</title><g id="Layer_2" data-name="Layer 2"><g id="Icons"><g id="Support"><path class="cls-1" d="M58.52,12.85C55.74,6.57,46.33,1,38.47.29S22.51,0,13.56,4.17C9.83,5.89,5,12.39,2.28,17.6s-3.5,21.6.36,28.77S11.3,57.37,17.92,59s16.52,5.18,25.87-.28c8.46-4.94,17.38-8.12,19.36-24.87C64,26.71,61.3,19.14,58.52,12.85Z"/><path class="cls-2" d="M52.93,30.81s4.74,4.64,2.46,8.59-6.42,5.4-8.16,9.25-7.78,5.66-10,6.48-4.51.64-6.56-2"/><path class="cls-2" d="M8,30.53s-4.39-4.68-1.35-7.8,3.87-7.42,7.63-9.47,8.3-5.62,10.18-6.2,3.78-1.5,5.84,1.18"/><path class="cls-2" d="M30.94,53.16s-1.14,2.49-5,2-9.45-4.9-12.81-7.68-5.66-7.78-6.48-10-.64-4.51,2-6.56"/><path class="cls-3" d="M45.62,45.79a21,21,0,0,0,6.14-13.33,1.77,1.77,0,0,0,0-3.32A21.2,21.2,0,0,0,32.3,9.68a1.77,1.77,0,0,0-3.32,0A21.2,21.2,0,0,0,9.51,29.15a1.76,1.76,0,0,0,0,3.32A21.2,21.2,0,0,0,29,51.94a1.77,1.77,0,0,0,3.32,0A21,21,0,0,0,45.62,45.79Zm-25.32-15a1.77,1.77,0,0,0-1-1.6A11.5,11.5,0,0,1,29,19.45a1.77,1.77,0,0,0,3.21,0A11.48,11.48,0,0,1,42,29.2a1.76,1.76,0,0,0,0,3.21,11.48,11.48,0,0,1-9.76,9.76,1.77,1.77,0,0,0-3.21,0,11.48,11.48,0,0,1-9.76-9.76A1.77,1.77,0,0,0,20.3,30.81Z"/><path class="cls-4" d="M45.6,45.78a21.18,21.18,0,0,0,4.24-6.12,20.94,20.94,0,0,0,1.79-7.2v-.09l.08,0a1.63,1.63,0,0,0,1.05-1.53,1.6,1.6,0,0,0-1.07-1.49l-.11,0v-.12A21.4,21.4,0,0,0,45.49,16a21,21,0,0,0-13.2-6.17h-.07l0-.06a1.67,1.67,0,0,0-3.14,0l0,.05H29a20.86,20.86,0,0,0-13.24,6.16,20.89,20.89,0,0,0-6,13.25v.15l-.14,0a1.53,1.53,0,0,0,0,2.88l.15,0v.16A21.15,21.15,0,0,0,29,51.76h.12l0,.11a1.6,1.6,0,0,0,1.49,1.07,1.63,1.63,0,0,0,1.53-1.06l0-.08h.09a20.63,20.63,0,0,0,13.32-6Zm0,0a21.45,21.45,0,0,1-13.33,6.26l.12-.09a1.92,1.92,0,0,1-3.61,0l.15.11A21.2,21.2,0,0,1,9.27,32.48l.16.21a2,2,0,0,1,0-3.76l-.15.2A21.47,21.47,0,0,1,21.72,11.45,21.63,21.63,0,0,1,29,9.59l-.07.05a1.86,1.86,0,0,1,3.5,0l-.09-.07A21.05,21.05,0,0,1,51.95,29.13L51.83,29a1.94,1.94,0,0,1,1.26,1.83,1.92,1.92,0,0,1-1.28,1.79l.09-.11A21.48,21.48,0,0,1,45.64,45.81Z"/><path class="cls-4" d="M20.28,30.81a1.74,1.74,0,0,0-1-1.57h0v0a11.86,11.86,0,0,1,3.18-6.61A11.25,11.25,0,0,1,29,19.23l.16,0,.06.15a1.56,1.56,0,0,0,1.41.91,1.59,1.59,0,0,0,1.44-.9l.06-.12.13,0a11.89,11.89,0,0,1,9.85,9.92v.09l-.08,0a1.64,1.64,0,0,0-.94,1.5,1.62,1.62,0,0,0,1,1.46l.11,0,0,.12a11.6,11.6,0,0,1-9.88,10l-.2,0L32,42.28a1.51,1.51,0,0,0-2.74,0l-.08.17-.19,0A11.35,11.35,0,0,1,22.41,39a11.69,11.69,0,0,1-3.18-6.61v0h0A1.74,1.74,0,0,0,20.28,30.81Zm.05,0a1.81,1.81,0,0,1-1,1.64l0,0a11.13,11.13,0,0,0,3.32,6.4,11.48,11.48,0,0,0,6.43,3.11l-.27.15a2,2,0,0,1,3.68,0l-.27-.15a11.37,11.37,0,0,0,9.63-9.52l.09.17a1.91,1.91,0,0,1,0-3.47l-.07.13a11.08,11.08,0,0,0-9.66-9.59l.19-.1a2,2,0,0,1-1.77,1.16,2,2,0,0,1-1.8-1.15l.23.12a11.77,11.77,0,0,0-6.42,3.15,11.13,11.13,0,0,0-3.32,6.4l0,0A1.81,1.81,0,0,1,20.33,30.81Z"/><path class="cls-5" d="M28.58,20.3V9.07A2.11,2.11,0,0,1,30.69,7h0a2.11,2.11,0,0,1,2.11,2.11V20.3a2.11,2.11,0,0,1-2.11,2.11h0A2.11,2.11,0,0,1,28.58,20.3Z"/><path class="cls-4" d="M28.55,20.3c0-3-.28-5.95-.18-8.92l.07-2.23a2.29,2.29,0,0,1,1.1-1.95,2.24,2.24,0,0,1,2.21,0,2.27,2.27,0,0,1,1.17,1.91C33,12,33.07,15,33,18c0,.74,0,1.49,0,2.23a2.28,2.28,0,0,1-1.16,2,2.22,2.22,0,0,1-2.24,0A2.2,2.2,0,0,1,28.55,20.3Zm0,0a2,2,0,0,0,1.09,1.77,2,2,0,0,0,2.86-1.85c0-.74,0-1.49,0-2.23,0-3,0-5.95.12-8.92a2,2,0,0,0-1-1.76,2,2,0,0,0-3,1.84l.07,2.23C28.88,14.36,28.61,17.33,28.6,20.3Z"/><path class="cls-5" d="M28.58,52.93V41.7a2.11,2.11,0,0,1,2.11-2.11h0a2.11,2.11,0,0,1,2.11,2.11V52.93A2.11,2.11,0,0,1,30.69,55h0A2.11,2.11,0,0,1,28.58,52.93Z"/><path class="cls-4" d="M28.55,52.93c0-3-.28-5.95-.18-8.92l.07-2.23a2.29,2.29,0,0,1,1.1-1.95,2.24,2.24,0,0,1,2.21,0,2.27,2.27,0,0,1,1.17,1.91c.08,3,.15,5.95.12,8.92,0,.74,0,1.49,0,2.23a2.28,2.28,0,0,1-1.16,2,2.22,2.22,0,0,1-2.24,0A2.2,2.2,0,0,1,28.55,52.93Zm0,0a2,2,0,0,0,1.09,1.77,2,2,0,0,0,2.86-1.85c0-.74,0-1.49,0-2.23,0-3,0-5.95.12-8.92a2,2,0,0,0-1-1.76,2,2,0,0,0-3,1.84L28.79,44C28.88,47,28.61,50,28.6,52.93Z"/><path class="cls-5" d="M41.38,28.89H52.61A2.11,2.11,0,0,1,54.72,31h0a2.11,2.11,0,0,1-2.11,2.11H41.38A2.11,2.11,0,0,1,39.28,31h0A2.11,2.11,0,0,1,41.38,28.89Z"/><path class="cls-4" d="M41.38,28.87c3,0,5.95-.28,8.92-.18l2.23.07a2.29,2.29,0,0,1,1.95,1.1,2.24,2.24,0,0,1,0,2.21,2.27,2.27,0,0,1-1.91,1.17c-3,.08-5.95.15-8.92.12-.74,0-1.49,0-2.23,0a2.28,2.28,0,0,1-2-1.16,2.22,2.22,0,0,1,0-2.24A2.2,2.2,0,0,1,41.38,28.87Zm0,.05A2,2,0,0,0,39.61,30a2,2,0,0,0,1.85,2.86c.74,0,1.49,0,2.23,0,3,0,5.95,0,8.92.12a2,2,0,0,0,1.76-1,2,2,0,0,0-1.84-3l-2.23.07C47.33,29.2,44.36,28.92,41.38,28.92Z"/><path class="cls-5" d="M8.76,28.89H20A2.11,2.11,0,0,1,22.09,31h0A2.11,2.11,0,0,1,20,33.1H8.76A2.11,2.11,0,0,1,6.65,31h0A2.11,2.11,0,0,1,8.76,28.89Z"/><path class="cls-4" d="M8.76,28.87c3,0,5.95-.28,8.92-.18l2.23.07a2.29,2.29,0,0,1,1.95,1.1,2.24,2.24,0,0,1,0,2.21A2.27,2.27,0,0,1,20,33.24c-3,.08-5.95.15-8.92.12-.74,0-1.49,0-2.23,0a2.28,2.28,0,0,1-2-1.16,2.22,2.22,0,0,1,0-2.24A2.2,2.2,0,0,1,8.76,28.87Zm0,.05A2,2,0,0,0,7,30a2,2,0,0,0,1.85,2.86c.74,0,1.49,0,2.23,0,3,0,5.95,0,8.92.12a2,2,0,0,0,1.76-1,2,2,0,0,0-1.84-3l-2.23.07C14.7,29.2,11.73,28.92,8.76,28.92Z"/><path class="cls-6" d="M49.89,12.89l-1.57,1.57a.78.78,0,0,1-1.09,0h0a.78.78,0,0,1,0-1.09l1.57-1.57a.78.78,0,0,1,1.09,0h0A.78.78,0,0,1,49.89,12.89Z"/><path class="cls-6" d="M38.63,5.78,38,8a.8.8,0,0,1-1,.58h0a.76.76,0,0,1-.54-1l.59-2.2a.8.8,0,0,1,1-.58h0A.76.76,0,0,1,38.63,5.78Z"/><path class="cls-6" d="M44.84,8.61l-1.14,2a.8.8,0,0,1-1.07.31h0a.76.76,0,0,1-.28-1.06l1.14-2a.8.8,0,0,1,1.07-.31h0A.76.76,0,0,1,44.84,8.61Z"/><path class="cls-6" d="M54.07,18.49l-2,1.13A.8.8,0,0,1,51,19.36h0a.76.76,0,0,1,.29-1.05l2-1.13a.8.8,0,0,1,1.08.26h0A.76.76,0,0,1,54.07,18.49Z"/><path class="cls-6" d="M56.46,24.87l-2.2.58a.8.8,0,0,1-1-.54h0a.76.76,0,0,1,.55-.94l2.2-.58a.8.8,0,0,1,1,.54h0A.76.76,0,0,1,56.46,24.87Z"/><path class="cls-6" d="M49.81,17.15,31.22,31.55a.69.69,0,0,1-1-.12h0a.69.69,0,0,1,.12-1L49,16.06a.69.69,0,0,1,1,.12h0A.69.69,0,0,1,49.81,17.15Z"/><path class="cls-6" d="M33.47,14.23l1.18.23a.07.07,0,0,1,0,.13h0l-1.15-.32a0,0,0,0,1,0,0A0,0,0,0,1,33.47,14.23Z"/><path class="cls-6" d="M35.61,14.72l1.14.38a.14.14,0,0,1-.09.27h0l-1.1-.44h0a.1.1,0,0,1,.07-.2Z"/><path class="cls-6" d="M37.69,15.48l1.09.53a.2.2,0,1,1-.18.37h0l-1-.57h0a.17.17,0,0,1,.16-.3Z"/><path class="cls-6" d="M39.67,16.51c.33.23.67.47,1,.72a.26.26,0,0,1-.31.41l0,0c-.32-.23-.62-.47-.93-.72l0,0a.24.24,0,0,1,.28-.38Z"/><path class="cls-6" d="M41.39,18c.25.32.5.65.73,1a.14.14,0,0,1-.21.18h0c-.29-.27-.56-.55-.82-.84l0,0a.22.22,0,1,1,.33-.3Z"/><polygon class="cls-6" points="39.6 19.27 39.7 18.78 42.12 19.27 42.44 16.83 42.93 16.9 42.55 19.87 39.6 19.27"/></g></g></g></svg>