<svg xmlns="http://www.w3.org/2000/svg" viewBox="0 0 64.42 67.18"><defs><style>.cls-1{fill:#f4f6f8;}.cls-2{fill:#d3d7e6;}.cls-3{fill:#1a1a35;}.cls-4{fill:#fff;}.cls-5{fill:#3d4166;}.cls-6{fill:#f6bd60;}.cls-7{fill:#06d6a0;}</style></defs><title>Asset 22icon-</title><g id="Layer_2" data-name="Layer 2"><g id="Icons"><g id="Mobile_App" data-name="Mobile App"><path class="cls-1" d="M12.64,8C19.12,3.24,25.3-.72,32.85.11c8.88,1,19.06,7.75,24.91,15.69a33.79,33.79,0,0,1,6.66,19.82c.07,9.86-3,17.38-11.36,23.52-5.73,4.23-13.7,8.23-20.41,8-9.79-.27-16-2.3-22.46-11C4.1,47.9-2.4,35.72.88,26.06,3.2,19.21,6.47,12.56,12.64,8Z"/><rect class="cls-2" x="17.04" y="10.09" width="30.67" height="49.05" rx="1.42" ry="1.42"/><path class="cls-3" d="M46.29,59.17c-6.54,0-13.08.09-19.62.2l-4.91.06-2.45,0A6.37,6.37,0,0,1,18,59.39a1.75,1.75,0,0,1-1.29-1.66V53.43l0-4.91L16.9,28.9c0-3.27,0-6.54,0-9.81l0-4.91V11.73a1.75,1.75,0,0,1,.38-1.27,1.63,1.63,0,0,1,1.23-.58l19.62-.15,4.91,0h2.45a6.38,6.38,0,0,1,1.32.06,1.81,1.81,0,0,1,1.34,1.73v9.2c0,6.54-.07,13.08-.15,19.62l-.13,9.81,0,4.91v2.45a1.6,1.6,0,0,1-.36,1.17A1.47,1.47,0,0,1,46.29,59.17Zm0-.08a1.41,1.41,0,0,0,1.37-1.61V55l0-4.91-.13-9.81c-.08-6.54-.17-13.08-.15-19.62V11.5a1,1,0,0,0-.1-.43,1,1,0,0,0-.66-.56,6.75,6.75,0,0,0-1.12,0H43l-4.91,0-19.62-.15a1.26,1.26,0,0,0-1.23,1.44v2.45l0,4.91c0,3.27,0,6.54,0,9.81l.17,19.62,0,4.91v4.29a1.08,1.08,0,0,0,.1.46,1.1,1.1,0,0,0,.7.6,6.66,6.66,0,0,0,1.14,0l2.45,0,4.91.06C33.21,59,39.75,59.08,46.29,59.09Z"/><rect class="cls-4" x="18.25" y="15.41" width="27.92" height="37.1" rx="0.28" ry="0.28"/><path class="cls-3" d="M45.89,52.55c-5.4,0-10.8.09-16.19.2-2.7.06-5.4.07-8.1.09h-3a.63.63,0,0,1-.47-.19.64.64,0,0,1-.17-.46v-.51l0-4c0-5.4.17-10.8.18-16.19,0-2.7,0-5.4,0-8.1l0-4,0-2V15.75a.5.5,0,0,1,.48-.55l16.19-.15,8.1,0h3a.7.7,0,0,1,.51.21.71.71,0,0,1,.19.51v4.55c0,5.4,0,10.8-.14,16.19l-.14,8.1,0,4v3.54A.34.34,0,0,1,45.89,52.55Zm0-.08c.37,0,.2-.51.24-.81v-3l0-4-.14-8.1c-.1-5.4-.14-10.8-.14-16.19V15.73c0-.07,0,0,0,0s.09,0,.06,0h-3l-8.1,0-16.19-.15s-.09,0-.08.14v1.52l0,2,0,4c0,2.7,0,5.4,0,8.1,0,5.4.13,10.8.18,16.19l0,4v.51c0,.05,0,0,0,0h3c2.7,0,5.4,0,8.1.09C35.09,52.38,40.49,52.46,45.89,52.47Z"/><circle class="cls-4" cx="32.28" cy="55.84" r="1.8"/><path class="cls-3" d="M34.09,55.84a2,2,0,0,1-.49,1.32,1.73,1.73,0,0,1-1.32.57,2,2,0,0,1-1.85-1.88,1.85,1.85,0,0,1,1.85-1.9,1.77,1.77,0,0,1,1.32.58A2,2,0,0,1,34.09,55.84Zm0,0a1.77,1.77,0,0,0-3.53,0,1.65,1.65,0,0,0,1.74,1.72A1.8,1.8,0,0,0,34.07,55.84Z"/><line class="cls-5" x1="20.35" y1="19.61" x2="44.21" y2="19.61"/><path d="M20.35,19.57a38,38,0,0,1,6-.27c1,.05,2,.16,3,.19s2,0,3-.08a65.15,65.15,0,0,1,11.93.17,0,0,0,0,1,0,.07,65.16,65.16,0,0,1-11.93.17c-1-.07-2-.11-3-.08s-2,.14-3,.19a38,38,0,0,1-6-.27,0,0,0,0,1,0-.07Z"/><path class="cls-6" d="M20.35,24a2.88,2.88,0,0,1,1.18-.68,2.09,2.09,0,0,1,1.18-.06,8.7,8.7,0,0,0,1.18.51,2,2,0,0,0,1.18-.23,3.89,3.89,0,0,1,1.18-.4,3.87,3.87,0,0,1,3.55.85.13.13,0,0,1,0,.18l0,0a3.87,3.87,0,0,1-3.55.85,3.89,3.89,0,0,1-1.18-.4,2,2,0,0,0-1.18-.22,8.71,8.71,0,0,0-1.18.51,2.09,2.09,0,0,1-1.18-.06,2.88,2.88,0,0,1-1.18-.68.14.14,0,0,1,0-.2Z"/><path class="cls-7" d="M38,24.44a2.72,2.72,0,0,1,1.55-.27c.26.05.52.16.78.19a2.2,2.2,0,0,0,.78-.08,5.77,5.77,0,0,1,1.55-.19,4.29,4.29,0,0,1,1.55.36,0,0,0,0,1,0,.05l0,0a4.29,4.29,0,0,1-1.55.36,5.77,5.77,0,0,1-1.55-.19,2.2,2.2,0,0,0-.78-.08c-.26,0-.52.14-.78.19A2.72,2.72,0,0,1,38,24.51a0,0,0,0,1,0-.06Z"/><line class="cls-5" x1="20.35" y1="26.9" x2="36.27" y2="26.9"/><path class="cls-2" d="M20.35,26.87a17,17,0,0,1,4-.27c.66.05,1.33.16,2,.19a14.1,14.1,0,0,0,2-.08,29.1,29.1,0,0,1,8,.17,0,0,0,0,1,0,.08,29.1,29.1,0,0,1-8,.17,14.13,14.13,0,0,0-2-.08c-.66,0-1.33.14-2,.19a17,17,0,0,1-4-.27,0,0,0,0,1,0-.08Z"/><line class="cls-5" x1="20.35" y1="28.46" x2="34.13" y2="28.46"/><path class="cls-2" d="M20.35,28.42a12.69,12.69,0,0,1,3.45-.27c.57.05,1.15.16,1.72.19a10.61,10.61,0,0,0,1.72-.08,27.76,27.76,0,0,1,3.45-.19,19.67,19.67,0,0,1,3.45.36,0,0,0,0,1,0,.07,19.67,19.67,0,0,1-3.45.36,27.74,27.74,0,0,1-3.45-.19,10.6,10.6,0,0,0-1.72-.08c-.57,0-1.15.14-1.72.19a12.69,12.69,0,0,1-3.45-.27,0,0,0,0,1,0-.07Z"/><path class="cls-6" d="M20.35,32.32a2.47,2.47,0,0,1,1-.68,1.63,1.63,0,0,1,1-.06,7.21,7.21,0,0,0,1,.51,1.54,1.54,0,0,0,1-.22,3.15,3.15,0,0,1,1-.4,3.41,3.41,0,0,1,1-.12,3.59,3.59,0,0,1,2.08,1,.14.14,0,0,1,0,.19h0a3.59,3.59,0,0,1-2.08,1,3.4,3.4,0,0,1-1-.12,3.15,3.15,0,0,1-1-.4,1.54,1.54,0,0,0-1-.22,7.2,7.2,0,0,0-1,.51,1.63,1.63,0,0,1-1-.06,2.48,2.48,0,0,1-1-.68A.15.15,0,0,1,20.35,32.32Z"/><path class="cls-7" d="M36.27,32.77a4.33,4.33,0,0,1,2-.27c.33.05.66.16,1,.19a3.55,3.55,0,0,0,1-.08,9.3,9.3,0,0,1,2-.19,6.77,6.77,0,0,1,2,.36,0,0,0,0,1,0,.05l0,0a6.76,6.76,0,0,1-2,.36,9.3,9.3,0,0,1-2-.19,3.55,3.55,0,0,0-1-.08c-.33,0-.66.14-1,.19a4.33,4.33,0,0,1-2-.27,0,0,0,0,1,0-.05Z"/><line class="cls-5" x1="20.35" y1="35.24" x2="32.21" y2="35.24"/><path class="cls-2" d="M20.35,35.2a9.45,9.45,0,0,1,3-.27c.49.05,1,.16,1.48.19A7.87,7.87,0,0,0,26.28,35a20.59,20.59,0,0,1,3-.19,14.67,14.67,0,0,1,3,.36,0,0,0,0,1,0,.07,14.67,14.67,0,0,1-3,.36,20.61,20.61,0,0,1-3-.19,7.88,7.88,0,0,0-1.48-.08c-.49,0-1,.14-1.48.19a9.45,9.45,0,0,1-3-.27,0,0,0,0,1,0-.07Z"/><line class="cls-5" x1="20.35" y1="36.8" x2="37.99" y2="36.8"/><path class="cls-2" d="M20.35,36.76a20.86,20.86,0,0,1,4.41-.27c.74.05,1.47.16,2.21.19a17.36,17.36,0,0,0,2.21-.08,35.7,35.7,0,0,1,8.82.17,0,0,0,0,1,0,.08,35.7,35.7,0,0,1-8.82.17A17.3,17.3,0,0,0,27,36.92c-.74,0-1.47.14-2.21.19a20.86,20.86,0,0,1-4.41-.27,0,0,0,0,1,0-.08Z"/><path class="cls-6" d="M20.35,40.32a3.92,3.92,0,0,1,1.48-.68,3.25,3.25,0,0,1,1.48-.06,12.51,12.51,0,0,0,1.48.51,3,3,0,0,0,1.48-.23,5.76,5.76,0,0,1,1.48-.4,6.82,6.82,0,0,1,1.48-.12,6.28,6.28,0,0,1,3,1,.12.12,0,0,1,0,.16l0,0a6.28,6.28,0,0,1-3,1,6.82,6.82,0,0,1-1.48-.12,5.76,5.76,0,0,1-1.48-.4,3,3,0,0,0-1.48-.22,12.5,12.5,0,0,0-1.48.51,3.25,3.25,0,0,1-1.48-.06,3.92,3.92,0,0,1-1.48-.68.13.13,0,0,1,0-.18Z"/><path class="cls-7" d="M38.89,40.78a2,2,0,0,1,1.33-.27,6.36,6.36,0,0,0,.67.19,1.62,1.62,0,0,0,.66-.08,4.27,4.27,0,0,1,1.33-.19,3.24,3.24,0,0,1,1.33.36,0,0,0,0,1,0,.06l0,0a3.24,3.24,0,0,1-1.33.36A4.27,4.27,0,0,1,41.55,41a1.63,1.63,0,0,0-.66-.08,6.36,6.36,0,0,0-.67.19,2,2,0,0,1-1.33-.27,0,0,0,0,1,0-.06Z"/><line class="cls-5" x1="20.35" y1="43.24" x2="35.37" y2="43.24"/><path class="cls-2" d="M20.35,43.21a15.16,15.16,0,0,1,3.75-.27c.63.05,1.25.16,1.88.19A12.56,12.56,0,0,0,27.86,43a25.91,25.91,0,0,1,7.51.17,0,0,0,0,1,0,.08,25.9,25.9,0,0,1-7.51.17A12.58,12.58,0,0,0,26,43.37c-.63,0-1.25.14-1.88.19a15.16,15.16,0,0,1-3.75-.27,0,0,0,0,1,0-.08Z"/><line class="cls-5" x1="20.35" y1="44.8" x2="37.31" y2="44.8"/><path class="cls-2" d="M20.35,44.76a19.3,19.3,0,0,1,4.24-.27c.71.05,1.41.16,2.12.19a16,16,0,0,0,2.12-.08,33,33,0,0,1,8.48.17,0,0,0,0,1,0,.08,33,33,0,0,1-8.48.17,16,16,0,0,0-2.12-.08c-.71,0-1.41.14-2.12.19a19.29,19.29,0,0,1-4.24-.27,0,0,0,0,1,0-.08Z"/><path class="cls-6" d="M20.35,48a2.88,2.88,0,0,1,1.18-.68,2.09,2.09,0,0,1,1.18-.06,8.7,8.7,0,0,0,1.18.51,2,2,0,0,0,1.18-.23,3.89,3.89,0,0,1,1.18-.4,3.87,3.87,0,0,1,3.55.85.13.13,0,0,1,0,.18l0,0a3.87,3.87,0,0,1-3.55.85,3.89,3.89,0,0,1-1.18-.4,2,2,0,0,0-1.18-.23,8.71,8.71,0,0,0-1.18.51,2.09,2.09,0,0,1-1.18-.06,2.88,2.88,0,0,1-1.18-.68.14.14,0,0,1,0-.2Z"/><path class="cls-7" d="M38,48.68a2.72,2.72,0,0,1,1.55-.27c.26.05.52.16.78.19a2.2,2.2,0,0,0,.78-.08,5.77,5.77,0,0,1,1.55-.19,4.29,4.29,0,0,1,1.55.36,0,0,0,0,1,0,.05l0,0a4.29,4.29,0,0,1-1.55.36,5.77,5.77,0,0,1-1.55-.19,2.2,2.2,0,0,0-.78-.08c-.26,0-.52.14-.78.19A2.72,2.72,0,0,1,38,48.75a0,0,0,0,1,0-.06Z"/><line class="cls-5" x1="20.35" y1="50.95" x2="32.21" y2="50.95"/><path class="cls-2" d="M20.35,50.91a9.46,9.46,0,0,1,3-.27c.49.05,1,.16,1.48.19a7.86,7.86,0,0,0,1.48-.08,20.58,20.58,0,0,1,3-.19,14.68,14.68,0,0,1,3,.36,0,0,0,0,1,0,.07,14.66,14.66,0,0,1-3,.36,20.58,20.58,0,0,1-3-.19,7.87,7.87,0,0,0-1.48-.08c-.49,0-1,.14-1.48.19a9.45,9.45,0,0,1-3-.27,0,0,0,0,1,0-.07Z"/></g></g></g></svg>