<svg xmlns="http://www.w3.org/2000/svg" viewBox="0 0 1133 254.18"><title>Layer 1 (2)</title><g id="Layer_2" data-name="Layer 2"><g id="Layer_2-2" data-name="Layer 2"><g id="Layer_1-2" data-name="Layer 1"><polygon points="78.8 0 0 127.27 78.8 173.77 157.6 127.27 78.8 0"/><polygon points="0 144.77 78.8 254.18 157.6 144.77 78.8 190.08 0 144.77"/><path d="M220.15,155.79c2.07,23,19.78,39.79,43.23,39.79,16.1,0,32-8.05,40.94-15.64v14.72a73.84,73.84,0,0,1-41.63,13.11c-31.73,0-56.11-24.61-56.11-57.73,0-32.43,23.92-57.5,55.42-57.5s54.28,24.15,54.28,55a41.23,41.23,0,0,1-.69,8.28Zm-.23-11H303.4c-.23-24.38-18.63-40.48-41.4-40.48C238.78,104.27,221.3,122,219.92,144.75Z"/><path d="M348.71,205.47V106.34H326.17V94.84h23V66.09l12.65-3.68V94.84h23.23v11.5H361.82v99.13Z"/><path d="M418.63,114.16c6.21-13.11,17.94-21.62,35.19-21.62,26.22,0,42.78,18.86,42.78,45.08v67.85H483.72V139.92c0-20.24-12.19-34.5-32.66-34.5-20,0-32,13.57-32.43,33.12v66.93H405.52V46.77h13.11Z"/><path d="M535.93,155.79c2.07,23,19.78,39.79,43.24,39.79,16.1,0,32-8.05,40.94-15.64v14.72a73.84,73.84,0,0,1-41.63,13.11c-31.74,0-56.12-24.61-56.12-57.73,0-32.43,23.92-57.5,55.43-57.5s54.28,24.15,54.28,55a41.23,41.23,0,0,1-.69,8.28Zm-.23-11h83.49c-.23-24.38-18.63-40.48-41.4-40.48C554.56,104.27,537.08,122,535.7,144.75Z"/><path d="M670,111.4c5.05-11.27,15-18.86,29.67-18.86a46.45,46.45,0,0,1,9.88,1.15v14a34.5,34.5,0,0,0-12-2.3c-18.86,0-27.14,13.57-27.6,33.12v66.93H656.91V94.84H670Z"/><path d="M731.43,155.79c2.07,23,19.78,39.79,43.24,39.79,16.1,0,32-8.05,40.94-15.64v14.72A73.84,73.84,0,0,1,774,207.77c-31.74,0-56.12-24.61-56.12-57.73,0-32.43,23.92-57.5,55.43-57.5s54.28,24.15,54.28,55a41.14,41.14,0,0,1-.7,8.28Zm-.23-11h83.49c-.24-24.38-18.63-40.48-41.4-40.48C750.06,104.27,732.58,122,731.2,144.75Z"/><path d="M929.45,186.38c-6,12.88-17.71,21.39-35.19,21.39-26.22,0-42.78-18.86-42.78-45.08V94.84h13.11v65.55c0,20.24,12,34.5,32.43,34.5,19.78,0,31.74-13.34,32.43-32.89V94.84h13.11V205.47H929.45Z"/><path d="M990.63,111.17c6-11.73,16.79-18.63,31.74-18.63,17,0,31.05,8.74,36.57,24.38,5.06-15.41,17.25-24.38,34.5-24.38C1116,92.54,1133,108,1133,134.17v71.3h-13.11V136.7c0-20.47-12.19-31.28-29-31.28s-29.21,11-29.21,31.28v68.77h-13.11V136.7c0-20.47-12.19-31.28-28.75-31.28-16.79,0-28.75,10.35-29.21,29.67v70.38H977.52V94.84h13.11Z"/></g></g></g></svg>