<svg xmlns="http://www.w3.org/2000/svg" viewBox="0 0 64.57 65.43"><defs><style>.cls-1{fill:#f4f6f8;}.cls-2{fill:#1a1a35;}.cls-3{fill:#777a93;}.cls-4{fill:#f59c52;}.cls-5{fill:none;stroke:#f4f6f8;stroke-miterlimit:2.61;stroke-width:0.5px;}</style></defs><title>Asset 31icon-</title><g id="Layer_2" data-name="Layer 2"><g id="Icons"><g id="Bespoke"><path class="cls-1" d="M44.37,1.89c7.48,3,14.12,6.1,17.42,12.95,3.89,8,3.54,20.27-.09,29.44A33.79,33.79,0,0,1,48.42,60.43c-8.32,5.29-16.35,6.64-26,2.83C15.84,60.63,8.22,56,4.82,50.21c-5-8.45-6.56-14.81-2.57-24.88C6,15.79,12.92,3.82,22.84,1.48,29.88-.18,37.25-.93,44.37,1.89Z"/><path class="cls-2" d="M5.75,40.56c.63-.23,1.26-.43,1.9-.64a.18.18,0,0,1,.12.35h0c-.65.13-1.31.27-2,.38a.05.05,0,0,1,0-.1Z"/><path class="cls-2" d="M10.52,39c.64-.19,1.27-.4,1.92-.57a.38.38,0,1,1,.2.74h0c-.65.17-1.3.3-1.95.45a.32.32,0,0,1-.16-.62Z"/><path class="cls-2" d="M15.32,37.62c.64-.18,1.28-.37,1.93-.53a.45.45,0,0,1,.23.86c-.64.18-1.29.34-1.94.5a.43.43,0,0,1-.22-.83Z"/><path class="cls-2" d="M20.16,36.38l2-.44a.3.3,0,0,1,.16.59l-1.91.59a.38.38,0,0,1-.23-.73Z"/><path class="cls-2" d="M25,35.29,27,34.81a.15.15,0,0,1,.08.3l-1.92.55a.19.19,0,0,1-.11-.36Z"/><path class="cls-2" d="M29.88,34c.64-.17,1.28-.38,1.92-.57a.23.23,0,1,1,.13.45h0c-.65.15-1.3.29-1.95.46a.18.18,0,0,1-.09-.35Z"/><path class="cls-2" d="M34.67,32.58,36.59,32a.4.4,0,1,1,.23.77h0l-1.95.45a.34.34,0,0,1-.18-.66Z"/><path class="cls-2" d="M39.47,31.17l1.93-.54a.5.5,0,0,1,.27,1h0l-1.94.49a.47.47,0,0,1-.24-.9Z"/><path class="cls-2" d="M44.29,29.82l1.93-.52a.54.54,0,1,1,.28,1h0l-1.93.51a.53.53,0,0,1-.27-1Z"/><path class="cls-2" d="M49.13,28.57l1.95-.47a.45.45,0,0,1,.23.87l-1.92.56a.5.5,0,0,1-.28-1Z"/><path class="cls-2" d="M54,27.41l2-.43a.29.29,0,0,1,.15.56l-1.91.59a.37.37,0,1,1-.22-.72Z"/><path class="cls-2" d="M58.89,26.35l1.4-.28a.05.05,0,0,1,0,.1L59,26.63a.14.14,0,0,1-.09-.27Z"/><path class="cls-3" d="M8.93,33.56a5.58,5.58,0,0,0,5.29,1.2,5.36,5.36,0,0,0,3.63-3.1,4,4,0,0,0,.26-1.24l3.42-.53,3.48,4,4-1.15-2.81-3.52L38,27.34a.33.33,0,0,0,.24-.49l-.32-.59a4.29,4.29,0,0,0-.51-.73,3.37,3.37,0,0,0-2.22-1.31,3.45,3.45,0,0,0-.77,0l-.12,0L23.35,25.44l-2.28-2.78a3.92,3.92,0,0,0,.27-.38,4.23,4.23,0,0,0,.37-.74,5.39,5.39,0,0,0-.79-4.93,6.54,6.54,0,0,0-1.1-1.17,5.74,5.74,0,0,0-1.38-.84,4.92,4.92,0,0,0-2.6-.37,4.09,4.09,0,0,0-2.4,1.23,4,4,0,0,0-.83,1.33h0a5.37,5.37,0,0,0,.69,4.81h0l.16.23A6,6,0,0,0,15,23.29h0l.31.18a14.53,14.53,0,0,1,3.78,2.87A14.51,14.51,0,0,1,14.37,26L14,25.89h0a6,6,0,0,0-2.11.05l-.28.06h0a5.59,5.59,0,0,0-3.06,2,4.54,4.54,0,0,0-.65,1.15,4.09,4.09,0,0,0-.21,2.19A4.18,4.18,0,0,0,8.93,33.56Zm8.15-12.19a3.29,3.29,0,0,1-1.85-1.77,2.53,2.53,0,0,1-.13-1.83,1.38,1.38,0,0,1,.42-.58h0A1.77,1.77,0,0,1,17.27,17,3.3,3.3,0,0,1,19,18.59a2.59,2.59,0,0,1,.22,2A1.5,1.5,0,0,1,19,21,1.71,1.71,0,0,1,17.09,21.37Zm-6.68,8.7.05-.12a2.84,2.84,0,0,1,2.08-1.4h.09a3,3,0,0,1,2.13.45,1.47,1.47,0,0,1,.61,1.65l0,.09a2.68,2.68,0,0,1-1.9,1.47A3.06,3.06,0,0,1,11,31.83a1.68,1.68,0,0,1-.62-.74A1.39,1.39,0,0,1,10.4,30.07Z"/><path class="cls-2" d="M9,33.54A5.68,5.68,0,0,0,16.89,33,4.22,4.22,0,0,0,18,30.41V30.3l.11,0,3.42-.58.1,0,.07.08,3.51,3.94L25,33.63c1.33-.4,2.68-.76,4-1.14l-.1.32L26.1,29.27,25.91,29l.3,0,7.06-1,3.53-.52.88-.13c.15,0,.31,0,.38-.09a.25.25,0,0,0,.06-.3,7.45,7.45,0,0,0-1-1.48,3.48,3.48,0,0,0-1.42-1,1.85,1.85,0,0,0-.85-.11c-.29,0-.58,0-.88.08l-3.55.39-7.1.8h-.09l-.06-.07-2.3-2.76-.1-.12.1-.13a4.13,4.13,0,0,0,.49-.86,3,3,0,0,0,.3-.94,5,5,0,0,0-.07-2,5.78,5.78,0,0,0-2.17-3.28,4.91,4.91,0,0,0-3.74-1,3.81,3.81,0,0,0-2.88,2.38h0v0a5.13,5.13,0,0,0,.66,4.57v0l0,0,0,0a5.89,5.89,0,0,0,.74.89,5.71,5.71,0,0,0,.9.72l0,0c.1,0,.33.19.51.29l.56.34q.55.35,1.07.73a12.06,12.06,0,0,1,1.94,1.74l.26.3-.39,0a14.55,14.55,0,0,1-4.38-.35,6,6,0,0,0-4.18.29,4.86,4.86,0,0,0-2.76,3.11A4,4,0,0,0,9,33.54Zm0,0a4.09,4.09,0,0,1-1.2-4,5.12,5.12,0,0,1,2.77-3.25,6.23,6.23,0,0,1,4.32-.41,14.22,14.22,0,0,0,4.27.25l-.13.33A11.63,11.63,0,0,0,17,24.85c-.34-.24-.7-.47-1.06-.69l-.55-.32c-.19-.11-.33-.18-.6-.36l0,0a6.21,6.21,0,0,1-1-.78,6.43,6.43,0,0,1-.8-1l0,0,0-.05v0a5.64,5.64,0,0,1-.72-5h0v0A4.28,4.28,0,0,1,15.64,14a5.41,5.41,0,0,1,4.12,1.08,6.25,6.25,0,0,1,2.32,3.56,5.27,5.27,0,0,1,.05,2.16,3.45,3.45,0,0,1-.34,1,4.53,4.53,0,0,1-.56.94v-.25l2.25,2.8-.15-.06,7.1-.7L34,24.22a4,4,0,0,1,1.81.06,3.64,3.64,0,0,1,1.48,1,8.36,8.36,0,0,1,1,1.5.42.42,0,0,1-.09.51,1,1,0,0,1-.47.14l-.88.14-3.52.57-7,1.15.11-.28,2.83,3.51.19.24-.3.09c-1.34.39-2.67.8-4,1.17l-.14,0-.09-.1L21.4,30l.16.06-3.43.49.11-.13A4.46,4.46,0,0,1,17,33.15a5.75,5.75,0,0,1-2.53,1.57A5.69,5.69,0,0,1,8.92,33.58Z"/><path class="cls-2" d="M17.08,21.39a3.56,3.56,0,0,1-2-1.69,2.44,2.44,0,0,1-.23-1.37,1.71,1.71,0,0,1,.67-1.22h0A2.22,2.22,0,0,1,17.68,17a3.36,3.36,0,0,1,1.63,1.63,2.86,2.86,0,0,1,.28,1.16A1.72,1.72,0,0,1,19.23,21a1.37,1.37,0,0,1-1,.57A2.75,2.75,0,0,1,17.08,21.39Zm0,0a1.4,1.4,0,0,0,1.78-.59,2.21,2.21,0,0,0,0-1.89,3.4,3.4,0,0,0-1.31-1.55,1.66,1.66,0,0,0-2-.07h0a1.39,1.39,0,0,0-.38,1.09,3.71,3.71,0,0,0,.27,1.17A3,3,0,0,0,17.09,21.34Z"/><path class="cls-2" d="M10.38,30.06a2.85,2.85,0,0,1,4.6-1,1.65,1.65,0,0,1,.48,1.71,2.41,2.41,0,0,1-1.23,1.38,3.44,3.44,0,0,1-1.82.4,2.51,2.51,0,0,1-1.71-.76A1.63,1.63,0,0,1,10.38,30.06Zm0,0a1.23,1.23,0,0,0,.5,1.46,3,3,0,0,0,1.52.47,2.94,2.94,0,0,0,2.77-1.34,1.24,1.24,0,0,0-.34-1.49,2.38,2.38,0,0,0-1.57-.47,5,5,0,0,0-1.62.28A2,2,0,0,0,10.43,30.08Z"/><g id="Ruler"><polygon class="cls-4" points="52.84 17.73 18.53 52.05 52.84 52.05 52.84 17.73"/><path class="cls-2" d="M52.83,17.75,35.73,35.1l-17.14,17L18.53,52l34.32-.18-.26.26c0-5.68,0-11.33.1-17Zm0,0L53,34.78c.08,5.73.09,11.51.1,17.27v.27h-.26l-34.32-.18h-.2l.14-.14L35.64,34.67Z"/><polygon class="cls-1" points="48.4 30.89 32.05 47.24 48.4 47.24 48.4 30.89"/><path class="cls-2" d="M48.39,30.91l-8.12,8.37c-2.66,2.71-5.45,5.26-8.16,8L32,47.15,40.22,47C42.95,47,45.67,47,48.4,47l-.26.26c0-2.69,0-5.35.1-8.06Zm0,0L48.56,39c.08,2.73.09,5.52.1,8.29v.27H48.4c-2.72,0-5.45,0-8.17-.07L32,47.32h-.2l.14-.14c2.75-2.7,5.4-5.6,8.19-8.33Z"/></g><g id="Rules"><line class="cls-5" x1="50.17" y1="21.13" x2="51.31" y2="22.26"/><line class="cls-5" x1="48.65" y1="22.65" x2="49.78" y2="23.79"/><line class="cls-5" x1="47.29" y1="24.01" x2="48.42" y2="25.15"/><line class="cls-5" x1="45.87" y1="25.43" x2="47" y2="26.57"/><line class="cls-5" x1="44.34" y1="26.95" x2="45.48" y2="28.09"/><line class="cls-5" x1="42.8" y1="28.49" x2="43.94" y2="29.63"/><line class="cls-5" x1="41.38" y1="29.91" x2="42.52" y2="31.05"/><line class="cls-5" x1="39.86" y1="31.44" x2="41" y2="32.57"/><line class="cls-5" x1="38.5" y1="32.8" x2="39.64" y2="33.93"/><line class="cls-5" x1="37.08" y1="34.22" x2="38.22" y2="35.35"/><line class="cls-5" x1="35.56" y1="35.74" x2="36.69" y2="36.88"/><line class="cls-5" x1="33.97" y1="37.33" x2="35.11" y2="38.46"/><line class="cls-5" x1="32.55" y1="38.75" x2="33.69" y2="39.88"/><line class="cls-5" x1="31.03" y1="40.27" x2="32.16" y2="41.41"/><line class="cls-5" x1="29.67" y1="41.63" x2="30.8" y2="42.77"/><line class="cls-5" x1="28.25" y1="43.05" x2="29.38" y2="44.19"/><line class="cls-5" x1="26.72" y1="44.57" x2="27.86" y2="45.71"/><line class="cls-5" x1="25.14" y1="46.15" x2="26.28" y2="47.29"/><line class="cls-5" x1="23.78" y1="47.51" x2="24.92" y2="48.65"/><line class="cls-5" x1="22.36" y1="48.93" x2="23.5" y2="50.07"/></g></g></g></g></svg>