<svg xmlns="http://www.w3.org/2000/svg" viewBox="0 0 62.56 61.02"><defs><style>.cls-1{fill:#f4f6f8;}.cls-2{fill:#777a93;}.cls-3{fill:#1a1a35;}.cls-4{fill:#0f79b3;}.cls-5{fill:#80bc43;}.cls-6{fill:#f25757;}</style></defs><title>Asset 48icon-</title><g id="Layer_2" data-name="Layer 2"><g id="Icons"><g id="Monitoring"><path class="cls-1" d="M32.37,60.91c8-.7,18.12-4.56,23.25-10.17,6-6.6,7.59-13,6.73-22.82-.65-7.45-3.4-11.42-7.89-16.59C48,3.89,40.63-.79,30.33.11c-7.1.62-13.7,5-18.62,9.55C4.53,16.33-.83,19.88.11,30.66,1,40.88,2.93,50.5,11.77,55.58,18,59.19,24.73,61.58,32.37,60.91Z"/><line class="cls-2" x1="12.38" y1="25.17" x2="18.07" y2="23.73"/><path class="cls-3" d="M12.37,25.13a2.44,2.44,0,0,1,1.35-.63c.25,0,.51,0,.76,0a2,2,0,0,0,.69-.26,5.15,5.15,0,0,1,1.37-.55,3.86,3.86,0,0,1,1.51,0l0,.07a3.86,3.86,0,0,1-1.33.71,5.15,5.15,0,0,1-1.47.17,2,2,0,0,0-.73.1c-.23.09-.44.25-.66.36a2.44,2.44,0,0,1-1.49.09Z"/><line class="cls-2" x1="22.32" y1="22.42" x2="27.95" y2="20.79"/><path class="cls-3" d="M22.31,22.38a2.44,2.44,0,0,1,1.33-.67,7.51,7.51,0,0,0,.76,0,2,2,0,0,0,.68-.28,5.14,5.14,0,0,1,1.35-.59,3.84,3.84,0,0,1,1.51-.06l0,.07a3.85,3.85,0,0,1-1.31.75,5.13,5.13,0,0,1-1.46.22,2,2,0,0,0-.73.12,7.54,7.54,0,0,0-.65.39,2.44,2.44,0,0,1-1.48.14Z"/><line class="cls-2" x1="32.2" y1="20.79" x2="37.76" y2="22.42"/><path class="cls-3" d="M32.21,20.75a2.39,2.39,0,0,1,1.47.14,7.43,7.43,0,0,0,.64.39,1.92,1.92,0,0,0,.72.12,5,5,0,0,1,1.45.22,3.78,3.78,0,0,1,1.29.75l0,.07a3.78,3.78,0,0,1-1.49-.06,5,5,0,0,1-1.34-.59,1.92,1.92,0,0,0-.67-.28,7.4,7.4,0,0,0-.75,0,2.39,2.39,0,0,1-1.31-.67Z"/><line class="cls-2" x1="41.51" y1="21.6" x2="47.76" y2="17.42"/><path class="cls-3" d="M41.49,21.57A3.91,3.91,0,0,1,42.9,20.3c.29-.13.61-.21.89-.37a3.19,3.19,0,0,0,.73-.59A8.38,8.38,0,0,1,46,18.13a6.11,6.11,0,0,1,1.76-.75l0,.06a6.12,6.12,0,0,1-1.36,1.35,8.38,8.38,0,0,1-1.67.89,3.19,3.19,0,0,0-.83.45c-.25.2-.44.46-.68.68a3.91,3.91,0,0,1-1.72.82Z"/><path class="cls-4" d="M10.48,22.88a2.91,2.91,0,1,0,2.91,2.91A2.91,2.91,0,0,0,10.48,22.88Zm0,4.33a1.41,1.41,0,1,1,1.41-1.41A1.41,1.41,0,0,1,10.48,27.2Z"/><path class="cls-3" d="M10.48,22.89a2.74,2.74,0,0,0-2,.89,3.05,3.05,0,0,0-.8,2,2.72,2.72,0,0,0,2.81,2.84,2.85,2.85,0,0,0,2.78-2.84,3,3,0,0,0-.78-2A2.77,2.77,0,0,0,10.48,22.89Zm0,0a3.08,3.08,0,0,1,2.11.81,2.88,2.88,0,0,1,.93,2.11,3,3,0,0,1-3,3,3.1,3.1,0,0,1-3-3,2.82,2.82,0,0,1,.9-2.11A3.11,3.11,0,0,1,10.48,22.86Z"/><path class="cls-3" d="M10.48,27.21a1.62,1.62,0,0,1-1.06-.37A1.33,1.33,0,0,1,9,25.79a1.62,1.62,0,0,1,1.52-1.48A1.48,1.48,0,0,1,12,25.79a1.38,1.38,0,0,1-.48,1.06A1.62,1.62,0,0,1,10.48,27.21Zm0,0a1.38,1.38,0,0,0,0-2.75,1.23,1.23,0,0,0-1,.38,1.29,1.29,0,0,0-.34,1A1.41,1.41,0,0,0,10.48,27.19Z"/><path class="cls-4" d="M20.3,20.07A2.91,2.91,0,1,0,23.21,23,2.91,2.91,0,0,0,20.3,20.07Zm0,4.33A1.41,1.41,0,1,1,21.72,23,1.41,1.41,0,0,1,20.3,24.4Z"/><path class="cls-3" d="M20.3,20.08a2.74,2.74,0,0,0-2,.89,3.05,3.05,0,0,0-.8,2,2.72,2.72,0,0,0,2.81,2.84A2.85,2.85,0,0,0,23.08,23a3,3,0,0,0-.78-2A2.77,2.77,0,0,0,20.3,20.08Zm0,0a3.08,3.08,0,0,1,2.11.81A2.88,2.88,0,0,1,23.34,23a3,3,0,0,1-3,3,3.1,3.1,0,0,1-3-3,2.82,2.82,0,0,1,.9-2.11A3.11,3.11,0,0,1,20.3,20.06Z"/><path class="cls-3" d="M20.3,24.41A1.62,1.62,0,0,1,19.25,24,1.33,1.33,0,0,1,18.78,23,1.62,1.62,0,0,1,20.3,21.5,1.48,1.48,0,0,1,21.85,23,1.38,1.38,0,0,1,21.36,24,1.62,1.62,0,0,1,20.3,24.41Zm0,0a1.38,1.38,0,0,0,0-2.75,1.23,1.23,0,0,0-1,.38A1.29,1.29,0,0,0,19,23,1.41,1.41,0,0,0,20.3,24.38Z"/><path class="cls-4" d="M30.12,17.06A2.91,2.91,0,1,0,33,20,2.91,2.91,0,0,0,30.12,17.06Zm0,4.33A1.41,1.41,0,1,1,31.54,20,1.41,1.41,0,0,1,30.12,21.38Z"/><path class="cls-3" d="M30.12,17.07a2.74,2.74,0,0,0-2,.89,3.05,3.05,0,0,0-.8,2,2.72,2.72,0,0,0,2.81,2.84A2.85,2.85,0,0,0,32.9,20a3,3,0,0,0-.78-2A2.77,2.77,0,0,0,30.12,17.07Zm0,0a3.08,3.08,0,0,1,2.11.81A2.88,2.88,0,0,1,33.16,20a3,3,0,0,1-3,3,3.1,3.1,0,0,1-3-3,2.82,2.82,0,0,1,.9-2.11A3.11,3.11,0,0,1,30.12,17Z"/><path class="cls-3" d="M30.12,21.39A1.62,1.62,0,0,1,29.07,21,1.33,1.33,0,0,1,28.6,20a1.62,1.62,0,0,1,1.52-1.48A1.48,1.48,0,0,1,31.67,20,1.38,1.38,0,0,1,31.18,21,1.62,1.62,0,0,1,30.12,21.39Zm0,0a1.38,1.38,0,0,0,0-2.75,1.23,1.23,0,0,0-1,.38,1.29,1.29,0,0,0-.34,1A1.41,1.41,0,0,0,30.12,21.37Z"/><path class="cls-4" d="M39.94,20.06A2.91,2.91,0,1,0,42.85,23,2.91,2.91,0,0,0,39.94,20.06Zm0,4.33A1.41,1.41,0,1,1,41.36,23,1.41,1.41,0,0,1,39.94,24.38Z"/><path class="cls-3" d="M39.94,20.07a2.74,2.74,0,0,0-2,.89,3,3,0,0,0-.8,2,2.72,2.72,0,0,0,2.81,2.84A2.85,2.85,0,0,0,42.72,23a3,3,0,0,0-.78-2A2.77,2.77,0,0,0,39.94,20.07Zm0,0a3.08,3.08,0,0,1,2.11.81A2.88,2.88,0,0,1,43,23a3,3,0,0,1-3,3,3.1,3.1,0,0,1-3-3,2.82,2.82,0,0,1,.9-2.11A3.11,3.11,0,0,1,39.94,20Z"/><path class="cls-3" d="M39.94,24.39A1.62,1.62,0,0,1,38.89,24,1.33,1.33,0,0,1,38.42,23a1.62,1.62,0,0,1,1.52-1.48A1.48,1.48,0,0,1,41.49,23,1.38,1.38,0,0,1,41,24,1.62,1.62,0,0,1,39.94,24.39Zm0,0a1.38,1.38,0,0,0,0-2.75A1.23,1.23,0,0,0,39,22a1.29,1.29,0,0,0-.34,1A1.41,1.41,0,0,0,39.94,24.37Z"/><path class="cls-4" d="M49.76,13.06A2.91,2.91,0,1,0,52.67,16,2.91,2.91,0,0,0,49.76,13.06Zm0,4.33A1.41,1.41,0,1,1,51.18,16,1.41,1.41,0,0,1,49.76,17.38Z"/><path class="cls-3" d="M49.76,13.07a2.74,2.74,0,0,0-2,.89,3.05,3.05,0,0,0-.8,2,2.72,2.72,0,0,0,2.81,2.84A2.85,2.85,0,0,0,52.55,16a3,3,0,0,0-.78-2A2.77,2.77,0,0,0,49.76,13.07Zm0,0a3.08,3.08,0,0,1,2.11.81A2.88,2.88,0,0,1,52.8,16a3,3,0,0,1-3,3,3.1,3.1,0,0,1-3-3,2.82,2.82,0,0,1,.9-2.11A3.11,3.11,0,0,1,49.76,13Z"/><path class="cls-3" d="M49.76,17.39A1.62,1.62,0,0,1,48.71,17,1.33,1.33,0,0,1,48.25,16a1.62,1.62,0,0,1,1.52-1.48A1.48,1.48,0,0,1,51.31,16,1.38,1.38,0,0,1,50.82,17,1.62,1.62,0,0,1,49.76,17.39Zm0,0a1.38,1.38,0,0,0,0-2.75,1.23,1.23,0,0,0-1,.38,1.29,1.29,0,0,0-.34,1A1.41,1.41,0,0,0,49.76,17.37Z"/><polygon class="cls-5" points="7.57 30.81 7.57 47.35 52.39 47.35 52.39 20.26 41.18 28.95 29.98 25.16 18.77 28.95 7.57 30.81"/><path class="cls-3" d="M7.6,30.83l.15,8.31.1,8.2-.28-.28C15,47,22.51,47,30,47.09l11.2.12c3.73,0,7.47,0,11.2,0l-.14.14L52,20.26l.59.29Q47,24.93,41.42,29.26l-.17.13-.2-.07c-3.73-1.27-7.47-2.54-11.19-3.85h.21L18.84,29.16h0C15.12,29.75,11.39,30.27,7.6,30.83Zm-.06,0c3.68-.67,7.42-1.39,11.2-2h0l11.17-3.91.1,0,.11,0c3.75,1.22,7.49,2.49,11.22,3.75l-.36.06Q46.53,24.28,52.17,20l.59-.45v.74l-.23,27.09v.14h-.14c-3.73,0-7.47,0-11.2,0L30,47.61c-7.47.12-14.94.07-22.41,0H7.28v-.28L7.39,39Z"/><polygon class="cls-6" points="37.05 27.63 41.18 28.77 44.5 26.35 44.5 47.24 37.05 47.24 37.05 27.63"/><path class="cls-3" d="M37,27.61c1.35.34,2.76.64,4.19,1l-.12,0q1.63-1.24,3.29-2.46L44.7,26v.4c0,1.74,0,3.48,0,5.22l-.1,5.22c0,1.74-.05,3.48,0,5.22l.06,5.22v.15H44.5c-2.48,0-5,.08-7.45.09h-.24v-.25c0-1.65,0-3.31,0-5s0-3.31.05-4.95Zm0,0,.19,9.89c0,1.63,0,3.24.05,4.86s0,3.23,0,4.85L37.05,47c2.48,0,5,.05,7.45.09l-.15.15L44.41,42c0-1.74,0-3.48,0-5.22l-.1-5.22c0-1.74,0-3.48,0-5.22l.32.16q-1.66,1.2-3.35,2.37l-.06,0-.06,0C39.82,28.52,38.47,28.07,37.07,27.65Z"/><polygon class="cls-6" points="16.51 29.33 17.66 29.39 18.77 28.95 18.82 47.24 16.51 47.24 16.51 29.33"/><path class="cls-3" d="M16.5,29.31c.35,0,.75-.07,1.18-.07h-.06c.36-.17.72-.34,1.09-.48l.27-.11V29c0,1.52,0,3,0,4.57l-.09,4.57c-.06,3,0,6.1.06,9.14v.15h-.16c-.77,0-1.53.08-2.3.09h-.24v-.25c0-1.51,0-3,0-4.53l0-4.52C16.35,35.19,16.42,32.22,16.5,29.31Zm0,0,.2,9,0,4.44c0,1.48,0,3,0,4.43L16.51,47c.77,0,1.53.05,2.3.09l-.15.15c.06-3,.09-6.1,0-9.14l-.11-4.57c0-1.52,0-3,0-4.57l.28.19c-.37.14-.75.26-1.13.38h-.06C17.31,29.5,16.95,29.4,16.53,29.35Z"/></g></g></g></svg>