<svg xmlns="http://www.w3.org/2000/svg" viewBox="0 0 67.41 65.44"><defs><style>.cls-1{fill:#f4f6f8;}.cls-2{fill:#f59c52;}.cls-3{fill:#1a1a35;}.cls-4{fill:#0f79b3;}.cls-5{fill:#eaf2e3;}.cls-6{fill:#010101;}</style></defs><title>Asset 38icon-</title><g id="Layer_2" data-name="Layer 2"><g id="Icons"><g id="Accessibility"><path class="cls-1" d="M59.12,52.93c4.88-6.4,7.44-15,8.25-20.08S59,14.7,52.09,7.68c-2.88-2.92-5.54-3-19.7-7C22.91-2,15,3.44,8.69,11.66,4.37,17.32,1.75,23.65.3,31.94S2.63,47.63,10.93,54.58c7.51,6.29,13.52,13.61,29.95,9.82A31.54,31.54,0,0,0,59.12,52.93Z"/><path class="cls-2" d="M19.18,30.54S8,34.7,5.9,35.8s-2.42,5-.35,6.11S22.26,50,22.26,50A11.88,11.88,0,0,1,19,45.26s-10.75-4.56-11.5-5a1.66,1.66,0,0,1,0-2.61c.93-.56,10.45-3.37,10.45-3.37A9.86,9.86,0,0,1,19.18,30.54Z"/><path class="cls-3" d="M19.16,30.55c-3,1.27-6.18,2.5-9.25,3.75l-2.31,1a8.22,8.22,0,0,0-2.13,1.13,3.94,3.94,0,0,0-.74,4.38,2.14,2.14,0,0,0,.74.87,11.21,11.21,0,0,0,1.09.58l2.24,1.12,4.49,2.21,9,4.29-.16.22a20,20,0,0,1-2-2.15,9.8,9.8,0,0,1-1.43-2.57h0l.12.13c-2-.86-4.09-1.72-6.12-2.61L9.71,41.54l-1.53-.66-.76-.33a1.36,1.36,0,0,1-.66-.7,2.11,2.11,0,0,1,0-1.83,1.38,1.38,0,0,1,.72-.64c.27-.12.53-.21.8-.3,1.05-.36,2.11-.69,3.17-1,2.12-.64,4.24-1.26,6.37-1.86l-.08.09a10.37,10.37,0,0,1,.51-2,9.62,9.62,0,0,1,.4-.93A5.54,5.54,0,0,1,19.16,30.55Zm0,0c-.16.34-.31.61-.44.92a9.56,9.56,0,0,0-.35.93A10.45,10.45,0,0,0,18,34.33v.07l-.07,0c-2.11.66-4.22,1.32-6.32,2-1,.35-2.1.7-3.13,1.08-.51.22-1.06.34-1.24.74a1.62,1.62,0,0,0,0,1.38.85.85,0,0,0,.45.47l.76.33,1.52.65,3,1.31c2,.86,4,1.76,6.07,2.66l.09,0,0,.09h0a9.4,9.4,0,0,0,1.28,2.52,15.94,15.94,0,0,0,1.89,2.15l-.16.22-9-4.4L8.68,43.55,6.41,42.49a11,11,0,0,1-1.14-.56,2.51,2.51,0,0,1-.89-1A4.1,4.1,0,0,1,4,38.39a4,4,0,0,1,1.16-2.32,8.42,8.42,0,0,1,2.27-1.19l2.33-.94C12.89,32.74,16,31.59,19.2,30.52Z"/><path class="cls-2" d="M47.39,30.31s11,4.6,13.06,5.78,2.22,5.09.11,6.12-17,7.39-17,7.39A11.88,11.88,0,0,0,47,45s10.92-4.13,11.69-4.51a1.66,1.66,0,0,0,.15-2.61c-.91-.59-10.31-3.78-10.31-3.78A9.86,9.86,0,0,0,47.39,30.31Z"/><path class="cls-3" d="M47.37,30.29c3.17,1.2,6.22,2.46,9.29,3.79l2.29,1a8.42,8.42,0,0,1,2.23,1.27,4,4,0,0,1,1.07,2.37,4.1,4.1,0,0,1-.48,2.54,2.51,2.51,0,0,1-.93.95,11,11,0,0,1-1.16.52l-2.31,1-4.61,2-9.16,4-.15-.23a16,16,0,0,0,2-2.08A9.4,9.4,0,0,0,46.81,45h0l0-.09.09,0C49,44,51,43.19,53.11,42.4l3.09-1.19,1.55-.59.77-.3a.85.85,0,0,0,.47-.45A1.62,1.62,0,0,0,59,38.49c-.16-.41-.71-.56-1.21-.79-1-.42-2-.81-3.08-1.2q-3.11-1.16-6.24-2.26l-.07,0v-.07a10.45,10.45,0,0,0-.33-2,9.52,9.52,0,0,0-.31-.95C47.66,30.91,47.52,30.64,47.37,30.29Zm0,0a5.55,5.55,0,0,1,.46.87,9.64,9.64,0,0,1,.36.94,10.36,10.36,0,0,1,.43,2l-.08-.1c2.1.69,4.2,1.39,6.3,2.11,1,.36,2.09.73,3.13,1.13.26.1.51.2.78.33a1.37,1.37,0,0,1,.69.67,2.11,2.11,0,0,1-.05,1.83,1.36,1.36,0,0,1-.69.68l-.78.3-1.55.6-3.1,1.2c-2.06.81-4.14,1.59-6.22,2.36l.13-.13h0a9.8,9.8,0,0,1-1.53,2.51,20,20,0,0,1-2.06,2.07l-.15-.23,9.2-3.93,4.57-2,2.28-1a11.22,11.22,0,0,0,1.11-.53,2.14,2.14,0,0,0,.78-.84,3.94,3.94,0,0,0-.57-4.4,8.21,8.21,0,0,0-2.09-1.21l-2.27-1C53.48,33.06,50.4,31.71,47.41,30.32Z"/><path class="cls-2" d="M38,39.33a5.63,5.63,0,1,1-11-2.51c.09-.36,2.22.72,2.38.4.08-.16-1.85-1.74-1.76-1.89a5.63,5.63,0,0,1,3.78-2.65c.34-.06.81,4.09,1.73,5.53S38.06,39,38,39.33Z"/><path class="cls-3" d="M38,39.34a6,6,0,0,1-2.73,3.92,5.5,5.5,0,0,1-4.83.41,5.83,5.83,0,0,1-3.33-3.49,6.33,6.33,0,0,1-.34-2.42,5.75,5.75,0,0,1,.07-.61l.06-.3s.08-.2.15-.18a.5.5,0,0,1,.19,0,8,8,0,0,1,1.2.31c.19.06.38.11.57.15a.81.81,0,0,0,.24,0s0,0,0,.08,0,0,0,0l0,0c-.25-.28-.57-.55-.86-.82l-.45-.41-.22-.22-.11-.13-.06-.09,0-.05a.32.32,0,0,1,0-.21,5.19,5.19,0,0,1,.75-1,5.89,5.89,0,0,1,2.05-1.45,5.21,5.21,0,0,1,.6-.21l.31-.08.15,0,.09,0a.34.34,0,0,1,.3.13,2.14,2.14,0,0,1,.26.66l.14.6.53,2.35a6.19,6.19,0,0,0,.83,2.15,3.76,3.76,0,0,0,2.16.77c.4.05.8.06,1.21.07l.61,0,.3,0C37.82,39.23,38,39.18,38,39.34Zm0,0c-.08-.1-.36-.08-.54-.09h-.61l-1.22,0a4,4,0,0,1-2.38-.67,5.69,5.69,0,0,1-1.06-2.27c-.23-.78-.39-1.58-.58-2.36l-.14-.58a2.43,2.43,0,0,0-.16-.47s0,.06.17.06H31.4l-.14,0-.28.07c-.18.05-.37.11-.55.19a5.39,5.39,0,0,0-1.9,1.29,5.56,5.56,0,0,0-.69.9.14.14,0,0,0,0-.14h0l0,0,.09.1.2.21.42.43c.29.29.58.55.86.89l.05.08s0,0,.06.15a.24.24,0,0,1-.24.25,1,1,0,0,1-.36,0c-.21-.05-.4-.12-.59-.18a8,8,0,0,0-1.13-.35h-.11s0,0,0,0,0,0,0,0l-.07.29a5.58,5.58,0,0,0-.08.59,5.32,5.32,0,0,0,3.64,5.5A5.81,5.81,0,0,0,35.12,43,5.29,5.29,0,0,0,38,39.33Z"/><path class="cls-4" d="M45.51,39.36a1.6,1.6,0,0,0-1.31.21,1.75,1.75,0,0,0-.75,1.07,6.26,6.26,0,0,1-.39,1.24,9.68,9.68,0,0,1-1.56,2.74,11,11,0,0,1-2.31,2.14,10.79,10.79,0,0,1-6.1,1.88A10.46,10.46,0,0,1,29,47.84a11,11,0,0,1-3.36-2.18,10.19,10.19,0,0,1-2.27-3.23A9.91,9.91,0,0,1,23,35.35a10.33,10.33,0,0,1,1.39-2.74,10.55,10.55,0,0,1,2.14-2.23,11,11,0,0,1,2.78-1.56,1.62,1.62,0,0,0,1-2.14,1.62,1.62,0,0,0-.92-.92,1.91,1.91,0,0,0-1.35-.06,14.52,14.52,0,0,0-3.68,2.06,14.06,14.06,0,0,0-2.87,3,13.24,13.24,0,0,0-1.84,3.64A13,13,0,0,0,19,38.42a12.69,12.69,0,0,0,1.11,5.29,13.87,13.87,0,0,0,3,4.3,14.33,14.33,0,0,0,4.45,2.91A14,14,0,0,0,33.1,52a14.27,14.27,0,0,0,4.28-.64,14.65,14.65,0,0,0,3.81-1.82,13.58,13.58,0,0,0,3.08-2.85A13,13,0,0,0,46.33,43a10.94,10.94,0,0,0,.51-1.63,1.54,1.54,0,0,0-.21-1.28A1.8,1.8,0,0,0,45.51,39.36Zm10.79,6.55L49.75,34.52a2.69,2.69,0,0,0-1-1.16,2.85,2.85,0,0,0-1.54-.43H39.9L39,28.74h5.7a2,2,0,0,0,1-.17,1.54,1.54,0,0,0,.73-.69,1.68,1.68,0,0,0-.69-2.31,1.42,1.42,0,0,0-.77-.21H38.32l-.39-2a.17.17,0,0,0,0-.11.17.17,0,0,1,0-.11l0-.13a3.18,3.18,0,0,0-1.13-1.63,3.11,3.11,0,0,0-1.95-.64,3.18,3.18,0,0,0-2.31.92,3,3,0,0,0-.94,2.21,1.12,1.12,0,0,0,0,.34h0l2.36,11.35a2.56,2.56,0,0,0,.94,1.61,2.78,2.78,0,0,0,1.8.62,2,2,0,0,0,.47,0H46.8l5.65,9.85a2.14,2.14,0,0,0,.77.9,2.11,2.11,0,0,0,1.2.34,2.05,2.05,0,0,0,1.48-.6,2,2,0,0,0,.62-1.46A2,2,0,0,0,56.31,45.91Z"/><path class="cls-3" d="M45.51,39.39a1.59,1.59,0,0,0-1.55.44,3.58,3.58,0,0,0-.67,1.55,9.67,9.67,0,0,1-1.55,3.1,11,11,0,0,1-5.65,4,10.83,10.83,0,0,1-12.38-4.7,10.09,10.09,0,0,1-1.3-6.84,10.7,10.7,0,0,1,3.34-6A11.26,11.26,0,0,1,28.67,29c.53-.26,1.13-.36,1.4-.84a1.48,1.48,0,0,0,.11-1.52,1.63,1.63,0,0,0-1.27-.86,2.8,2.8,0,0,0-1.57.42,14.21,14.21,0,0,0-2.9,1.8,13.46,13.46,0,0,0-4.07,5.36A13.14,13.14,0,0,0,19.49,40a13.49,13.49,0,0,0,7.72,10.35,14.47,14.47,0,0,0,13-.47,13.37,13.37,0,0,0,4.94-4.62,12.15,12.15,0,0,0,1.39-3.14c.08-.27.19-.55.25-.82a1.52,1.52,0,0,0-.06-.82A1.71,1.71,0,0,0,45.51,39.39Zm0-.07a1.8,1.8,0,0,1,1.32,1.07,1.63,1.63,0,0,1,.07.88c-.06.29-.16.56-.24.84a13.7,13.7,0,0,1-1.33,3.21,13.86,13.86,0,0,1-4.87,4.95,14.48,14.48,0,0,1-13.6.74,14,14,0,0,1-8.09-11,13.32,13.32,0,0,1,1.06-6.93,14,14,0,0,1,4.34-5.46,14.58,14.58,0,0,1,3-1.77l.82-.33a2.08,2.08,0,0,1,.92-.08,1.9,1.9,0,0,1,1.47,1,1.74,1.74,0,0,1-.14,1.77,1.64,1.64,0,0,1-.71.59c-.29.11-.53.2-.8.32a10.34,10.34,0,0,0-2.84,1.89A9.92,9.92,0,0,0,22.83,37a9.65,9.65,0,0,0,1.41,6.45,10.54,10.54,0,0,0,5.1,4.19A10.78,10.78,0,0,0,36,48a10.62,10.62,0,0,0,5.62-3.65,8.77,8.77,0,0,0,1.59-3,3.67,3.67,0,0,1,.71-1.58A1.68,1.68,0,0,1,45.52,39.32Z"/><path class="cls-3" d="M56.27,45.93c-1.11-1.89-2.2-3.79-3.33-5.66l-3.4-5.62h0a2.53,2.53,0,0,0-1.83-1.35,7.89,7.89,0,0,0-1.25,0H45.14c-1.75,0-3.49,0-5.24,0a.32.32,0,0,1-.31-.26q-.43-2.1-.81-4.21h0a.27.27,0,0,1,.22-.31H39l5.7.1h0a1.69,1.69,0,0,0,1.29-.39,1.55,1.55,0,0,0,.48-1.26,1.53,1.53,0,0,0-.7-1.16,1.47,1.47,0,0,0-.65-.26c-.22,0-.5,0-.75,0l-6.11,0a.14.14,0,0,1-.14-.11l-.41-2v0s0,0,0,0a.56.56,0,0,1-.07-.22v.05A3,3,0,0,0,34.24,21a2.94,2.94,0,0,0-1.86,1.12,2.66,2.66,0,0,0-.49,1,2.45,2.45,0,0,0-.06,1v0a.3.3,0,0,1-.23.35h-.1l.29-.36L33.49,32l.83,3.85A2.39,2.39,0,0,0,37,37.39h.1c3.24,0,6.48,0,9.72,0h0a.34.34,0,0,1,.29.17c1.85,3.3,3.63,6.65,5.45,10h0a2,2,0,0,0,1.11,1.08,2.2,2.2,0,0,0,1.57,0,2.1,2.1,0,0,0,1.11-1.12A2,2,0,0,0,56.27,45.93Zm.07,0a2.08,2.08,0,0,1,.1,1.65,2.21,2.21,0,0,1-1.15,1.21,2.34,2.34,0,0,1-1.68.05,2.27,2.27,0,0,1-1.26-1.14h0c-1.94-3.25-3.94-6.47-5.85-9.73l.3.17c-3.24.06-6.48,0-9.72,0h.1A3.13,3.13,0,0,1,33.57,36l-.8-3.93-1.55-7.8h0a.29.29,0,0,1,.23-.35h.1l-.28.39A2.8,2.8,0,0,1,31.35,23,3.21,3.21,0,0,1,32,21.83a3.44,3.44,0,0,1,2.2-1.25,3.51,3.51,0,0,1,2.45.52,3.47,3.47,0,0,1,1.43,2v.05s0,0,0,0a.56.56,0,0,1,.07.22v0l.36,2-.14-.11,6.11,0c.26,0,.49,0,.78,0a1.73,1.73,0,0,1,.76.29,1.8,1.8,0,0,1,.84,1.35,1.83,1.83,0,0,1-.55,1.51,2,2,0,0,1-1.53.52h0L39,29l.27-.33q.47,2.09.9,4.19l-.31-.26c1.75,0,3.49,0,5.24,0h1.31a8.21,8.21,0,0,1,1.36.07A3,3,0,0,1,50,34.41v0l3.15,5.77C54.17,42.09,55.27,44,56.34,45.89Z"/><path class="cls-5" d="M20.78,16.48c0,.1,0,.2,0,.29a3.78,3.78,0,0,0,3.86,3.44L25.17,23a.77.77,0,0,0,.83.63l2-.18a.77.77,0,0,0,.52-.27l2.63-3.08a3.78,3.78,0,0,0,3.65-1.84,5.1,5.1,0,1,0,1.69-10,3.78,3.78,0,0,0-5-1,3.77,3.77,0,0,0-5,1.15,3.78,3.78,0,0,0-4.82,3.19,3.77,3.77,0,0,0-1,5Z"/><path class="cls-3" d="M20.81,16.47A3.72,3.72,0,0,0,22,19.07a3.64,3.64,0,0,0,2.63,1h.14l0,.15.51,2.62a.6.6,0,0,0,.68.61l1.33-.13.66-.06a.57.57,0,0,0,.42-.23l.87-1,1.76-2,.05-.06h.1a5.31,5.31,0,0,0,1,0,3.54,3.54,0,0,0,1-.31,3.68,3.68,0,0,0,1.53-1.38l0-.06.07,0a4.91,4.91,0,0,0,3.88-.72,5,5,0,0,0,2.1-3.33,4.89,4.89,0,0,0-1-3.77,5,5,0,0,0-3.37-1.88h-.1l-.06-.08a3.54,3.54,0,0,0-4.66-.93l-.13.08-.13-.08A3.52,3.52,0,0,0,26.8,8.48l-.11.15-.17-.05a3.57,3.57,0,0,0-4.6,3v.07l-.05,0a3.74,3.74,0,0,0-1.06,4.83Zm0,0a3.82,3.82,0,0,1-.53-2.69,3.9,3.9,0,0,1,1.46-2.39l-.06.1a3.93,3.93,0,0,1,1.7-2.87,4,4,0,0,1,3.34-.54l-.28.1A4,4,0,0,1,31.69,7h-.27a4,4,0,0,1,2.88-.47,4,4,0,0,1,2.43,1.59L36.57,8a5.26,5.26,0,1,1-1.74,10.37l.11,0a3.93,3.93,0,0,1-1.58,1.53,3.82,3.82,0,0,1-1.06.38,5.6,5.6,0,0,1-1.13.06l.16-.06-1.71,2-.86,1a1,1,0,0,1-.72.39l-.66.05-1.33.11a1,1,0,0,1-.77-.24,1.1,1.1,0,0,1-.33-.71l-.45-2.63.17.14a3.91,3.91,0,0,1-2.8-1.15A3.85,3.85,0,0,1,20.76,16.49Z"/><path class="cls-6" d="M29.28,15.42a3,3,0,0,1-1.19-1.67,2.2,2.2,0,0,1,2.07-2.54A2.5,2.5,0,0,1,33,13.31a.21.21,0,0,1-.41.07,2.08,2.08,0,0,0-2.35-1.75,1.81,1.81,0,0,0-1.73,2.06,2.65,2.65,0,0,0,1,1.41,2.23,2.23,0,0,1,.62.67,2.41,2.41,0,0,1,.13.87,4,4,0,0,0,0,.48,1.41,1.41,0,0,0,1.52,1.21c.82,0,1.75-.74,1.6-1.58a.19.19,0,0,1,.15-.24.22.22,0,0,1,.24.18,2,2,0,0,1-1.77,2,1.89,1.89,0,0,1-2.16-1.54,4.38,4.38,0,0,1,0-.54,2.14,2.14,0,0,0-.1-.72A2.13,2.13,0,0,0,29.28,15.42Zm2,1.56a2,2,0,0,1-.21-1,2.56,2.56,0,0,0-.16-.8,1.84,1.84,0,0,0-.74-.7c-.3-.2-.65-.43-.7-.66a.83.83,0,0,1,.69-1.05,1,1,0,0,1,1.13.82.19.19,0,1,0,.37-.09A1.41,1.41,0,0,0,30,12.31a1.23,1.23,0,0,0-1,1.57c.1.41.5.68.9.95.24.16.51.34.57.48a2.08,2.08,0,0,1,.12.63A2,2,0,0,0,31,17.31a.74.74,0,0,0,.67.15h0A.85.85,0,0,0,32.3,17a1.27,1.27,0,0,0,.11-.89.19.19,0,1,0-.37.09.78.78,0,0,1-.07.55.51.51,0,0,1-.35.26C31.37,17.07,31.3,17,31.27,17Z"/></g></g></g></svg>