<svg xmlns="http://www.w3.org/2000/svg" xmlns:xlink="http://www.w3.org/1999/xlink" viewBox="0 0 63.9 61.93"><defs><style>.cls-1,.cls-10,.cls-8,.cls-9{fill:none;}.cls-2{fill:#f4f6f8;}.cls-3{fill:#454851;}.cls-4{fill:#009788;}.cls-5{fill:#1a1a35;}.cls-6{fill:#06d6a0;}.cls-7{fill:#eaf2e3;}.cls-10,.cls-8,.cls-9{stroke:#fff;stroke-linecap:round;stroke-miterlimit:2.61;stroke-width:0.2px;}.cls-8{stroke-dasharray:1 1.5;}.cls-10{stroke-dasharray:0.2 0.5;}.cls-11{fill:#f59c52;}.cls-12{clip-path:url(#clip-path);}</style><clipPath id="clip-path"><circle class="cls-1" cx="30.43" cy="13.94" r="5.48"/></clipPath></defs><title>Asset 54icon-</title><g id="Layer_2" data-name="Layer 2"><g id="Icons"><g id="Contact"><path class="cls-2" d="M56.86,52.61c5.07-6.25,7.46-17.64,7-25.23-.55-8.92-5-14-12.64-20.21C45.4,2.45,42.65.44,35.82.07,26-.46,14.21,1.81,7.69,9.84,3.2,15.37.16,22.74,0,29.45-.16,39.24.24,46,8.65,52.8c8,6.47,19.42,11.11,29.22,8.29C44.81,59.09,52,58.56,56.86,52.61Z"/><path class="cls-3" d="M6.76,42.28s.41,3.27,2.3,4.13c0,0,15-8.13,23.44-10S50,49.1,50,49.1c1.05,1.1,2.17.67,3.16-3,0,0-7.56-8.75-9.39-10.36s-.19-2.81,1.91-3.59A100,100,0,0,1,55.63,30c-.09-2.14-.64-3.49-2-3.51,0,0-15,2.66-24.33,6.28S6.76,42.28,6.76,42.28Z"/><path class="cls-4" d="M6.83,41s18.62-8.06,21.11-9,6.84-1.64,6.69-2.14a24.92,24.92,0,0,0-8.69-10.22,48.33,48.33,0,0,0-8.35-4.53C16.51,14.71,8,19.24,7.28,25s1.62,5.37.58,8.85S4.44,36.31,6.83,41Z"/><path class="cls-5" d="M6.84,41c3.18-1.49,6.45-2.92,9.69-4.33S23,33.8,26.31,32.48a29.2,29.2,0,0,1,5.1-1.57c.86-.21,1.73-.41,2.55-.69A1.74,1.74,0,0,0,34.5,30h0s0,0,0,0l-.06-.15-.13-.3c-.19-.4-.39-.79-.61-1.17a23.73,23.73,0,0,0-6.93-7.89c-1.46-1-3-1.86-4.54-2.73a37.87,37.87,0,0,0-4.74-2.29,2.78,2.78,0,0,0-1.13.26,11.53,11.53,0,0,0-1.18.55,18.94,18.94,0,0,0-2.22,1.39A17.32,17.32,0,0,0,9.19,21.2a9.82,9.82,0,0,0-1.26,2.25A8.71,8.71,0,0,0,7.43,26a12.13,12.13,0,0,0,0,2.6,16.77,16.77,0,0,0,.68,2.54A4.78,4.78,0,0,1,8,33.83a6.76,6.76,0,0,1-1.26,2.38A5,5,0,0,0,6,37.28a2.21,2.21,0,0,0-.09,1.25A11.41,11.41,0,0,0,6.84,41Zm0,0a10.54,10.54,0,0,1-1-2.48,2.4,2.4,0,0,1,0-1.36,4.73,4.73,0,0,1,.73-1.15,6.48,6.48,0,0,0,1.16-2.31,4.43,4.43,0,0,0,.07-2.53,17,17,0,0,1-.74-2.57,12.58,12.58,0,0,1-.11-2.7,8.57,8.57,0,0,1,.51-2.67,10.33,10.33,0,0,1,1.32-2.38,16.89,16.89,0,0,1,3.88-3.72,19.42,19.42,0,0,1,2.3-1.4,12,12,0,0,1,1.23-.56,2.8,2.8,0,0,1,1.44-.26,34.61,34.61,0,0,1,4.78,2.41c1.53.91,3,1.82,4.51,2.84a26.53,26.53,0,0,1,7,8c.22.38.44.78.64,1.18l.14.3.07.16a.25.25,0,0,1,0,.14.27.27,0,0,1-.06.14,1.77,1.77,0,0,1-.64.35c-.85.31-1.71.51-2.56.75a33.74,33.74,0,0,0-5,1.66L16.66,37C13.39,38.34,10.15,39.71,6.82,41Z"/><path class="cls-6" d="M34.17,37.3c2.88,0,6.67,2.21,8.74,4.63s6.7,7.49,6.68,8-3.87,3.7-6.43,3.83a41.88,41.88,0,0,0-10,1.19c-3.72,1.07-8.94.17-12.32-1.65s-3.54-4.94-6.57-5.38S10,47,10,46.82s8.41-4.32,12.95-6.23S31.29,37.27,34.17,37.3Z"/><path class="cls-5" d="M34.17,37.28A11.42,11.42,0,0,1,39.5,39a15.62,15.62,0,0,1,2.31,1.64,20.45,20.45,0,0,1,2,2q1.9,2.09,3.76,4.21c.62.71,1.23,1.42,1.81,2.19a3.07,3.07,0,0,1,.41.67.33.33,0,0,1,0,.3.86.86,0,0,1-.12.19,3.41,3.41,0,0,1-.25.28,11.79,11.79,0,0,1-1.08.94A16.17,16.17,0,0,1,45.88,53a7.26,7.26,0,0,1-2.74.85c-1.88.06-3.76.09-5.63.3a25.24,25.24,0,0,0-2.78.43c-.92.19-1.8.51-2.74.67a16.94,16.94,0,0,1-5.65,0,18.7,18.7,0,0,1-5.41-1.7,8.55,8.55,0,0,1-2.32-1.7c-.67-.69-1.22-1.47-1.82-2.17A4.1,4.1,0,0,0,14.6,48.2c-.87-.17-1.85-.28-2.77-.48a12.9,12.9,0,0,1-1.4-.35,3.38,3.38,0,0,1-.36-.14,1.14,1.14,0,0,1-.2-.12L9.8,47a.29.29,0,0,1-.07-.14.17.17,0,0,1,0-.16l.07-.11a.68.68,0,0,1,.23-.18l.16-.1.31-.17c.84-.45,1.68-.87,2.52-1.29,3.38-1.67,6.8-3.24,10.3-4.65,1.75-.7,3.51-1.37,5.31-1.93A18.75,18.75,0,0,1,34.17,37.28Zm0,0a17.92,17.92,0,0,0-5.49,1.12c-1.77.62-3.51,1.34-5.23,2.09C20,42,16.64,43.71,13.26,45.36c-.84.42-1.68.84-2.5,1.28l-.3.17-.14.09s-.13.1-.06,0-.06-.27-.05-.21l.1.06.3.11c.43.14.88.25,1.34.34.92.21,1.82.31,2.78.51a4.59,4.59,0,0,1,2.42,1.63c.62.73,1.15,1.5,1.78,2.17a8.13,8.13,0,0,0,2.18,1.66,18.38,18.38,0,0,0,5.28,1.77,16.71,16.71,0,0,0,5.58.12c.92-.15,1.82-.45,2.74-.63s1.85-.35,2.79-.47c1.87-.24,3.76-.3,5.63-.4a6.78,6.78,0,0,0,2.59-.88A16.71,16.71,0,0,0,48,51.15a11.42,11.42,0,0,0,1-.91c.14-.14.35-.4.28-.38a4,4,0,0,0-.34-.51c-.57-.73-1.18-1.44-1.79-2.16L43.54,42.9a20,20,0,0,0-1.88-2.08,15.44,15.44,0,0,0-2.23-1.7A11,11,0,0,0,34.17,37.33Z"/><path class="cls-7" d="M44.58,33.77c-.65.54-.23,1.07,1,2.56s8,8.92,8,8.92,2.08-2,2.07-6.31-.31-6.52-.14-7.18,0-.81-.67-.78S46,32.6,44.58,33.77Z"/><path class="cls-5" d="M44.59,33.79a.64.64,0,0,0-.22.8,3.47,3.47,0,0,0,.51.78c.39.49.83.94,1.26,1.39.87.91,1.75,1.81,2.59,2.74s1.68,1.87,2.49,2.83,1.61,1.93,2.44,2.87h-.13a8.87,8.87,0,0,0,2-6c0-2.16-.18-4.32-.28-6.5a5.61,5.61,0,0,1,0-.85l.08-.4a.4.4,0,0,0,0-.18,1.16,1.16,0,0,0-.56,0l-.78.12L50.79,32c-1.06.22-2.13.42-3.18.69A10.27,10.27,0,0,0,44.59,33.79Zm0,0a12.51,12.51,0,0,1,3-1.27c1-.33,2.08-.65,3.13-.92s2.11-.51,3.19-.7c.27,0,.53-.1.82-.13a2.35,2.35,0,0,1,.45,0,.78.78,0,0,1,.55.22.74.74,0,0,1,.13.6c0,.16-.06.31-.08.4a6,6,0,0,0,0,.77c.07,2.15.16,4.34.08,6.52a10.17,10.17,0,0,1-2.16,6.1l-.06.07-.07-.08c-.84-.93-1.72-1.83-2.58-2.75s-1.71-1.84-2.54-2.79S46.78,37.86,46,36.9c-.41-.48-.79-1-1.18-1.47a3.53,3.53,0,0,1-.5-.81A.7.7,0,0,1,44.56,33.75Z"/><path class="cls-6" d="M35.39,29.53a23.86,23.86,0,0,0-4.09-7.06c-2.48-2.61-11.1-8-11.85-8.2s-.16-1.65,4.2-2,6-.79,9.84.44,6.21.8,11.91,2.39S52.07,19,52,20.44s2.51,5,1.56,5.27-7.38,1.1-10.23,1.94S35.77,30.5,35.39,29.53Z"/><path class="cls-5" d="M35.36,29.54c-1.29-3.21-3-6.44-5.87-8.44-1.38-1.05-2.81-2-4.27-3s-2.91-1.92-4.4-2.82c-.37-.23-.74-.46-1.12-.66l-.27-.14a.73.73,0,0,1-.36-.24.65.65,0,0,1,.17-.8,5,5,0,0,1,2.47-1,22.22,22.22,0,0,1,2.61-.31l2.61-.23a15.61,15.61,0,0,1,5.23.34c.86.2,1.68.5,2.52.71a25.45,25.45,0,0,0,2.56.49,45.72,45.72,0,0,1,10.28,2.14,12.48,12.48,0,0,1,2.38,1.19,5.69,5.69,0,0,1,1.91,1.93A3.44,3.44,0,0,1,52.24,20c0,.24,0,.49,0,.65a3.09,3.09,0,0,0,.13.59,23.32,23.32,0,0,0,1,2.37,9.77,9.77,0,0,1,.5,1.25,1.2,1.2,0,0,1,0,.82.58.58,0,0,1-.43.29l-.33.07c-.87.16-1.73.27-2.6.4-1.73.26-3.45.52-5.16.85a36,36,0,0,0-5,1.4c-.83.27-1.66.55-2.5.79a12.23,12.23,0,0,1-1.28.29,3.63,3.63,0,0,1-.66,0C35.74,29.81,35.47,29.78,35.36,29.54Zm0,0c.09.19.34.23.54.23a3.57,3.57,0,0,0,.65-.06,12.15,12.15,0,0,0,1.27-.31c.84-.25,1.66-.53,2.48-.82a34.87,34.87,0,0,1,5-1.56c1.71-.38,3.43-.69,5.15-1l2.57-.46a2.87,2.87,0,0,0,.41-.09.92.92,0,0,0-.06-.46A9.38,9.38,0,0,0,53,23.82a23.53,23.53,0,0,1-1.06-2.43,3.59,3.59,0,0,1-.16-.69c0-.28,0-.46,0-.66a3,3,0,0,0-.36-1.14,7.73,7.73,0,0,0-4-2.94,46,46,0,0,0-10.15-2.31,25.71,25.71,0,0,1-2.58-.53c-.85-.22-1.67-.53-2.51-.74A14.07,14.07,0,0,0,27,12l-2.61.26a19.66,19.66,0,0,0-2.58.37,4.86,4.86,0,0,0-2.28,1c-.13.14-.19.31-.13.37s.07.06.19.1l.32.15c.4.2.78.42,1.16.64a72.38,72.38,0,0,1,8.66,5.93,15.68,15.68,0,0,1,1.92,1.81,15.64,15.64,0,0,1,1.53,2.14A28.92,28.92,0,0,1,35.41,29.53Z"/><path class="cls-8" d="M39.63,34.83s3.76,3.11,4.39,3.8,3.47,3.5,4.77,5.22,3,3.67,3.06,3.83"/><path class="cls-8" d="M7.35,44.41S17.74,39.88,19.9,39s10.51-5.27,16.27-6.51S46,29.31,54.5,28.31"/><line class="cls-9" x1="38.99" y1="34.52" x2="38.9" y2="34.56"/><line class="cls-10" x1="38.44" y1="34.74" x2="36.08" y2="35.68"/><line class="cls-9" x1="35.85" y1="35.77" x2="35.76" y2="35.81"/><line class="cls-9" x1="39.18" y1="34.8" x2="39.09" y2="34.84"/><line class="cls-10" x1="38.63" y1="35.02" x2="36.27" y2="35.96"/><line class="cls-9" x1="36.04" y1="36.05" x2="35.95" y2="36.09"/><ellipse class="cls-4" cx="30.43" cy="41.26" rx="2.14" ry="0.72"/><path class="cls-11" d="M39.75,14c0,5.13-9.28,27.25-9.28,27.25S21.18,19.13,21.18,14a9.28,9.28,0,1,1,18.57,0Z"/><path class="cls-5" d="M39.79,14a17,17,0,0,1-.59,3.56q-.45,1.75-1,3.49c-.68,2.31-1.41,4.61-2.21,6.88s-1.65,4.53-2.56,6.76-1.86,4.44-2.82,6.65h-.38L25,27.82c-.87-2.26-1.71-4.53-2.48-6.83-.38-1.15-.75-2.31-1.07-3.48a14.85,14.85,0,0,1-.62-3.66,9.54,9.54,0,0,1,9.71-9.48,9.31,9.31,0,0,1,6.63,3A9.7,9.7,0,0,1,39.79,14Zm-.07,0a8.93,8.93,0,0,0-2.78-6.42,9.17,9.17,0,0,0-6.4-2.51,9,9,0,0,0-9,8.79,15.18,15.18,0,0,0,.54,3.48c.28,1.17.61,2.33,1,3.48.7,2.31,1.47,4.6,2.27,6.88q2.41,6.84,5.34,13.48h-.38l5.2-13.45c.86-2.24,1.74-4.48,2.51-6.76.39-1.14.77-2.28,1.08-3.44A16.92,16.92,0,0,0,39.71,14Z"/><circle class="cls-2" cx="30.43" cy="13.94" r="5.48"/><path class="cls-5" d="M35.93,13.94a5.88,5.88,0,0,1-1.52,4,5.3,5.3,0,0,1-4,1.7,5.88,5.88,0,0,1-5.62-5.69A5.59,5.59,0,0,1,30.43,8.2a5.4,5.4,0,0,1,4,1.75A5.88,5.88,0,0,1,35.93,13.94Zm0,0a5.13,5.13,0,0,0-1.7-3.76,5.62,5.62,0,0,0-3.76-1.46,5.38,5.38,0,0,0-5.34,5.22,5.1,5.1,0,0,0,1.53,3.81,5.24,5.24,0,0,0,3.81,1.46,5.76,5.76,0,0,0,3.76-1.51A5.14,5.14,0,0,0,35.88,13.94Z"/><g class="cls-12"><path class="cls-6" d="M33.42,27.39a21,21,0,0,0-3.6-6.2c-2.18-2.29-9.75-7-10.41-7.2s-.14-1.45,3.69-1.79,5.27-.7,8.64.38,5.46.7,10.47,2.1S48.08,18.13,48,19.4s2.21,4.4,1.37,4.63-6.48,1-9,1.71S33.76,28.24,33.42,27.39Z"/><path class="cls-5" d="M33.4,27.4c-1.13-2.82-2.64-5.65-5.17-7.41s-5-3.51-7.62-5.12c-.32-.2-.65-.4-1-.58l-.23-.12a.67.67,0,0,1-.32-.22.59.59,0,0,1,.15-.73,4.44,4.44,0,0,1,2.18-.92,19.69,19.69,0,0,1,2.3-.27l2.29-.2a13.81,13.81,0,0,1,4.6.3c.75.18,1.48.44,2.22.62a22.34,22.34,0,0,0,2.25.43,40.15,40.15,0,0,1,9,1.87,11,11,0,0,1,2.1,1.05,5,5,0,0,1,1.69,1.71A3.05,3.05,0,0,1,48.26,19c0,.21,0,.44,0,.57a2.69,2.69,0,0,0,.12.51,20.47,20.47,0,0,0,.9,2.08,8.62,8.62,0,0,1,.44,1.1,1.08,1.08,0,0,1,0,.75.54.54,0,0,1-.4.27l-.29.06c-.77.14-1.52.24-2.28.36-1.52.23-3,.45-4.54.73a30.56,30.56,0,0,0-4.42,1.22c-.73.24-1.46.48-2.2.69a10.77,10.77,0,0,1-1.13.26,3.19,3.19,0,0,1-.58,0C33.73,27.63,33.49,27.61,33.4,27.4Zm0,0c.08.17.29.2.47.2a3.13,3.13,0,0,0,.57-.05,10.68,10.68,0,0,0,1.11-.27c.73-.22,1.46-.47,2.18-.73a31.69,31.69,0,0,1,4.4-1.39c1.5-.35,3-.62,4.53-.88l2.26-.4c.17,0,.43-.11.34-.07a.82.82,0,0,0-.05-.38,8.22,8.22,0,0,0-.42-1,20.68,20.68,0,0,1-.93-2.14,3.18,3.18,0,0,1-.14-.61c0-.25,0-.41,0-.58a2.57,2.57,0,0,0-.31-1,6.77,6.77,0,0,0-3.49-2.58,40.44,40.44,0,0,0-8.91-2A22.61,22.61,0,0,1,32.76,13c-.75-.19-1.47-.47-2.21-.65A12.28,12.28,0,0,0,26,12l-2.29.23a17.13,17.13,0,0,0-2.26.33,4.26,4.26,0,0,0-2,.89c-.11.12-.15.27-.11.3s.05,0,.15.08l.28.13c.35.18.68.37,1,.56a62,62,0,0,1,7.61,5.22,13.8,13.8,0,0,1,1.68,1.6,13.76,13.76,0,0,1,1.34,1.89A25.57,25.57,0,0,1,33.44,27.38Z"/></g></g></g></g></svg>