<svg xmlns="http://www.w3.org/2000/svg" viewBox="0 0 66.17 65.23"><defs><style>.cls-1{fill:#f4f6f8;}.cls-2{fill:#1a1a35;}.cls-3{fill:#f59c52;}.cls-4{fill:#fff;}.cls-5{fill:#a37e41;}.cls-6{fill:#e8eaf1;}.cls-7{fill:#0f79b3;}.cls-8{fill:#454851;}.cls-9{fill:#a37e42;}.cls-10{fill:#d3d7e6;}.cls-11{fill:#f6bd60;}</style></defs><title>Asset 51icon-</title><g id="Layer_2" data-name="Layer 2"><g id="Icons"><g id="Products"><path class="cls-1" d="M52.12,5.83c6.5,4.75,12.12,9.46,13.6,16.92,1.73,8.77-1.69,20.51-7.51,28.47A33.79,33.79,0,0,1,41.29,63.5c-9.38,3-17.5,2.3-25.84-3.8C9.7,55.49,3.5,49.09,1.67,42.63-1,33.2-.94,26.64,5.45,17.9,11.51,9.62,21.19-.23,31.39,0,38.61.17,45.94,1.3,52.12,5.83Z"/><path class="cls-2" d="M57.07,21.12C56,26.3,54.77,31.43,53.48,36.56a15.15,15.15,0,0,1-1.37,3.77,3.82,3.82,0,0,1-3.36,2.13c-1.35.06-2.65,0-4,0s-2.64,0-4,0c-5.28.15-10.56.24-15.84.23s-10.56-.12-15.84-.35a0,0,0,0,1,0-.07q7.92-.36,15.84-.35c5.28,0,10.56.08,15.84.23,2.63,0,5.3.1,7.9-.05a3.91,3.91,0,0,0,1.76-.62,3.84,3.84,0,0,0,1.16-1.43,13.22,13.22,0,0,0,.7-1.8,18.92,18.92,0,0,0,.52-1.89C54.14,31.26,55.48,26.16,57,21.1a0,0,0,0,1,.07,0Z"/><path class="cls-3" d="M35.92,25.19h7.4V20.32a.11.11,0,0,0-.11-.12H36a.11.11,0,0,0-.11.12Z"/><path class="cls-2" d="M35.94,25.17c1.3-.07,2.55-.15,3.76-.17s2.41,0,3.62,0l-.15.15c.09-1.44.09-2.88,0-4.32l0-.54s.09,0-.06,0h-.27l-1.08,0-2.16,0c-.72,0-1.44,0-2.16,0H36.11s-.12,0,0,0a.12.12,0,0,0,.07-.1l0,.52C36.11,22.24,36,23.65,35.94,25.17Zm0,0c-.08-1.36-.17-2.83-.21-4.32l0-.56a.37.37,0,0,1,.18-.33.48.48,0,0,1,.26,0h1.35c.72,0,1.44,0,2.16,0l2.16,0,1.08,0h.27a.43.43,0,0,1,.2,0,.26.26,0,0,1,.12.24l0,.54c-.05,1.44,0,2.88,0,4.32v.14h-.16c-1.25.07-2.53.08-3.78,0S37.06,25.28,35.9,25.21Z"/><path class="cls-4" d="M33.88,32.77h12v-8a.19.19,0,0,0-.17-.2H34.05a.19.19,0,0,0-.17.2Z"/><path class="cls-2" d="M33.9,32.75c2.06-.07,4.07-.15,6-.17s3.93,0,5.9,0l-.16.16c.09-2.34.09-4.69,0-7l0-.88c0-.1,0-.08,0-.1s0,0-.11,0h-.44l-1.76,0-3.52.05c-1.17,0-2.34,0-3.52,0H34.06l.05,0s0-.09,0,0l0,.86C34.07,28,34,30.32,33.9,32.75Zm0,0c-.09-2.27-.17-4.64-.21-7l0-.9a.5.5,0,0,1,.13-.38.41.41,0,0,1,.25-.12h2.33c1.17,0,2.34,0,3.52,0l3.52.05,1.76,0h.56a.3.3,0,0,1,.18.09.38.38,0,0,1,.1.3l0,.88c-.05,2.34,0,4.69,0,7v.15h-.16c-2,.07-4.05.07-6.06,0S35.79,32.85,33.86,32.78Z"/><path class="cls-5" d="M57.42,19.45a4.88,4.88,0,0,1,3.7.18c.92.53.75,1.32-.38,1.75A4.88,4.88,0,0,1,57,21.2C56.12,20.66,56.29,19.88,57.42,19.45Z"/><path class="cls-2" d="M57.41,19.41a4.37,4.37,0,0,1,3.2-.34,1.92,1.92,0,0,1,1.22,1.2,1,1,0,0,1-.32.81,2.79,2.79,0,0,1-.69.49,3.86,3.86,0,0,1-1.61.44,4.48,4.48,0,0,1-1.68-.17,2.81,2.81,0,0,1-.8-.41,1.21,1.21,0,0,1-.52-.85.93.93,0,0,1,.46-.82A3.48,3.48,0,0,1,57.41,19.41Zm0,.07a1.53,1.53,0,0,0-.62.43.52.52,0,0,0-.11.57,2,2,0,0,0,1.06.59,6.29,6.29,0,0,0,2.9.11,1.76,1.76,0,0,0,.66-.29.58.58,0,0,0,.25-.58c-.14-.43-.72-.56-1.16-.65L59,19.41A2.88,2.88,0,0,0,57.43,19.48Z"/><circle class="cls-2" cx="49.09" cy="48.14" r="3.72"/><path class="cls-2" d="M49.09,44.38a4.38,4.38,0,0,1,2.8,1,3.44,3.44,0,0,1,1.24,2.8,4.06,4.06,0,0,1-1.32,2.72,4.38,4.38,0,0,1-2.72,1.21,3.8,3.8,0,0,1-2.88-1A4,4,0,0,1,45,48.14a3.66,3.66,0,0,1,1.32-2.81A4.39,4.39,0,0,1,49.09,44.38Zm0,.07a3.19,3.19,0,0,0-2.46,1.23,3.92,3.92,0,0,0-.86,2.46,3.53,3.53,0,0,0,.94,2.38,3.69,3.69,0,0,0,2.38,1.13,3.19,3.19,0,0,0,2.55-1,3.4,3.4,0,0,0,.86-2.55,4.32,4.32,0,0,0-.94-2.47A3.19,3.19,0,0,0,49.09,44.46Z"/><circle class="cls-6" cx="49.08" cy="48.15" r="1.33"/><path class="cls-6" d="M49.08,46.78a2.13,2.13,0,0,1,1.11.26,1.15,1.15,0,0,1,.54,1.11,1.66,1.66,0,0,1-.62,1,2.11,2.11,0,0,1-1,.51,1.53,1.53,0,0,1-1.73-1.54A1.32,1.32,0,0,1,48,47,2.12,2.12,0,0,1,49.08,46.78Zm0,.07a.87.87,0,0,0-.77.53,1.73,1.73,0,0,0-.17.77,1.18,1.18,0,0,0,.93,1.13.87.87,0,0,0,.86-.27,1,1,0,0,0,.16-.86,3.18,3.18,0,0,0-.24-.78A.88.88,0,0,0,49.08,46.86Z"/><circle class="cls-2" cx="14.14" cy="48.14" r="3.72"/><path class="cls-2" d="M14.14,44.38a4.38,4.38,0,0,1,2.8,1,3.44,3.44,0,0,1,1.24,2.8,4.06,4.06,0,0,1-1.32,2.72,4.38,4.38,0,0,1-2.72,1.21,3.8,3.8,0,0,1-2.88-1A4,4,0,0,1,10,48.14a3.66,3.66,0,0,1,1.32-2.81A4.39,4.39,0,0,1,14.14,44.38Zm0,.07a3.19,3.19,0,0,0-2.46,1.23,3.92,3.92,0,0,0-.87,2.46,3.53,3.53,0,0,0,.94,2.38,3.69,3.69,0,0,0,2.38,1.13,3.19,3.19,0,0,0,2.55-1,3.39,3.39,0,0,0,.86-2.55,4.32,4.32,0,0,0-.94-2.47A3.19,3.19,0,0,0,14.14,44.46Z"/><circle class="cls-6" cx="14.13" cy="48.15" r="1.33"/><path class="cls-6" d="M14.13,46.78a2.13,2.13,0,0,1,1.11.26,1.15,1.15,0,0,1,.54,1.11,1.66,1.66,0,0,1-.62,1,2.11,2.11,0,0,1-1,.51,1.53,1.53,0,0,1-1.73-1.54A1.32,1.32,0,0,1,13,47,2.11,2.11,0,0,1,14.13,46.78Zm0,.07a.87.87,0,0,0-.77.53,1.74,1.74,0,0,0-.16.77,1.18,1.18,0,0,0,.93,1.13A.87.87,0,0,0,15,49a1,1,0,0,0,.16-.86,3.18,3.18,0,0,0-.24-.78A.88.88,0,0,0,14.13,46.86Z"/><path class="cls-7" d="M18,42.33h7.45A6.29,6.29,0,0,0,31.73,36h0a6.31,6.31,0,0,0-6.29-6.29H18A6.29,6.29,0,0,0,11.7,36h0A6.29,6.29,0,0,0,18,42.33Z"/><path class="cls-2" d="M18,42.29c2.27,0,4.53-.11,6.8-.2a6.55,6.55,0,0,0,5.61-2.72,5.93,5.93,0,0,0-5-9.43c-2.27.07-4.53.13-6.8.15a6.1,6.1,0,0,0-6,8.78A6,6,0,0,0,18,42.29Zm0,.08a6.7,6.7,0,0,1-5.77-3.26,6.43,6.43,0,0,1,.23-6.8A6.59,6.59,0,0,1,15.15,30a7.3,7.3,0,0,1,3.48-.6c2.27,0,4.53.08,6.8.15A6.76,6.76,0,0,1,31.1,33a6.63,6.63,0,0,1-.19,6.7A6.4,6.4,0,0,1,28.24,42a6.8,6.8,0,0,1-3.45.54C22.52,42.48,20.25,42.36,18,42.37Z"/><path class="cls-8" d="M31.77,42.34H47.88V32.85a.23.23,0,0,0-.23-.23H32a.23.23,0,0,0-.23.23Z"/><path class="cls-2" d="M31.79,42.31c2.8-.12,5.5-.22,8.15-.26,1.33,0,2.65,0,4,0s2.64.07,4,.11l-.21.21c.12-2.95.12-5.89,0-8.84l0-.55c0-.13,0-.1,0-.11h-.11l-1.1,0-2.21.06L39.82,33q-2.21,0-4.42,0H32.09c-.16,0,0,0,0,0s0-.15,0,0v.54C32.06,36.35,31.92,39.25,31.79,42.31Zm-.05.05c-.12-2.83-.26-5.82-.32-8.85v-.57a.67.67,0,0,1,.16-.51.68.68,0,0,1,.52-.19H35.4q2.21,0,4.42,0l4.42.07,2.21.06,1.1,0a.52.52,0,0,1,.41.14.51.51,0,0,1,.12.4l0,.55c-.09,2.95-.1,5.89,0,8.84v.2h-.22c-1.35,0-2.72.11-4.09.11s-2.73,0-4.09,0C37,42.59,34.31,42.48,31.74,42.36Z"/><path class="cls-2" d="M9.15,43.14c1,1.16,2,2.34,2.94,3.56h-.31a3.83,3.83,0,0,1,2.78-1.19,4,4,0,0,1,1.49.37,7,7,0,0,0,1.29.62,26.32,26.32,0,0,0,5.72,1c1.94.16,3.89.21,5.84.26l5.84.15h-.06c2.72-.62,5.45-1.22,8.19-1.76,1.37-.26,2.74-.53,4.15-.7a3.91,3.91,0,0,1,1.14,0,4.75,4.75,0,0,0,1,.23,14.41,14.41,0,0,0,2.06.12l-.17.15c.27-1.46.55-2.93.87-4.38a0,0,0,0,1,0,0,0,0,0,0,1,0,0c-.16,1.48-.37,3-.58,4.43a.18.18,0,0,1-.17.15,14.74,14.74,0,0,1-2.12,0A5.12,5.12,0,0,1,48,45.87a4.21,4.21,0,0,0-.95,0c-1.37.18-2.74.45-4.1.71-2.73.55-5.46,1.15-8.17,1.77h-.06c-2,0-3.9-.12-5.85-.24S25,47.84,23,47.64c-1-.11-1.94-.19-2.91-.31a20.12,20.12,0,0,1-2.91-.49,5.48,5.48,0,0,1-1.36-.59,3.31,3.31,0,0,0-3.79.7h0a.2.2,0,0,1-.29,0l0,0c-.92-1.23-1.8-2.49-2.66-3.78a0,0,0,0,1,0,0Z"/><path class="cls-9" d="M26.13,21s.12-.09-.85-.51l-3.9-1.7a3.3,3.3,0,0,0-2.63.11l-4.08,1.79s-.46.25-.45.37,0-.49,0-.49-.11-.27.6-.6l3-1.36a7.45,7.45,0,0,1,2.16-.78,2.6,2.6,0,0,1,1.12.11c.45.16,4.42,2,4.42,2s.73.22.69.64Z"/><path class="cls-10" d="M20.58,16c-.29-.33-.42-.18-.6-.25a.38.38,0,0,0-.38,0,.28.28,0,0,0,0,.38c.09.07.16,0,.29.11a1,1,0,0,1,.56.37.69.69,0,0,1,.1.47,2,2,0,0,1-.07.26,2,2,0,0,1-.26.51,0,0,0,0,1-.06,0h0a2,2,0,0,1-.26-.51,2.05,2.05,0,0,1-.07-.26c0-.09,0,0,0,0a2.69,2.69,0,0,0-.26-.22.73.73,0,0,1-.33-.65,1.73,1.73,0,0,1,.23-.59,1,1,0,0,1,.48-.49.68.68,0,0,1,.71.19.52.52,0,0,1,.06.68,0,0,0,0,1-.07,0Z"/><path class="cls-2" d="M14.21,21.77l-.06-1a.69.69,0,0,1,.11-.53,1.26,1.26,0,0,1,.44-.3c.59-.29,1.18-.57,1.79-.83s1.22-.49,1.82-.75a4.46,4.46,0,0,1,1.89-.57,4.09,4.09,0,0,1,1.93.49c.6.26,1.2.53,1.8.81s1.18.57,1.77.86a1.35,1.35,0,0,1,.43.3.68.68,0,0,1,.12.52l-.06,1h0l-.06-1c.05-.36-.18-.51-.49-.63-.61-.25-1.21-.5-1.81-.78s-1.19-.55-1.78-.83A4.16,4.16,0,0,0,20.2,18a3.71,3.71,0,0,0-1.85.5c-.59.28-1.17.6-1.76.89s-1.19.55-1.79.81c-.31.13-.54.26-.49.62l-.06,1h0Z"/><path class="cls-2" d="M14.22,21.66l0-.44a.49.49,0,0,1,.23-.4,6.63,6.63,0,0,1,.8-.4c.54-.24,1.08-.49,1.62-.72L18.49,19a4.07,4.07,0,0,1,1.71-.46,3.85,3.85,0,0,1,1.74.4l1.63.7c.54.23,1.08.49,1.61.74a7.3,7.3,0,0,1,.8.4.48.48,0,0,1,.23.4l0,.44h0c0-.29,0-.63-.24-.77a7.41,7.41,0,0,0-.8-.35c-.55-.22-1.1-.44-1.64-.68l-1.62-.72a3.91,3.91,0,0,0-1.67-.47,3.54,3.54,0,0,0-1.69.41l-1.6.76c-.54.25-1.08.48-1.63.71a8.68,8.68,0,0,0-.8.35c-.28.13-.22.47-.24.76h0Z"/><path class="cls-11" d="M17.85,18.16a2.65,2.65,0,0,0,2.4,1.7A3.5,3.5,0,0,0,23,18.16a9.84,9.84,0,0,1,4.63,2.68c1.79,2-1.42,2.65-1.42,2.65l-1.34-.34v5.53H16V22.87l-1.26.55s-3.57-.8-2.23-2.34S16.34,18,17.85,18.16Z"/><path class="cls-2" d="M17.86,18.14a2.86,2.86,0,0,0,1,1.22,2.38,2.38,0,0,0,1.48.37,3.29,3.29,0,0,0,2.47-1.66l.08-.13L23,18a10.78,10.78,0,0,1,2.24.84,8.16,8.16,0,0,1,2,1.35,5.57,5.57,0,0,1,.81.91,1.49,1.49,0,0,1,.22,1.28,1.72,1.72,0,0,1-.9.89,4.5,4.5,0,0,1-1.15.38h-.05l-1.33-.36.12-.09q0,2.77,0,5.53v.1h-.11c-2.95,0-5.9.13-8.85.14h-.24v-.24c0-1.94,0-3.88,0-5.82l.36.23-1.26.55-.08,0-.07,0a5,5,0,0,1-2.38-1.18,1,1,0,0,1,0-1.4,7,7,0,0,1,.92-.93,10.92,10.92,0,0,1,2.14-1.43A4.66,4.66,0,0,1,17.86,18.14Zm0,0a4.74,4.74,0,0,0-2.36.74,10.65,10.65,0,0,0-2,1.47c-.56.55-1.4,1.26-.8,1.81a4.91,4.91,0,0,0,2.17,1l-.16,0,1.26-.56.36-.16v.39c0,1.94,0,3.88,0,5.82L16,28.44c2.95,0,5.9.09,8.85.14l-.1.1q0-2.77,0-5.53V23l.12,0,1.35.31h-.05a4.24,4.24,0,0,0,1-.41,1.4,1.4,0,0,0,.71-.73c.18-.63-.44-1.26-1-1.75a10.21,10.21,0,0,0-4-2.12l.21-.09A4.05,4.05,0,0,1,22,19.47a3,3,0,0,1-1.61.52,2.44,2.44,0,0,1-1.59-.5A2.89,2.89,0,0,1,17.83,18.18Z"/><line class="cls-4" x1="20.02" y1="29.75" x2="20.02" y2="16.46"/><path class="cls-2" d="M20,29.75a17.71,17.71,0,0,1-.18-3.32c0-.55.11-1.11.13-1.66a16,16,0,0,0-.06-1.66A30.33,30.33,0,0,1,20,16.46H20a30.33,30.33,0,0,1,.11,6.64,16,16,0,0,0-.06,1.66c0,.55.09,1.11.13,1.66A17.71,17.71,0,0,1,20,29.75Z"/><circle class="cls-10" cx="20.2" cy="15.77" r="0.79" transform="translate(-5.42 16.27) rotate(-39.11)"/><path class="cls-2" d="M19.69,15.13a1.31,1.31,0,0,1,.61-.31.68.68,0,0,1,.68.31,1,1,0,0,1,.09.72,1.28,1.28,0,0,1-.28.63.92.92,0,0,1-1.4-.05.79.79,0,0,1-.13-.76A1.3,1.3,0,0,1,19.69,15.13Zm0,0a.5.5,0,0,0-.14.53,1.1,1.1,0,0,0,.22.39.69.69,0,0,0,.82.18.5.5,0,0,0,.29-.43.57.57,0,0,0-.25-.44,2.74,2.74,0,0,0-.39-.26A.5.5,0,0,0,19.72,15.17Z"/></g></g></g></svg>