<svg xmlns="http://www.w3.org/2000/svg" viewBox="0 0 63.71 64.82"><defs><style>.cls-1{fill:#f4f6f8;}.cls-2{fill:#454851;}.cls-2,.cls-6{stroke:#1a1a35;stroke-miterlimit:2.61;stroke-width:0.2px;}.cls-3{fill:#f59c52;}.cls-4{fill:#1a1a35;}.cls-5{fill:#1b1b35;}.cls-6{fill:none;}</style></defs><title>Asset 41icon-</title><g id="Layer_2" data-name="Layer 2"><g id="Icons"><g id="Responsive"><path class="cls-1" d="M44.23,2.4c-5.83-3.65-16.72-3-23.65.83S7.22,12,2.13,20.41C0,23.92-.38,32,.31,37.86S9.52,57.7,16.73,61.48s13.35,4.25,19.76,1.93,16.58-5,21.26-14.73c4.24-8.84,9.84-16.47,2.1-31.44C56.53,10.81,50.06,6.05,44.23,2.4Z"/><rect class="cls-2" x="5.34" y="30.52" width="53.03" height="3.79" rx="0.28" ry="0.28"/><rect class="cls-3" x="13.84" y="18.31" width="5.33" height="28.21" rx="2.13" ry="2.13"/><path class="cls-4" d="M17,46.55a4.93,4.93,0,0,1-2-.17,2.28,2.28,0,0,1-1.27-1.52c-.15-1.36-.12-2.65-.19-4-.1-2.64-.11-5.28-.08-7.93s.17-5.28.18-7.93c0-1.32,0-2.64,0-4a7,7,0,0,1,0-1,2.23,2.23,0,0,1,.4-1,2.32,2.32,0,0,1,1.83-1l1,0a2.39,2.39,0,0,1,2.46,1.84A5.16,5.16,0,0,1,19.49,21l0,1,0,2c0,2.64.06,5.28,0,7.93s0,5.28-.14,7.93l-.14,4a9.16,9.16,0,0,1-.06,1,2.14,2.14,0,0,1-.41.93A2.19,2.19,0,0,1,17,46.55Zm0-.07a2.08,2.08,0,0,0,1.65-.86,2,2,0,0,0,.36-.88,5.71,5.71,0,0,0,0-1l-.14-4c-.1-2.64-.14-5.28-.14-7.93s0-5.28,0-7.93l0-2,0-1a4.74,4.74,0,0,0,0-.92A1.89,1.89,0,0,0,17,18.54l-1,0a2,2,0,0,0-1.57.75,1.9,1.9,0,0,0-.38.83,6.92,6.92,0,0,0,0,1c0,1.32,0,2.64,0,4,0,2.64.13,5.28.18,7.93s0,5.28-.08,7.93c0,1.31-.14,2.67-.09,3.94a2,2,0,0,0,1.13,1.45A4.86,4.86,0,0,0,17,46.48Z"/><rect class="cls-3" x="8.24" y="21.6" width="5.33" height="21.62" rx="2.13" ry="2.13"/><path class="cls-4" d="M11.45,43.25a9.39,9.39,0,0,1-1.57,0,2.24,2.24,0,0,1-1.31-.87,2.43,2.43,0,0,1-.43-1.53l0-1.57C8,37.14,8,35,8,33s.11-4.19.12-6.28V23.52a2.27,2.27,0,0,1,2.2-2.06,9.29,9.29,0,0,1,1.6,0,2.31,2.31,0,0,1,1.39.92,2.55,2.55,0,0,1,.44,1.6l0,1.57c0,2.09,0,4.19,0,6.28s0,4.19-.09,6.28l-.11,3.15A2.21,2.21,0,0,1,11.45,43.25Zm0,0a2.09,2.09,0,0,0,2-1.91c0-1-.05-2.09-.09-3.13-.07-2.09-.09-4.19-.09-6.28s0-4.19,0-6.28l0-1.57A2.13,2.13,0,0,0,13,22.63a2,2,0,0,0-1.15-.82,9.39,9.39,0,0,0-1.53-.08,2,2,0,0,0-2,1.8c0,1,0,2.09,0,3.13,0,2.09.09,4.19.12,6.28s0,4.19-.05,6.28l0,1.57a2.25,2.25,0,0,0,.32,1.46,2,2,0,0,0,1.22.86A9.43,9.43,0,0,0,11.45,43.2Z"/><rect class="cls-3" x="44.13" y="18.31" width="5.33" height="28.21" rx="2.13" ry="2.13"/><path class="cls-4" d="M46.25,18.27a4.93,4.93,0,0,1,2,.17A2.28,2.28,0,0,1,49.51,20c.15,1.36.12,2.65.19,4,.1,2.64.11,5.28.08,7.93s-.17,5.28-.18,7.93c0,1.32,0,2.64,0,4a7,7,0,0,1,0,1,2.23,2.23,0,0,1-.4,1,2.32,2.32,0,0,1-1.83,1l-1,0a2.39,2.39,0,0,1-2.46-1.84,5.18,5.18,0,0,1-.07-1.05l0-1,0-2c0-2.64-.06-5.28,0-7.93s0-5.28.14-7.93l.14-4a9.11,9.11,0,0,1,.06-1,2.14,2.14,0,0,1,.41-.93A2.19,2.19,0,0,1,46.25,18.27Zm0,.07a2.08,2.08,0,0,0-1.65.86,2,2,0,0,0-.36.88,5.7,5.7,0,0,0,0,1l.14,4c.1,2.64.14,5.28.14,7.93s0,5.28,0,7.93l0,2,0,1a4.76,4.76,0,0,0,0,.92,1.89,1.89,0,0,0,1.87,1.51l1,0a2,2,0,0,0,1.57-.75,1.9,1.9,0,0,0,.38-.83,6.92,6.92,0,0,0,0-1c0-1.32,0-2.64,0-4,0-2.64-.13-5.28-.18-7.93s0-5.28.08-7.93c0-1.31.14-2.67.09-3.94a2,2,0,0,0-1.13-1.45A4.85,4.85,0,0,0,46.25,18.35Z"/><rect class="cls-3" x="49.73" y="21.6" width="5.33" height="21.62" rx="2.13" ry="2.13"/><path class="cls-4" d="M51.85,21.57a9.39,9.39,0,0,1,1.57,0,2.24,2.24,0,0,1,1.31.87A2.43,2.43,0,0,1,55.17,24l0,1.57c.07,2.09.07,4.19.05,6.28s-.11,4.19-.12,6.28V41.3a2.27,2.27,0,0,1-2.2,2.06,9.28,9.28,0,0,1-1.6,0,2.31,2.31,0,0,1-1.39-.92,2.55,2.55,0,0,1-.44-1.6l0-1.57c0-2.09,0-4.19,0-6.28s0-4.19.09-6.28l.11-3.15A2.21,2.21,0,0,1,51.85,21.57Zm0,.05a2.09,2.09,0,0,0-2,1.91c0,1,.05,2.09.09,3.13C50,28.76,50,30.86,50,33s0,4.19,0,6.28l0,1.57a2.13,2.13,0,0,0,.31,1.39A2,2,0,0,0,51.4,43a9.4,9.4,0,0,0,1.53.08,2,2,0,0,0,2-1.8c0-1,0-2.09,0-3.13,0-2.09-.09-4.19-.12-6.28s0-4.19.05-6.28l0-1.57a2.25,2.25,0,0,0-.32-1.46,2,2,0,0,0-1.22-.86A9.42,9.42,0,0,0,51.85,21.62Z"/><path class="cls-5" d="M55.57,29.53s.1-2.82,1.61-3.42,2.39.1,1.81,1.31-1.61,1.13-2.32,2.11S55.57,29.53,55.57,29.53Z"/><polygon class="cls-6" points="55.87 34.87 55.87 29.53 56.48 30.52 56.48 34.72 56.17 33.73 55.87 34.87"/><path class="cls-5" d="M7.78,35.15S7.68,38,6.17,38.57s-2.39-.1-1.81-1.31S6,36.14,6.68,35.15,7.78,35.15,7.78,35.15Z"/><polygon class="cls-6" points="7.48 29.82 7.48 35.15 6.88 34.16 6.88 29.97 7.18 30.95 7.48 29.82"/></g></g></g></svg>