<svg xmlns="http://www.w3.org/2000/svg" viewBox="0 0 70.68 65.09"><defs><style>.cls-1{fill:#f4f6f8;}.cls-2{fill:#eaf2e3;}.cls-3{fill:#1a1a35;}.cls-4{fill:#fff;}.cls-5{fill:#b5b5b5;}.cls-6{fill:#06d6a0;}.cls-7{fill:#f6bd60;}.cls-8{fill:#f59c52;}.cls-9{fill:#afc680;}.cls-10{fill:#adbf9b;}</style></defs><title>Asset 33icon-</title><g id="Layer_2" data-name="Layer 2"><g id="Icons"><g id="Payment"><path class="cls-1" d="M2.19,18.33c3-7.47,10-20.13,19.08-18.12,8.72,1.94,16.92,0,27,3.12,7.14,2.22,15.6,9.21,19.25,15,5.26,8.34,3.31,16.82-.53,26.42C64.3,51.36,55.52,58.54,49.72,61.92c-8.46,4.93-23,3.56-33-.46C7.18,57.65,3.5,51.41,1.19,41.48-.44,34.44-.65,25.45,2.19,18.33Z"/><path class="cls-2" d="M16,26.86l38.94-11.1a2.58,2.58,0,0,1,3.18,1.77l5.82,20.4a2.58,2.58,0,0,1-1.77,3.18L23.22,52.21A2.58,2.58,0,0,1,20,50.45L14.23,30A2.58,2.58,0,0,1,16,26.86Z"/><path class="cls-3" d="M16,26.83c5.59-1.6,11.16-3.28,16.72-5S43.86,18.56,49.46,17l4.21-1.15,1.05-.29a3,3,0,0,1,1.16-.12,2.8,2.8,0,0,1,2,1.15,3,3,0,0,1,.47,1.05l.29,1.05.57,2.1L60.38,25c.77,2.8,1.58,5.59,2.39,8.39L64,37.58a2.87,2.87,0,0,1-.06,2.24,2.77,2.77,0,0,1-1.72,1.49C51.06,44.61,39.91,47.9,28.72,51l-4.2,1.19-1,.3a3.16,3.16,0,0,1-1.21.14,2.92,2.92,0,0,1-2.1-1.2,3.17,3.17,0,0,1-.5-1.1l-.29-1.05-.58-2.1L17.67,43l-2.25-8.43-1.16-4.2a2.76,2.76,0,0,1,.08-2.16A2.62,2.62,0,0,1,16,26.83Zm0,.07a2.53,2.53,0,0,0-1.58,1.36,2.64,2.64,0,0,0-.05,2.08l1.23,4.18,2.53,8.35L19.4,47,20,49.14l.31,1a2.44,2.44,0,0,0,.41.87,2.23,2.23,0,0,0,1.59.88,2.39,2.39,0,0,0,.94-.12l1-.3,4.19-1.2C39.68,47.08,50.89,44,62.1,40.91a2.38,2.38,0,0,0,1.5-1.25,2.52,2.52,0,0,0,.08-2l-1.17-4.2c-.79-2.8-1.57-5.6-2.39-8.39l-1.22-4.19-.62-2.09a6.67,6.67,0,0,0-.74-2,2.35,2.35,0,0,0-1.7-.93,2.53,2.53,0,0,0-1,.13l-1,.31L49.63,17.6c-5.58,1.63-11.18,3.21-16.8,4.71S21.6,25.32,16,26.9Z"/><polyline class="cls-4" points="45.04 25.23 58.57 20.73 60.6 27.25 47.95 31.68 45.04 25.23"/><path class="cls-3" d="M45,25.2c2.21-.89,4.44-1.71,6.68-2.5s4.49-1.56,6.77-2.23l.28-.08.07.26c.6,2.2,1.19,4.39,1.88,6.56l0,.11-.11,0c-2.11.75-4.19,1.55-6.27,2.36S50.17,31.28,48.07,32l-.31.11-.16-.31q-.79-1.59-1.42-3.24c-.44-1.1-.84-2.21-1.18-3.35l.07,0c.63,1,1.2,2,1.73,3.1s1,2.12,1.49,3.21l-.47-.2c2.12-.72,4.23-1.43,6.36-2.11s4.26-1.34,6.37-2.08l-.07.15c-.66-2.18-1.42-4.32-2.17-6.47l.34.18c-2.23.83-4.49,1.56-6.76,2.27s-4.55,1.39-6.85,2Z"/><path class="cls-5" d="M48.67,24a20.79,20.79,0,0,1,2,1,20.5,20.5,0,0,0,2,1.12,37,37,0,0,1,3.95,2.22v0a37,37,0,0,1-4-2.14,20.48,20.48,0,0,0-2-1.07A20.76,20.76,0,0,1,48.66,24Z"/><path class="cls-5" d="M48.68,26.65a8.07,8.07,0,0,1,1.27.62,8,8,0,0,0,1.22.7,14.37,14.37,0,0,1,2.45,1.4v0a14.38,14.38,0,0,1-2.49-1.32,8,8,0,0,0-1.25-.65,8.06,8.06,0,0,1-1.2-.74Z"/><path class="cls-5" d="M55.84,22.05a3.86,3.86,0,0,1,.89.4,3.78,3.78,0,0,0,.84.49,6.86,6.86,0,0,1,1.68,1v0a6.85,6.85,0,0,1-1.72-.9,3.8,3.8,0,0,0-.87-.44,3.86,3.86,0,0,1-.82-.53Z"/><path class="cls-5" d="M52.27,22.82a19.86,19.86,0,0,1,2,1A19.6,19.6,0,0,0,56.15,25,35.48,35.48,0,0,1,60,27.17v0a35.49,35.49,0,0,1-3.88-2.13A19.63,19.63,0,0,0,54.15,24a19.9,19.9,0,0,1-1.9-1.15Z"/><path class="cls-3" d="M52.78,24.68a1.8,1.8,0,0,1,1.14-.57,5.64,5.64,0,0,0,.65,0,1.42,1.42,0,0,0,.58-.23,3.73,3.73,0,0,1,1.16-.49,2.87,2.87,0,0,1,1.29,0l0,.07a2.87,2.87,0,0,1-1.11.66,3.74,3.74,0,0,1-1.25.12,1.42,1.42,0,0,0-.62.07,5.62,5.62,0,0,0-.56.34,1.8,1.8,0,0,1-1.27,0Z"/><path class="cls-6" d="M9.61,16.78l40.49-.41a2.58,2.58,0,0,1,2.6,2.54l.21,21.22a2.58,2.58,0,0,1-2.54,2.6l-40.49.41a2.58,2.58,0,0,1-2.6-2.54L7.07,19.38A2.58,2.58,0,0,1,9.61,16.78Z"/><path class="cls-3" d="M9.61,16.75c5.81-.07,11.63-.21,17.44-.37s11.63-.23,17.44-.25h5.45a3,3,0,0,1,1.16.19A2.8,2.8,0,0,1,52.72,18a3,3,0,0,1,.18,1.14v3.27l0,4.36c0,2.91,0,5.81.09,8.72l.07,4.36A2.87,2.87,0,0,1,52.42,42a2.77,2.77,0,0,1-2.05,1c-11.63.23-23.25.45-34.88.53l-4.36,0H10a3.17,3.17,0,0,1-1.21-.19,2.92,2.92,0,0,1-1.7-1.71,3.17,3.17,0,0,1-.19-1.19V37.15l0-4.36L7,24.07V19.71a2.76,2.76,0,0,1,.65-2.06A2.62,2.62,0,0,1,9.61,16.75Zm0,.07a2.53,2.53,0,0,0-1.88.89,2.64,2.64,0,0,0-.6,2l.08,4.36.23,8.72.11,4.36,0,2.18,0,1.09a2.44,2.44,0,0,0,.16.94,2.23,2.23,0,0,0,1.3,1.26,2.39,2.39,0,0,0,.93.14h1.09l4.36-.05c11.63-.15,23.26-.17,34.89-.17a2.38,2.38,0,0,0,1.78-.81,2.52,2.52,0,0,0,.6-1.91V35.45c0-2.91,0-5.81-.09-8.72l-.07-4.36,0-2.18a6.68,6.68,0,0,0-.2-2.09,2.35,2.35,0,0,0-1.39-1.34,2.53,2.53,0,0,0-1-.13l-1.09,0-4.36.09c-5.81.1-11.63.14-17.44.1S15.43,16.77,9.61,16.82Z"/><path class="cls-7" d="M11.88,25.74l7.43-.05a.45.45,0,0,1,.48.42l0,3.51a.45.45,0,0,1-.47.43l-7.43.05a.46.46,0,0,1-.48-.42l0-3.51A.45.45,0,0,1,11.88,25.74Z"/><path class="cls-8" d="M11.88,25.7c2.06,0,4.11-.45,6.17-.32l.77,0,.39,0a.87.87,0,0,1,.48.13.62.62,0,0,1,.28.47c0,.16,0,.27,0,.4l0,.77c0,.51,0,1,0,1.54,0,.26,0,.51,0,.77a.64.64,0,0,1-.62.71c-2.06.16-4.11.22-6.17.24H12a1,1,0,0,1-.56-.14.78.78,0,0,1-.36-.58c0-.19,0-.28,0-.42l.06-.77L11.32,27c0-.26,0-.51,0-.77A.5.5,0,0,1,11.88,25.7Zm0,.08c-.62,0-.36.77-.35,1.23l.16,1.54.08.77,0,.35a.12.12,0,0,0,.05,0,4.51,4.51,0,0,0,.57,0l.77,0c2.06,0,4.12,0,6.18.15a.27.27,0,0,0,.3-.29c0-.26,0-.51,0-.77,0-.51,0-1,0-1.54l0-.77,0-.37a.23.23,0,0,0-.13-.15c-.09-.06-.39,0-.65,0l-.77.06C16,26.17,13.94,25.76,11.88,25.78Z"/><path class="cls-3" d="M10.81,35.17c.28-.31.88.05.79.49a.77.77,0,0,1-.36.42,2,2,0,0,1-.41.26.67.67,0,0,1-.88-.66c0-.48.58-.79.86-.52v.07c-.21.26-.08.41-.06.43a.25.25,0,0,0,.07.26.15.15,0,0,0,.24,0c0-.09,0-.21-.09-.24s.06-.13-.16-.43Z"/><path class="cls-3" d="M13.19,35.17c.28-.31.88.05.79.49a.77.77,0,0,1-.36.42,1.94,1.94,0,0,1-.41.26.67.67,0,0,1-.88-.66c0-.48.58-.79.86-.52v.07c-.21.26-.08.41-.06.43a.25.25,0,0,0,.07.26.15.15,0,0,0,.24,0c0-.09,0-.21-.09-.24s.06-.13-.16-.43Z"/><path class="cls-3" d="M15.58,35.18c.28-.31.88.05.79.49a.76.76,0,0,1-.36.42,1.94,1.94,0,0,1-.41.26.67.67,0,0,1-.88-.66c0-.48.58-.79.86-.52v.08c-.21.26-.08.41-.06.43a.25.25,0,0,0,.07.26.15.15,0,0,0,.24,0c0-.09,0-.21-.09-.24s.06-.13-.16-.43Z"/><path class="cls-3" d="M17.83,35.18c.28-.31.88.05.79.49a.77.77,0,0,1-.36.42,2,2,0,0,1-.41.26A.67.67,0,0,1,17,35.7c0-.48.58-.79.86-.52v.07c-.21.26-.08.41-.06.43a.25.25,0,0,0,.07.26.15.15,0,0,0,.24,0c0-.09,0-.21-.09-.24s.06-.13-.16-.43Z"/><path class="cls-3" d="M21.24,35.16c.28-.31.88.05.79.49a.77.77,0,0,1-.36.42,2,2,0,0,1-.41.26.67.67,0,0,1-.88-.66c0-.48.58-.79.86-.52v.08c-.21.26-.08.41-.06.43a.25.25,0,0,0,.07.26.15.15,0,0,0,.24,0c0-.09,0-.21-.09-.24s.06-.13-.16-.43Z"/><path class="cls-3" d="M23.62,35.17c.28-.31.88.05.79.49a.76.76,0,0,1-.36.42,1.94,1.94,0,0,1-.41.26.67.67,0,0,1-.88-.66c0-.48.58-.79.86-.52v.07c-.21.26-.08.41-.06.43a.25.25,0,0,0,.07.26.15.15,0,0,0,.24,0c0-.09,0-.21-.09-.24s.06-.13-.16-.43Z"/><path class="cls-3" d="M26,35.17c.28-.31.88.05.79.49a.76.76,0,0,1-.36.42,1.94,1.94,0,0,1-.41.26.67.67,0,0,1-.88-.66c0-.48.58-.79.86-.52v.08c-.21.26-.08.41-.06.43a.25.25,0,0,0,.07.26.15.15,0,0,0,.24,0c0-.09,0-.21-.09-.24s.06-.13-.16-.43Z"/><path class="cls-3" d="M28.26,35.17c.28-.31.88.05.79.49a.76.76,0,0,1-.36.42,2,2,0,0,1-.41.26.67.67,0,0,1-.88-.66c0-.48.58-.79.86-.52v.07c-.21.26-.08.41-.06.43a.25.25,0,0,0,.07.26.15.15,0,0,0,.24,0c0-.09,0-.21-.09-.24s.06-.13-.16-.43Z"/><path class="cls-3" d="M31.7,35.18c.28-.31.88.05.79.49a.76.76,0,0,1-.36.42,2,2,0,0,1-.41.26.67.67,0,0,1-.88-.66c0-.48.58-.79.86-.52v.07c-.21.26-.08.41-.06.43a.25.25,0,0,0,.07.26.15.15,0,0,0,.24,0c0-.09,0-.21-.09-.24s.06-.13-.16-.43Z"/><path class="cls-3" d="M34.08,35.18c.28-.31.88.05.79.49a.76.76,0,0,1-.36.42,1.94,1.94,0,0,1-.41.26.67.67,0,0,1-.88-.66c0-.48.58-.79.86-.52v.07c-.21.26-.08.41-.06.43a.25.25,0,0,0,.07.26.15.15,0,0,0,.24,0c0-.09,0-.21-.09-.24s.06-.13-.16-.43Z"/><path class="cls-3" d="M36.47,35.19c.28-.31.88.05.79.49a.76.76,0,0,1-.36.42,1.94,1.94,0,0,1-.41.26.67.67,0,0,1-.88-.66c0-.48.58-.79.86-.52v.07c-.21.26-.08.41-.06.43a.25.25,0,0,0,.07.26.15.15,0,0,0,.24,0c0-.09,0-.21-.09-.24s.06-.13-.16-.43Z"/><path class="cls-3" d="M38.73,35.19c.28-.31.88.05.79.49a.76.76,0,0,1-.36.42,1.94,1.94,0,0,1-.41.26.67.67,0,0,1-.88-.66c0-.48.58-.79.86-.52v.07c-.21.26-.08.41-.06.43a.25.25,0,0,0,.07.26.15.15,0,0,0,.24,0c0-.09,0-.21-.09-.24s.06-.13-.16-.43Z"/><path class="cls-3" d="M42.13,35.17c.28-.31.88.05.79.49a.77.77,0,0,1-.36.42,2,2,0,0,1-.41.26.67.67,0,0,1-.88-.66c0-.48.58-.79.86-.52v.07c-.21.26-.08.41-.06.43a.25.25,0,0,0,.07.26.15.15,0,0,0,.24,0c0-.09,0-.21-.09-.24s.06-.13-.16-.43Z"/><path class="cls-3" d="M44.51,35.18c.28-.31.88.05.79.49a.76.76,0,0,1-.36.42,1.93,1.93,0,0,1-.41.26.67.67,0,0,1-.88-.66c0-.48.58-.79.86-.52v.07c-.21.26-.08.41-.06.43a.25.25,0,0,0,.07.26.15.15,0,0,0,.24,0c0-.09,0-.21-.09-.24s.06-.13-.16-.43Z"/><path class="cls-3" d="M46.9,35.18c.28-.31.88.05.79.49a.76.76,0,0,1-.36.42,1.94,1.94,0,0,1-.41.26A.67.67,0,0,1,46,35.7c0-.48.58-.79.86-.52v.08c-.21.26-.08.41-.06.43a.25.25,0,0,0,.07.26.15.15,0,0,0,.24,0c0-.09,0-.21-.09-.24s.06-.13-.16-.43Z"/><path class="cls-3" d="M49.16,35.18c.28-.31.88.05.79.49a.76.76,0,0,1-.36.42,1.93,1.93,0,0,1-.41.26.67.67,0,0,1-.88-.66c0-.48.58-.79.86-.52v.07c-.21.26-.08.41-.06.43a.25.25,0,0,0,.07.26.15.15,0,0,0,.24,0c0-.09,0-.21-.09-.24s.06-.13-.16-.43Z"/><line class="cls-9" x1="36.6" y1="25.06" x2="46.03" y2="24.82"/><path class="cls-3" d="M36.59,25a4.64,4.64,0,0,1,2.35-.43c.39.05.79.2,1.19.22a3.78,3.78,0,0,0,1.18-.14,9.7,9.7,0,0,1,2.35-.32,7.21,7.21,0,0,1,2.37.42v.1a7.21,7.21,0,0,1-2.35.54,9.71,9.71,0,0,1-2.37-.2,3.78,3.78,0,0,0-1.18-.08c-.39,0-.78.21-1.17.28a4.64,4.64,0,0,1-2.37-.31Z"/><line class="cls-9" x1="29.21" y1="22.2" x2="46.28" y2="22.12"/><path class="cls-3" d="M29.21,22.15a14.64,14.64,0,0,1,4.27-.39c.71.07,1.42.21,2.13.24a12.2,12.2,0,0,0,2.13-.12A31.91,31.91,0,0,1,42,21.61a22.69,22.69,0,0,1,4.27.46v.1a22.7,22.7,0,0,1-4.26.5,31.92,31.92,0,0,1-4.27-.24,12.2,12.2,0,0,0-2.13-.1c-.71,0-1.42.19-2.13.26a14.63,14.63,0,0,1-4.27-.35Z"/><path class="cls-10" d="M31.34,43.43a4.64,4.64,0,0,1-2.19,1c-.4,0-.82,0-1.21.06a3.78,3.78,0,0,0-1.11.41,9.71,9.71,0,0,1-2.21.86,7.22,7.22,0,0,1-2.41.14l0-.1a7.22,7.22,0,0,1,2.16-1.08,9.71,9.71,0,0,1,2.35-.36,3.79,3.79,0,0,0,1.17-.2c.37-.13.71-.39,1.07-.55a4.64,4.64,0,0,1,2.38-.25Z"/><path class="cls-10" d="M39.18,44.5a14.64,14.64,0,0,1-4.06,1.37c-.71.1-1.43.13-2.13.26a12.19,12.19,0,0,0-2,.61A31.91,31.91,0,0,1,26.86,48a22.69,22.69,0,0,1-4.26.54l0-.1a22.69,22.69,0,0,1,4-1.48,31.92,31.92,0,0,1,4.21-.76,12.19,12.19,0,0,0,2.1-.4c.68-.2,1.34-.51,2-.75a14.64,14.64,0,0,1,4.23-.66Z"/><path class="cls-8" d="M15.14,26.19a1.44,1.44,0,0,1-.2.91,4.48,4.48,0,0,0-.3.37,1.24,1.24,0,0,0-.13.44,2.37,2.37,0,0,1-.83,1.62l0,0a2.37,2.37,0,0,1,.62-1.71,1.24,1.24,0,0,0,.23-.39,4.42,4.42,0,0,0,.07-.47,1.44,1.44,0,0,1,.53-.76Z"/><path class="cls-8" d="M18.33,26.19a1.54,1.54,0,0,1-.42.87,4.76,4.76,0,0,0-.38.3,1.33,1.33,0,0,0-.24.41,2.54,2.54,0,0,1-1.22,1.45l0,0a2.54,2.54,0,0,1,1-1.58,1.33,1.33,0,0,0,.33-.34,4.77,4.77,0,0,0,.18-.45,1.54,1.54,0,0,1,.71-.65Z"/><path class="cls-8" d="M11.89,27a5.51,5.51,0,0,1,1.83.28c.29.11.57.26.86.35a4.92,4.92,0,0,0,.9.17,9.36,9.36,0,0,1,3.53,1v0a9.36,9.36,0,0,1-3.59-.8,4.92,4.92,0,0,0-.88-.28c-.3-.06-.62-.06-.92-.1A5.51,5.51,0,0,1,11.88,27Z"/></g></g></g></svg>