<svg xmlns="http://www.w3.org/2000/svg" viewBox="0 0 62.2 64.46"><defs><style>.cls-1{fill:#f4f6f8;}.cls-2{fill:#fff;}.cls-3{fill:#1a1a35;}.cls-4{fill:none;stroke:#06d6a0;stroke-linecap:round;stroke-linejoin:round;stroke-width:1.7px;}.cls-5{fill:#eaf2e3;}.cls-6{fill:#a0cfd3;}</style></defs><title>Asset 32icon-</title><g id="Layer_2" data-name="Layer 2"><g id="Icons"><g id="Collaboration"><path class="cls-1" d="M.34,24.49C1.42,20,2.82,13.23,7.85,9.68c7.31-5.16,22-11.46,31.4-9.21a32,32,0,0,1,17.36,10.9c10,12.23,3.61,26,3.25,27.54-1.7,7.08-2.42,13.69-7.6,18C47.58,60.82,43.6,67,28.45,63.35c-.73-.18-19.2-8.8-21.49-15C4.45,41.46-1.48,32.11.34,24.49Z"/><circle class="cls-2" cx="35.77" cy="51.89" r="5.42"/><path class="cls-3" d="M41.23,51.89a6.07,6.07,0,0,1-1.46,4,5.12,5.12,0,0,1-4,1.73,6,6,0,0,1-5.63-5.74,5.5,5.5,0,0,1,1.54-4.08,5.66,5.66,0,0,1,4.08-1.74,5.35,5.35,0,0,1,4,1.81A6.07,6.07,0,0,1,41.23,51.89Zm-.08,0a4.88,4.88,0,0,0-1.73-3.66,5.6,5.6,0,0,0-3.66-1.36,5.23,5.23,0,0,0-3.59,1.44,5.39,5.39,0,0,0-1.63,3.59A4.91,4.91,0,0,0,32,55.64,5.1,5.1,0,0,0,35.77,57a6,6,0,0,0,3.67-1.44A4.88,4.88,0,0,0,41.16,51.89Z"/><path class="cls-4" d="M29.17,50.68A6.12,6.12,0,0,1,34,54.8s2.78-5.48,5.22-7.55,4-1.79,4-1.79"/><path class="cls-5" d="M8.94,13.1v9.28a.92.92,0,0,0,1,.85h9a2,2,0,0,1,.55.15l3.81,2.27c4,2.49,4.78,1.52,1.76-.84l-.37-.3a.85.85,0,0,1,.84-1.28h9.72a.92.92,0,0,0,1-.85V13.1a.92.92,0,0,0-1-.85H9.92A.92.92,0,0,0,8.94,13.1Z"/><path class="cls-3" d="M9,13.1,9,18l.06,2.46,0,1.23,0,.62a.56.56,0,0,0,.17.42c.24.24.53.25,1,.22l1.23,0,2.46,0c1.64,0,3.28,0,4.92,0h0a3.07,3.07,0,0,1,.43.09,1.11,1.11,0,0,1,.25.1l.17.1.66.4,1.31.82c.88.54,1.75,1.11,2.62,1.63a11.23,11.23,0,0,0,1.36.68,3,3,0,0,0,.7.2.45.45,0,0,0,.26,0s0-.08,0-.19a8.15,8.15,0,0,0-2.11-2.13l0,0a.87.87,0,0,1-.07-.87,1.06,1.06,0,0,1,.66-.55,11,11,0,0,1,1.61-.06l3.16,0L33.06,23l1.58,0a6.39,6.39,0,0,0,.74,0,.73.73,0,0,0,.47-.32.5.5,0,0,0,.07-.25V21.23l0-1.58,0-3.16,0-3.16c0-.32,0-.36-.11-.5a.64.64,0,0,0-.43-.2H33.73c-4.21,0-8.42,0-12.62-.09l-6.31-.17c-1.05,0-2.1-.06-3.16-.06l-1.58,0A.92.92,0,0,0,9,13.1Zm-.07,0a1,1,0,0,1,1.16-.9l1.58,0c1.05,0,2.1,0,3.16-.06l6.31-.17c4.21-.1,8.42-.07,12.62-.09l1.61,0a1.4,1.4,0,0,1,.95.48,1.16,1.16,0,0,1,.26.51,2.34,2.34,0,0,1,0,.47l0,3.16,0,3.16,0,1.58v1.2a1,1,0,0,1-.16.5,1.23,1.23,0,0,1-.81.52,6,6,0,0,1-.84,0l-1.58,0-3.16-.05-3.16,0a11.88,11.88,0,0,0-1.54,0,.69.69,0,0,0-.45,1.06l0,0A8.11,8.11,0,0,1,27,26.63a.44.44,0,0,1-.08.53.68.68,0,0,1-.48.1,3.32,3.32,0,0,1-.79-.19,11.59,11.59,0,0,1-1.43-.64c-.92-.49-1.8-1-2.7-1.52l-1.34-.76-.67-.39-.17-.1-.11,0-.33-.07h0c-1.64,0-3.28,0-4.92,0l-2.46,0-1.23,0a3.39,3.39,0,0,1-.67-.05A1.22,1.22,0,0,1,9,23a1,1,0,0,1-.25-.71l0-.62,0-1.23L8.85,18Z"/><path class="cls-6" d="M56.83,27.27v5.24a.93.93,0,0,1-1,.87H43.63a1.06,1.06,0,0,0-.55.15l-3.81,2.34c-4.61,2.8-5.57,1.88-1.76-.86l.37-.31A.88.88,0,0,0,37,33.38H30.56a.93.93,0,0,1-1-.87V27.27a.93.93,0,0,1,1-.87h25.3A.93.93,0,0,1,56.83,27.27Z"/><path class="cls-3" d="M56.87,27.27c0,1.33,0,2.66.13,4l.05,1v.25a1.09,1.09,0,0,1,0,.32,1.12,1.12,0,0,1-.36.52,1.61,1.61,0,0,1-1.11.3h-1l-4,0-4,0-2,0-1,0a.8.8,0,0,0-.36.1l-.43.25-3.45,2a13.74,13.74,0,0,1-3.68,1.66.62.62,0,0,1-.59-.14.58.58,0,0,1,.11-.59,5.07,5.07,0,0,1,.68-.77,16.34,16.34,0,0,1,1.56-1.27h0l.37-.31,0,0a.69.69,0,0,0-.25-1c-.32-.21-.8-.09-1.25-.12l-2.71,0-2.71,0a2,2,0,0,1-.76-.07,1.2,1.2,0,0,1-.64-.54,1.06,1.06,0,0,1-.13-.43v-1l0-2.71V27.48a1.38,1.38,0,0,1,.18-.84,1.31,1.31,0,0,1,.73-.54,1.53,1.53,0,0,1,.44-.06h2.37l2.71,0c3.61,0,7.22,0,10.83.1l5.41.17c.9,0,1.8.05,2.71.06l1.36,0A1,1,0,0,1,56.87,27.27Zm-.08,0a.88.88,0,0,0-.84-.82H54.6c-.9,0-1.8,0-2.71.06l-5.41.17c-3.61.1-7.22.08-10.83.1l-2.71,0H30.58a.81.81,0,0,0-.23,0A.61.61,0,0,0,30,27c-.08.13-.08.19-.08.46v1.35l0,2.71v1a.53.53,0,0,0,.06.22.69.69,0,0,0,.36.32,1.55,1.55,0,0,0,.58.06l2.71,0,2.71,0h.68a1.3,1.3,0,0,1,.72.18A1,1,0,0,1,38,34.78h0l0,0-.37.31h0A16.13,16.13,0,0,0,36,36.35a4,4,0,0,0-.64.72c-.09.12-.14.3-.11.33a.49.49,0,0,0,.35,0,12.69,12.69,0,0,0,3.54-1.7l3.37-2.16.42-.27a1.32,1.32,0,0,1,.59-.19l1,0,2,0,4,0,4,0h1a1.1,1.1,0,0,0,.79-.14.63.63,0,0,0,.22-.28.61.61,0,0,0,0-.17v-.25l.05-1C56.74,29.94,56.77,28.6,56.79,27.27Z"/><path class="cls-5" d="M8.94,37.18v5.24a.93.93,0,0,0,1,.87h9a1.06,1.06,0,0,1,.55.15l3.81,2.34c4.61,2.8,5.57,1.88,1.76-.86l-.37-.31a.88.88,0,0,1,.84-1.32H32a.93.93,0,0,0,1-.87V37.18a.93.93,0,0,0-1-.87H9.92A.93.93,0,0,0,8.94,37.18Z"/><path class="cls-3" d="M9,37.18l0,3.59c0,.59,0,1.22.07,1.77a.76.76,0,0,0,.5.53,2.51,2.51,0,0,0,.83,0Q14,43,17.6,43H19a1.39,1.39,0,0,1,.56.15c.56.34,1,.63,1.55,1,1,.64,2,1.32,3,1.94.51.31,1,.6,1.56.86a6.49,6.49,0,0,0,.81.34,1.48,1.48,0,0,0,.77.11s0-.08,0-.22a1.9,1.9,0,0,0-.23-.35,6.42,6.42,0,0,0-.61-.63A13.78,13.78,0,0,0,25,45h0l-.37-.31,0,0h0a1,1,0,0,1,.22-1.29,1.15,1.15,0,0,1,.65-.24h.63l2.5-.05,2.5,0h.63a1.51,1.51,0,0,0,.53-.06.67.67,0,0,0,.34-.27.65.65,0,0,0,.08-.44c0-1.67-.06-3.34-.07-5a.53.53,0,0,0-.44-.55.79.79,0,0,0-.22,0H28.5c-3.34,0-6.68,0-10-.1l-5-.17q-1.25,0-2.5-.06c-.41,0-.85,0-1.24,0A.87.87,0,0,0,9,37.18Zm-.07,0a1,1,0,0,1,.8-.91c.43,0,.84,0,1.26,0q1.25,0,2.5-.06l5-.17c3.34-.1,6.68-.09,10-.1h3.44a1.56,1.56,0,0,1,.4.05,1.35,1.35,0,0,1,.71.46,1.22,1.22,0,0,1,.26.81c0,1.67,0,3.34-.07,5A1.24,1.24,0,0,1,33,43a1.22,1.22,0,0,1-.64.47,2,2,0,0,1-.71.06h-.63l-2.5,0-2.5-.05c-.43,0-.84-.07-1.12.17a.69.69,0,0,0-.18.94l0,0,.37.31h0c.48.36,1,.73,1.42,1.12a6.67,6.67,0,0,1,.65.65,2.14,2.14,0,0,1,.27.39.68.68,0,0,1,.08.27.32.32,0,0,1-.17.31,1.54,1.54,0,0,1-1-.07c-.29-.09-.58-.2-.86-.32-.56-.23-1.1-.51-1.63-.79-1.06-.58-2.08-1.2-3.12-1.79l-1.52-.9a.75.75,0,0,0-.3-.07H17.6q-3.59,0-7.18-.15a2.75,2.75,0,0,1-.95-.11,1,1,0,0,1-.64-.77c0-.65,0-1.21,0-1.82Z"/></g></g></g></svg>