<svg id="Layer_1" data-name="Layer 1" xmlns="http://www.w3.org/2000/svg" viewBox="0 0 504 302.4"><defs><style>.cls-1{fill:#ffb600;}.cls-2{fill:#f7981d;}.cls-3{fill:#ff5050;}.cls-4{fill:#e52836;}.cls-5{fill:#fff;}</style></defs><title>icon-mastercard</title><path class="cls-1" d="M504,155A151.08,151.08,0,0,1,352.8,306.2c-83.2,0-151.2-68-151.2-151.2h0C201.6,71.8,268.8,3.8,352,3.8c84.8,0,152,68,152,151.2Z" transform="translate(0 -3.8)"/><path class="cls-2" d="M352.8,3.8C436,3.8,504,71.8,504,155h0A151.08,151.08,0,0,1,352.8,306.2c-83.2,0-151.2-68-151.2-151.2" transform="translate(0 -3.8)"/><path class="cls-3" d="M149.6,3.8C67.2,4.6,0,71.8,0,155A151.08,151.08,0,0,0,151.2,306.2c39.2,0,74.4-15.2,101.6-39.2h0c5.6-4.8,10.4-10.4,15.2-16H236.8a184.56,184.56,0,0,1-11.2-15.2h53.6a102.48,102.48,0,0,0,8.8-16H216.8a95.35,95.35,0,0,1-6.4-16h83.2c4.8-15.2,8-31.2,8-48,0-11.2-1.6-21.6-3.2-32H205.6c.8-5.6,2.4-10.4,4-16h83.2a95.35,95.35,0,0,0-6.4-16H216c2.4-5.6,5.6-10.4,8.8-16h53.6a76.08,76.08,0,0,0-12-16H236.8A136.35,136.35,0,0,1,252,44.6C225.6,19.8,189.6,5.4,150.4,5.4,150.4,3.8,150.4,3.8,149.6,3.8Z" transform="translate(0 -3.8)"/><path class="cls-4" d="M0,155A151.08,151.08,0,0,0,151.2,306.2c39.2,0,74.4-15.2,101.6-39.2h0c5.6-4.8,10.4-10.4,15.2-16H236.8a184.56,184.56,0,0,1-11.2-15.2h53.6a102.48,102.48,0,0,0,8.8-16H216.8a95.35,95.35,0,0,1-6.4-16h83.2c4.8-15.2,8-31.2,8-48,0-11.2-1.6-21.6-3.2-32H205.6c.8-5.6,2.4-10.4,4-16h83.2a95.35,95.35,0,0,0-6.4-16H216c2.4-5.6,5.6-10.4,8.8-16h53.6a76.08,76.08,0,0,0-12-16H236.8A136.35,136.35,0,0,1,252,44.6C225.6,19.8,189.6,5.4,150.4,5.4h-.8" transform="translate(0 -3.8)"/><path class="cls-5" d="M204.8,193.4l2.4-13.6c-.8,0-2.4.8-4,.8-5.6,0-6.4-3.2-5.6-4.8l4.8-28h8.8l2.4-15.2h-8l1.6-9.6h-16s-9.6,52.8-9.6,59.2c0,9.6,5.6,13.6,12.8,13.6A24.56,24.56,0,0,0,204.8,193.4Z" transform="translate(0 -3.8)"/><path class="cls-5" d="M210.4,167.8c0,22.4,15.2,28,28,28,12,0,16.8-2.4,16.8-2.4l3.2-15.2s-8.8,4-16.8,4c-17.6,0-14.4-12.8-14.4-12.8H260s2.4-10.4,2.4-14.4c0-10.4-5.6-23.2-23.2-23.2C222.4,130.2,210.4,147.8,210.4,167.8Zm28-23.2c8.8,0,7.2,10.4,7.2,11.2H228C228,155,229.6,144.6,238.4,144.6Z" transform="translate(0 -3.8)"/><path class="cls-5" d="M340,193.4l3.2-17.6s-8,4-13.6,4c-11.2,0-16-8.8-16-18.4,0-19.2,9.6-29.6,20.8-29.6,8,0,14.4,4.8,14.4,4.8l2.4-16.8s-9.6-4-18.4-4c-18.4,0-36.8,16-36.8,46.4,0,20,9.6,33.6,28.8,33.6C331.2,195.8,340,193.4,340,193.4Z" transform="translate(0 -3.8)"/><path class="cls-5" d="M116.8,130.2a56.66,56.66,0,0,0-19.2,3.2L95.2,147a47.29,47.29,0,0,1,17.6-3.2c5.6,0,10.4.8,10.4,5.6,0,3.2-.8,4-.8,4h-7.2c-13.6,0-28.8,5.6-28.8,24,0,14.4,9.6,17.6,15.2,17.6,11.2,0,16-7.2,16.8-7.2l-.8,6.4H132l6.4-44C138.4,131,122.4,130.2,116.8,130.2Zm3.2,36c0,2.4-1.6,15.2-11.2,15.2a6.24,6.24,0,0,1-6.4-6.4c0-4,2.4-9.6,14.4-9.6A12.62,12.62,0,0,0,120,166.2Z" transform="translate(0 -3.8)"/><path class="cls-5" d="M153.6,195c4,0,24,.8,24-20.8,0-20-19.2-16-19.2-24,0-4,3.2-5.6,8.8-5.6,2.4,0,11.2.8,11.2.8l2.4-14.4a60.77,60.77,0,0,0-15.2-1.6c-12,0-24,4.8-24,20.8,0,18.4,20,16.8,20,24,0,4.8-5.6,5.6-9.6,5.6a52.32,52.32,0,0,1-14.4-2.4l-2.4,14.4C136,193.4,140,195,153.6,195Z" transform="translate(0 -3.8)"/><path class="cls-5" d="M472.8,117.4,469.6,139s-6.4-8-15.2-8c-14.4,0-27.2,17.6-27.2,38.4,0,12.8,6.4,26.4,20,26.4a21.36,21.36,0,0,0,15.2-6.4l-.8,5.6h16l12-76.8Zm-7.2,42.4c0,8.8-4,20-12.8,20-5.6,0-8.8-4.8-8.8-12.8,0-12.8,5.6-20.8,12.8-20.8C462.4,146.2,465.6,150.2,465.6,159.8Z" transform="translate(0 -3.8)"/><path class="cls-5" d="M29.6,194.2l9.6-57.6,1.6,57.6H52l20.8-57.6L64,194.2H80.8l12.8-76.8H67.2l-16,47.2-.8-47.2H27.2L14.4,194.2Z" transform="translate(0 -3.8)"/><path class="cls-5" d="M277.6,194.2c4.8-26.4,5.6-48,16.8-44,1.6-10.4,4-14.4,5.6-18.4h-3.2c-7.2,0-12.8,9.6-12.8,9.6l1.6-8.8H270.4L260,195h17.6Z" transform="translate(0 -3.8)"/><path class="cls-5" d="M376.8,130.2a56.66,56.66,0,0,0-19.2,3.2L355.2,147a47.29,47.29,0,0,1,17.6-3.2c5.6,0,10.4.8,10.4,5.6,0,3.2-.8,4-.8,4h-7.2c-13.6,0-28.8,5.6-28.8,24,0,14.4,9.6,17.6,15.2,17.6,11.2,0,16-7.2,16.8-7.2l-.8,6.4H392l6.4-44C399.2,131,382.4,130.2,376.8,130.2Zm4,36c0,2.4-1.6,15.2-11.2,15.2a6.24,6.24,0,0,1-6.4-6.4c0-4,2.4-9.6,14.4-9.6C380,166.2,380,166.2,380.8,166.2Z" transform="translate(0 -3.8)"/><path class="cls-5" d="M412,194.2c4.8-26.4,5.6-48,16.8-44,1.6-10.4,4-14.4,5.6-18.4h-3.2c-7.2,0-12.8,9.6-12.8,9.6l1.6-8.8H404.8L394.4,195H412Z" transform="translate(0 -3.8)"/></svg>