<svg xmlns="http://www.w3.org/2000/svg" viewBox="0 0 67.07 63.48"><defs><style>.cls-1{fill:#f4f6f8;}.cls-2{fill:#fff;}.cls-3{fill:#eaf2e3;}.cls-4{fill:#1a1a35;}.cls-5{fill:#06d6a0;}.cls-6{fill:#d3d7e6;}.cls-7{fill:#0f79b3;}</style></defs><title>Asset 37icon-</title><g id="Layer_2" data-name="Layer 2"><g id="Icons"><g id="CMS"><path class="cls-1" d="M4.77,17.28C1.3,24.54-1.42,31.35.81,38.62,3.44,47.16,12,55.88,20.92,60.13a33.79,33.79,0,0,0,20.72,2.8c9.69-1.79,16.5-6.26,21-15.59,3.07-6.43,5.5-15,4.05-21.56-2.11-9.57-5.28-15.32-15-20-9.26-4.42-22.46-8.5-31.32-3.47C14,5.89,8.07,10.36,4.77,17.28Z"/><rect class="cls-2" x="14.28" y="11.84" width="39.46" height="39.46"/><path class="cls-3" d="M54.05,10.62H14.28a.89.89,0,0,0-.88.88V51.27a.88.88,0,0,0,.88.88H54a.88.88,0,0,0,.88-.88V11.5A.87.87,0,0,0,54.05,10.62ZM15.17,12.39h38v5.49h-38Zm38,38h-38V19.65h38V50.39Z"/><path class="cls-4" d="M54.05,10.65l-20.58.12-10.29.07h-9a.7.7,0,0,0-.62.68l-.1,20.57c0,3.43,0,6.86,0,10.29l0,5.14v3.84a.75.75,0,0,0,.74.67l20.58-.09H54.11a.64.64,0,0,0,.57-.63c0-6.86,0-13.72.09-20.58l.07-10.29,0-5.14,0-2.57V11.41A.85.85,0,0,0,54.05,10.65Zm0-.05a.91.91,0,0,1,.9.81V12.7l0,2.57,0,5.14.07,10.29c.06,6.86.12,13.72.09,20.58a1.13,1.13,0,0,1-1,1.11H34.85l-20.58-.09a1,1,0,0,1-1-.91V47.5l0-5.14c0-3.43,0-6.86,0-10.29L13.21,11.5a1.08,1.08,0,0,1,1-1.06h9l10.29.07Z"/><path class="cls-4" d="M15.15,12.38c3.11-.06,6.26-.1,9.43-.11l9.51-.07,9.56.07c3.18,0,6.35.08,9.53,0a.1.1,0,0,1,.1.1h0l0,5.49a.14.14,0,0,1-.14.14c-6.33.07-12.67.12-19,.13-3.17,0-6.33,0-9.5,0l-9.5-.1a.12.12,0,0,1-.12-.12h0Zm0,0,.11,5.48-.12-.12,9.5-.1c3.17,0,6.33,0,9.5,0,6.33,0,12.67.05,19,.13l-.14.14,0-5.49.1.1c-3.16,0-6.32,0-9.48,0l-9.44.07-9.49-.07C21.59,12.51,18.41,12.47,15.18,12.41Z"/><path class="cls-4" d="M53.16,50.41c-3.17,0-6.33.1-9.5.11l-9.5,0-9.5,0-9.5,0a.17.17,0,0,1-.17-.17h0L15.08,35c0-2.56,0-5.12,0-7.68l0-7.68a.14.14,0,0,1,.14-.14c12.67-.09,25.34-.15,38-.12a.25.25,0,0,1,.25.25h0L53.34,35q0,7.68-.14,15.37a0,0,0,0,1,0,0Zm0,0h0l0,0Q53,42.7,53,35l-.08-15.37.25.25c-12.67,0-25.34,0-38-.12l.14-.14,0,7.68c0,2.56,0,5.12,0,7.68l.09,15.37-.17-.17,9.5,0,9.5,0,9.5,0C46.83,50.26,50,50.33,53.16,50.36Z"/><path class="cls-4" d="M18.13,23.42a29.31,29.31,0,0,1,5.23-.27c.87.05,1.74.16,2.62.19a24.4,24.4,0,0,0,2.62-.08,50.22,50.22,0,0,1,10.47.17v.07a50.21,50.21,0,0,1-10.47.17A24.38,24.38,0,0,0,26,23.58c-.87,0-1.74.14-2.62.19a29.31,29.31,0,0,1-5.23-.27Z"/><path class="cls-4" d="M18.72,26.47a7.28,7.28,0,0,1,2.61-.15c.43.07.86.2,1.29.25a6,6,0,0,0,1.3,0,15.81,15.81,0,0,1,2.6-.07A11.33,11.33,0,0,1,29.1,27V27a11.32,11.32,0,0,1-2.61.24A15.8,15.8,0,0,1,23.9,27a6,6,0,0,0-1.29-.15c-.43,0-.87.1-1.31.13a7.28,7.28,0,0,1-2.58-.4Z"/><path class="cls-4" d="M18.72,46.62a26.13,26.13,0,0,1,4.95-.15c.82.07,1.64.2,2.46.25a21.76,21.76,0,0,0,2.47,0,44.75,44.75,0,0,1,9.87.41v.08a44.75,44.75,0,0,1-9.88-.08A21.71,21.71,0,0,0,26.13,47c-.82,0-1.65.1-2.47.13a26.13,26.13,0,0,1-4.93-.4Z"/><path class="cls-4" d="M31.17,26.47a14.28,14.28,0,0,1,3.66-.15c.61.07,1.21.2,1.82.25a11.92,11.92,0,0,0,1.83,0,31.22,31.22,0,0,1,3.66-.07,22.12,22.12,0,0,1,3.64.49V27a22.12,22.12,0,0,1-3.67.24A31.22,31.22,0,0,1,38.47,27a11.93,11.93,0,0,0-1.82-.15c-.61,0-1.22.1-1.83.13a14.28,14.28,0,0,1-3.65-.4Z"/><path class="cls-4" d="M18.13,30.13a34.1,34.1,0,0,1,5.65-.23c.94.06,1.88.18,2.82.21s1.88,0,2.83-.06a58.45,58.45,0,0,1,11.3.26v.07a58.46,58.46,0,0,1-11.3.08c-.94-.07-1.88-.13-2.82-.11s-1.88.12-2.83.17a34.12,34.12,0,0,1-5.65-.32Z"/><path class="cls-5" d="M19.59,38.41a4.32,4.32,0,0,0,1.67.82,13.66,13.66,0,0,0,1.84.42,25,25,0,0,0,3.75.35,3.13,3.13,0,0,0,1.72-.26A9.87,9.87,0,0,0,30,38.55,2.48,2.48,0,0,0,30.9,37c0-.59-.65-.9-1.19-1.13A3.45,3.45,0,0,0,28,35.69c-.56.09-1.08.42-1.13.84a1.86,1.86,0,0,0,.4,1.5,3,3,0,0,0,1.42.87,17.73,17.73,0,0,0,3.71.46,6.79,6.79,0,0,1,1.92.49,1.7,1.7,0,0,1,.8.67.76.76,0,0,1-.22,1l-.05-.05a.62.62,0,0,0,.06-.78,1.59,1.59,0,0,0-.73-.44A7.3,7.3,0,0,0,32.31,40c-.63,0-1.24,0-1.91,0a7.88,7.88,0,0,1-2-.28,3.57,3.57,0,0,1-1.79-1.14,2.61,2.61,0,0,1-.48-2.11,1.5,1.5,0,0,1,.71-1,2.48,2.48,0,0,1,1-.34,3.68,3.68,0,0,1,2,.39,3.5,3.5,0,0,1,.84.56,1.21,1.21,0,0,1,.45.94,3,3,0,0,1-.94,1.73,17.65,17.65,0,0,1-1.4,1.35,1.53,1.53,0,0,1-.47.29,3.37,3.37,0,0,1-.5.14,7.14,7.14,0,0,1-1,.13A14.43,14.43,0,0,1,23,40.22a10.34,10.34,0,0,1-1.86-.61,3.72,3.72,0,0,1-1.59-1.14Z"/><path class="cls-5" d="M37,43.26c-3.1.13-6.33.23-9.59.26s-6.56,0-9.8-.12h-.18v-.17c0-1.62.07-3.24.05-4.86s0-3.24-.08-4.86v-.2h.21c3.23-.11,6.46-.14,9.68-.17s6.46,0,9.68,0h.34v.33C37.3,36.84,37.15,40.13,37,43.26ZM37,43.21c-.12-3.35-.27-6.54-.31-9.7l.34.34q-4.84.08-9.68,0c-3.23,0-6.46-.07-9.68-.17l.21-.21c0,1.62-.08,3.24-.08,4.86s0,3.24.05,4.86l-.17-.17c3.21-.1,6.36-.2,9.56-.12S33.63,43.08,37,43.21Z"/><circle class="cls-6" cx="18.15" cy="15.2" r="1.54"/><circle class="cls-6" cx="23.24" cy="15.2" r="1.54"/><circle class="cls-1" cx="49.89" cy="38.41" r="5.09"/><path id="_Compound_Path_" data-name="&lt;Compound Path&gt;" class="cls-7" d="M59.72,37.76a.71.71,0,0,0-.6-.7l-1.87-.31a7.74,7.74,0,0,0-.84-2l1.1-1.54a.71.71,0,0,0-.08-.92l-.66-.66-.66-.66a.74.74,0,0,0-.92-.06L53.66,32a7.73,7.73,0,0,0-2-.83l-.32-1.87a.72.72,0,0,0-.7-.6H48.76a.71.71,0,0,0-.7.6l-.32,1.87a7.3,7.3,0,0,0-2.06.87l-1.53-1.08a.71.71,0,0,0-.92.08l-.65.65-.66.66a.72.72,0,0,0-.08.92l1.1,1.55a7.87,7.87,0,0,0-.82,2l-1.85.29a.72.72,0,0,0-.6.7v1.87a.71.71,0,0,0,.6.7l1.88.31a7.69,7.69,0,0,0,.85,2L41.9,44.24a.72.72,0,0,0,.08.92l.66.66.66.66a.72.72,0,0,0,.92.08l1.55-1.1a7.87,7.87,0,0,0,2,.82l.31,1.85a.72.72,0,0,0,.7.6h1.87a.71.71,0,0,0,.7-.6l.31-1.88a7.77,7.77,0,0,0,2-.82l1.54,1.1a.72.72,0,0,0,.92-.08l.66-.66.66-.66a.72.72,0,0,0,.08-.92l-1.1-1.54a7.72,7.72,0,0,0,.83-2l1.87-.32a.72.72,0,0,0,.6-.7V37.76Zm-6.9,4a4.35,4.35,0,1,1,0-6.15A4.35,4.35,0,0,1,52.83,41.73Z"/></g></g></g></svg>