<svg xmlns="http://www.w3.org/2000/svg" viewBox="0 0 62.25 65.13"><defs><style>.cls-1{fill:#f4f6f8;}.cls-2{fill:#06d6a0;}.cls-3{fill:#1a1a35;}.cls-4{fill:none;stroke:#fff;stroke-linecap:round;stroke-linejoin:round;stroke-width:0.75px;}.cls-5{fill:#fff;}.cls-6{fill:#f59c52;}</style></defs><title>Asset 43icon-</title><g id="Layer_2" data-name="Layer 2"><g id="Icons"><g id="Basket"><path class="cls-1" d="M31.71,65.13c-8,0-15.37-.48-21-5.62C4.17,53.45,0,42,0,32.09a33.79,33.79,0,0,1,6.4-19.9C12.19,4.21,19.16,0,29.5,0c7.12,0,15.91,1.5,21.2,5.63,7.72,6,11.55,11.36,11.55,22.19,0,10.26-2,23.93-10.36,29.76C46,61.72,39.38,65.13,31.71,65.13Z"/><path class="cls-2" d="M44.38,27h9.2a1.75,1.75,0,0,1,1.81,2.17L52.62,49.79c-.32,2.41-2,4.46-4.46,4.46H14.72c-2.44,0-4.14-2-4.46-4.46L7.49,29.13A1.75,1.75,0,0,1,9.3,27h9.26m0,0H44.35"/><path class="cls-3" d="M44.38,26.92l7.12-.16,1.78,0a2,2,0,0,1,2.38,2.42l-.22,1.77c-.6,4.71-1.2,9.42-1.87,14.12L53,48.57c-.1.59-.16,1.16-.29,1.78a6.06,6.06,0,0,1-.68,1.71,4.62,4.62,0,0,1-2.85,2.21,7,7,0,0,1-1.81.13H45.64c-4.75,0-9.49,0-14.24.08l-14.24.15H15.39a6.54,6.54,0,0,1-1.86-.15,4.84,4.84,0,0,1-2.92-2.37,6.17,6.17,0,0,1-.66-1.77c-.12-.64-.17-1.19-.25-1.79L9.23,45C8.59,40.29,8,35.58,7.45,30.87L7.24,29.1a2.23,2.23,0,0,1,.6-1.83,2.38,2.38,0,0,1,1.82-.51l1.78,0,7.12.15a0,0,0,0,1,0,.07l-7.12.15-1.78,0a2,2,0,0,0-1.51.42c-.78.76-.27,2.06-.16,3.21.69,4.7,1.38,9.39,2,14.09l.48,3.53c.08.57.15,1.2.25,1.73a5.65,5.65,0,0,0,.56,1.56,4.08,4.08,0,0,0,2.43,2,5.84,5.84,0,0,0,1.67.15h1.78L31.41,54c4.75.06,9.49.11,14.24.08h1.78A6.35,6.35,0,0,0,49.15,54a4.26,4.26,0,0,0,2.56-2.12,5.64,5.64,0,0,0,.58-1.6c.1-.55.15-1.16.23-1.74L52.95,45c.59-4.71,1.25-9.41,1.91-14.11.09-1.16.61-2.45-.12-3.22a1.82,1.82,0,0,0-1.47-.46l-1.78,0L44.38,27a0,0,0,0,1,0-.07Z"/><path class="cls-3" d="M18.52,26.92A45.44,45.44,0,0,1,25,26.65c1.08.05,2.15.16,3.23.19s2.15,0,3.23-.08a76.33,76.33,0,0,1,12.91.17,0,0,0,0,1,0,.07,76.3,76.3,0,0,1-12.91.17c-1.08-.06-2.15-.11-3.23-.08s-2.15.14-3.23.19A45.42,45.42,0,0,1,18.52,27a0,0,0,0,1,0-.07Z"/><line class="cls-4" x1="25.15" y1="29.53" x2="10.99" y2="42.7"/><line class="cls-4" x1="18.32" y1="29.71" x2="10.96" y2="36.09"/><line class="cls-4" x1="13.46" y1="29.09" x2="10.18" y2="31.37"/><line class="cls-4" x1="31.52" y1="29.53" x2="11.81" y2="48.26"/><line class="cls-4" x1="37.18" y1="29.53" x2="13.82" y2="51.91"/><line class="cls-4" x1="43" y1="29.53" x2="19.25" y2="52.3"/><line class="cls-4" x1="49.06" y1="29.53" x2="25.3" y2="52.3"/><line class="cls-4" x1="52.97" y1="31.83" x2="31.52" y2="52.3"/><line class="cls-4" x1="52.52" y1="38.65" x2="37.88" y2="52.3"/><line class="cls-4" x1="51.39" y1="46.35" x2="44.45" y2="52.3"/><circle class="cls-5" cx="39.42" cy="30.96" r="1.56" transform="translate(-0.69 61.02) rotate(-74.99)"/><path class="cls-3" d="M39.81,29.49a1.08,1.08,0,0,0-1.05.32,2.84,2.84,0,0,0-.54.82,1.23,1.23,0,0,0,0,1,1.08,1.08,0,0,0,.89.59,1.4,1.4,0,0,0,1.47-1,1.89,1.89,0,0,0,0-1A1.08,1.08,0,0,0,39.81,29.49Zm0-.07a2.31,2.31,0,0,1,1.15.64,1.53,1.53,0,0,1,.33,1.41A1.75,1.75,0,0,1,39,32.66a2.31,2.31,0,0,1-1-.86,1.89,1.89,0,0,1-.35-1.32,1.36,1.36,0,0,1,.91-1.07A2.33,2.33,0,0,1,39.83,29.41Z"/><circle class="cls-5" cx="23.46" cy="30.96" r="1.56" transform="translate(-7.21 7.12) rotate(-14.98)"/><path class="cls-3" d="M23,29.41a2.32,2.32,0,0,1,1.31,0,1.36,1.36,0,0,1,.91,1.07,1.89,1.89,0,0,1-.35,1.32,2.31,2.31,0,0,1-1,.86,1.75,1.75,0,0,1-2.35-1.2,1.53,1.53,0,0,1,.33-1.41A2.31,2.31,0,0,1,23,29.41Zm0,.07a1.08,1.08,0,0,0-.74.81,1.88,1.88,0,0,0,0,1,1.4,1.4,0,0,0,1.47,1,1.08,1.08,0,0,0,.89-.59,1.23,1.23,0,0,0,0-1,2.84,2.84,0,0,0-.54-.82A1.08,1.08,0,0,0,23.06,29.49Z"/><path class="cls-3" d="M39.38,31a30.24,30.24,0,0,1-2-4.93c-.24-.85-.43-1.73-.7-2.57a25.17,25.17,0,0,0-1-2.48,51.81,51.81,0,0,1-3.34-10.1,0,0,0,0,1,.07,0,51.8,51.8,0,0,1,3.66,10,25.16,25.16,0,0,0,.8,2.54c.32.83.71,1.63,1.06,2.45a30.24,30.24,0,0,1,1.49,5.11,0,0,0,0,1-.07,0Z"/><path class="cls-3" d="M23.42,30.94a30.24,30.24,0,0,1,1.49-5.11c.34-.82.74-1.62,1.06-2.45a25.14,25.14,0,0,0,.8-2.54,51.81,51.81,0,0,1,3.66-10,0,0,0,0,1,.07,0A51.81,51.81,0,0,1,27.15,21a25.17,25.17,0,0,0-1,2.48c-.27.85-.45,1.72-.7,2.57a30.23,30.23,0,0,1-2,4.93,0,0,0,0,1-.07,0Z"/><circle class="cls-6" cx="31.44" cy="10.3" r="1.83" transform="matrix(0.97, -0.26, 0.26, 0.97, -1.6, 8.49)"/><path class="cls-3" d="M31,8.5a2.58,2.58,0,0,1,1.52,0,1.62,1.62,0,0,1,1,1.24,2.17,2.17,0,0,1-.38,1.53,2.55,2.55,0,0,1-1.16,1,2,2,0,0,1-2.68-1.39,1.8,1.8,0,0,1,.36-1.62A2.57,2.57,0,0,1,31,8.5Zm0,.07a1.34,1.34,0,0,0-.91.94,2.13,2.13,0,0,0,0,1.16,1.68,1.68,0,0,0,1.81,1.2,1.34,1.34,0,0,0,1.06-.72,1.5,1.5,0,0,0,0-1.25,2.84,2.84,0,0,0-.67-1A1.34,1.34,0,0,0,31,8.57Z"/></g></g></g></svg>