<svg xmlns="http://www.w3.org/2000/svg" viewBox="0 0 63.18 57.12"><defs><style>.cls-1{fill:#f25757;}.cls-2{fill:#1a1a35;}</style></defs><title>Asset 57icon-</title><g id="Layer_2" data-name="Layer 2"><g id="Icons"><g id="Instagram_Like" data-name="Instagram Like"><path class="cls-1" d="M62.68,15.19C60.89,6.16,54.47.35,46.21.35c-4.62,0-9.62,1.9-14.51,5.49C26.75,2.14,21.75.24,17.07.24,8.81.24,2.34,6.11.6,15.24-2,28.78,6.36,46.77,30.88,56.56a2.12,2.12,0,0,0,1.63,0C57,46.55,65.29,28.62,62.68,15.19Z"/><path class="cls-2" d="M62.65,15.2a25,25,0,0,0-1.51-4.73,19.43,19.43,0,0,0-2.61-4.21A15.48,15.48,0,0,0,50.3,1.06a17.75,17.75,0,0,0-9.71.48,30.27,30.27,0,0,0-8.7,4.57l-.2.15-.2-.15a30.3,30.3,0,0,0-8.26-4.5,20.64,20.64,0,0,0-4.58-1A17.59,17.59,0,0,0,14,.76,15.39,15.39,0,0,0,5.79,5.14a18.83,18.83,0,0,0-4.61,8.16,25.42,25.42,0,0,0-.73,9.41,32.09,32.09,0,0,0,2.43,9.13,40,40,0,0,0,4.91,8.08l1.55,1.79c.26.3.51.6.78.89l.85.83,1.69,1.66,1.82,1.52A60.7,60.7,0,0,0,30.83,56.1a1.94,1.94,0,0,0,2-.11L35,55c.72-.33,1.46-.62,2.15-1l2.1-1.11a59.29,59.29,0,0,0,8-5.11c.66-.44,1.23-1,1.84-1.49s1.23-1,1.8-1.54a47,47,0,0,0,3.3-3.39,37.62,37.62,0,0,0,5.38-7.78A28.8,28.8,0,0,0,62.65,15.2Zm.07,0a26.79,26.79,0,0,1,.07,9.51,31.33,31.33,0,0,1-2.92,9.09,38,38,0,0,1-5.29,8,47.56,47.56,0,0,1-3.28,3.51c-.57.56-1.2,1.06-1.8,1.59s-1.18,1.09-1.84,1.54a59,59,0,0,1-8.06,5.2l-2.12,1.13c-.7.38-1.45.67-2.18,1l-2.19,1a3.39,3.39,0,0,1-1.25.39,2.66,2.66,0,0,1-1.33-.27A61.23,61.23,0,0,1,14,47.14l-1.82-1.56-1.69-1.7L9.68,43c-.27-.3-.52-.61-.78-.91L7.36,40.27A40.51,40.51,0,0,1,2.5,32,32.65,32.65,0,0,1,.13,22.75,25.7,25.7,0,0,1,1,13.24a19.53,19.53,0,0,1,4.6-8.33A15.78,15.78,0,0,1,13.89.32,18.49,18.49,0,0,1,18.7.06a21.2,21.2,0,0,1,4.73,1A30.61,30.61,0,0,1,31.9,5.57h-.4A30,30,0,0,1,40.42,1,17.9,17.9,0,0,1,50.4.7a15.81,15.81,0,0,1,8.25,5.46,19.57,19.57,0,0,1,2.6,4.26A25,25,0,0,1,62.72,15.18Z"/></g></g></g></svg>