<svg xmlns="http://www.w3.org/2000/svg" viewBox="0 0 68.68 64.87"><defs><style>.cls-1{fill:#f4f6f8;}.cls-2{fill:#fff;}.cls-3{fill:#1a1a35;}.cls-4{fill:#d3d7e6;}.cls-5{fill:#f6bd60;}.cls-6{fill:#454851;}.cls-7{fill:#e8eaf1;}.cls-8{fill:none;}.cls-9{fill:#f18a8a;}</style></defs><title>Asset 26icon-</title><g id="Layer_2" data-name="Layer 2"><g id="Icons"><g id="Delivery"><path class="cls-1" d="M58.16,59.6C52,64.75,41.94,65.14,34.35,64.77c-8.93-.44-14.75-4.93-21.07-12.5C8.5,46.52,7.72,38.84,7.27,32c-.66-9.83,1.3-18.46,9.25-25.08C22,2.37,33.13.23,39.84,0,49.63-.3,61.52,4.16,68.45,12.48c6.57,7.88,9,21.33,6.3,31.16C72.84,50.62,64.05,54.69,58.16,59.6Z" transform="translate(-7.15)"/><path class="cls-2" d="M46.37,12.06s5.17-.66,8.36,1.65,2.55,4.35,2.55,4.35H48.42" transform="translate(-7.15)"/><path class="cls-3" d="M46.37,12a12.25,12.25,0,0,1,3.53-.25,9.07,9.07,0,0,1,3.47.87,10.11,10.11,0,0,1,2.81,2.19,4.19,4.19,0,0,1,1.37,3.31l0,.17h-.23c-1.48.1-3,.15-4.44.13-.74,0-1.48-.07-2.22-.11s-1.48-.13-2.22-.25V18c.74-.12,1.48-.18,2.22-.25s1.48-.1,2.22-.11c1.48,0,3,0,4.44.13L57,18a2.57,2.57,0,0,0-.13-1.56A4.49,4.49,0,0,0,56,15a6.81,6.81,0,0,0-2.86-1.83,18.37,18.37,0,0,0-3.31-.79,28.5,28.5,0,0,0-3.46-.27Z" transform="translate(-7.15)"/><path class="cls-3" d="M57.48,45.82c-2.16.07-4.32.16-6.48.19l-1.62,0a1.17,1.17,0,0,1-.94-.28,1,1,0,0,1-.27-.48,2.69,2.69,0,0,1,0-.46l0-3.24c-.07-4.32,0-8.64.11-13,.06-2.16.07-4.32.09-6.48V19.7a.84.84,0,0,1,.54-.73,3,3,0,0,1,.85-.06h.81l1.62,0,3.24-.06,1.62,0a9.22,9.22,0,0,1,1.67,0,5,5,0,0,1,2.9,1.73,18.19,18.19,0,0,1,1.87,2.72h0v0q2.23,4.54,4.36,9.12v0a18,18,0,0,1,.59,2.1,10.8,10.8,0,0,1,.19,2.19c0,1.45-.16,2.86-.23,4.28l-.11,2.13,0,1.06,0,.53a2,2,0,0,1-.06.59,1,1,0,0,1-1,.57l-1.07,0-2.13-.07v-.08L66,45.67c.67-.08,1.58.15,1.77-.45a1.79,1.79,0,0,0,0-.47V41c0-1.42.12-2.86.1-4.25a12.61,12.61,0,0,0-.83-4l0,0q-2.2-4.55-4.33-9.13l0,0A17.6,17.6,0,0,0,61,21a4.43,4.43,0,0,0-2.5-1.61A9.1,9.1,0,0,0,57,19.31l-1.62,0-3.24-.06c-1.06,0-2.21-.08-3.19,0a.58.58,0,0,0-.38.5v2.42c0,2.16,0,4.32.09,6.48.1,4.32.18,8.64.11,13l0,3.24c0,.32,0,.42.12.56s.25.15.56.15l1.62,0c2.16,0,4.32.12,6.48.19Z" transform="translate(-7.15)"/><path class="cls-3" d="M51.33,35.05a1.38,1.38,0,0,1,1.07-.27,4.38,4.38,0,0,0,.53.19,1.07,1.07,0,0,0,.53-.08,2.82,2.82,0,0,1,1.07-.19,2.23,2.23,0,0,1,1.07.36,0,0,0,0,1,0,.06h0a2.22,2.22,0,0,1-1.07.36,2.82,2.82,0,0,1-1.07-.19,1.07,1.07,0,0,0-.53-.08,4.38,4.38,0,0,0-.53.19,1.38,1.38,0,0,1-1.07-.27,0,0,0,0,1,0-.06Z" transform="translate(-7.15)"/><path class="cls-4" d="M49.69,20.9l.53,11.37L61.5,33.9a6.82,6.82,0,0,0,3.81-1.63S63.57,29,63.25,28.47l-3-5.34c-.84-1.24-1.26-2.59-3.05-2.59Z" transform="translate(-7.15)"/><path class="cls-3" d="M49.71,20.92c.31,3.9.58,7.6.72,11.35l-.18-.2c1.88.29,3.75.62,5.63.92s3.76.57,5.64.81h0a5.15,5.15,0,0,0,2-.54,6.9,6.9,0,0,0,1.72-1.11l0,.2-1-1.91c-.35-.63-.69-1.28-1.06-1.87h0c-1-1.76-2-3.53-3-5.32v0A6.74,6.74,0,0,0,58.36,21c-.76-.47-1.79-.22-2.75-.25Zm0,0c1.9-.16,3.88-.31,5.88-.45l1.5-.1a2.78,2.78,0,0,1,1.55.29c1,.56,1.36,1.59,1.91,2.35h0c1,1.77,2,3.57,2.91,5.37h0c.38.65.7,1.28,1,1.92l1,1.93h0a.16.16,0,0,1,0,.2,7.17,7.17,0,0,1-1.84,1.11A5.37,5.37,0,0,1,61.5,34h0q-2.82-.45-5.64-.81c-1.89-.24-3.77-.45-5.66-.7a.21.21,0,0,1-.18-.2C49.79,28.45,49.71,24.56,49.67,20.89Z" transform="translate(-7.15)"/><path class="cls-5" d="M45.43,37H18.77c-1.62,0-3-1.62-3-3.59V15.65c0-2,1.33-3.59,3-3.59H45.43c1.62,0,3,1.62,3,3.59,0,0-.58,14.23,0,17.75C49,37.1,48.35,37.22,45.43,37Z" transform="translate(-7.15)"/><path class="cls-3" d="M45.43,37c-4.61,0-9.21.1-13.82.21-2.3.06-4.61.06-6.91.09H19.52c-.29,0-.56,0-.88,0a2.6,2.6,0,0,1-.94-.22,3.75,3.75,0,0,1-2.07-2.92,12,12,0,0,1,0-1.77l0-1.73.07-6.91,0-6.91c0-.58,0-1.14,0-1.75a4.11,4.11,0,0,1,.56-1.7,3.35,3.35,0,0,1,1.3-1.26,3,3,0,0,1,.89-.29c.32,0,.6,0,.89,0l13.82-.14,6.91,0h5.18a3,3,0,0,1,1.85.53,4.08,4.08,0,0,1,1.66,3.28L48.6,19l-.25,6.9c-.05,2.3-.11,4.61,0,6.89a11,11,0,0,1,.17,3.45,1.11,1.11,0,0,1-.54.7,2.1,2.1,0,0,1-.86.2A13.51,13.51,0,0,1,45.43,37Zm0-.07a13.46,13.46,0,0,0,1.72,0,1.23,1.23,0,0,0,1.29-.83,10.89,10.89,0,0,0-.22-3.4c-.24-2.3-.26-4.61-.3-6.91s0-4.61,0-6.92L48,15.5a3.44,3.44,0,0,0-1.36-2.67,2.26,2.26,0,0,0-1.42-.39H40.06l-6.91,0-13.82-.14c-.29,0-.59,0-.84,0a2.55,2.55,0,0,0-.76.22,3,3,0,0,0-1.17,1.09A3.77,3.77,0,0,0,16,15.15c-.07.54,0,1.14-.06,1.71l0,6.91L16,30.67l0,1.73a11.94,11.94,0,0,0,.08,1.68,3.21,3.21,0,0,0,1.82,2.44,2.2,2.2,0,0,0,.74.16c.26,0,.57,0,.85,0h5.18c2.3,0,4.61,0,6.91.09C36.22,36.86,40.83,37,45.43,37Z" transform="translate(-7.15)"/><path class="cls-4" d="M20.79,45.78h-1.5a3.1,3.1,0,0,1-3.22-3V40a3.1,3.1,0,0,1,3.22-3H48.1a3.1,3.1,0,0,1,3.22,3v2.86a3.1,3.1,0,0,1-3.22,3H32.34" transform="translate(-7.15)"/><path class="cls-3" d="M20.79,45.82a13.17,13.17,0,0,1-2.25,0,3.32,3.32,0,0,1-2-1.12,3.17,3.17,0,0,1-.73-2.2l0-2.23A3.24,3.24,0,0,1,16.47,38a3.57,3.57,0,0,1,2-1.25,13,13,0,0,1,2.29-.08l2.23,0c3,0,5.93.17,8.9.18s5.93,0,8.9-.08l4.45-.08,2.23,0a4.5,4.5,0,0,1,2.33.39,3.4,3.4,0,0,1,1.66,1.78,3.32,3.32,0,0,1,.22,1.22v2.79a3.46,3.46,0,0,1-.07.63,3.34,3.34,0,0,1-1.4,2,3.87,3.87,0,0,1-2.33.65l-2.23,0-4.45-.07q-4.45-.08-8.9-.26v-.08q4.45-.18,8.9-.26l4.45-.07,2.23,0a3.1,3.1,0,0,0,1.89-.53,2.56,2.56,0,0,0,1.07-1.55,2.68,2.68,0,0,0,.05-.47V40.08a2.54,2.54,0,0,0-.15-1,2.68,2.68,0,0,0-1.29-1.42,4,4,0,0,0-2-.36l-2.23,0-4.45-.08c-3-.06-5.93-.11-8.9-.08s-5.93.13-8.9.18l-2.23,0a18.5,18.5,0,0,0-2.15.07,2.74,2.74,0,0,0-2.29,2.87l0,2.23a2.72,2.72,0,0,0,.54,2,3.16,3.16,0,0,0,1.74,1.12,16.53,16.53,0,0,0,2.19.16Z" transform="translate(-7.15)"/><ellipse class="cls-6" cx="21.43" cy="45.78" rx="6.18" ry="6.03"/><path class="cls-3" d="M28.58,39.71a6.94,6.94,0,0,1,4.51,1.61,5.67,5.67,0,0,1,2,4.46A6.33,6.33,0,0,1,33,50.17,7,7,0,0,1,28.58,52,6.33,6.33,0,0,1,24,50.33a6.18,6.18,0,0,1-2-4.54,5.92,5.92,0,0,1,2.07-4.47A6.94,6.94,0,0,1,28.58,39.71Zm0,.08a5.69,5.69,0,0,0-4.17,1.88,6,6,0,0,0-1.61,4.11,5.73,5.73,0,0,0,1.68,4,6.25,6.25,0,0,0,4.1,1.79A5.68,5.68,0,0,0,32.83,50a5.58,5.58,0,0,0,1.62-4.2,6.39,6.39,0,0,0-1.69-4.12A5.69,5.69,0,0,0,28.58,39.79Z" transform="translate(-7.15)"/><ellipse class="cls-7" cx="21.43" cy="45.78" rx="3.34" ry="3.26"/><path class="cls-7" d="M28.58,42.48a4.09,4.09,0,0,1,2.51.81,3,3,0,0,1,1.14,2.49A3.54,3.54,0,0,1,31,48.19a4.08,4.08,0,0,1-2.43,1.06,3.49,3.49,0,0,1-3.74-3.47,3.17,3.17,0,0,1,1.22-2.5A4.08,4.08,0,0,1,28.58,42.48Zm0,.08a2.84,2.84,0,0,0-2.18,1.08,3.38,3.38,0,0,0-.77,2.14,3,3,0,0,0,.84,2.07,3.37,3.37,0,0,0,2.1,1A2.84,2.84,0,0,0,30.85,48a2.89,2.89,0,0,0,.77-2.23,3.78,3.78,0,0,0-.85-2.15A2.84,2.84,0,0,0,28.58,42.56Z" transform="translate(-7.15)"/><ellipse class="cls-6" cx="50.64" cy="45.78" rx="6.18" ry="6.03"/><path class="cls-3" d="M57.79,39.71a6.94,6.94,0,0,1,4.51,1.61,5.67,5.67,0,0,1,2,4.46,6.33,6.33,0,0,1-2.06,4.38A7,7,0,0,1,57.79,52a6.33,6.33,0,0,1-4.59-1.69,6.18,6.18,0,0,1-2-4.54,5.92,5.92,0,0,1,2.07-4.47A6.94,6.94,0,0,1,57.79,39.71Zm0,.08a5.69,5.69,0,0,0-4.17,1.88A6,6,0,0,0,52,45.78a5.73,5.73,0,0,0,1.68,4,6.25,6.25,0,0,0,4.1,1.79A5.67,5.67,0,0,0,62,50a5.58,5.58,0,0,0,1.62-4.2A6.39,6.39,0,0,0,62,41.66,5.69,5.69,0,0,0,57.79,39.79Z" transform="translate(-7.15)"/><ellipse class="cls-7" cx="50.64" cy="45.78" rx="3.34" ry="3.26"/><path class="cls-7" d="M57.79,42.48a4.08,4.08,0,0,1,2.51.81,3,3,0,0,1,1.14,2.49,3.54,3.54,0,0,1-1.22,2.41,4.08,4.08,0,0,1-2.43,1.06A3.49,3.49,0,0,1,54,45.78a3.17,3.17,0,0,1,1.22-2.5A4.08,4.08,0,0,1,57.79,42.48Zm0,.08a2.84,2.84,0,0,0-2.18,1.08,3.38,3.38,0,0,0-.77,2.14,3,3,0,0,0,.84,2.07,3.37,3.37,0,0,0,2.1,1A2.84,2.84,0,0,0,60.05,48a2.89,2.89,0,0,0,.77-2.23A3.78,3.78,0,0,0,60,43.63,2.84,2.84,0,0,0,57.79,42.56Z" transform="translate(-7.15)"/><path class="cls-8" d="M0,20.79" transform="translate(-7.15)"/><path class="cls-8" d="M5.75,37.23" transform="translate(-7.15)"/><path class="cls-8" d="M10.37,37.23" transform="translate(-7.15)"/><path class="cls-8" d="M10.37,45.45" transform="translate(-7.15)"/><path class="cls-9" d="M17.47,41.19a1.88,1.88,0,0,1-.26.68c-.09.1-.17.18-.26.06s-.17-.45-.26-.51-.17,0-.26.22a1,1,0,0,1-.26.4c-.09.08-.17.16-.26.12s-.34-.33-.52-1a.39.39,0,0,1,0-.2c.17-.64.34-.88.52-1s.17,0,.26.12a1,1,0,0,1,.26.4c.09.19.17.3.26.23s.17-.38.26-.51.17,0,.26.06a1.87,1.87,0,0,1,.26.68A.46.46,0,0,1,17.47,41.19Z" transform="translate(-7.15)"/><ellipse class="cls-5" cx="60.9" cy="35.58" rx="0.89" ry="2.14"/><path class="cls-3" d="M68.95,35.58a5.79,5.79,0,0,1-.11,1.24,2,2,0,0,1-.23.6.57.57,0,0,1-1.09,0,2.61,2.61,0,0,1-.23-.59,5.35,5.35,0,0,1-.18-1.23,4.32,4.32,0,0,1,.13-1.25,2.27,2.27,0,0,1,.25-.6.73.73,0,0,1,.57-.39.72.72,0,0,1,.56.4,2,2,0,0,1,.23.6A5.78,5.78,0,0,1,68.95,35.58Zm0,0a3.69,3.69,0,0,0-.21-1.21c-.13-.36-.34-.8-.66-.83s-.52.48-.64.84a4.76,4.76,0,0,0-.2,1.2,3.91,3.91,0,0,0,.14,1.22c.11.37.35.82.69.84s.53-.49.67-.85A3.69,3.69,0,0,0,68.93,35.58Z" transform="translate(-7.15)"/></g></g></g></svg>