<svg xmlns="http://www.w3.org/2000/svg" viewBox="0 0 61.16 60.55"><defs><style>.cls-1{fill:#f4f6f8;}.cls-2{fill:#454851;}.cls-3{fill:#1a1a35;}</style></defs><title>Asset 49icon-</title><g id="Layer_2" data-name="Layer 2"><g id="Icons"><g id="Concrete5"><path class="cls-1" d="M35.65.37C27.68-.77,17,.7,10.7,5,3.33,10.06,2,16.61.59,26.37c-1.06,7.4-.9,11.23,2.3,17.27A32.9,32.9,0,0,0,27,60.26c7,1,12.24-.59,18.07-3.93,8.5-4.87,14.16-13.1,15.69-23.81C62.22,22.36,59.7,16.8,52.24,9.84,47,4.91,43.23,1.46,35.65.37Z"/><path class="cls-2" d="M11.86,26.17a63.3,63.3,0,0,0,3.45,6c.52.75,1.3,1.32,1.57,1.2s.4-.82.3-1.4-.9-4.7-1.47-6.52-1.17-5.2-1.9-6.32S12,17.2,10.94,17.87a2.56,2.56,0,0,0-1,2.45,6.71,6.71,0,0,0,.5,2.55C10.82,23.8,11.86,26.17,11.86,26.17Z"/><path class="cls-3" d="M11.89,26.16a39.94,39.94,0,0,0,2.29,3.91c.42.63.81,1.28,1.24,1.89a5.16,5.16,0,0,0,.7.82,2.58,2.58,0,0,0,.42.32c.14.09.31.13.28.09a1.47,1.47,0,0,0,.22-.91c0-.34-.1-.73-.15-1.1-.12-.75-.25-1.49-.41-2.23a35.11,35.11,0,0,0-1.17-4.38c-.42-1.46-.78-2.94-1.27-4.34a4.71,4.71,0,0,0-.46-1,4.48,4.48,0,0,0-.69-.82,1.45,1.45,0,0,0-1.76-.37,2,2,0,0,0-1,1.68,8.06,8.06,0,0,0,.11,2.2A13.52,13.52,0,0,0,11,24.06Zm0,0-1-2.06A14.67,14.67,0,0,1,10,22a7.24,7.24,0,0,1-.27-2.31,2.42,2.42,0,0,1,1.18-2.09,1.7,1.7,0,0,1,1.28-.2,2.47,2.47,0,0,1,1.08.63A5,5,0,0,1,14,19a5.13,5.13,0,0,1,.49,1.09c.49,1.46.73,3,1.09,4.43s.75,2.94,1.08,4.41l.51,2.22c.12.72.52,1.52-.07,2.38a.48.48,0,0,1-.45.1,1.33,1.33,0,0,1-.31-.13,3,3,0,0,1-.49-.36,4.07,4.07,0,0,1-.77-.9c-.41-.65-.79-1.3-1.15-2C13.2,28.89,12.51,27.54,11.84,26.18Z"/><path class="cls-2" d="M19.78,20.09A34.34,34.34,0,0,0,22,27.36c.4.64,1.12,1.84,1.91,1.71s1.37-.62,1.37-3.67a52.68,52.68,0,0,0-.82-7.33,45.94,45.94,0,0,0-1.57-6.9c-.3-.68-1.08-2-2.52-1.46a2.44,2.44,0,0,0-1.7,2.17,11.38,11.38,0,0,0,.22,2.63C19,15.84,19.35,17.47,19.78,20.09Z"/><path class="cls-3" d="M19.8,20.09a30,30,0,0,0,1.52,5.2,10.46,10.46,0,0,0,1.12,2.41c.49.71,1.12,1.52,1.86,1a1.66,1.66,0,0,0,.59-1,8.33,8.33,0,0,0,.2-1.32,18.64,18.64,0,0,0,0-2.7,52.22,52.22,0,0,0-.78-5.38A48.76,48.76,0,0,0,23.14,13a6.87,6.87,0,0,0-.94-2.42,1.78,1.78,0,0,0-.94-.68,1.7,1.7,0,0,0-1.14.19,2,2,0,0,0-.9.78,3.56,3.56,0,0,0-.38,1.19,5.57,5.57,0,0,0,.07,1.3c.06.45.08.91.14,1.36C19.28,16.5,19.52,18.3,19.8,20.09Zm0,0c-.31-1.79-.66-3.57-1-5.35-.09-.45-.14-.89-.22-1.34A5.87,5.87,0,0,1,18.38,12a3.53,3.53,0,0,1,.41-1.39,2.54,2.54,0,0,1,1.11-1,2.22,2.22,0,0,1,1.49-.24,2.19,2.19,0,0,1,1.23.87,4,4,0,0,1,.63,1.3c.13.44.24.88.35,1.32a41.55,41.55,0,0,1,1,5.37c.2,1.79.54,3.58.69,5.4.07.91.11,1.82.09,2.73a8.48,8.48,0,0,1-.14,1.38,2,2,0,0,1-.7,1.29,1.54,1.54,0,0,1-.75.24A1.23,1.23,0,0,1,23,29a3.9,3.9,0,0,1-.94-1.08A9.05,9.05,0,0,1,21,25.39,47.91,47.91,0,0,1,19.75,20.1Z"/><path class="cls-2" d="M29.47,18.45A34.34,34.34,0,0,0,30.18,26c.26.7.74,2,1.53,2.05s1.46-.33,2.07-3.33a53.65,53.65,0,0,0,.61-8.39c.06-1.46.12-7.41,0-8.13s-.71-2.15-2.22-1.92-1.88.65-2.27,2.2a19.43,19.43,0,0,0-.39,4.42C29.43,14.25,29.57,15.79,29.47,18.45Z"/><path class="cls-3" d="M29.5,18.45A31.63,31.63,0,0,0,30,24.39c.09.49.18,1,.3,1.44a7.6,7.6,0,0,0,.59,1.32c.25.4.54.75,1,.69a1.13,1.13,0,0,0,1-.73,10.87,10.87,0,0,0,.88-2.79,23.09,23.09,0,0,0,.4-3c.18-2,.12-4,.16-6s0-4-.09-6A5.71,5.71,0,0,0,34,8a2.45,2.45,0,0,0-.69-1.14,1.45,1.45,0,0,0-1.19-.32A2.9,2.9,0,0,0,30.88,7a2.12,2.12,0,0,0-.66,1.14,12.09,12.09,0,0,0-.33,1.42,25.45,25.45,0,0,0-.25,3C29.52,14.45,29.61,16.45,29.5,18.45Zm-.05,0c0-1,0-2,0-3s-.12-2-.12-3a19.68,19.68,0,0,1,.11-3,9,9,0,0,1,.32-1.5,2.6,2.6,0,0,1,.83-1.4A3.36,3.36,0,0,1,32.09,6a1.92,1.92,0,0,1,1.6.44,3,3,0,0,1,.82,1.39,6.07,6.07,0,0,1,.15,1.55c0,2,0,4-.11,6s-.13,4-.26,6A18.29,18.29,0,0,1,33.2,27.3a2.13,2.13,0,0,1-.5.66,1.35,1.35,0,0,1-.81.31A1.15,1.15,0,0,1,31,28a2.28,2.28,0,0,1-.51-.65A7.93,7.93,0,0,1,30,25.93a11.65,11.65,0,0,1-.24-1.5A47,47,0,0,1,29.45,18.44Z"/><path class="cls-2" d="M38.31,22a28.64,28.64,0,0,0-.66,5.82c.11,1.39.35,2.23,1,2.4s1.56-.25,2.62-2.72a43.72,43.72,0,0,0,2-6.69,38.33,38.33,0,0,0,1.11-5.68c.14-1.85-.17-3.68-1.51-3.76s-1.95.49-2.57,1.75-.94,4-1.22,5.16S38.66,20.17,38.31,22Z"/><path class="cls-3" d="M38.34,22a28.54,28.54,0,0,0-.55,5.25,5.54,5.54,0,0,0,.53,2.44.79.79,0,0,0,.93.27,2.17,2.17,0,0,0,.9-.77,16.6,16.6,0,0,0,2.15-4.76c.52-1.69.87-3.43,1.26-5.15a23.44,23.44,0,0,0,.67-5.2,3.14,3.14,0,0,0-.75-2.24,1.48,1.48,0,0,0-1.07-.21,1.68,1.68,0,0,0-1,.45c-1.15,1.2-1.37,3.07-1.78,4.76-.18.87-.41,1.73-.63,2.58Zm0,0c.35-1.73.74-3.47,1-5.21a24.49,24.49,0,0,1,.48-2.63A5.26,5.26,0,0,1,41,11.74a2.21,2.21,0,0,1,1.34-.59,3,3,0,0,1,.73,0,1.41,1.41,0,0,1,.72.31,2.34,2.34,0,0,1,.73,1.27,6,6,0,0,1,.17,1.37,21.73,21.73,0,0,1-.87,5.28l-1.36,5.13a18.36,18.36,0,0,1-2,5,2.56,2.56,0,0,1-1.08.94A1.19,1.19,0,0,1,38,30a3.2,3.2,0,0,1-.43-1.35,7.75,7.75,0,0,1-.06-1.35A45.54,45.54,0,0,1,38.29,22Z"/><path class="cls-2" d="M28.32,30.46c-6,.26-9.61,2-12.51,6.3s-2,7.4,0,11,7.28,5.55,9.44,6A19.48,19.48,0,0,0,36.75,53C41.4,51,49,41.46,49.94,40.16s1.3-2,1.3-2.5-1.48-1.92-3.65-1.57-5.8,3.31-8.85,7-5.64,4.51-8.21,4.63-7-1-7.29-5.1,3.83-5.75,6.22-5.62,5.78,1.55,8,.65,2.67-2,2.6-3.47-1.94-2.84-4.87-3.35A27.63,27.63,0,0,0,28.32,30.46Z"/><path class="cls-3" d="M28.32,30.48a16.84,16.84,0,0,0-8.44,2.25,12.49,12.49,0,0,0-3.19,3,13.39,13.39,0,0,0-2.13,3.81,7.63,7.63,0,0,0-.2,4.27,15.86,15.86,0,0,0,1.72,4,10.09,10.09,0,0,0,3,3.08,18.17,18.17,0,0,0,3.88,2,17.49,17.49,0,0,0,4.25,1,21.12,21.12,0,0,0,4.39.12,17.32,17.32,0,0,0,4.29-.91A13.08,13.08,0,0,0,39.67,51,50.59,50.59,0,0,0,46,44.77q1.47-1.66,2.85-3.39c.46-.58.92-1.15,1.33-1.76a4.73,4.73,0,0,0,.94-1.9c0-.27-.28-.56-.54-.78a3.5,3.5,0,0,0-.92-.52,3.94,3.94,0,0,0-2.1-.16,10.28,10.28,0,0,0-3.77,2.1,30,30,0,0,0-3.21,3c-1,1.06-1.88,2.26-2.94,3.32a11.53,11.53,0,0,1-3.68,2.59,10.21,10.21,0,0,1-4.45.72,8.64,8.64,0,0,1-4.29-1.42,5.08,5.08,0,0,1-1.57-1.69A5.45,5.45,0,0,1,23,42.67a5.06,5.06,0,0,1,1.68-4.17,7,7,0,0,1,4.19-1.69,20.44,20.44,0,0,1,4.42.69,7.42,7.42,0,0,0,4.26,0,4.69,4.69,0,0,0,1.78-1.17,2.78,2.78,0,0,0,.62-2,2.47,2.47,0,0,0-1-1.81,6.55,6.55,0,0,0-1.89-1.08,18.33,18.33,0,0,0-4.32-.87A29.25,29.25,0,0,0,28.32,30.48Zm0-.05a25,25,0,0,1,8.79.88,6.7,6.7,0,0,1,2,1.07,2.68,2.68,0,0,1,1.09,1.94,3,3,0,0,1-.64,2.16,5,5,0,0,1-1.86,1.28,7.73,7.73,0,0,1-4.46.12,20.32,20.32,0,0,0-4.32-.6A6.77,6.77,0,0,0,25,38.88a4.66,4.66,0,0,0,.5,7.28,8.32,8.32,0,0,0,4,1.33,9.72,9.72,0,0,0,4.23-.65,11,11,0,0,0,3.54-2.46c1-1,1.91-2.23,3-3.29a30.34,30.34,0,0,1,3.29-3,10.57,10.57,0,0,1,3.95-2.12,4.25,4.25,0,0,1,2.26.2,3.79,3.79,0,0,1,1,.57,1.42,1.42,0,0,1,.63,1,4.87,4.87,0,0,1-1,2c-.43.61-.89,1.19-1.36,1.76q-1.4,1.72-2.89,3.37a60.84,60.84,0,0,1-6.33,6.21A13.3,13.3,0,0,1,36,53.39a17.58,17.58,0,0,1-4.35,1,21.27,21.27,0,0,1-4.46-.07,17.86,17.86,0,0,1-4.34-1,18.57,18.57,0,0,1-4-2A9.87,9.87,0,0,1,15.7,48,16.24,16.24,0,0,1,14,43.91a7.79,7.79,0,0,1,.29-4.46,13.68,13.68,0,0,1,2.25-3.85,12.67,12.67,0,0,1,3.29-3A17.2,17.2,0,0,1,28.32,30.43Z"/></g></g></g></svg>