<svg xmlns="http://www.w3.org/2000/svg" viewBox="0 0 63.96 63"><defs><style>.cls-1{fill:#f4f6f8;}.cls-2{fill:#d3d7e6;stroke:#1a1a35;stroke-linecap:round;stroke-linejoin:round;stroke-width:0.5px;}.cls-3{fill:#fff;}.cls-4{fill:#1a1a35;}.cls-5{fill:#eaf2e3;}.cls-6{fill:#3d4166;}.cls-7{fill:#0f79b3;}.cls-8{fill:#f59c52;}.cls-9{fill:#a0cfd3;}.cls-10{fill:#06d6a0;}.cls-11{fill:#454851;}.cls-12{fill:#f25757;}.cls-13{fill:#009788;}</style></defs><title>Asset 58icon-</title><g id="Layer_2" data-name="Layer 2"><g id="Icons"><g id="Mobile_App" data-name="Mobile App"><path class="cls-1" d="M57.45,51.29c5.55-5.83,6.38-13.9,6.5-21.5.15-8.94-1.89-14.07-9-20.86-5.42-5.15-10-7.65-16.76-8.55C28.39-.92,17.78,1,10.66,8.46,5.75,13.62.83,20.18.18,26.86A31,31,0,0,0,9.93,53.36c7.44,7.07,18.76,11.16,28.75,9.11C45.76,61,52.17,56.85,57.45,51.29Z"/><rect class="cls-2" x="12.74" y="12.11" width="38.86" height="38.86" rx="8.5" ry="8.5"/><line class="cls-3" x1="51.74" y1="12.09" x2="12.61" y2="50.99"/><path class="cls-4" d="M51.75,12.09Q46.91,17,42,21.87c-3.28,3.22-6.56,6.44-9.8,9.71l-9.75,9.76c-3.25,3.25-6.56,6.44-9.84,9.66h0c3.24-3.26,6.45-6.56,9.72-9.79l9.81-9.7c3.29-3.21,6.53-6.48,9.77-9.74s6.53-6.48,9.83-9.68Z"/><line class="cls-3" x1="12.6" y1="12.09" x2="51.75" y2="50.97"/><path class="cls-4" d="M12.6,12.08q5,4.8,9.84,9.67c3.24,3.26,6.48,6.52,9.77,9.73L42,41.18c3.27,3.23,6.48,6.52,9.73,9.78h0c-3.28-3.22-6.6-6.41-9.85-9.66l-9.76-9.75c-3.23-3.27-6.52-6.48-9.8-9.71s-6.52-6.49-9.74-9.77Z"/><line class="cls-3" x1="54.74" y1="31.37" x2="9.73" y2="31.52"/><path class="cls-4" d="M54.74,31.38c-3.75.07-7.5.11-11.25.1s-7.5,0-11.25,0L21,31.58c-3.75,0-7.5,0-11.25-.05v0c3.75,0,7.5-.12,11.25-.12H32.23c3.75,0,7.5,0,11.25-.06s7.5,0,11.25,0Z"/><line class="cls-3" x1="32.17" y1="8.94" x2="32.32" y2="53.95"/><path class="cls-4" d="M32.18,8.94c.07,3.75.11,7.5.1,11.25s0,7.5,0,11.25l.08,11.25c0,3.75,0,7.5-.05,11.25h0c0-3.75-.12-7.5-.12-11.25V31.45c0-3.75,0-7.5-.06-11.25s0-7.5,0-11.25Z"/><line class="cls-3" x1="54.77" y1="48.81" x2="9.75" y2="48.81"/><path class="cls-4" d="M54.77,48.82c-3.75.06-7.5.09-11.25.07s-7.5-.06-11.25,0L21,48.91c-3.75,0-7.5-.06-11.25-.09v0c3.75,0,7.5-.1,11.25-.09l11.25,0c3.75,0,7.5,0,11.25,0s7.5,0,11.25.07Z"/><line class="cls-3" x1="54.77" y1="14.08" x2="9.75" y2="14.08"/><path class="cls-4" d="M54.77,14.09c-3.75.06-7.5.09-11.25.07s-7.5-.06-11.25,0L21,14.17c-3.75,0-7.5-.06-11.25-.09v0C13.5,14,17.25,14,21,14l11.25,0c3.75,0,7.5,0,11.25,0s7.5,0,11.25.07Z"/><line class="cls-3" x1="49.61" y1="9.04" x2="49.61" y2="54.06"/><path class="cls-4" d="M49.62,9c.06,3.75.09,7.5.07,11.25s-.06,7.5,0,11.25l0,11.25c0,3.75-.06,7.5-.09,11.25h0c0-3.75-.1-7.5-.09-11.25l0-11.25c0-3.75,0-7.5,0-11.25s0-7.5.07-11.25Z"/><line class="cls-3" x1="14.87" y1="8.94" x2="14.87" y2="53.95"/><path class="cls-4" d="M14.88,8.94c.06,3.75.09,7.5.07,11.25s-.06,7.5,0,11.25L15,42.7c0,3.75-.06,7.5-.09,11.25h0c0-3.75-.1-7.5-.09-11.25l0-11.25c0-3.75,0-7.5,0-11.25s0-7.5.07-11.25Z"/><g id="Mobile_App-2" data-name="Mobile App"><rect class="cls-5" x="22.48" y="16.04" width="19.38" height="31" rx="1.42" ry="1.42"/><path class="cls-4" d="M40.45,47.07c-4.1,0-8.19.06-12.29.13l-3.07,0h-.77a3.3,3.3,0,0,1-.82,0A1.63,1.63,0,0,1,22.31,46a3.55,3.55,0,0,1-.05-.82v-2.3l0-3.07.09-12.29c0-2,0-4.1,0-6.15l0-3.07v-.77a1.6,1.6,0,0,1,.18-.8,1.56,1.56,0,0,1,1.36-.83l12.29-.1H40a3.35,3.35,0,0,1,.83,0,1.68,1.68,0,0,1,1.22,1.22,3.57,3.57,0,0,1,.05.83v5.38c0,4.1,0,8.19-.1,12.29l-.09,6.15,0,3.07a3.41,3.41,0,0,1-.18,1.53A1.46,1.46,0,0,1,40.45,47.07Zm0,0a1.4,1.4,0,0,0,1.22-.75,3.35,3.35,0,0,0,.15-1.49l0-3.07-.09-6.15c-.06-4.1-.11-8.19-.1-12.29V17.89a3.22,3.22,0,0,0,0-.7,1.16,1.16,0,0,0-.84-.85,3,3,0,0,0-.7,0H36.19l-12.29-.1a1.3,1.3,0,0,0-1.14.68,3.29,3.29,0,0,0-.16,1.45l0,3.07c0,2,0,4.1,0,6.15l.09,12.29c0,2,0,4.15.06,6.09a1.21,1.21,0,0,0,.87.89,3,3,0,0,0,.71,0h.77l3.07,0C32.25,47,36.35,47,40.45,47Z"/><rect class="cls-3" x="23.25" y="19.41" width="17.65" height="23.45" rx="0.28" ry="0.28"/><path class="cls-4" d="M40.61,42.88c-3.4,0-6.81.06-10.21.13l-5.11.06H23.54a.51.51,0,0,1-.27-.07.52.52,0,0,1-.24-.46V39.67c0-3.4.11-6.81.12-10.21,0-1.7,0-3.4,0-5.11l0-2.55V19.89a.9.9,0,0,1,0-.37.42.42,0,0,1,.38-.24l10.21-.1,5.11,0H40.6a.55.55,0,0,1,.29.08.56.56,0,0,1,.26.5V22.6c0,3.4,0,6.81-.1,10.21L41,37.91l0,2.55v1.91a.85.85,0,0,1,0,.33A.31.31,0,0,1,40.61,42.88Zm0,0a.26.26,0,0,0,.23-.15.83.83,0,0,0,0-.3V40.47l0-2.55-.09-5.11c-.06-3.4-.11-6.81-.1-10.21V19.72c0-.06,0,0,0,0H38.85l-5.11,0-10.21-.1c-.13,0-.17.09-.15.34V21.8l0,2.55c0,1.7,0,3.4,0,5.11,0,3.4.09,6.81.12,10.21v2.87c0,.07,0,.06,0,.08h1.79l5.11.06C33.8,42.77,37.21,42.83,40.61,42.83Z"/><circle class="cls-6" cx="32.07" cy="45.03" r="1.51"/></g><g id="Row_3" data-name="Row 3"><rect class="cls-7" x="24.99" y="31.98" width="3.54" height="3.54" rx="0.57" ry="0.57"/><rect class="cls-8" x="30.3" y="31.98" width="3.54" height="3.54" rx="0.57" ry="0.57"/></g><g id="Row_2" data-name="Row 2"><rect class="cls-9" x="24.99" y="26.38" width="3.54" height="3.54" rx="0.57" ry="0.57"/><rect class="cls-10" x="30.3" y="26.38" width="3.54" height="3.54" rx="0.57" ry="0.57"/><rect class="cls-11" x="35.61" y="26.38" width="3.54" height="3.54" rx="0.57" ry="0.57"/></g><g id="Row_1" data-name="Row 1"><rect class="cls-12" x="24.99" y="20.77" width="3.54" height="3.54" rx="0.57" ry="0.57"/><rect class="cls-13" x="30.3" y="20.77" width="3.54" height="3.54" rx="0.57" ry="0.57"/><rect class="cls-8" x="35.61" y="20.77" width="3.54" height="3.54" rx="0.57" ry="0.57"/></g></g></g></g></svg>