<svg xmlns="http://www.w3.org/2000/svg" viewBox="0 0 61.91 63.97"><defs><style>.cls-1{fill:#f4f6f8;}.cls-2{fill:#eaf2e3;}.cls-3{fill:#7f4315;}.cls-4{fill:#1a1a35;}.cls-5{fill:#a5651e;}.cls-6{fill:#fff;}.cls-7{fill:#b2876b;}</style></defs><title>Asset 50icon-</title><g id="Layer_2" data-name="Layer 2"><g id="Icons"><g id="Portal_Access" data-name="Portal Access"><path class="cls-1" d="M8.81,56.45c6.14,5.2,17.49,7.82,25.08,7.5,8.93-.37,14.1-4.7,20.47-12.23,4.83-5.7,6.9-8.41,7.4-15.23.73-9.83-1.3-21.64-9.19-28.32C47.14,3.57,39.84.38,33.13.11,23.34-.28,16.6,0,9.61,8.24,3,16.08-1.9,27.43.72,37.28,2.58,44.27,3,51.5,8.81,56.45Z"/><path class="cls-2" d="M11.45,47.08s-4-6.89-2.54-11.48,3.68-6.19,3.68-10.48-.29-7.87,1.84-10.83,1.34-5.63,12.87-6.1,17.88,1.44,19,5.18,3.37,6,4.51,8.48,1,6,1.25,10.86.63,7.74.6,9.31a50.12,50.12,0,0,1-.6,5Z"/><rect class="cls-3" x="20.28" y="12.72" width="19.61" height="33.43"/><path class="cls-4" d="M20.26,46.16c-.09-5.49-.11-11.08-.16-16.66,0-2.79,0-5.59,0-8.39l.05-8.39a.14.14,0,0,1,.14-.14l9.81.06,9.81-.06a.14.14,0,0,1,.14.14l.11,16.71v8.36l0,8.36a.23.23,0,0,1-.23.24h0Zm0,0,19.6-.22-.24.24,0-8.36V29.43l.11-16.71.14.14-9.81-.06-9.81.06.14-.14L20.48,21c0,2.77,0,5.54,0,8.32C20.41,34.92,20.39,40.47,20.3,46.13Z"/><rect class="cls-5" x="22.92" y="25.3" width="14.19" height="8.2"/><path class="cls-4" d="M22.93,25.32l.13,4.15c0,1.36,0,2.69.07,4l-.22-.22c2.36,0,4.73,0,7.09.11,1.18,0,2.36,0,3.55,0s2.36,0,3.55-.05L37,33.5c-.06-2.73-.11-5.47-.12-8.2l.26.26h-3.5c-1.17,0-2.33,0-3.51,0Zm0,0c2.3-.07,4.65-.15,7-.19,1.19,0,2.38,0,3.58,0h3.6a.26.26,0,0,1,.26.26h0c0,2.73-.06,5.47-.12,8.2h0a.13.13,0,0,1-.14.13h0c-1.18,0-2.36-.05-3.55-.05s-2.36,0-3.55,0c-2.36.06-4.73.13-7.09.11h0a.21.21,0,0,1-.21-.22h0c0-1.39,0-2.79.07-4.16Z"/><rect class="cls-5" x="22.92" y="35.62" width="14.19" height="8.2"/><path class="cls-4" d="M22.93,35.64l.13,4.14c0,1.36,0,2.69.07,4l-.22-.22c2.36,0,4.73,0,7.09.11,1.18,0,2.36,0,3.55,0s2.36,0,3.55-.05l-.14.14c-.06-2.73-.11-5.47-.12-8.2l.26.26h-3.5c-1.17,0-2.33,0-3.51,0Zm0,0c2.3-.07,4.65-.15,7-.19,1.19,0,2.38,0,3.58,0h3.6a.26.26,0,0,1,.26.26h0c0,2.73-.06,5.47-.12,8.2h0a.13.13,0,0,1-.14.13h0c-1.18,0-2.36-.05-3.55-.05s-2.36,0-3.55,0c-2.36.06-4.73.13-7.09.11h0a.21.21,0,0,1-.21-.22h0c0-1.39,0-2.79.07-4.16Z"/><rect class="cls-5" x="22.92" y="14.98" width="14.19" height="8.2"/><path class="cls-4" d="M22.93,15l.13,4.14c0,1.36,0,2.69.07,4L22.92,23c2.36,0,4.73,0,7.09.11,1.18,0,2.36,0,3.55,0s2.36,0,3.55-.05l-.14.14c-.06-2.73-.11-5.47-.12-8.2l.26.26h-3.5c-1.17,0-2.33,0-3.51,0Zm0,0c2.3-.07,4.65-.15,7-.19,1.19,0,2.38,0,3.58,0h3.6a.26.26,0,0,1,.26.26h0c0,2.73-.06,5.47-.12,8.2h0a.13.13,0,0,1-.14.13h0c-1.18,0-2.36-.05-3.55-.05s-2.36,0-3.55,0c-2.36.06-4.73.13-7.09.11h0a.21.21,0,0,1-.21-.22h0c0-1.39,0-2.79.07-4.16Z"/><circle class="cls-6" cx="38.38" cy="29.63" r="0.82"/><path class="cls-4" d="M39.21,29.63a.83.83,0,0,1-.83.86.89.89,0,0,1-.85-.86.85.85,0,0,1,.85-.87A.84.84,0,0,1,39.21,29.63Zm0,0a.81.81,0,0,0-1.61,0,.77.77,0,0,0,.8.79A.83.83,0,0,0,39.2,29.63Z"/><rect class="cls-6" x="35.28" y="29.33" width="3.39" height="0.61" rx="0.17" ry="0.17"/><path class="cls-4" d="M38.51,29.94c-.64,0-1.28.05-1.93,0l-1,0a.78.78,0,0,1-.24,0,.21.21,0,0,1-.11-.22v-.24a.2.2,0,0,1,.19-.17c.64,0,1.28,0,1.93,0,.32,0,.64,0,1,0a.73.73,0,0,1,.25,0,.21.21,0,0,1,.1.23v.24A.18.18,0,0,1,38.51,29.94Zm0,0c.2,0,.16-.23.15-.38a.17.17,0,0,0-.09-.18.72.72,0,0,0-.23,0c-.32,0-.64,0-1,0-.64,0-1.28,0-1.93,0-.17,0-.15.21-.15.36a.17.17,0,0,0,.08.19c.06,0,.15,0,.23,0l1,0C37.22,29.88,37.87,29.92,38.51,29.93Z"/><polygon class="cls-7" points="11.45 47.08 8.91 49.27 31.66 49.27 34.27 47.02 11.45 47.08"/><path class="cls-4" d="M11.45,47.09,8.94,49.3l0-.09,5.69,0c1.9,0,3.79,0,5.69,0,3.79,0,7.58,0,11.38,0h0L34.22,47l.05.14-11.39,0Zm0,0L22.84,47H34.27a.08.08,0,0,1,.08.08.08.08,0,0,1,0,.06L31.7,49.31h0c-3.79,0-7.58,0-11.38,0-1.9,0-3.79,0-5.69,0l-5.69,0a.05.05,0,0,1-.05-.05.05.05,0,0,1,0,0Z"/><polygon class="cls-7" points="17.79 49.32 15.25 51.51 38.01 51.51 40.61 49.27 17.79 49.32"/><path class="cls-4" d="M17.8,49.33l-2.51,2.22,0-.09,5.69,0c1.9,0,3.79,0,5.69,0,3.79,0,7.58,0,11.38,0h0l2.59-2.26.05.14-11.39,0Zm0,0,11.39-.12H40.61a.08.08,0,0,1,.08.08.08.08,0,0,1,0,.06L38,51.55h0c-3.79,0-7.58,0-11.38,0-1.9,0-3.79,0-5.69,0l-5.69,0a.05.05,0,0,1-.05-.05.05.05,0,0,1,0,0Z"/><polygon class="cls-7" points="34.21 47.08 31.67 49.27 49.42 49.27 52.03 47.02 34.21 47.08"/><path class="cls-4" d="M34.21,47.09,31.7,49.3l0-.09,4.44,0c1.48,0,3,0,4.44,0,3,0,5.92,0,8.88,0h0L52,47l.05.14C46.1,47.15,40.18,47.17,34.21,47.09Zm0,0c5.91-.12,11.87-.14,17.82-.13a.08.08,0,0,1,.08.08.08.08,0,0,1,0,.06l-2.62,2.22h0c-3,0-5.92,0-8.88,0-1.48,0-3,0-4.44,0l-4.44,0a.05.05,0,0,1-.05-.05.05.05,0,0,1,0,0Z"/><polygon class="cls-7" points="40.48 49.32 37.94 51.51 45.45 51.51 48.05 49.27 40.48 49.32"/><path class="cls-4" d="M40.49,49.33,38,51.55l0-.09c1.25,0,2.5-.06,3.75,0s2.5.06,3.75,0h0L48,49.2l.06.16C45.54,49.39,43,49.4,40.49,49.33Zm0,0c2.49-.11,5-.14,7.57-.14a.09.09,0,0,1,.09.09.09.09,0,0,1,0,.07l-2.64,2.21h0c-1.25,0-2.5,0-3.75,0s-2.5,0-3.75,0a.05.05,0,0,1-.05-.05.05.05,0,0,1,0,0Z"/><polygon class="cls-7" points="11.94 49.32 9.4 51.51 15.19 51.51 17.79 49.27 11.94 49.32"/><path class="cls-4" d="M11.94,49.33c-.82.78-1.66,1.5-2.49,2.24l-.06-.15c1,0,1.93,0,2.9,0s1.93,0,2.9,0h0l2.59-2.26.05.14C15.85,49.4,13.93,49.41,11.94,49.33Zm0,0c1.92-.12,3.9-.14,5.86-.12a.08.08,0,0,1,.08.08.08.08,0,0,1,0,.06l-2.62,2.23h0c-1,0-1.93,0-2.9,0s-1.93,0-2.9,0a.08.08,0,0,1-.09-.08.09.09,0,0,1,0-.07C10.21,50.73,11.06,50,11.93,49.31Z"/><polygon class="cls-7" points="31.02 53.81 28.48 56 34.28 56 36.88 53.75 31.02 53.81"/><path class="cls-4" d="M31,53.82c-.82.78-1.66,1.5-2.49,2.24l-.06-.15c1,0,1.93,0,2.9,0s1.93,0,2.9,0h0l2.59-2.26.05.14C34.94,53.89,33,53.9,31,53.82Zm0,0c1.92-.12,3.9-.14,5.86-.12a.08.08,0,0,1,.08.08.08.08,0,0,1,0,.06L34.31,56h0c-1,0-1.93,0-2.9,0s-1.93,0-2.9,0A.08.08,0,0,1,28.4,56a.09.09,0,0,1,0-.07C29.3,55.22,30.15,54.48,31,53.8Z"/><polygon class="cls-7" points="25.94 51.56 23.4 53.75 46.15 53.75 48.76 51.51 25.94 51.56"/><path class="cls-4" d="M25.94,51.57l-2.51,2.22,0-.09,5.69,0c1.9,0,3.79,0,5.69,0,3.79,0,7.58,0,11.38,0h0l2.59-2.26.05.14-11.39,0Zm0,0,11.39-.12H48.76a.08.08,0,0,1,.08.08.08.08,0,0,1,0,.06L46.19,53.8h0c-3.79,0-7.58,0-11.38,0-1.9,0-3.79,0-5.69,0l-5.69,0a.05.05,0,0,1-.05-.05.05.05,0,0,1,0,0Z"/><polygon class="cls-7" points="13.33 51.56 10.79 53.75 23.43 53.75 26.03 51.51 13.33 51.56"/><path class="cls-4" d="M13.33,51.57c-.83.76-1.67,1.5-2.5,2.23l0-.11q3.16,0,6.32,0t6.32,0h0L26,51.45l.05.14C21.81,51.64,17.6,51.65,13.33,51.57Zm0,0c4.2-.12,8.46-.14,12.7-.12a.08.08,0,0,1,.08.08.08.08,0,0,1,0,.06L23.46,53.8h0q-3.16,0-6.32,0t-6.32,0a.06.06,0,0,1-.06-.06.07.07,0,0,1,0,0C11.6,53,12.47,52.26,13.33,51.55Z"/><polygon class="cls-7" points="18.32 53.81 15.78 56 28.41 56 31.02 53.75 18.32 53.81"/><path class="cls-4" d="M18.32,53.82c-.83.76-1.67,1.5-2.5,2.23l0-.11q3.16,0,6.32,0t6.32,0h0L31,53.7l.05.14C26.79,53.89,22.59,53.9,18.32,53.82Zm0,0c4.2-.12,8.46-.14,12.7-.12a.08.08,0,0,1,.08.08.08.08,0,0,1,0,.06L28.45,56h0q-3.16,0-6.32,0t-6.32,0a.06.06,0,0,1-.06-.06.07.07,0,0,1,0,0C16.59,55.22,17.45,54.5,18.31,53.8Z"/><rect class="cls-6" x="11.42" y="46.14" width="40.49" height="0.88" rx="0.28" ry="0.28"/><path class="cls-4" d="M51.63,47l-20.56,0L20.79,47h-9a.37.37,0,0,1-.32-.1.42.42,0,0,1-.08-.32.89.89,0,0,1,0-.33.31.31,0,0,1,.28-.18l20.56,0,10.28,0h9a.33.33,0,0,1,.38.4.88.88,0,0,1,0,.32A.29.29,0,0,1,51.63,47Zm0,0a.28.28,0,0,0,.25-.16.88.88,0,0,0,0-.31.31.31,0,0,0-.36-.39h-9l-10.28,0-20.56,0a.25.25,0,0,0-.23.15.87.87,0,0,0,0,.3.29.29,0,0,0,.34.37h9l10.28,0Z"/></g></g></g></svg>