<svg xmlns="http://www.w3.org/2000/svg" viewBox="0 0 64.82 62.36"><defs><style>.cls-1{fill:#f4f6f8;}.cls-2{fill:#06d6a0;}.cls-3{fill:#1a1a35;}</style></defs><title>Asset 28icon-</title><g id="Layer_2" data-name="Layer 2"><g id="Icons"><g id="More"><path class="cls-1" d="M2.43,19.2C5.4,11.71,6.93,4,14.23,1.87,24.15-1,37.36-.18,43.67,2A31.46,31.46,0,0,1,59.82,15.24c5.29,8.32,6.64,16.35,2.83,26-2.62,6.62-6.84,15.07-13,17.64-10.72,4.44-21.47,3.91-24.88,2.57-7.79-3.07-21.37-8-23.86-20.59A38,38,0,0,1,2.43,19.2Z"/><path class="cls-2" d="M16.64,29.25h4.89v5.38H16.64Z"/><path class="cls-3" d="M16.61,29.22a32.36,32.36,0,0,1,4.92-.3h.34v.31c0,.9-.16,1.79-.2,2.69a22.77,22.77,0,0,0,.08,2.69v.19l-.22,0c-1.63.14-3.26.18-4.89.2h-.4v-.4A51.63,51.63,0,0,1,16.61,29.22Zm.05.05c.18,2,.36,3.65.37,5.35l-.4-.4c1.63,0,3.26.06,4.89.2l-.21.21a22.79,22.79,0,0,0,.08-2.69c0-.9-.16-1.79-.2-2.69l.32.32A36.09,36.09,0,0,1,16.66,29.27Z"/><path class="cls-2" d="M30.2,29.25h4.89v5.38H30.2Z"/><path class="cls-3" d="M30.17,29.22a32.36,32.36,0,0,1,4.92-.3h.34v.31c0,.9-.16,1.79-.2,2.69a22.77,22.77,0,0,0,.08,2.69v.19l-.22,0c-1.63.14-3.26.18-4.89.2h-.4v-.4A51.63,51.63,0,0,1,30.17,29.22Zm.05.05c.18,2,.36,3.65.37,5.35l-.4-.4c1.63,0,3.26.06,4.89.2l-.21.21A22.79,22.79,0,0,0,35,31.93c0-.9-.16-1.79-.2-2.69l.32.32A36.09,36.09,0,0,1,30.22,29.27Z"/><path class="cls-2" d="M43.76,29.25h4.89v5.38H43.76Z"/><path class="cls-3" d="M43.73,29.22a32.36,32.36,0,0,1,4.92-.3H49v.31c0,.9-.16,1.79-.2,2.69a22.79,22.79,0,0,0,.08,2.69v.19l-.22,0C47,35,45.39,35,43.76,35h-.4v-.4A51.63,51.63,0,0,1,43.73,29.22Zm.05.05c.18,2,.36,3.65.37,5.35l-.4-.4c1.63,0,3.26.06,4.89.2l-.21.21a22.77,22.77,0,0,0,.08-2.69c0-.9-.16-1.79-.2-2.69l.32.32A36.09,36.09,0,0,1,43.78,29.27Z"/></g></g></g></svg>