<svg xmlns="http://www.w3.org/2000/svg" viewBox="0 0 63.87 65.03"><defs><style>.cls-1{fill:#f4f6f8;}.cls-2{fill:#a0cfd3;}.cls-3{fill:#1a1a35;}.cls-4{fill:#a4e6ed;}.cls-5{fill:#83deed;}.cls-6{fill:#66cbe2;}.cls-7{fill:#4ab4d1;}.cls-8{fill:#309ec4;}.cls-9{fill:#1d8bbc;}.cls-10{fill:#0f79b3;}</style></defs><title>Asset 20icon-</title><g id="Layer_2" data-name="Layer 2"><g id="Icons"><g id="Analytics"><path class="cls-1" d="M35.24,64.94c-8,.45-19.32-.68-25.2-5.51C3.14,53.76.6,50.79,0,40.95c-.42-7.46,2-19.42,5.7-25.17C11.08,7.49,19.06.62,29.39,0,36.5-.36,49.78,2.36,55.3,6.18c8,5.58,7.74,9,8.35,19.8.57,10.25.68,23.66-7.35,29.95C50.61,60.39,42.89,64.51,35.24,64.94Z"/><path class="cls-2" d="M5.81,49.46V38.16c0-.37.41-.67.91-.67h4.43c.5,0,.91.3.91.67v11"/><path class="cls-3" d="M5.78,49.46a57.89,57.89,0,0,1-.27-7.29c.05-1.22.16-2.43.19-3.65a4,4,0,0,1,0-.48A.78.78,0,0,1,6,37.6a1.43,1.43,0,0,1,.94-.24c.61,0,1.22,0,1.82-.07s1.22-.08,1.82-.09a3.65,3.65,0,0,1,1,0,1,1,0,0,1,.81,1c0,1.22.06,2.43,0,3.65,0,2.43-.12,4.86-.36,7.29H12c-.24-2.43-.32-4.86-.36-7.29,0-1.22,0-2.43,0-3.65,0-.11-.1-.24-.3-.32a3.4,3.4,0,0,0-.81-.07c-.61,0-1.22-.06-1.82-.09s-1.22-.07-1.82-.07a1.18,1.18,0,0,0-.8.16c-.25.15-.22.41-.21.73,0,1.22.14,2.43.19,3.65a57.89,57.89,0,0,1-.27,7.29Z"/><path class="cls-4" d="M12.05,49.12V30.82A.89.89,0,0,1,13,30h4.53a.89.89,0,0,1,.93.85V49.46"/><path class="cls-3" d="M12,49.12c-.25-3.69-.31-7.37-.28-11.06,0-1.84.12-3.69.17-5.53l0-1.38a1.52,1.52,0,0,1,.11-.73,1.07,1.07,0,0,1,.58-.5,2.2,2.2,0,0,1,.72-.07H14c.46,0,.92,0,1.38,0l1.38,0,.69,0a1.25,1.25,0,0,1,.81.26,1.09,1.09,0,0,1,.43.8l0,.7,0,1.38c0,1.84.07,3.69.06,5.53,0,3.69-.12,7.37-.36,11.06H18.4c-.24-3.69-.34-7.37-.36-11.06,0-1.84,0-3.69.06-5.53l0-1.38,0-.68a.55.55,0,0,0-.19-.4.72.72,0,0,0-.47-.18l-.69,0-1.38,0c-.46,0-.92,0-1.38,0h-.69a2,2,0,0,0-.65,0,.76.76,0,0,0-.45.38,1.33,1.33,0,0,0-.06.63l0,1.38c0,1.84.16,3.69.17,5.53,0,3.69,0,7.37-.28,11.06Z"/><path class="cls-5" d="M18.43,49.46V28.16a.87.87,0,0,1,.93-.79h4.53a.87.87,0,0,1,.93.79v21.3"/><path class="cls-3" d="M18.4,49.46c-.25-4.15-.31-8.3-.28-12.46,0-2.08.13-4.15.17-6.23l0-1.56v-.78a1.12,1.12,0,0,1,.2-.81,1.09,1.09,0,0,1,.76-.38h.79l1.56,0,1.56,0,.79,0a1.23,1.23,0,0,1,.88.4,1,1,0,0,1,.24.48,3.55,3.55,0,0,1,0,.44l0,.78,0,1.56c0,2.08.07,4.15,0,6.23q0,6.23-.35,12.46h-.07q-.35-6.23-.35-12.46c0-2.08,0-4.15,0-6.23l0-1.56,0-.78c0-.31,0-.41-.09-.56a.71.71,0,0,0-.49-.26l-.76,0-1.56,0-1.56,0c-.52,0-1.07-.11-1.37.27a.84.84,0,0,0-.15.66v.78l0,1.56c0,2.08.15,4.15.17,6.23,0,4.15,0,8.3-.28,12.46Z"/><path class="cls-6" d="M24.82,49.46V30.8c0-.33.42-.59.93-.59h4.53c.51,0,.93.27.93.59V49.46"/><path class="cls-3" d="M24.78,49.46c-.25-3.69-.31-7.38-.28-11.06,0-1.84.13-3.69.17-5.53l0-1.38v-.7a.74.74,0,0,1,.51-.59,1.77,1.77,0,0,1,.72-.11h.69c.46,0,.92,0,1.38,0l1.38,0,.69,0a1.86,1.86,0,0,1,.78.09.88.88,0,0,1,.63.73l0,.7,0,1.38c0,1.84.07,3.69.06,5.53,0,3.69-.12,7.38-.36,11.06h-.07c-.24-3.69-.34-7.38-.36-11.06,0-1.84,0-3.69.06-5.53l0-1.38,0-.68s-.08-.18-.25-.24a4.52,4.52,0,0,0-1.27-.12l-1.38,0c-.46,0-.92,0-1.38,0a4.73,4.73,0,0,0-1.33.07c-.19.07-.37.22-.36.38v.69l0,1.38c0,1.84.15,3.69.17,5.53,0,3.69,0,7.38-.28,11.06Z"/><path class="cls-7" d="M31.2,49.46V29.08c0-.31.42-.56.93-.56h4.53c.51,0,.93.26.93.56V49.46"/><path class="cls-3" d="M31.16,49.46c-.24-4-.28-7.94-.29-11.91,0-2,.08-4,.14-6l0-1.49v-.74a2,2,0,0,1,0-.41.65.65,0,0,1,.29-.35,1.41,1.41,0,0,1,.78-.19h.74l1.49,0,1.49,0,.74,0a1.49,1.49,0,0,1,.84.19.76.76,0,0,1,.34.41.61.61,0,0,1,0,.16v.28l0,.74,0,1.49c0,2,.08,4,.07,6,0,4-.11,7.94-.36,11.91h-.08c-.25-4-.36-7.94-.36-11.91,0-2,0-4,.07-6l0-1.49,0-.74c0-.32.05-.33-.11-.46s-.83-.16-1.33-.2l-1.49,0-1.49,0a2.62,2.62,0,0,0-1.39.17c-.2.12-.19.26-.18.55v.74l0,1.49c.06,2,.13,4,.14,6,0,4-.05,7.94-.29,11.91Z"/><path class="cls-8" d="M37.58,49.46V24.58c0-.33.42-.61.93-.61H43c.51,0,.93.28.93.61V49.46"/><path class="cls-3" d="M37.55,49.46c-.24-4.73-.27-9.45-.29-14.18,0-2.36.06-4.73.13-7.09,0-1.18.07-2.36.07-3.54a.78.78,0,0,1,.64-.73,3.36,3.36,0,0,1,.92-.05l1.77,0,1.77,0a3.3,3.3,0,0,1,.94,0,1.14,1.14,0,0,1,.47.25.71.71,0,0,1,.23.54l.1,3.54c0,2.36.08,4.73.08,7.09,0,4.73-.1,9.45-.36,14.18h-.07c-.26-4.73-.36-9.45-.36-14.18,0-2.36,0-4.73.08-7.09l.1-3.54c0-.19-.14-.35-.38-.43a3.08,3.08,0,0,0-.82-.07l-1.77,0-1.77,0a3.16,3.16,0,0,0-.84.06c-.25.08-.47.25-.44.49,0,1.18,0,2.36.07,3.54.07,2.36.12,4.73.12,7.09,0,4.73-.06,9.45-.3,14.18Z"/><path class="cls-9" d="M44,49.46v-30a.85.85,0,0,1,.93-.73h4.53a.85.85,0,0,1,.93.73v30"/><path class="cls-3" d="M43.93,49.46c-.24-5.6-.27-11.2-.29-16.8,0-2.8.06-5.6.13-8.4,0-1.4.07-2.8.07-4.2v-.52A.81.81,0,0,1,44,19a1.21,1.21,0,0,1,1-.38l2.1,0,2.1,0a1.26,1.26,0,0,1,1.09.39.88.88,0,0,1,.2.61v.52l.09,4.2c.06,2.8.08,5.6.09,8.4,0,5.6-.1,11.2-.36,16.8h-.07c-.26-5.6-.36-11.2-.36-16.8,0-2.8,0-5.6.09-8.4l.09-4.2v-.52a.48.48,0,0,0-.09-.37.92.92,0,0,0-.8-.3l-2.1,0-2.1,0a1,1,0,0,0-.85.31c-.19.21-.08.59-.1.94,0,1.4,0,2.8.07,4.2.07,2.8.12,5.6.13,8.4,0,5.6-.06,11.2-.29,16.8Z"/><path class="cls-10" d="M50.35,49.46V13.27a.91.91,0,0,1,.93-.88H55.8a.91.91,0,0,1,.93.88V49.46"/><path class="cls-3" d="M50.31,49.46C50.07,42.81,50,36.17,50,29.52c0-3.32.06-6.65.13-10l.07-5V13.32a1,1,0,0,1,.8-1c.88-.06,1.67,0,2.52,0s1.63,0,2.53,0a1.08,1.08,0,0,1,.85,1.07l0,1.25.09,5c.06,3.32.08,6.65.09,10,0,6.65-.1,13.29-.36,19.94h-.08c-.26-6.65-.36-13.29-.36-19.94,0-3.32,0-6.65.09-10l.09-5,0-1.25a.73.73,0,0,0-.55-.75c-.75-.07-1.64,0-2.45-.05s-1.69,0-2.46,0-.54,1.26-.59,2l.07,5c.07,3.32.12,6.65.13,10,0,6.65-.06,13.29-.29,19.94Z"/><path class="cls-3" d="M5.81,49.42c4.24-.25,8.49-.33,12.73-.27,2.12,0,4.24.17,6.36.18s4.24,0,6.36-.08c4.24-.14,8.49-.21,12.73-.18s8.49.12,12.73.35a0,0,0,0,1,0,.08c-4.24.23-8.49.34-12.73.35s-8.49,0-12.73-.18c-2.12-.06-4.24-.11-6.36-.08s-4.24.13-6.36.18c-4.24.06-8.49,0-12.73-.27a0,0,0,0,1,0-.08Z"/></g></g></g></svg>